<svg width="866" height="801" viewBox="0 0 866 801" fill="none" xmlns="http://www.w3.org/2000/svg">
<g filter="url(#filter0_ddddii_1_291)">
<g clip-path="url(#clip0_1_291)">
<rect x="82.0278" y="177.608" width="606" height="416" rx="40" fill="white"/>
<line x1="80.5278" y1="254.687" x2="689.528" y2="254.687" stroke="#121212" stroke-opacity="0.1"/>
<circle cx="116.153" cy="223.152" r="10" fill="#FD1919"/>
<circle cx="148.153" cy="223.152" r="10" fill="#FBC60D"/>
<circle cx="180.153" cy="223.152" r="10" fill="#95FB13"/>
<rect x="218.153" y="211.696" width="324.25" height="22.912" rx="11.456" fill="#121212" fill-opacity="0.1"/>
<rect x="570.403" y="211.696" width="93.5" height="22.912" rx="11.456" fill="#020024"/>
<circle cx="100.778" cy="286.608" r="8" fill="white" fill-opacity="0.5"/>
<rect x="115.778" y="278.608" width="102" height="16" rx="5" fill="white" fill-opacity="0.5"/>
<circle cx="100.778" cy="318.608" r="8" fill="white" fill-opacity="0.5"/>
<rect x="115.778" y="310.608" width="102" height="16" rx="5" fill="white" fill-opacity="0.5"/>
<circle cx="100.778" cy="350.608" r="8" fill="white" fill-opacity="0.5"/>
<rect x="115.778" y="342.608" width="102" height="16" rx="5" fill="white" fill-opacity="0.5"/>
<g filter="url(#filter1_ddddii_1_291)">
<rect x="102.028" y="278.608" width="566" height="273" rx="20" fill="white"/>
<rect x="101.528" y="278.108" width="567" height="274" rx="20.5" stroke="#121212" stroke-opacity="0.1" stroke-dasharray="5 5"/>
</g>
</g>
</g>
<path d="M-1.24603 484.242V490.422C-1.24603 491.11 -1.45803 491.662 -1.88203 492.078C-2.30603 492.486 -2.86603 492.69 -3.56203 492.69C-4.26603 492.69 -4.83003 492.482 -5.25403 492.066C-5.67803 491.642 -5.89003 491.066 -5.89003 490.338H-4.79803C-4.79003 490.746 -4.68603 491.078 -4.48603 491.334C-4.27803 491.59 -3.97003 491.718 -3.56203 491.718C-3.15403 491.718 -2.85003 491.598 -2.65003 491.358C-2.45003 491.11 -2.35003 490.798 -2.35003 490.422V484.242H-1.24603ZM0.506847 489.294C0.506847 488.622 0.642847 488.034 0.914847 487.53C1.18685 487.018 1.55885 486.622 2.03085 486.342C2.51085 486.062 3.04285 485.922 3.62685 485.922C4.20285 485.922 4.70285 486.046 5.12685 486.294C5.55085 486.542 5.86685 486.854 6.07485 487.23V486.03H7.17885V492.606H6.07485V491.382C5.85885 491.766 5.53485 492.086 5.10285 492.342C4.67885 492.59 4.18285 492.714 3.61485 492.714C3.03085 492.714 2.50285 492.57 2.03085 492.282C1.55885 491.994 1.18685 491.59 0.914847 491.07C0.642847 490.55 0.506847 489.958 0.506847 489.294ZM6.07485 489.306C6.07485 488.81 5.97485 488.378 5.77485 488.01C5.57485 487.642 5.30285 487.362 4.95885 487.17C4.62285 486.97 4.25085 486.87 3.84285 486.87C3.43485 486.87 3.06285 486.966 2.72685 487.158C2.39085 487.35 2.12285 487.63 1.92285 487.998C1.72285 488.366 1.62285 488.798 1.62285 489.294C1.62285 489.798 1.72285 490.238 1.92285 490.614C2.12285 490.982 2.39085 491.266 2.72685 491.466C3.06285 491.658 3.43485 491.754 3.84285 491.754C4.25085 491.754 4.62285 491.658 4.95885 491.466C5.30285 491.266 5.57485 490.982 5.77485 490.614C5.97485 490.238 6.07485 489.802 6.07485 489.306ZM12.2378 485.91C13.0378 485.91 13.6858 486.154 14.1818 486.642C14.6778 487.122 14.9258 487.818 14.9258 488.73V492.606H13.8458V488.886C13.8458 488.23 13.6818 487.73 13.3538 487.386C13.0258 487.034 12.5778 486.858 12.0098 486.858C11.4338 486.858 10.9738 487.038 10.6298 487.398C10.2938 487.758 10.1258 488.282 10.1258 488.97V492.606H9.03382V486.03H10.1258V486.966C10.3418 486.63 10.6338 486.37 11.0018 486.186C11.3778 486.002 11.7898 485.91 12.2378 485.91Z" fill="#121212"/>
<path d="M66.1221 484.242V485.13H62.4861V487.95H65.4381V488.838H62.4861V492.606H61.3941V484.242H66.1221ZM73.4506 489.066C73.4506 489.274 73.4386 489.494 73.4146 489.726H68.1586C68.1986 490.374 68.4186 490.882 68.8186 491.25C69.2266 491.61 69.7186 491.79 70.2946 491.79C70.7666 491.79 71.1586 491.682 71.4706 491.466C71.7906 491.242 72.0146 490.946 72.1426 490.578H73.3186C73.1426 491.21 72.7906 491.726 72.2626 492.126C71.7346 492.518 71.0786 492.714 70.2946 492.714C69.6706 492.714 69.1106 492.574 68.6146 492.294C68.1266 492.014 67.7426 491.618 67.4626 491.106C67.1826 490.586 67.0426 489.986 67.0426 489.306C67.0426 488.626 67.1786 488.03 67.4506 487.518C67.7226 487.006 68.1026 486.614 68.5906 486.342C69.0866 486.062 69.6546 485.922 70.2946 485.922C70.9186 485.922 71.4706 486.058 71.9506 486.33C72.4306 486.602 72.7986 486.978 73.0546 487.458C73.3186 487.93 73.4506 488.466 73.4506 489.066ZM72.3226 488.838C72.3226 488.422 72.2306 488.066 72.0466 487.77C71.8626 487.466 71.6106 487.238 71.2906 487.086C70.9786 486.926 70.6306 486.846 70.2466 486.846C69.6946 486.846 69.2226 487.022 68.8306 487.374C68.4466 487.726 68.2266 488.214 68.1706 488.838H72.3226ZM75.9936 487.254C76.2176 486.862 76.5456 486.542 76.9776 486.294C77.4096 486.046 77.9016 485.922 78.4536 485.922C79.0456 485.922 79.5776 486.062 80.0496 486.342C80.5216 486.622 80.8936 487.018 81.1656 487.53C81.4376 488.034 81.5736 488.622 81.5736 489.294C81.5736 489.958 81.4376 490.55 81.1656 491.07C80.8936 491.59 80.5176 491.994 80.0376 492.282C79.5656 492.57 79.0376 492.714 78.4536 492.714C77.8856 492.714 77.3856 492.59 76.9536 492.342C76.5296 492.094 76.2096 491.778 75.9936 491.394V492.606H74.9016V483.726H75.9936V487.254ZM80.4576 489.294C80.4576 488.798 80.3576 488.366 80.1576 487.998C79.9576 487.63 79.6856 487.35 79.3416 487.158C79.0056 486.966 78.6336 486.87 78.2256 486.87C77.8256 486.87 77.4536 486.97 77.1096 487.17C76.7736 487.362 76.5016 487.646 76.2936 488.022C76.0936 488.39 75.9936 488.818 75.9936 489.306C75.9936 489.802 76.0936 490.238 76.2936 490.614C76.5016 490.982 76.7736 491.266 77.1096 491.466C77.4536 491.658 77.8256 491.754 78.2256 491.754C78.6336 491.754 79.0056 491.658 79.3416 491.466C79.6856 491.266 79.9576 490.982 80.1576 490.614C80.3576 490.238 80.4576 489.798 80.4576 489.294Z" fill="#121212"/>
<path d="M137.814 484.302V492.606H136.722V486.414L133.962 492.606H133.194L130.422 486.402V492.606H129.33V484.302H130.506L133.578 491.166L136.65 484.302H137.814ZM139.268 489.294C139.268 488.622 139.404 488.034 139.676 487.53C139.948 487.018 140.32 486.622 140.792 486.342C141.272 486.062 141.804 485.922 142.388 485.922C142.964 485.922 143.464 486.046 143.888 486.294C144.312 486.542 144.628 486.854 144.836 487.23V486.03H145.94V492.606H144.836V491.382C144.62 491.766 144.296 492.086 143.864 492.342C143.44 492.59 142.944 492.714 142.376 492.714C141.792 492.714 141.264 492.57 140.792 492.282C140.32 491.994 139.948 491.59 139.676 491.07C139.404 490.55 139.268 489.958 139.268 489.294ZM144.836 489.306C144.836 488.81 144.736 488.378 144.536 488.01C144.336 487.642 144.064 487.362 143.72 487.17C143.384 486.97 143.012 486.87 142.604 486.87C142.196 486.87 141.824 486.966 141.488 487.158C141.152 487.35 140.884 487.63 140.684 487.998C140.484 488.366 140.384 488.798 140.384 489.294C140.384 489.798 140.484 490.238 140.684 490.614C140.884 490.982 141.152 491.266 141.488 491.466C141.824 491.658 142.196 491.754 142.604 491.754C143.012 491.754 143.384 491.658 143.72 491.466C144.064 491.266 144.336 490.982 144.536 490.614C144.736 490.238 144.836 489.802 144.836 489.306ZM148.887 487.098C149.079 486.722 149.351 486.43 149.703 486.222C150.063 486.014 150.499 485.91 151.011 485.91V487.038H150.723C149.499 487.038 148.887 487.702 148.887 489.03V492.606H147.795V486.03H148.887V487.098Z" fill="#121212"/>
<path d="M204.875 490.746H201.227L200.555 492.606H199.403L202.427 484.29H203.687L206.699 492.606H205.547L204.875 490.746ZM204.563 489.858L203.051 485.634L201.539 489.858H204.563ZM209.119 487.242C209.335 486.866 209.655 486.554 210.079 486.306C210.511 486.05 211.011 485.922 211.579 485.922C212.163 485.922 212.691 486.062 213.163 486.342C213.643 486.622 214.019 487.018 214.291 487.53C214.563 488.034 214.699 488.622 214.699 489.294C214.699 489.958 214.563 490.55 214.291 491.07C214.019 491.59 213.643 491.994 213.163 492.282C212.691 492.57 212.163 492.714 211.579 492.714C211.019 492.714 210.523 492.59 210.091 492.342C209.667 492.086 209.343 491.77 209.119 491.394V495.726H208.027V486.03H209.119V487.242ZM213.583 489.294C213.583 488.798 213.483 488.366 213.283 487.998C213.083 487.63 212.811 487.35 212.467 487.158C212.131 486.966 211.759 486.87 211.351 486.87C210.951 486.87 210.579 486.97 210.235 487.17C209.899 487.362 209.627 487.646 209.419 488.022C209.219 488.39 209.119 488.818 209.119 489.306C209.119 489.802 209.219 490.238 209.419 490.614C209.627 490.982 209.899 491.266 210.235 491.466C210.579 491.658 210.951 491.754 211.351 491.754C211.759 491.754 212.131 491.658 212.467 491.466C212.811 491.266 213.083 490.982 213.283 490.614C213.483 490.238 213.583 489.798 213.583 489.294ZM217.238 487.098C217.43 486.722 217.702 486.43 218.054 486.222C218.414 486.014 218.85 485.91 219.362 485.91V487.038H219.074C217.85 487.038 217.238 487.702 217.238 489.03V492.606H216.146V486.03H217.238V487.098Z" fill="#121212"/>
<path d="M273.687 484.302V492.606H272.595V486.414L269.835 492.606H269.067L266.295 486.402V492.606H265.203V484.302H266.379L269.451 491.166L272.523 484.302H273.687ZM275.141 489.294C275.141 488.622 275.277 488.034 275.549 487.53C275.821 487.018 276.193 486.622 276.665 486.342C277.145 486.062 277.677 485.922 278.261 485.922C278.837 485.922 279.337 486.046 279.761 486.294C280.185 486.542 280.501 486.854 280.709 487.23V486.03H281.813V492.606H280.709V491.382C280.493 491.766 280.169 492.086 279.737 492.342C279.313 492.59 278.817 492.714 278.249 492.714C277.665 492.714 277.137 492.57 276.665 492.282C276.193 491.994 275.821 491.59 275.549 491.07C275.277 490.55 275.141 489.958 275.141 489.294ZM280.709 489.306C280.709 488.81 280.609 488.378 280.409 488.01C280.209 487.642 279.937 487.362 279.593 487.17C279.257 486.97 278.885 486.87 278.477 486.87C278.069 486.87 277.697 486.966 277.361 487.158C277.025 487.35 276.757 487.63 276.557 487.998C276.357 488.366 276.257 488.798 276.257 489.294C276.257 489.798 276.357 490.238 276.557 490.614C276.757 490.982 277.025 491.266 277.361 491.466C277.697 491.658 278.069 491.754 278.477 491.754C278.885 491.754 279.257 491.658 279.593 491.466C279.937 491.266 280.209 490.982 280.409 490.614C280.609 490.238 280.709 489.802 280.709 489.306ZM289.331 486.03L285.371 495.702H284.243L285.539 492.534L282.887 486.03H284.099L286.163 491.358L288.203 486.03H289.331Z" fill="#121212"/>
<path d="M339.52 484.242V490.422C339.52 491.11 339.308 491.662 338.884 492.078C338.46 492.486 337.9 492.69 337.204 492.69C336.5 492.69 335.936 492.482 335.512 492.066C335.088 491.642 334.876 491.066 334.876 490.338H335.968C335.976 490.746 336.08 491.078 336.28 491.334C336.488 491.59 336.796 491.718 337.204 491.718C337.612 491.718 337.916 491.598 338.116 491.358C338.316 491.11 338.416 490.798 338.416 490.422V484.242H339.52ZM347.513 486.03V492.606H346.421V491.634C346.213 491.97 345.921 492.234 345.545 492.426C345.177 492.61 344.769 492.702 344.321 492.702C343.809 492.702 343.349 492.598 342.941 492.39C342.533 492.174 342.209 491.854 341.969 491.43C341.737 491.006 341.621 490.49 341.621 489.882V486.03H342.701V489.738C342.701 490.386 342.865 490.886 343.193 491.238C343.521 491.582 343.969 491.754 344.537 491.754C345.121 491.754 345.581 491.574 345.917 491.214C346.253 490.854 346.421 490.33 346.421 489.642V486.03H347.513ZM352.57 485.91C353.37 485.91 354.018 486.154 354.514 486.642C355.01 487.122 355.258 487.818 355.258 488.73V492.606H354.178V488.886C354.178 488.23 354.014 487.73 353.686 487.386C353.358 487.034 352.91 486.858 352.342 486.858C351.766 486.858 351.306 487.038 350.962 487.398C350.626 487.758 350.458 488.282 350.458 488.97V492.606H349.366V486.03H350.458V486.966C350.674 486.63 350.966 486.37 351.334 486.186C351.71 486.002 352.122 485.91 352.57 485.91Z" fill="#121212"/>
<path d="M407.456 484.242V490.422C407.456 491.11 407.244 491.662 406.82 492.078C406.396 492.486 405.836 492.69 405.14 492.69C404.436 492.69 403.872 492.482 403.448 492.066C403.024 491.642 402.812 491.066 402.812 490.338H403.904C403.912 490.746 404.016 491.078 404.216 491.334C404.424 491.59 404.732 491.718 405.14 491.718C405.548 491.718 405.852 491.598 406.052 491.358C406.252 491.11 406.352 490.798 406.352 490.422V484.242H407.456ZM415.449 486.03V492.606H414.357V491.634C414.149 491.97 413.857 492.234 413.481 492.426C413.113 492.61 412.705 492.702 412.257 492.702C411.745 492.702 411.285 492.598 410.877 492.39C410.469 492.174 410.145 491.854 409.905 491.43C409.673 491.006 409.557 490.49 409.557 489.882V486.03H410.637V489.738C410.637 490.386 410.801 490.886 411.129 491.238C411.457 491.582 411.905 491.754 412.473 491.754C413.057 491.754 413.517 491.574 413.853 491.214C414.189 490.854 414.357 490.33 414.357 489.642V486.03H415.449ZM418.394 483.726V492.606H417.302V483.726H418.394Z" fill="#121212"/>
<path d="M476.124 490.746H472.476L471.804 492.606H470.652L473.676 484.29H474.936L477.948 492.606H476.796L476.124 490.746ZM475.812 489.858L474.3 485.634L472.788 489.858H475.812ZM485.108 486.03V492.606H484.016V491.634C483.808 491.97 483.516 492.234 483.14 492.426C482.772 492.61 482.364 492.702 481.916 492.702C481.404 492.702 480.944 492.598 480.536 492.39C480.128 492.174 479.804 491.854 479.564 491.43C479.332 491.006 479.216 490.49 479.216 489.882V486.03H480.296V489.738C480.296 490.386 480.46 490.886 480.788 491.238C481.116 491.582 481.564 491.754 482.132 491.754C482.716 491.754 483.176 491.574 483.512 491.214C483.848 490.854 484.016 490.33 484.016 489.642V486.03H485.108ZM489.673 485.922C490.241 485.922 490.737 486.046 491.161 486.294C491.593 486.542 491.913 486.854 492.121 487.23V486.03H493.225V492.75C493.225 493.35 493.097 493.882 492.841 494.346C492.585 494.818 492.217 495.186 491.737 495.45C491.265 495.714 490.713 495.846 490.081 495.846C489.217 495.846 488.497 495.642 487.921 495.234C487.345 494.826 487.005 494.27 486.901 493.566H487.981C488.101 493.966 488.349 494.286 488.725 494.526C489.101 494.774 489.553 494.898 490.081 494.898C490.681 494.898 491.169 494.71 491.545 494.334C491.929 493.958 492.121 493.43 492.121 492.75V491.37C491.905 491.754 491.585 492.074 491.161 492.33C490.737 492.586 490.241 492.714 489.673 492.714C489.089 492.714 488.557 492.57 488.077 492.282C487.605 491.994 487.233 491.59 486.961 491.07C486.689 490.55 486.553 489.958 486.553 489.294C486.553 488.622 486.689 488.034 486.961 487.53C487.233 487.018 487.605 486.622 488.077 486.342C488.557 486.062 489.089 485.922 489.673 485.922ZM492.121 489.306C492.121 488.81 492.021 488.378 491.821 488.01C491.621 487.642 491.349 487.362 491.005 487.17C490.669 486.97 490.297 486.87 489.889 486.87C489.481 486.87 489.109 486.966 488.773 487.158C488.437 487.35 488.169 487.63 487.969 487.998C487.769 488.366 487.669 488.798 487.669 489.294C487.669 489.798 487.769 490.238 487.969 490.614C488.169 490.982 488.437 491.266 488.773 491.466C489.109 491.658 489.481 491.754 489.889 491.754C490.297 491.754 490.669 491.658 491.005 491.466C491.349 491.266 491.621 490.982 491.821 490.614C492.021 490.238 492.121 489.802 492.121 489.306Z" fill="#121212"/>
<path d="M541.769 492.69C541.217 492.69 540.721 492.594 540.281 492.402C539.849 492.202 539.509 491.93 539.261 491.586C539.013 491.234 538.885 490.83 538.877 490.374H540.041C540.081 490.766 540.241 491.098 540.521 491.37C540.809 491.634 541.225 491.766 541.769 491.766C542.289 491.766 542.697 491.638 542.993 491.382C543.297 491.118 543.449 490.782 543.449 490.374C543.449 490.054 543.361 489.794 543.185 489.594C543.009 489.394 542.789 489.242 542.525 489.138C542.261 489.034 541.905 488.922 541.457 488.802C540.905 488.658 540.461 488.514 540.125 488.37C539.797 488.226 539.513 488.002 539.273 487.698C539.041 487.386 538.925 486.97 538.925 486.45C538.925 485.994 539.041 485.59 539.273 485.238C539.505 484.886 539.829 484.614 540.245 484.422C540.669 484.23 541.153 484.134 541.697 484.134C542.481 484.134 543.121 484.33 543.617 484.722C544.121 485.114 544.405 485.634 544.469 486.282H543.269C543.229 485.962 543.061 485.682 542.765 485.442C542.469 485.194 542.077 485.07 541.589 485.07C541.133 485.07 540.761 485.19 540.473 485.43C540.185 485.662 540.041 485.99 540.041 486.414C540.041 486.718 540.125 486.966 540.293 487.158C540.469 487.35 540.681 487.498 540.929 487.602C541.185 487.698 541.541 487.81 541.997 487.938C542.549 488.09 542.993 488.242 543.329 488.394C543.665 488.538 543.953 488.766 544.193 489.078C544.433 489.382 544.553 489.798 544.553 490.326C544.553 490.734 544.445 491.118 544.229 491.478C544.013 491.838 543.693 492.13 543.269 492.354C542.845 492.578 542.345 492.69 541.769 492.69ZM552.169 489.066C552.169 489.274 552.157 489.494 552.133 489.726H546.877C546.917 490.374 547.137 490.882 547.537 491.25C547.945 491.61 548.437 491.79 549.013 491.79C549.485 491.79 549.877 491.682 550.189 491.466C550.509 491.242 550.733 490.946 550.861 490.578H552.037C551.861 491.21 551.509 491.726 550.981 492.126C550.453 492.518 549.797 492.714 549.013 492.714C548.389 492.714 547.829 492.574 547.333 492.294C546.845 492.014 546.461 491.618 546.181 491.106C545.901 490.586 545.761 489.986 545.761 489.306C545.761 488.626 545.897 488.03 546.169 487.518C546.441 487.006 546.821 486.614 547.309 486.342C547.805 486.062 548.373 485.922 549.013 485.922C549.637 485.922 550.189 486.058 550.669 486.33C551.149 486.602 551.517 486.978 551.773 487.458C552.037 487.93 552.169 488.466 552.169 489.066ZM551.041 488.838C551.041 488.422 550.949 488.066 550.765 487.77C550.581 487.466 550.329 487.238 550.009 487.086C549.697 486.926 549.349 486.846 548.965 486.846C548.413 486.846 547.941 487.022 547.549 487.374C547.165 487.726 546.945 488.214 546.889 488.838H551.041ZM554.712 487.242C554.928 486.866 555.248 486.554 555.672 486.306C556.104 486.05 556.604 485.922 557.172 485.922C557.756 485.922 558.284 486.062 558.756 486.342C559.236 486.622 559.612 487.018 559.884 487.53C560.156 488.034 560.292 488.622 560.292 489.294C560.292 489.958 560.156 490.55 559.884 491.07C559.612 491.59 559.236 491.994 558.756 492.282C558.284 492.57 557.756 492.714 557.172 492.714C556.612 492.714 556.116 492.59 555.684 492.342C555.26 492.086 554.936 491.77 554.712 491.394V495.726H553.62V486.03H554.712V487.242ZM559.176 489.294C559.176 488.798 559.076 488.366 558.876 487.998C558.676 487.63 558.404 487.35 558.06 487.158C557.724 486.966 557.352 486.87 556.944 486.87C556.544 486.87 556.172 486.97 555.828 487.17C555.492 487.362 555.22 487.646 555.012 488.022C554.812 488.39 554.712 488.818 554.712 489.306C554.712 489.802 554.812 490.238 555.012 490.614C555.22 490.982 555.492 491.266 555.828 491.466C556.172 491.658 556.544 491.754 556.944 491.754C557.352 491.754 557.724 491.658 558.06 491.466C558.404 491.266 558.676 490.982 558.876 490.614C559.076 490.238 559.176 489.798 559.176 489.294Z" fill="#121212"/>
<path d="M610.845 492.69C610.069 492.69 609.361 492.51 608.721 492.15C608.081 491.782 607.573 491.274 607.197 490.626C606.829 489.97 606.645 489.234 606.645 488.418C606.645 487.602 606.829 486.87 607.197 486.222C607.573 485.566 608.081 485.058 608.721 484.698C609.361 484.33 610.069 484.146 610.845 484.146C611.629 484.146 612.341 484.33 612.981 484.698C613.621 485.058 614.125 485.562 614.493 486.21C614.861 486.858 615.045 487.594 615.045 488.418C615.045 489.242 614.861 489.978 614.493 490.626C614.125 491.274 613.621 491.782 612.981 492.15C612.341 492.51 611.629 492.69 610.845 492.69ZM610.845 491.742C611.429 491.742 611.953 491.606 612.417 491.334C612.889 491.062 613.257 490.674 613.521 490.17C613.793 489.666 613.929 489.082 613.929 488.418C613.929 487.746 613.793 487.162 613.521 486.666C613.257 486.162 612.893 485.774 612.429 485.502C611.965 485.23 611.437 485.094 610.845 485.094C610.253 485.094 609.725 485.23 609.261 485.502C608.797 485.774 608.429 486.162 608.157 486.666C607.893 487.162 607.761 487.746 607.761 488.418C607.761 489.082 607.893 489.666 608.157 490.17C608.429 490.674 608.797 491.062 609.261 491.334C609.733 491.606 610.261 491.742 610.845 491.742ZM616.088 489.306C616.088 488.626 616.224 488.034 616.496 487.53C616.768 487.018 617.144 486.622 617.624 486.342C618.112 486.062 618.668 485.922 619.292 485.922C620.1 485.922 620.764 486.118 621.284 486.51C621.812 486.902 622.16 487.446 622.328 488.142H621.152C621.04 487.742 620.82 487.426 620.492 487.194C620.172 486.962 619.772 486.846 619.292 486.846C618.668 486.846 618.164 487.062 617.78 487.494C617.396 487.918 617.204 488.522 617.204 489.306C617.204 490.098 617.396 490.71 617.78 491.142C618.164 491.574 618.668 491.79 619.292 491.79C619.772 491.79 620.172 491.678 620.492 491.454C620.812 491.23 621.032 490.91 621.152 490.494H622.328C622.152 491.166 621.8 491.706 621.272 492.114C620.744 492.514 620.084 492.714 619.292 492.714C618.668 492.714 618.112 492.574 617.624 492.294C617.144 492.014 616.768 491.618 616.496 491.106C616.224 490.594 616.088 489.994 616.088 489.306ZM625.127 486.93V490.806C625.127 491.126 625.195 491.354 625.331 491.49C625.467 491.618 625.703 491.682 626.039 491.682H626.843V492.606H625.859C625.251 492.606 624.795 492.466 624.491 492.186C624.187 491.906 624.035 491.446 624.035 490.806V486.93H623.183V486.03H624.035V484.374H625.127V486.03H626.843V486.93H625.127Z" fill="#121212"/>
<path d="M681.565 492.606H680.473L676.081 485.946V492.606H674.989V484.23H676.081L680.473 490.878V484.23H681.565V492.606ZM686.304 492.714C685.688 492.714 685.128 492.574 684.624 492.294C684.128 492.014 683.736 491.618 683.448 491.106C683.168 490.586 683.028 489.986 683.028 489.306C683.028 488.634 683.172 488.042 683.46 487.53C683.756 487.01 684.156 486.614 684.66 486.342C685.164 486.062 685.728 485.922 686.352 485.922C686.976 485.922 687.54 486.062 688.044 486.342C688.548 486.614 688.944 487.006 689.232 487.518C689.528 488.03 689.676 488.626 689.676 489.306C689.676 489.986 689.524 490.586 689.22 491.106C688.924 491.618 688.52 492.014 688.008 492.294C687.496 492.574 686.928 492.714 686.304 492.714ZM686.304 491.754C686.696 491.754 687.064 491.662 687.408 491.478C687.752 491.294 688.028 491.018 688.236 490.65C688.452 490.282 688.56 489.834 688.56 489.306C688.56 488.778 688.456 488.33 688.248 487.962C688.04 487.594 687.768 487.322 687.432 487.146C687.096 486.962 686.732 486.87 686.34 486.87C685.94 486.87 685.572 486.962 685.236 487.146C684.908 487.322 684.644 487.594 684.444 487.962C684.244 488.33 684.144 488.778 684.144 489.306C684.144 489.842 684.24 490.294 684.432 490.662C684.632 491.03 684.896 491.306 685.224 491.49C685.552 491.666 685.912 491.754 686.304 491.754ZM693.57 491.598L695.61 486.03H696.774L694.194 492.606H692.922L690.342 486.03H691.518L693.57 491.598Z" fill="#121212"/>
<path d="M745.529 484.242C746.441 484.242 747.229 484.414 747.893 484.758C748.565 485.094 749.077 485.578 749.429 486.21C749.789 486.842 749.969 487.586 749.969 488.442C749.969 489.298 749.789 490.042 749.429 490.674C749.077 491.298 748.565 491.778 747.893 492.114C747.229 492.442 746.441 492.606 745.529 492.606H742.925V484.242H745.529ZM745.529 491.706C746.609 491.706 747.433 491.422 748.001 490.854C748.569 490.278 748.853 489.474 748.853 488.442C748.853 487.402 748.565 486.59 747.989 486.006C747.421 485.422 746.601 485.13 745.529 485.13H744.017V491.706H745.529ZM757.419 489.066C757.419 489.274 757.407 489.494 757.383 489.726H752.127C752.167 490.374 752.387 490.882 752.787 491.25C753.195 491.61 753.687 491.79 754.263 491.79C754.735 491.79 755.127 491.682 755.439 491.466C755.759 491.242 755.983 490.946 756.111 490.578H757.287C757.111 491.21 756.759 491.726 756.231 492.126C755.703 492.518 755.047 492.714 754.263 492.714C753.639 492.714 753.079 492.574 752.583 492.294C752.095 492.014 751.711 491.618 751.431 491.106C751.151 490.586 751.011 489.986 751.011 489.306C751.011 488.626 751.147 488.03 751.419 487.518C751.691 487.006 752.071 486.614 752.559 486.342C753.055 486.062 753.623 485.922 754.263 485.922C754.887 485.922 755.439 486.058 755.919 486.33C756.399 486.602 756.767 486.978 757.023 487.458C757.287 487.93 757.419 488.466 757.419 489.066ZM756.291 488.838C756.291 488.422 756.199 488.066 756.015 487.77C755.831 487.466 755.579 487.238 755.259 487.086C754.947 486.926 754.599 486.846 754.215 486.846C753.663 486.846 753.191 487.022 752.799 487.374C752.415 487.726 752.195 488.214 752.139 488.838H756.291ZM758.462 489.306C758.462 488.626 758.598 488.034 758.87 487.53C759.142 487.018 759.518 486.622 759.998 486.342C760.486 486.062 761.042 485.922 761.666 485.922C762.474 485.922 763.138 486.118 763.658 486.51C764.186 486.902 764.534 487.446 764.702 488.142H763.526C763.414 487.742 763.194 487.426 762.866 487.194C762.546 486.962 762.146 486.846 761.666 486.846C761.042 486.846 760.538 487.062 760.154 487.494C759.77 487.918 759.578 488.522 759.578 489.306C759.578 490.098 759.77 490.71 760.154 491.142C760.538 491.574 761.042 491.79 761.666 491.79C762.146 491.79 762.546 491.678 762.866 491.454C763.186 491.23 763.406 490.91 763.526 490.494H764.702C764.526 491.166 764.174 491.706 763.646 492.114C763.118 492.514 762.458 492.714 761.666 492.714C761.042 492.714 760.486 492.574 759.998 492.294C759.518 492.014 759.142 491.618 758.87 491.106C758.598 490.594 758.462 489.994 758.462 489.306Z" fill="#121212"/>
<rect x="372.931" y="255.187" width="71.2778" height="324.152" fill="url(#paint0_linear_1_291)"/>
<path d="M-19.2891 517.596H745.166" stroke="#7C7C7C" stroke-width="0.5" stroke-linecap="round" stroke-linejoin="round" stroke-dasharray="5.3 5.3"/>
<path d="M-19.2891 431.841H745.166" stroke="#7C7C7C" stroke-width="0.5" stroke-linecap="round" stroke-linejoin="round" stroke-dasharray="5.3 5.3"/>
<path d="M-19.2891 346.087H745.166" stroke="#7C7C7C" stroke-width="0.5" stroke-linecap="round" stroke-linejoin="round" stroke-dasharray="5.3 5.3"/>
<path d="M-19.2891 260.332H745.166" stroke="#7C7C7C" stroke-width="0.5" stroke-linecap="round" stroke-linejoin="round" stroke-dasharray="5.3 5.3"/>
<path d="M-10.2107 400.004C2.9922 389.225 39.1084 374.133 77.9504 400.004C126.503 432.343 116.138 426.325 167.389 426.325C214.664 426.325 234.867 410.122 293.043 440.211C307.946 447.92 331.691 451.495 376.931 421.813C454.871 370.677 482.98 378.945 536.643 381.201C595.417 381.201 599.25 360.148 660.58 333.073C677.19 327.057 706.577 323.294 742.352 352.624" stroke="url(#paint1_linear_1_291)" stroke-width="2.5" stroke-linecap="round"/>
<path opacity="0.2" fill-rule="evenodd" clip-rule="evenodd" d="M408.57 465.825C419.616 465.825 428.57 456.871 428.57 445.825C428.57 434.78 419.616 425.825 408.57 425.825C397.524 425.825 388.57 434.78 388.57 445.825C388.57 456.871 397.524 465.825 408.57 465.825Z" fill="black"/>
<path fill-rule="evenodd" clip-rule="evenodd" d="M408.57 455.825C414.093 455.825 418.57 451.348 418.57 445.825C418.57 440.302 414.093 435.825 408.57 435.825C403.047 435.825 398.57 440.302 398.57 445.825C398.57 451.348 403.047 455.825 408.57 455.825Z" fill="#020024" stroke="white" stroke-width="3"/>
<g filter="url(#filter2_d_1_291)">
<path d="M333.248 369.523C333.248 365.105 336.83 361.523 341.248 361.523H488.656C493.074 361.523 496.656 365.105 496.656 369.523V396.655C496.656 400.972 493.23 404.511 488.915 404.651L446.945 406.01C444.805 406.079 442.702 406.591 440.77 407.514L417 418.859C415.699 419.48 414.193 419.509 412.868 418.938L380.207 404.87C378.177 403.995 375.983 403.565 373.772 403.608L341.405 404.241C336.926 404.328 333.248 400.722 333.248 396.242V369.523Z" fill="white"/>
</g>
<path d="M392.928 385.19V386.956H388.514V385.19H392.928ZM399.404 377.776V380.081H398.185V377.776H399.404ZM399.256 390.534V392.636H398.037V390.534H399.256ZM400.115 387.972C400.115 387.675 400.06 387.422 399.951 387.214C399.847 387.006 399.675 386.821 399.435 386.659C399.201 386.498 398.883 386.341 398.482 386.19C397.805 385.93 397.209 385.654 396.693 385.362C396.183 385.065 395.784 384.698 395.498 384.261C395.211 383.818 395.068 383.258 395.068 382.581C395.068 381.935 395.222 381.375 395.529 380.901C395.836 380.427 396.261 380.063 396.803 379.808C397.349 379.547 397.985 379.417 398.709 379.417C399.261 379.417 399.761 379.5 400.209 379.667C400.657 379.828 401.042 380.068 401.365 380.386C401.688 380.698 401.935 381.081 402.107 381.534C402.279 381.987 402.365 382.506 402.365 383.089H400.123C400.123 382.776 400.089 382.5 400.021 382.261C399.954 382.021 399.855 381.821 399.724 381.659C399.599 381.498 399.448 381.378 399.271 381.3C399.094 381.216 398.899 381.175 398.685 381.175C398.368 381.175 398.107 381.237 397.904 381.362C397.701 381.487 397.553 381.657 397.459 381.87C397.37 382.078 397.326 382.318 397.326 382.589C397.326 382.854 397.373 383.086 397.467 383.284C397.566 383.482 397.735 383.664 397.974 383.831C398.214 383.993 398.542 384.159 398.959 384.331C399.636 384.591 400.23 384.873 400.74 385.175C401.251 385.477 401.649 385.847 401.935 386.284C402.222 386.722 402.365 387.279 402.365 387.956C402.365 388.628 402.209 389.201 401.896 389.675C401.584 390.144 401.146 390.503 400.584 390.753C400.021 390.998 399.37 391.12 398.631 391.12C398.152 391.12 397.675 391.058 397.201 390.933C396.727 390.802 396.297 390.594 395.912 390.308C395.527 390.021 395.219 389.641 394.99 389.167C394.761 388.688 394.646 388.099 394.646 387.401H396.896C396.896 387.782 396.946 388.099 397.045 388.354C397.144 388.604 397.274 388.805 397.435 388.956C397.602 389.102 397.79 389.206 397.998 389.269C398.206 389.331 398.417 389.362 398.631 389.362C398.964 389.362 399.238 389.302 399.451 389.183C399.67 389.063 399.834 388.899 399.943 388.69C400.058 388.477 400.115 388.237 400.115 387.972ZM405.49 389.245H405.639C406.264 389.245 406.8 389.17 407.248 389.019C407.701 388.862 408.073 388.638 408.365 388.347C408.657 388.055 408.873 387.698 409.014 387.276C409.154 386.849 409.224 386.365 409.224 385.823V383.667C409.224 383.256 409.183 382.894 409.099 382.581C409.021 382.269 408.907 382.011 408.756 381.808C408.61 381.599 408.438 381.443 408.24 381.339C408.047 381.235 407.834 381.183 407.599 381.183C407.349 381.183 407.128 381.245 406.935 381.37C406.743 381.49 406.579 381.654 406.443 381.862C406.313 382.071 406.211 382.31 406.139 382.581C406.071 382.847 406.037 383.125 406.037 383.417C406.037 383.709 406.071 383.987 406.139 384.253C406.206 384.513 406.308 384.745 406.443 384.948C406.579 385.146 406.748 385.305 406.951 385.425C407.154 385.539 407.394 385.597 407.67 385.597C407.935 385.597 408.172 385.547 408.381 385.448C408.594 385.344 408.774 385.209 408.92 385.042C409.071 384.875 409.185 384.69 409.264 384.487C409.347 384.284 409.389 384.078 409.389 383.87L410.131 384.276C410.131 384.641 410.053 385 409.896 385.354C409.74 385.709 409.521 386.032 409.24 386.323C408.964 386.61 408.644 386.839 408.279 387.011C407.915 387.183 407.524 387.269 407.107 387.269C406.576 387.269 406.105 387.172 405.693 386.979C405.282 386.782 404.933 386.511 404.646 386.167C404.365 385.818 404.152 385.412 404.006 384.948C403.86 384.485 403.787 383.982 403.787 383.44C403.787 382.888 403.876 382.37 404.053 381.886C404.235 381.401 404.493 380.974 404.826 380.604C405.165 380.235 405.568 379.946 406.037 379.737C406.511 379.524 407.037 379.417 407.615 379.417C408.193 379.417 408.719 379.529 409.193 379.753C409.667 379.977 410.073 380.295 410.412 380.706C410.751 381.112 411.011 381.599 411.193 382.167C411.381 382.735 411.474 383.365 411.474 384.058V384.839C411.474 385.578 411.394 386.266 411.232 386.901C411.076 387.537 410.839 388.112 410.521 388.628C410.209 389.138 409.818 389.576 409.349 389.94C408.886 390.305 408.347 390.584 407.732 390.776C407.118 390.969 406.43 391.065 405.67 391.065H405.49V389.245ZM415.31 389.058L415.303 390.565C415.303 391.144 415.157 391.727 414.865 392.315C414.579 392.904 414.214 393.386 413.771 393.761L412.599 393.159C412.73 392.92 412.857 392.68 412.982 392.44C413.107 392.201 413.211 391.938 413.295 391.651C413.378 391.365 413.42 391.039 413.42 390.675V389.058H415.31ZM422.506 379.558V390.956H420.256V382.151L417.553 383.011V381.237L422.264 379.558H422.506ZM433.865 384.269V386.237C433.865 387.091 433.774 387.828 433.592 388.448C433.409 389.063 433.146 389.568 432.803 389.964C432.464 390.354 432.06 390.644 431.592 390.831C431.123 391.019 430.602 391.112 430.029 391.112C429.571 391.112 429.144 391.055 428.748 390.94C428.352 390.821 427.995 390.636 427.678 390.386C427.365 390.136 427.094 389.821 426.865 389.44C426.641 389.055 426.469 388.597 426.349 388.065C426.23 387.534 426.17 386.925 426.17 386.237V384.269C426.17 383.414 426.261 382.683 426.443 382.073C426.631 381.459 426.894 380.956 427.232 380.565C427.576 380.175 427.982 379.888 428.451 379.706C428.92 379.519 429.441 379.425 430.014 379.425C430.472 379.425 430.896 379.485 431.287 379.604C431.683 379.719 432.04 379.899 432.357 380.144C432.675 380.388 432.946 380.703 433.17 381.089C433.394 381.469 433.566 381.925 433.685 382.456C433.805 382.982 433.865 383.586 433.865 384.269ZM431.607 386.534V383.964C431.607 383.552 431.584 383.193 431.537 382.886C431.495 382.578 431.43 382.318 431.342 382.104C431.253 381.886 431.144 381.709 431.014 381.573C430.883 381.438 430.735 381.339 430.568 381.276C430.402 381.214 430.217 381.183 430.014 381.183C429.758 381.183 429.532 381.232 429.334 381.331C429.141 381.43 428.977 381.589 428.842 381.808C428.706 382.021 428.602 382.308 428.529 382.667C428.461 383.021 428.428 383.453 428.428 383.964V386.534C428.428 386.946 428.448 387.308 428.49 387.62C428.537 387.933 428.605 388.201 428.693 388.425C428.787 388.644 428.896 388.823 429.021 388.964C429.152 389.099 429.3 389.198 429.467 389.261C429.639 389.323 429.826 389.354 430.029 389.354C430.279 389.354 430.501 389.305 430.693 389.206C430.891 389.102 431.058 388.94 431.193 388.722C431.334 388.498 431.438 388.206 431.506 387.847C431.573 387.487 431.607 387.05 431.607 386.534ZM443.053 384.269V386.237C443.053 387.091 442.961 387.828 442.779 388.448C442.597 389.063 442.334 389.568 441.99 389.964C441.652 390.354 441.248 390.644 440.779 390.831C440.31 391.019 439.79 391.112 439.217 391.112C438.758 391.112 438.331 391.055 437.935 390.94C437.54 390.821 437.183 390.636 436.865 390.386C436.553 390.136 436.282 389.821 436.053 389.44C435.829 389.055 435.657 388.597 435.537 388.065C435.417 387.534 435.357 386.925 435.357 386.237V384.269C435.357 383.414 435.448 382.683 435.631 382.073C435.818 381.459 436.081 380.956 436.42 380.565C436.764 380.175 437.17 379.888 437.639 379.706C438.107 379.519 438.628 379.425 439.201 379.425C439.659 379.425 440.084 379.485 440.474 379.604C440.87 379.719 441.227 379.899 441.545 380.144C441.863 380.388 442.133 380.703 442.357 381.089C442.581 381.469 442.753 381.925 442.873 382.456C442.993 382.982 443.053 383.586 443.053 384.269ZM440.795 386.534V383.964C440.795 383.552 440.771 383.193 440.724 382.886C440.683 382.578 440.618 382.318 440.529 382.104C440.441 381.886 440.331 381.709 440.201 381.573C440.071 381.438 439.922 381.339 439.756 381.276C439.589 381.214 439.404 381.183 439.201 381.183C438.946 381.183 438.719 381.232 438.521 381.331C438.329 381.43 438.165 381.589 438.029 381.808C437.894 382.021 437.79 382.308 437.717 382.667C437.649 383.021 437.615 383.453 437.615 383.964V386.534C437.615 386.946 437.636 387.308 437.678 387.62C437.724 387.933 437.792 388.201 437.881 388.425C437.974 388.644 438.084 388.823 438.209 388.964C438.339 389.099 438.488 389.198 438.654 389.261C438.826 389.323 439.014 389.354 439.217 389.354C439.467 389.354 439.688 389.305 439.881 389.206C440.079 389.102 440.245 388.94 440.381 388.722C440.521 388.498 440.626 388.206 440.693 387.847C440.761 387.487 440.795 387.05 440.795 386.534Z" fill="#CC3333"/>
<g filter="url(#filter3_d_1_291)">
<path d="M-16.2632 414.227C-2.29635 402.843 35.9096 386.906 76.9991 414.227C128.361 448.378 117.396 442.023 171.613 442.023C221.623 442.023 246.985 452.143 278.072 462.248C299.248 469.131 345.349 468.651 393.28 437.258C475.729 383.256 505.465 391.987 562.233 394.37C624.408 394.37 628.463 372.137 693.341 343.545C710.912 337.191 741.999 333.218 779.845 364.191" stroke="url(#paint2_linear_1_291)" stroke-opacity="0.01" stroke-width="4"/>
</g>
<rect x="278" y="148" width="263" height="139" rx="16" fill="#020024"/>
<mask id="path-40-inside-1_1_291" fill="white">
<path d="M278 164C278 155.163 285.163 148 294 148H525C533.837 148 541 155.163 541 164V210H278V164Z"/>
</mask>
<path d="M278 164C278 155.163 285.163 148 294 148H525C533.837 148 541 155.163 541 164V210H278V164Z" fill="white" fill-opacity="0.1"/>
<path d="M278 148H541H278ZM541 211H278V209H541V211ZM278 210V148V210ZM541 148V210V148Z" fill="white" fill-opacity="0.3" mask="url(#path-40-inside-1_1_291)"/>
<path d="M310.47 173.848V175.032H307.43V185H305.974V175.032H302.918V173.848H310.47ZM316.726 185.144C315.905 185.144 315.158 184.957 314.486 184.584C313.825 184.211 313.302 183.683 312.918 183C312.545 182.307 312.358 181.507 312.358 180.6C312.358 179.704 312.55 178.915 312.934 178.232C313.329 177.539 313.862 177.011 314.534 176.648C315.206 176.275 315.958 176.088 316.79 176.088C317.622 176.088 318.374 176.275 319.046 176.648C319.718 177.011 320.246 177.533 320.63 178.216C321.025 178.899 321.222 179.693 321.222 180.6C321.222 181.507 321.019 182.307 320.614 183C320.219 183.683 319.681 184.211 318.998 184.584C318.315 184.957 317.558 185.144 316.726 185.144ZM316.726 183.864C317.249 183.864 317.739 183.741 318.198 183.496C318.657 183.251 319.025 182.883 319.302 182.392C319.59 181.901 319.734 181.304 319.734 180.6C319.734 179.896 319.595 179.299 319.318 178.808C319.041 178.317 318.678 177.955 318.23 177.72C317.782 177.475 317.297 177.352 316.774 177.352C316.241 177.352 315.75 177.475 315.302 177.72C314.865 177.955 314.513 178.317 314.246 178.808C313.979 179.299 313.846 179.896 313.846 180.6C313.846 181.315 313.974 181.917 314.23 182.408C314.497 182.899 314.849 183.267 315.286 183.512C315.723 183.747 316.203 183.864 316.726 183.864ZM325.552 177.432V182.6C325.552 183.027 325.643 183.331 325.824 183.512C326.006 183.683 326.32 183.768 326.768 183.768H327.84V185H326.528C325.718 185 325.11 184.813 324.704 184.44C324.299 184.067 324.096 183.453 324.096 182.6V177.432H322.96V176.232H324.096V174.024H325.552V176.232H327.84V177.432H325.552ZM329.7 180.584C329.7 179.688 329.882 178.904 330.244 178.232C330.607 177.549 331.103 177.021 331.732 176.648C332.372 176.275 333.082 176.088 333.86 176.088C334.628 176.088 335.295 176.253 335.86 176.584C336.426 176.915 336.847 177.331 337.124 177.832V176.232H338.596V185H337.124V183.368C336.836 183.88 336.404 184.307 335.828 184.648C335.263 184.979 334.602 185.144 333.844 185.144C333.066 185.144 332.362 184.952 331.732 184.568C331.103 184.184 330.607 183.645 330.244 182.952C329.882 182.259 329.7 181.469 329.7 180.584ZM337.124 180.6C337.124 179.939 336.991 179.363 336.724 178.872C336.458 178.381 336.095 178.008 335.636 177.752C335.188 177.485 334.692 177.352 334.148 177.352C333.604 177.352 333.108 177.48 332.66 177.736C332.212 177.992 331.855 178.365 331.588 178.856C331.322 179.347 331.188 179.923 331.188 180.584C331.188 181.256 331.322 181.843 331.588 182.344C331.855 182.835 332.212 183.213 332.66 183.48C333.108 183.736 333.604 183.864 334.148 183.864C334.692 183.864 335.188 183.736 335.636 183.48C336.095 183.213 336.458 182.835 336.724 182.344C336.991 181.843 337.124 181.261 337.124 180.6ZM343.153 173.16V185H341.697V173.16H343.153ZM356.764 179.256C357.169 179.32 357.537 179.485 357.868 179.752C358.209 180.019 358.476 180.349 358.668 180.744C358.871 181.139 358.972 181.56 358.972 182.008C358.972 182.573 358.828 183.085 358.54 183.544C358.252 183.992 357.831 184.349 357.276 184.616C356.732 184.872 356.087 185 355.34 185H351.18V173.848H355.18C355.937 173.848 356.583 173.976 357.116 174.232C357.649 174.477 358.049 174.813 358.316 175.24C358.583 175.667 358.716 176.147 358.716 176.68C358.716 177.341 358.535 177.891 358.172 178.328C357.82 178.755 357.351 179.064 356.764 179.256ZM352.636 178.664H355.084C355.767 178.664 356.295 178.504 356.668 178.184C357.041 177.864 357.228 177.421 357.228 176.856C357.228 176.291 357.041 175.848 356.668 175.528C356.295 175.208 355.756 175.048 355.052 175.048H352.636V178.664ZM355.212 183.8C355.937 183.8 356.503 183.629 356.908 183.288C357.313 182.947 357.516 182.472 357.516 181.864C357.516 181.245 357.303 180.76 356.876 180.408C356.449 180.045 355.879 179.864 355.164 179.864H352.636V183.8H355.212ZM361.089 180.584C361.089 179.688 361.27 178.904 361.633 178.232C361.995 177.549 362.491 177.021 363.121 176.648C363.761 176.275 364.47 176.088 365.249 176.088C366.017 176.088 366.683 176.253 367.249 176.584C367.814 176.915 368.235 177.331 368.513 177.832V176.232H369.985V185H368.513V183.368C368.225 183.88 367.793 184.307 367.217 184.648C366.651 184.979 365.99 185.144 365.233 185.144C364.454 185.144 363.75 184.952 363.121 184.568C362.491 184.184 361.995 183.645 361.633 182.952C361.27 182.259 361.089 181.469 361.089 180.584ZM368.513 180.6C368.513 179.939 368.379 179.363 368.113 178.872C367.846 178.381 367.483 178.008 367.025 177.752C366.577 177.485 366.081 177.352 365.537 177.352C364.993 177.352 364.497 177.48 364.049 177.736C363.601 177.992 363.243 178.365 362.977 178.856C362.71 179.347 362.577 179.923 362.577 180.584C362.577 181.256 362.71 181.843 362.977 182.344C363.243 182.835 363.601 183.213 364.049 183.48C364.497 183.736 364.993 183.864 365.537 183.864C366.081 183.864 366.577 183.736 367.025 183.48C367.483 183.213 367.846 182.835 368.113 182.344C368.379 181.843 368.513 181.261 368.513 180.6ZM374.541 173.16V185H373.085V173.16H374.541ZM377.119 180.584C377.119 179.688 377.3 178.904 377.663 178.232C378.025 177.549 378.521 177.021 379.151 176.648C379.791 176.275 380.5 176.088 381.279 176.088C382.047 176.088 382.713 176.253 383.279 176.584C383.844 176.915 384.265 177.331 384.543 177.832V176.232H386.015V185H384.543V183.368C384.255 183.88 383.823 184.307 383.247 184.648C382.681 184.979 382.02 185.144 381.263 185.144C380.484 185.144 379.78 184.952 379.151 184.568C378.521 184.184 378.025 183.645 377.663 182.952C377.3 182.259 377.119 181.469 377.119 180.584ZM384.543 180.6C384.543 179.939 384.409 179.363 384.143 178.872C383.876 178.381 383.513 178.008 383.055 177.752C382.607 177.485 382.111 177.352 381.567 177.352C381.023 177.352 380.527 177.48 380.079 177.736C379.631 177.992 379.273 178.365 379.007 178.856C378.74 179.347 378.607 179.923 378.607 180.584C378.607 181.256 378.74 181.843 379.007 182.344C379.273 182.835 379.631 183.213 380.079 183.48C380.527 183.736 381.023 183.864 381.567 183.864C382.111 183.864 382.607 183.736 383.055 183.48C383.513 183.213 383.876 182.835 384.143 182.344C384.409 181.843 384.543 181.261 384.543 180.6ZM393.387 176.072C394.454 176.072 395.318 176.397 395.979 177.048C396.64 177.688 396.971 178.616 396.971 179.832V185H395.531V180.04C395.531 179.165 395.312 178.499 394.875 178.04C394.438 177.571 393.84 177.336 393.083 177.336C392.315 177.336 391.702 177.576 391.243 178.056C390.795 178.536 390.571 179.235 390.571 180.152V185H389.115V176.232H390.571V177.48C390.859 177.032 391.248 176.685 391.739 176.44C392.24 176.195 392.79 176.072 393.387 176.072ZM399.445 180.6C399.445 179.693 399.627 178.904 399.989 178.232C400.352 177.549 400.853 177.021 401.493 176.648C402.144 176.275 402.885 176.088 403.717 176.088C404.795 176.088 405.68 176.349 406.373 176.872C407.077 177.395 407.541 178.12 407.765 179.048H406.197C406.048 178.515 405.755 178.093 405.317 177.784C404.891 177.475 404.357 177.32 403.717 177.32C402.885 177.32 402.213 177.608 401.701 178.184C401.189 178.749 400.933 179.555 400.933 180.6C400.933 181.656 401.189 182.472 401.701 183.048C402.213 183.624 402.885 183.912 403.717 183.912C404.357 183.912 404.891 183.763 405.317 183.464C405.744 183.165 406.037 182.739 406.197 182.184H407.765C407.531 183.08 407.061 183.8 406.357 184.344C405.653 184.877 404.773 185.144 403.717 185.144C402.885 185.144 402.144 184.957 401.493 184.584C400.853 184.211 400.352 183.683 399.989 183C399.627 182.317 399.445 181.517 399.445 180.6ZM418.348 180.28C418.348 180.557 418.332 180.851 418.3 181.16H411.292C411.346 182.024 411.639 182.701 412.172 183.192C412.716 183.672 413.372 183.912 414.14 183.912C414.77 183.912 415.292 183.768 415.708 183.48C416.135 183.181 416.434 182.787 416.604 182.296H418.172C417.938 183.139 417.468 183.827 416.764 184.36C416.06 184.883 415.186 185.144 414.14 185.144C413.308 185.144 412.562 184.957 411.9 184.584C411.25 184.211 410.738 183.683 410.364 183C409.991 182.307 409.804 181.507 409.804 180.6C409.804 179.693 409.986 178.899 410.348 178.216C410.711 177.533 411.218 177.011 411.868 176.648C412.53 176.275 413.287 176.088 414.14 176.088C414.972 176.088 415.708 176.269 416.348 176.632C416.988 176.995 417.479 177.496 417.82 178.136C418.172 178.765 418.348 179.48 418.348 180.28ZM416.844 179.976C416.844 179.421 416.722 178.947 416.476 178.552C416.231 178.147 415.895 177.843 415.468 177.64C415.052 177.427 414.588 177.32 414.076 177.32C413.34 177.32 412.711 177.555 412.188 178.024C411.676 178.493 411.383 179.144 411.308 179.976H416.844Z" fill="white" fill-opacity="0.8"/>
<path d="M369.201 239.98C369.201 240.673 369.021 241.327 368.661 241.94C368.314 242.54 367.794 243.04 367.101 243.44C366.421 243.827 365.614 244.053 364.681 244.12V245.74H363.401V244.1C362.068 243.98 360.994 243.58 360.181 242.9C359.368 242.207 358.948 241.273 358.921 240.1H361.921C362.001 241.06 362.494 241.64 363.401 241.84V238.02C362.441 237.78 361.668 237.54 361.081 237.3C360.494 237.06 359.988 236.673 359.561 236.14C359.134 235.607 358.921 234.88 358.921 233.96C358.921 232.8 359.334 231.853 360.161 231.12C361.001 230.387 362.081 229.967 363.401 229.86V228.24H364.681V229.86C365.961 229.967 366.981 230.353 367.741 231.02C368.514 231.687 368.948 232.607 369.041 233.78H366.021C365.981 233.393 365.841 233.06 365.601 232.78C365.374 232.487 365.068 232.28 364.681 232.16V235.94C365.681 236.193 366.468 236.44 367.041 236.68C367.628 236.907 368.134 237.287 368.561 237.82C368.988 238.34 369.201 239.06 369.201 239.98ZM361.841 233.82C361.841 234.26 361.974 234.62 362.241 234.9C362.508 235.167 362.894 235.387 363.401 235.56V232.1C362.921 232.167 362.541 232.347 362.261 232.64C361.981 232.933 361.841 233.327 361.841 233.82ZM364.681 241.88C365.188 241.787 365.581 241.58 365.861 241.26C366.154 240.94 366.301 240.553 366.301 240.1C366.301 239.66 366.161 239.307 365.881 239.04C365.601 238.773 365.201 238.553 364.681 238.38V241.88ZM372.287 241.16V238.96L378.827 229.6H382.087V238.72H383.847V241.16H382.087V244H379.287V241.16H372.287ZM379.467 232.6L375.367 238.72H379.467V232.6ZM389.41 241.06L387.07 246.68H385.27L386.57 241.06H389.41ZM391.548 233.26C391.614 231.927 392.081 230.9 392.948 230.18C393.828 229.447 394.981 229.08 396.408 229.08C397.381 229.08 398.214 229.253 398.908 229.6C399.601 229.933 400.121 230.393 400.468 230.98C400.828 231.553 401.008 232.207 401.008 232.94C401.008 233.78 400.788 234.493 400.348 235.08C399.921 235.653 399.408 236.04 398.808 236.24V236.32C399.581 236.56 400.181 236.987 400.608 237.6C401.048 238.213 401.268 239 401.268 239.96C401.268 240.76 401.081 241.473 400.708 242.1C400.348 242.727 399.808 243.22 399.088 243.58C398.381 243.927 397.528 244.1 396.528 244.1C395.021 244.1 393.794 243.72 392.848 242.96C391.901 242.2 391.401 241.08 391.348 239.6H394.068C394.094 240.253 394.314 240.78 394.728 241.18C395.154 241.567 395.734 241.76 396.468 241.76C397.148 241.76 397.668 241.573 398.028 241.2C398.401 240.813 398.588 240.32 398.588 239.72C398.588 238.92 398.334 238.347 397.828 238C397.321 237.653 396.534 237.48 395.468 237.48H394.888V235.18H395.468C397.361 235.18 398.308 234.547 398.308 233.28C398.308 232.707 398.134 232.26 397.788 231.94C397.454 231.62 396.968 231.46 396.328 231.46C395.701 231.46 395.214 231.633 394.868 231.98C394.534 232.313 394.341 232.74 394.288 233.26H391.548ZM413.68 231.84H407.2V235.26C407.48 234.913 407.88 234.633 408.4 234.42C408.92 234.193 409.474 234.08 410.06 234.08C411.127 234.08 412 234.313 412.68 234.78C413.36 235.247 413.854 235.847 414.16 236.58C414.467 237.3 414.62 238.073 414.62 238.9C414.62 240.433 414.18 241.667 413.3 242.6C412.434 243.533 411.194 244 409.58 244C408.06 244 406.847 243.62 405.94 242.86C405.034 242.1 404.52 241.107 404.4 239.88H407.12C407.24 240.413 407.507 240.84 407.92 241.16C408.347 241.48 408.887 241.64 409.54 241.64C410.327 241.64 410.92 241.393 411.32 240.9C411.72 240.407 411.92 239.753 411.92 238.94C411.92 238.113 411.714 237.487 411.3 237.06C410.9 236.62 410.307 236.4 409.52 236.4C408.96 236.4 408.494 236.54 408.12 236.82C407.747 237.1 407.48 237.473 407.32 237.94H404.64V229.38H413.68V231.84ZM426.951 231.84H420.471V235.26C420.751 234.913 421.151 234.633 421.671 234.42C422.191 234.193 422.745 234.08 423.331 234.08C424.398 234.08 425.271 234.313 425.951 234.78C426.631 235.247 427.125 235.847 427.431 236.58C427.738 237.3 427.891 238.073 427.891 238.9C427.891 240.433 427.451 241.667 426.571 242.6C425.705 243.533 424.465 244 422.851 244C421.331 244 420.118 243.62 419.211 242.86C418.305 242.1 417.791 241.107 417.671 239.88H420.391C420.511 240.413 420.778 240.84 421.191 241.16C421.618 241.48 422.158 241.64 422.811 241.64C423.598 241.64 424.191 241.393 424.591 240.9C424.991 240.407 425.191 239.753 425.191 238.94C425.191 238.113 424.985 237.487 424.571 237.06C424.171 236.62 423.578 236.4 422.791 236.4C422.231 236.4 421.765 236.54 421.391 236.82C421.018 237.1 420.751 237.473 420.591 237.94H417.911V229.38H426.951V231.84ZM431.983 244.14C431.476 244.14 431.056 243.987 430.723 243.68C430.403 243.36 430.243 242.967 430.243 242.5C430.243 242.033 430.403 241.647 430.723 241.34C431.056 241.02 431.476 240.86 431.983 240.86C432.476 240.86 432.883 241.02 433.203 241.34C433.523 241.647 433.683 242.033 433.683 242.5C433.683 242.967 433.523 243.36 433.203 243.68C432.883 243.987 432.476 244.14 431.983 244.14ZM438.458 236.28C437.124 235.587 436.458 234.513 436.458 233.06C436.458 232.34 436.638 231.687 436.998 231.1C437.371 230.5 437.924 230.027 438.658 229.68C439.404 229.32 440.311 229.14 441.378 229.14C442.444 229.14 443.344 229.32 444.078 229.68C444.824 230.027 445.378 230.5 445.738 231.1C446.111 231.687 446.298 232.34 446.298 233.06C446.298 233.793 446.118 234.44 445.758 235C445.398 235.547 444.918 235.973 444.318 236.28C445.051 236.6 445.624 237.067 446.038 237.68C446.451 238.293 446.658 239.02 446.658 239.86C446.658 240.767 446.424 241.56 445.958 242.24C445.504 242.907 444.878 243.42 444.078 243.78C443.278 244.14 442.378 244.32 441.378 244.32C440.378 244.32 439.478 244.14 438.678 243.78C437.891 243.42 437.264 242.907 436.798 242.24C436.344 241.56 436.118 240.767 436.118 239.86C436.118 239.02 436.324 238.293 436.738 237.68C437.151 237.053 437.724 236.587 438.458 236.28ZM443.578 233.46C443.578 232.807 443.378 232.3 442.978 231.94C442.591 231.58 442.058 231.4 441.378 231.4C440.711 231.4 440.178 231.58 439.778 231.94C439.391 232.3 439.198 232.813 439.198 233.48C439.198 234.08 439.398 234.56 439.798 234.92C440.211 235.28 440.738 235.46 441.378 235.46C442.018 235.46 442.544 235.28 442.958 234.92C443.371 234.547 443.578 234.06 443.578 233.46ZM441.378 237.5C440.618 237.5 439.998 237.693 439.518 238.08C439.051 238.467 438.818 239.02 438.818 239.74C438.818 240.407 439.044 240.953 439.498 241.38C439.964 241.793 440.591 242 441.378 242C442.164 242 442.784 241.787 443.238 241.36C443.691 240.933 443.918 240.393 443.918 239.74C443.918 239.033 443.684 238.487 443.218 238.1C442.751 237.7 442.138 237.5 441.378 237.5ZM449.269 236.52C449.269 234.213 449.683 232.407 450.509 231.1C451.349 229.793 452.736 229.14 454.669 229.14C456.603 229.14 457.983 229.793 458.809 231.1C459.649 232.407 460.069 234.213 460.069 236.52C460.069 238.84 459.649 240.66 458.809 241.98C457.983 243.3 456.603 243.96 454.669 243.96C452.736 243.96 451.349 243.3 450.509 241.98C449.683 240.66 449.269 238.84 449.269 236.52ZM457.309 236.52C457.309 235.533 457.243 234.707 457.109 234.04C456.989 233.36 456.736 232.807 456.349 232.38C455.976 231.953 455.416 231.74 454.669 231.74C453.923 231.74 453.356 231.953 452.969 232.38C452.596 232.807 452.343 233.36 452.209 234.04C452.089 234.707 452.029 235.533 452.029 236.52C452.029 237.533 452.089 238.387 452.209 239.08C452.329 239.76 452.583 240.313 452.969 240.74C453.356 241.153 453.923 241.36 454.669 241.36C455.416 241.36 455.983 241.153 456.369 240.74C456.756 240.313 457.009 239.76 457.129 239.08C457.249 238.387 457.309 237.533 457.309 236.52Z" fill="white"/>
<path d="M340.044 259.426C340.109 258.567 340.44 257.895 341.038 257.41C341.635 256.925 342.41 256.682 343.362 256.682C343.996 256.682 344.542 256.799 345 257.032C345.466 257.256 345.816 257.564 346.05 257.956C346.292 258.348 346.414 258.791 346.414 259.286C346.414 259.865 346.246 260.364 345.91 260.784C345.583 261.204 345.154 261.475 344.622 261.596V261.666C345.228 261.815 345.709 262.109 346.064 262.548C346.418 262.987 346.596 263.561 346.596 264.27C346.596 264.802 346.474 265.283 346.232 265.712C345.989 266.132 345.625 266.463 345.14 266.706C344.654 266.949 344.071 267.07 343.39 267.07C342.4 267.07 341.588 266.813 340.954 266.3C340.319 265.777 339.964 265.04 339.89 264.088H341.122C341.187 264.648 341.416 265.105 341.808 265.46C342.2 265.815 342.722 265.992 343.376 265.992C344.029 265.992 344.524 265.824 344.86 265.488C345.205 265.143 345.378 264.699 345.378 264.158C345.378 263.458 345.144 262.954 344.678 262.646C344.211 262.338 343.506 262.184 342.564 262.184H342.242V261.12H342.578C343.436 261.111 344.085 260.971 344.524 260.7C344.962 260.42 345.182 259.991 345.182 259.412C345.182 258.917 345.018 258.521 344.692 258.222C344.374 257.923 343.917 257.774 343.32 257.774C342.741 257.774 342.274 257.923 341.92 258.222C341.565 258.521 341.355 258.922 341.29 259.426H340.044ZM348.876 261.834C348.876 260.229 349.137 258.978 349.66 258.082C350.182 257.177 351.097 256.724 352.404 256.724C353.701 256.724 354.611 257.177 355.134 258.082C355.656 258.978 355.918 260.229 355.918 261.834C355.918 263.467 355.656 264.737 355.134 265.642C354.611 266.547 353.701 267 352.404 267C351.097 267 350.182 266.547 349.66 265.642C349.137 264.737 348.876 263.467 348.876 261.834ZM354.658 261.834C354.658 261.022 354.602 260.336 354.49 259.776C354.387 259.207 354.168 258.749 353.832 258.404C353.505 258.059 353.029 257.886 352.404 257.886C351.769 257.886 351.284 258.059 350.948 258.404C350.621 258.749 350.402 259.207 350.29 259.776C350.187 260.336 350.136 261.022 350.136 261.834C350.136 262.674 350.187 263.379 350.29 263.948C350.402 264.517 350.621 264.975 350.948 265.32C351.284 265.665 351.769 265.838 352.404 265.838C353.029 265.838 353.505 265.665 353.832 265.32C354.168 264.975 354.387 264.517 354.49 263.948C354.602 263.379 354.658 262.674 354.658 261.834ZM367.643 257.242V264.452C367.643 265.255 367.396 265.899 366.901 266.384C366.407 266.86 365.753 267.098 364.941 267.098C364.12 267.098 363.462 266.855 362.967 266.37C362.473 265.875 362.225 265.203 362.225 264.354H363.499C363.509 264.83 363.63 265.217 363.863 265.516C364.106 265.815 364.465 265.964 364.941 265.964C365.417 265.964 365.772 265.824 366.005 265.544C366.239 265.255 366.355 264.891 366.355 264.452V257.242H367.643ZM377.517 259.328V267H376.243V265.866C376 266.258 375.66 266.566 375.221 266.79C374.792 267.005 374.316 267.112 373.793 267.112C373.196 267.112 372.659 266.991 372.183 266.748C371.707 266.496 371.329 266.123 371.049 265.628C370.778 265.133 370.643 264.531 370.643 263.822V259.328H371.903V263.654C371.903 264.41 372.094 264.993 372.477 265.404C372.86 265.805 373.382 266.006 374.045 266.006C374.726 266.006 375.263 265.796 375.655 265.376C376.047 264.956 376.243 264.345 376.243 263.542V259.328H377.517ZM383.966 259.188C384.899 259.188 385.655 259.473 386.234 260.042C386.813 260.602 387.102 261.414 387.102 262.478V267H385.842V262.66C385.842 261.895 385.651 261.311 385.268 260.91C384.885 260.499 384.363 260.294 383.7 260.294C383.028 260.294 382.491 260.504 382.09 260.924C381.698 261.344 381.502 261.955 381.502 262.758V267H380.228V259.328H381.502V260.42C381.754 260.028 382.095 259.725 382.524 259.51C382.963 259.295 383.443 259.188 383.966 259.188ZM396.743 262.87C396.743 263.113 396.729 263.369 396.701 263.64H390.569C390.616 264.396 390.872 264.989 391.339 265.418C391.815 265.838 392.389 266.048 393.061 266.048C393.612 266.048 394.069 265.922 394.433 265.67C394.806 265.409 395.068 265.063 395.217 264.634H396.589C396.384 265.371 395.973 265.973 395.357 266.44C394.741 266.897 393.976 267.126 393.061 267.126C392.333 267.126 391.68 266.963 391.101 266.636C390.532 266.309 390.084 265.847 389.757 265.25C389.43 264.643 389.267 263.943 389.267 263.15C389.267 262.357 389.426 261.661 389.743 261.064C390.06 260.467 390.504 260.009 391.073 259.692C391.652 259.365 392.314 259.202 393.061 259.202C393.789 259.202 394.433 259.361 394.993 259.678C395.553 259.995 395.982 260.434 396.281 260.994C396.589 261.545 396.743 262.17 396.743 262.87ZM395.427 262.604C395.427 262.119 395.32 261.703 395.105 261.358C394.89 261.003 394.596 260.737 394.223 260.56C393.859 260.373 393.453 260.28 393.005 260.28C392.361 260.28 391.81 260.485 391.353 260.896C390.905 261.307 390.648 261.876 390.583 262.604H395.427ZM403.067 261.834C403.067 260.229 403.329 258.978 403.851 258.082C404.374 257.177 405.289 256.724 406.595 256.724C407.893 256.724 408.803 257.177 409.325 258.082C409.848 258.978 410.109 260.229 410.109 261.834C410.109 263.467 409.848 264.737 409.325 265.642C408.803 266.547 407.893 267 406.595 267C405.289 267 404.374 266.547 403.851 265.642C403.329 264.737 403.067 263.467 403.067 261.834ZM408.849 261.834C408.849 261.022 408.793 260.336 408.681 259.776C408.579 259.207 408.359 258.749 408.023 258.404C407.697 258.059 407.221 257.886 406.595 257.886C405.961 257.886 405.475 258.059 405.139 258.404C404.813 258.749 404.593 259.207 404.481 259.776C404.379 260.336 404.327 261.022 404.327 261.834C404.327 262.674 404.379 263.379 404.481 263.948C404.593 264.517 404.813 264.975 405.139 265.32C405.475 265.665 405.961 265.838 406.595 265.838C407.221 265.838 407.697 265.665 408.023 265.32C408.359 264.975 408.579 264.517 408.681 263.948C408.793 263.379 408.849 262.674 408.849 261.834ZM412.418 261.834C412.418 260.229 412.68 258.978 413.202 258.082C413.725 257.177 414.64 256.724 415.946 256.724C417.244 256.724 418.154 257.177 418.676 258.082C419.199 258.978 419.46 260.229 419.46 261.834C419.46 263.467 419.199 264.737 418.676 265.642C418.154 266.547 417.244 267 415.946 267C414.64 267 413.725 266.547 413.202 265.642C412.68 264.737 412.418 263.467 412.418 261.834ZM418.2 261.834C418.2 261.022 418.144 260.336 418.032 259.776C417.93 259.207 417.71 258.749 417.374 258.404C417.048 258.059 416.572 257.886 415.946 257.886C415.312 257.886 414.826 258.059 414.49 258.404C414.164 258.749 413.944 259.207 413.832 259.776C413.73 260.336 413.678 261.022 413.678 261.834C413.678 262.674 413.73 263.379 413.832 263.948C413.944 264.517 414.164 264.975 414.49 265.32C414.826 265.665 415.312 265.838 415.946 265.838C416.572 265.838 417.048 265.665 417.374 265.32C417.71 264.975 417.93 264.517 418.032 263.948C418.144 263.379 418.2 262.674 418.2 261.834ZM422.721 261.078C422.479 261.078 422.273 260.994 422.105 260.826C421.937 260.658 421.853 260.453 421.853 260.21C421.853 259.967 421.937 259.762 422.105 259.594C422.273 259.426 422.479 259.342 422.721 259.342C422.955 259.342 423.151 259.426 423.309 259.594C423.477 259.762 423.561 259.967 423.561 260.21C423.561 260.453 423.477 260.658 423.309 260.826C423.151 260.994 422.955 261.078 422.721 261.078ZM423.645 265.236L422.077 269.002H421.223L422.245 265.236H423.645ZM426.021 261.834C426.021 260.229 426.282 258.978 426.805 258.082C427.327 257.177 428.242 256.724 429.549 256.724C430.846 256.724 431.756 257.177 432.279 258.082C432.801 258.978 433.063 260.229 433.063 261.834C433.063 263.467 432.801 264.737 432.279 265.642C431.756 266.547 430.846 267 429.549 267C428.242 267 427.327 266.547 426.805 265.642C426.282 264.737 426.021 263.467 426.021 261.834ZM431.803 261.834C431.803 261.022 431.747 260.336 431.635 259.776C431.532 259.207 431.313 258.749 430.977 258.404C430.65 258.059 430.174 257.886 429.549 257.886C428.914 257.886 428.429 258.059 428.093 258.404C427.766 258.749 427.547 259.207 427.435 259.776C427.332 260.336 427.281 261.022 427.281 261.834C427.281 262.674 427.332 263.379 427.435 263.948C427.547 264.517 427.766 264.975 428.093 265.32C428.429 265.665 428.914 265.838 429.549 265.838C430.174 265.838 430.65 265.665 430.977 265.32C431.313 264.975 431.532 264.517 431.635 263.948C431.747 263.379 431.803 262.674 431.803 261.834ZM435.372 261.834C435.372 260.229 435.633 258.978 436.156 258.082C436.678 257.177 437.593 256.724 438.9 256.724C440.197 256.724 441.107 257.177 441.63 258.082C442.152 258.978 442.414 260.229 442.414 261.834C442.414 263.467 442.152 264.737 441.63 265.642C441.107 266.547 440.197 267 438.9 267C437.593 267 436.678 266.547 436.156 265.642C435.633 264.737 435.372 263.467 435.372 261.834ZM441.154 261.834C441.154 261.022 441.098 260.336 440.986 259.776C440.883 259.207 440.664 258.749 440.328 258.404C440.001 258.059 439.525 257.886 438.9 257.886C438.265 257.886 437.78 258.059 437.444 258.404C437.117 258.749 436.898 259.207 436.786 259.776C436.683 260.336 436.632 261.022 436.632 261.834C436.632 262.674 436.683 263.379 436.786 263.948C436.898 264.517 437.117 264.975 437.444 265.32C437.78 265.665 438.265 265.838 438.9 265.838C439.525 265.838 440.001 265.665 440.328 265.32C440.664 264.975 440.883 264.517 440.986 263.948C441.098 263.379 441.154 262.674 441.154 261.834ZM456.617 260.07C456.346 259.501 455.954 259.062 455.441 258.754C454.928 258.437 454.33 258.278 453.649 258.278C452.968 258.278 452.352 258.437 451.801 258.754C451.26 259.062 450.83 259.51 450.513 260.098C450.205 260.677 450.051 261.349 450.051 262.114C450.051 262.879 450.205 263.551 450.513 264.13C450.83 264.709 451.26 265.157 451.801 265.474C452.352 265.782 452.968 265.936 453.649 265.936C454.601 265.936 455.385 265.651 456.001 265.082C456.617 264.513 456.976 263.743 457.079 262.772H453.187V261.736H458.437V262.716C458.362 263.519 458.11 264.256 457.681 264.928C457.252 265.591 456.687 266.118 455.987 266.51C455.287 266.893 454.508 267.084 453.649 267.084C452.744 267.084 451.918 266.874 451.171 266.454C450.424 266.025 449.832 265.432 449.393 264.676C448.964 263.92 448.749 263.066 448.749 262.114C448.749 261.162 448.964 260.308 449.393 259.552C449.832 258.787 450.424 258.194 451.171 257.774C451.918 257.345 452.744 257.13 453.649 257.13C454.685 257.13 455.6 257.387 456.393 257.9C457.196 258.413 457.779 259.137 458.143 260.07H456.617ZM470.58 257.312V267H469.306V259.776L466.086 267H465.19L461.956 259.762V267H460.682V257.312H462.054L465.638 265.32L469.222 257.312H470.58ZM479.306 257.242V258.278H476.646V267H475.372V258.278H472.698V257.242H479.306Z" fill="white" fill-opacity="0.6"/>
<defs>
<filter id="filter0_ddddii_1_291" x="-124.972" y="0.607666" width="990" height="800" filterUnits="userSpaceOnUse" color-interpolation-filters="sRGB">
<feFlood flood-opacity="0" result="BackgroundImageFix"/>
<feColorMatrix in="SourceAlpha" type="matrix" values="0 0 0 0 0 0 0 0 0 0 0 0 0 0 0 0 0 0 127 0" result="hardAlpha"/>
<feOffset dx="-59" dy="59"/>
<feGaussianBlur stdDeviation="74"/>
<feColorMatrix type="matrix" values="0 0 0 0 0.960784 0 0 0 0 0.960784 0 0 0 0 0.960784 0 0 0 0.9 0"/>
<feBlend mode="normal" in2="BackgroundImageFix" result="effect1_dropShadow_1_291"/>
<feColorMatrix in="SourceAlpha" type="matrix" values="0 0 0 0 0 0 0 0 0 0 0 0 0 0 0 0 0 0 127 0" result="hardAlpha"/>
<feOffset dx="59" dy="-59"/>
<feGaussianBlur stdDeviation="59"/>
<feColorMatrix type="matrix" values="0 0 0 0 1 0 0 0 0 1 0 0 0 0 1 0 0 0 0.9 0"/>
<feBlend mode="normal" in2="effect1_dropShadow_1_291" result="effect2_dropShadow_1_291"/>
<feColorMatrix in="SourceAlpha" type="matrix" values="0 0 0 0 0 0 0 0 0 0 0 0 0 0 0 0 0 0 127 0" result="hardAlpha"/>
<feOffset dx="-59" dy="-59"/>
<feGaussianBlur stdDeviation="59"/>
<feColorMatrix type="matrix" values="0 0 0 0 0.960784 0 0 0 0 0.960784 0 0 0 0 0.960784 0 0 0 0.2 0"/>
<feBlend mode="normal" in2="effect2_dropShadow_1_291" result="effect3_dropShadow_1_291"/>
<feColorMatrix in="SourceAlpha" type="matrix" values="0 0 0 0 0 0 0 0 0 0 0 0 0 0 0 0 0 0 127 0" result="hardAlpha"/>
<feOffset dx="59" dy="59"/>
<feGaussianBlur stdDeviation="59"/>
<feColorMatrix type="matrix" values="0 0 0 0 0.960784 0 0 0 0 0.960784 0 0 0 0 0.960784 0 0 0 0.2 0"/>
<feBlend mode="normal" in2="effect3_dropShadow_1_291" result="effect4_dropShadow_1_291"/>
<feBlend mode="normal" in="SourceGraphic" in2="effect4_dropShadow_1_291" result="shape"/>
<feColorMatrix in="SourceAlpha" type="matrix" values="0 0 0 0 0 0 0 0 0 0 0 0 0 0 0 0 0 0 127 0" result="hardAlpha"/>
<feOffset dx="2" dy="-2"/>
<feGaussianBlur stdDeviation="1"/>
<feComposite in2="hardAlpha" operator="arithmetic" k2="-1" k3="1"/>
<feColorMatrix type="matrix" values="0 0 0 0 0.960784 0 0 0 0 0.960784 0 0 0 0 0.960784 0 0 0 0.5 0"/>
<feBlend mode="normal" in2="shape" result="effect5_innerShadow_1_291"/>
<feColorMatrix in="SourceAlpha" type="matrix" values="0 0 0 0 0 0 0 0 0 0 0 0 0 0 0 0 0 0 127 0" result="hardAlpha"/>
<feOffset dx="-2" dy="2"/>
<feGaussianBlur stdDeviation="1"/>
<feComposite in2="hardAlpha" operator="arithmetic" k2="-1" k3="1"/>
<feColorMatrix type="matrix" values="0 0 0 0 1 0 0 0 0 1 0 0 0 0 1 0 0 0 0.3 0"/>
<feBlend mode="normal" in2="effect5_innerShadow_1_291" result="effect6_innerShadow_1_291"/>
</filter>
<filter id="filter1_ddddii_1_291" x="50.0278" y="226.608" width="679" height="386" filterUnits="userSpaceOnUse" color-interpolation-filters="sRGB">
<feFlood flood-opacity="0" result="BackgroundImageFix"/>
<feColorMatrix in="SourceAlpha" type="matrix" values="0 0 0 0 0 0 0 0 0 0 0 0 0 0 0 0 0 0 127 0" result="hardAlpha"/>
<feOffset dx="17" dy="17"/>
<feGaussianBlur stdDeviation="21.5"/>
<feColorMatrix type="matrix" values="0 0 0 0 0.941176 0 0 0 0 0.941176 0 0 0 0 0.941176 0 0 0 0.9 0"/>
<feBlend mode="normal" in2="BackgroundImageFix" result="effect1_dropShadow_1_291"/>
<feColorMatrix in="SourceAlpha" type="matrix" values="0 0 0 0 0 0 0 0 0 0 0 0 0 0 0 0 0 0 127 0" result="hardAlpha"/>
<feOffset dx="-17" dy="-17"/>
<feGaussianBlur stdDeviation="17"/>
<feColorMatrix type="matrix" values="0 0 0 0 1 0 0 0 0 1 0 0 0 0 1 0 0 0 0.9 0"/>
<feBlend mode="normal" in2="effect1_dropShadow_1_291" result="effect2_dropShadow_1_291"/>
<feColorMatrix in="SourceAlpha" type="matrix" values="0 0 0 0 0 0 0 0 0 0 0 0 0 0 0 0 0 0 127 0" result="hardAlpha"/>
<feOffset dx="17" dy="-17"/>
<feGaussianBlur stdDeviation="17"/>
<feColorMatrix type="matrix" values="0 0 0 0 0.941176 0 0 0 0 0.941176 0 0 0 0 0.941176 0 0 0 0.2 0"/>
<feBlend mode="normal" in2="effect2_dropShadow_1_291" result="effect3_dropShadow_1_291"/>
<feColorMatrix in="SourceAlpha" type="matrix" values="0 0 0 0 0 0 0 0 0 0 0 0 0 0 0 0 0 0 127 0" result="hardAlpha"/>
<feOffset dx="-17" dy="17"/>
<feGaussianBlur stdDeviation="17"/>
<feColorMatrix type="matrix" values="0 0 0 0 0.941176 0 0 0 0 0.941176 0 0 0 0 0.941176 0 0 0 0.2 0"/>
<feBlend mode="normal" in2="effect3_dropShadow_1_291" result="effect4_dropShadow_1_291"/>
<feBlend mode="normal" in="SourceGraphic" in2="effect4_dropShadow_1_291" result="shape"/>
<feColorMatrix in="SourceAlpha" type="matrix" values="0 0 0 0 0 0 0 0 0 0 0 0 0 0 0 0 0 0 127 0" result="hardAlpha"/>
<feOffset dx="-1" dy="-1"/>
<feGaussianBlur stdDeviation="1"/>
<feComposite in2="hardAlpha" operator="arithmetic" k2="-1" k3="1"/>
<feColorMatrix type="matrix" values="0 0 0 0 0.941176 0 0 0 0 0.941176 0 0 0 0 0.941176 0 0 0 0.5 0"/>
<feBlend mode="normal" in2="shape" result="effect5_innerShadow_1_291"/>
<feColorMatrix in="SourceAlpha" type="matrix" values="0 0 0 0 0 0 0 0 0 0 0 0 0 0 0 0 0 0 127 0" result="hardAlpha"/>
<feOffset dx="1" dy="1"/>
<feGaussianBlur stdDeviation="1"/>
<feComposite in2="hardAlpha" operator="arithmetic" k2="-1" k3="1"/>
<feColorMatrix type="matrix" values="0 0 0 0 1 0 0 0 0 1 0 0 0 0 1 0 0 0 0.3 0"/>
<feBlend mode="normal" in2="effect5_innerShadow_1_291" result="effect6_innerShadow_1_291"/>
</filter>
<filter id="filter2_d_1_291" x="317.248" y="357.523" width="195.408" height="89.8234" filterUnits="userSpaceOnUse" color-interpolation-filters="sRGB">
<feFlood flood-opacity="0" result="BackgroundImageFix"/>
<feColorMatrix in="SourceAlpha" type="matrix" values="0 0 0 0 0 0 0 0 0 0 0 0 0 0 0 0 0 0 127 0" result="hardAlpha"/>
<feOffset dy="12"/>
<feGaussianBlur stdDeviation="8"/>
<feColorMatrix type="matrix" values="0 0 0 0 0.295833 0 0 0 0 0.117101 0 0 0 0 0.279907 0 0 0 0.08 0"/>
<feBlend mode="normal" in2="BackgroundImageFix" result="effect1_dropShadow_1_291"/>
<feBlend mode="normal" in="SourceGraphic" in2="effect1_dropShadow_1_291" result="shape"/>
</filter>
<filter id="filter3_d_1_291" x="-25.5267" y="329.118" width="814.638" height="146.707" filterUnits="userSpaceOnUse" color-interpolation-filters="sRGB">
<feFlood flood-opacity="0" result="BackgroundImageFix"/>
<feColorMatrix in="SourceAlpha" type="matrix" values="0 0 0 0 0 0 0 0 0 0 0 0 0 0 0 0 0 0 127 0" result="hardAlpha"/>
<feOffset/>
<feGaussianBlur stdDeviation="4"/>
<feColorMatrix type="matrix" values="0 0 0 0 0.897292 0 0 0 0 0.902072 0 0 0 0 0.983333 0 0 0 1 0"/>
<feBlend mode="normal" in2="BackgroundImageFix" result="effect1_dropShadow_1_291"/>
<feBlend mode="normal" in="SourceGraphic" in2="effect1_dropShadow_1_291" result="shape"/>
</filter>
<linearGradient id="paint0_linear_1_291" x1="408.57" y1="227.746" x2="399.329" y2="588.635" gradientUnits="userSpaceOnUse">
<stop stop-color="#FFFCFD" stop-opacity="0"/>
<stop offset="0.497247" stop-color="#90F1F0"/>
<stop offset="1" stop-color="#FFF9FC" stop-opacity="0"/>
</linearGradient>
<linearGradient id="paint1_linear_1_291" x1="67.6862" y1="430.651" x2="535.334" y2="314.134" gradientUnits="userSpaceOnUse">
<stop stop-color="#00C6C3"/>
<stop offset="1" stop-color="#020024"/>
</linearGradient>
<linearGradient id="paint2_linear_1_291" x1="-50.3072" y1="428.09" x2="730.501" y2="278.29" gradientUnits="userSpaceOnUse">
<stop stop-color="#E7C6FF"/>
<stop offset="1" stop-color="#CAF0F8"/>
</linearGradient>
<clipPath id="clip0_1_291">
<rect x="82.0278" y="177.608" width="606" height="416" rx="40" fill="white"/>
</clipPath>
</defs>
</svg>
