<svg width="907" height="800" viewBox="0 0 907 800" fill="none" xmlns="http://www.w3.org/2000/svg">
<g filter="url(#filter0_ddddii_1_163)">
<g clip-path="url(#clip0_1_163)">
<rect x="177.044" y="177" width="606" height="416" rx="40" fill="white"/>
<line x1="175.544" y1="254.079" x2="784.544" y2="254.079" stroke="#121212" stroke-opacity="0.1"/>
<circle cx="211.169" cy="222.544" r="10" fill="#FD1919"/>
<circle cx="243.169" cy="222.544" r="10" fill="#FBC60D"/>
<circle cx="275.169" cy="222.544" r="10" fill="#95FB13"/>
<rect x="313.169" y="211.088" width="324.25" height="22.912" rx="11.456" fill="#121212" fill-opacity="0.1"/>
<rect x="665.419" y="211.088" width="93.5" height="22.912" rx="11.456" fill="#020024"/>
<rect x="348.544" y="272" width="128" height="96" rx="20.5" stroke="#121212" stroke-opacity="0.1" stroke-dasharray="5 5"/>
<path d="M365.646 289.598C365.646 290.41 365.366 291.087 364.806 291.628C364.256 292.16 363.411 292.426 362.272 292.426H360.396V296.5H359.122V286.742H362.272C363.374 286.742 364.209 287.008 364.778 287.54C365.357 288.072 365.646 288.758 365.646 289.598ZM362.272 291.376C362.982 291.376 363.504 291.222 363.84 290.914C364.176 290.606 364.344 290.167 364.344 289.598C364.344 288.394 363.654 287.792 362.272 287.792H360.396V291.376H362.272ZM367.314 292.636C367.314 291.852 367.472 291.166 367.79 290.578C368.107 289.981 368.541 289.519 369.092 289.192C369.652 288.865 370.272 288.702 370.954 288.702C371.626 288.702 372.209 288.847 372.704 289.136C373.198 289.425 373.567 289.789 373.81 290.228V288.828H375.098V296.5H373.81V295.072C373.558 295.52 373.18 295.893 372.676 296.192C372.181 296.481 371.602 296.626 370.94 296.626C370.258 296.626 369.642 296.458 369.092 296.122C368.541 295.786 368.107 295.315 367.79 294.708C367.472 294.101 367.314 293.411 367.314 292.636ZM373.81 292.65C373.81 292.071 373.693 291.567 373.46 291.138C373.226 290.709 372.909 290.382 372.508 290.158C372.116 289.925 371.682 289.808 371.206 289.808C370.73 289.808 370.296 289.92 369.904 290.144C369.512 290.368 369.199 290.695 368.966 291.124C368.732 291.553 368.616 292.057 368.616 292.636C368.616 293.224 368.732 293.737 368.966 294.176C369.199 294.605 369.512 294.937 369.904 295.17C370.296 295.394 370.73 295.506 371.206 295.506C371.682 295.506 372.116 295.394 372.508 295.17C372.909 294.937 373.226 294.605 373.46 294.176C373.693 293.737 373.81 293.229 373.81 292.65ZM379.365 289.878V294.4C379.365 294.773 379.444 295.039 379.603 295.198C379.761 295.347 380.037 295.422 380.429 295.422H381.367V296.5H380.219C379.509 296.5 378.977 296.337 378.623 296.01C378.268 295.683 378.091 295.147 378.091 294.4V289.878H377.097V288.828H378.091V286.896H379.365V288.828H381.367V289.878H379.365ZM384.128 287.582C383.885 287.582 383.68 287.498 383.512 287.33C383.344 287.162 383.26 286.957 383.26 286.714C383.26 286.471 383.344 286.266 383.512 286.098C383.68 285.93 383.885 285.846 384.128 285.846C384.361 285.846 384.557 285.93 384.716 286.098C384.884 286.266 384.968 286.471 384.968 286.714C384.968 286.957 384.884 287.162 384.716 287.33C384.557 287.498 384.361 287.582 384.128 287.582ZM384.744 288.828V296.5H383.47V288.828H384.744ZM394.475 292.37C394.475 292.613 394.461 292.869 394.433 293.14H388.301C388.348 293.896 388.605 294.489 389.071 294.918C389.547 295.338 390.121 295.548 390.793 295.548C391.344 295.548 391.801 295.422 392.165 295.17C392.539 294.909 392.8 294.563 392.949 294.134H394.321C394.116 294.871 393.705 295.473 393.089 295.94C392.473 296.397 391.708 296.626 390.793 296.626C390.065 296.626 389.412 296.463 388.833 296.136C388.264 295.809 387.816 295.347 387.489 294.75C387.163 294.143 386.999 293.443 386.999 292.65C386.999 291.857 387.158 291.161 387.475 290.564C387.793 289.967 388.236 289.509 388.805 289.192C389.384 288.865 390.047 288.702 390.793 288.702C391.521 288.702 392.165 288.861 392.725 289.178C393.285 289.495 393.715 289.934 394.013 290.494C394.321 291.045 394.475 291.67 394.475 292.37ZM393.159 292.104C393.159 291.619 393.052 291.203 392.837 290.858C392.623 290.503 392.329 290.237 391.955 290.06C391.591 289.873 391.185 289.78 390.737 289.78C390.093 289.78 389.543 289.985 389.085 290.396C388.637 290.807 388.381 291.376 388.315 292.104H393.159ZM400.455 288.688C401.388 288.688 402.144 288.973 402.723 289.542C403.302 290.102 403.591 290.914 403.591 291.978V296.5H402.331V292.16C402.331 291.395 402.14 290.811 401.757 290.41C401.374 289.999 400.852 289.794 400.189 289.794C399.517 289.794 398.98 290.004 398.579 290.424C398.187 290.844 397.991 291.455 397.991 292.258V296.5H396.717V288.828H397.991V289.92C398.243 289.528 398.584 289.225 399.013 289.01C399.452 288.795 399.932 288.688 400.455 288.688ZM407.786 289.878V294.4C407.786 294.773 407.866 295.039 408.024 295.198C408.183 295.347 408.458 295.422 408.85 295.422H409.788V296.5H408.64C407.931 296.5 407.399 296.337 407.044 296.01C406.69 295.683 406.512 295.147 406.512 294.4V289.878H405.518V288.828H406.512V286.896H407.786V288.828H409.788V289.878H407.786ZM414.608 296.626C414.02 296.626 413.492 296.528 413.026 296.332C412.559 296.127 412.19 295.847 411.92 295.492C411.649 295.128 411.5 294.713 411.472 294.246H412.788C412.825 294.629 413.002 294.941 413.32 295.184C413.646 295.427 414.071 295.548 414.594 295.548C415.079 295.548 415.462 295.441 415.742 295.226C416.022 295.011 416.162 294.741 416.162 294.414C416.162 294.078 416.012 293.831 415.714 293.672C415.415 293.504 414.953 293.341 414.328 293.182C413.758 293.033 413.292 292.883 412.928 292.734C412.573 292.575 412.265 292.347 412.004 292.048C411.752 291.74 411.626 291.339 411.626 290.844C411.626 290.452 411.742 290.093 411.976 289.766C412.209 289.439 412.54 289.183 412.97 288.996C413.399 288.8 413.889 288.702 414.44 288.702C415.289 288.702 415.975 288.917 416.498 289.346C417.02 289.775 417.3 290.363 417.338 291.11H416.064C416.036 290.709 415.872 290.387 415.574 290.144C415.284 289.901 414.892 289.78 414.398 289.78C413.94 289.78 413.576 289.878 413.306 290.074C413.035 290.27 412.9 290.527 412.9 290.844C412.9 291.096 412.979 291.306 413.138 291.474C413.306 291.633 413.511 291.763 413.754 291.866C414.006 291.959 414.351 292.067 414.79 292.188C415.34 292.337 415.788 292.487 416.134 292.636C416.479 292.776 416.773 292.991 417.016 293.28C417.268 293.569 417.398 293.947 417.408 294.414C417.408 294.834 417.291 295.212 417.058 295.548C416.824 295.884 416.493 296.15 416.064 296.346C415.644 296.533 415.158 296.626 414.608 296.626Z" fill="#121212"/>
<rect x="358.044" y="310.5" width="110" height="16" rx="5" fill="#121212" fill-opacity="0.1"/>
<path d="M361.054 348.13C361.129 348.541 361.297 348.858 361.558 349.082C361.829 349.297 362.188 349.404 362.636 349.404C363.215 349.404 363.635 349.166 363.896 348.69C364.158 348.205 364.288 347.393 364.288 346.254C364.074 346.553 363.77 346.786 363.378 346.954C362.996 347.122 362.58 347.206 362.132 347.206C361.535 347.206 360.994 347.085 360.508 346.842C360.032 346.59 359.654 346.221 359.374 345.736C359.094 345.241 358.954 344.644 358.954 343.944C358.954 342.908 359.262 342.087 359.878 341.48C360.494 340.864 361.334 340.556 362.398 340.556C363.724 340.556 364.657 340.981 365.198 341.83C365.749 342.679 366.024 343.958 366.024 345.666C366.024 346.879 365.917 347.873 365.702 348.648C365.497 349.423 365.138 350.011 364.624 350.412C364.12 350.813 363.43 351.014 362.552 351.014C361.862 351.014 361.274 350.883 360.788 350.622C360.303 350.351 359.93 350.001 359.668 349.572C359.416 349.133 359.272 348.653 359.234 348.13H361.054ZM362.538 345.61C363.024 345.61 363.406 345.461 363.686 345.162C363.966 344.863 364.106 344.462 364.106 343.958C364.106 343.407 363.957 342.983 363.658 342.684C363.369 342.376 362.972 342.222 362.468 342.222C361.964 342.222 361.563 342.381 361.264 342.698C360.975 343.006 360.83 343.417 360.83 343.93C360.83 344.425 360.97 344.831 361.25 345.148C361.54 345.456 361.969 345.61 362.538 345.61ZM373.402 343.342C373.309 342.95 373.145 342.656 372.912 342.46C372.688 342.264 372.361 342.166 371.932 342.166C371.288 342.166 370.812 342.427 370.504 342.95C370.205 343.463 370.051 344.303 370.042 345.47C370.266 345.097 370.593 344.807 371.022 344.602C371.451 344.387 371.918 344.28 372.422 344.28C373.029 344.28 373.565 344.411 374.032 344.672C374.499 344.933 374.863 345.316 375.124 345.82C375.385 346.315 375.516 346.912 375.516 347.612C375.516 348.275 375.381 348.867 375.11 349.39C374.849 349.903 374.461 350.305 373.948 350.594C373.435 350.883 372.823 351.028 372.114 351.028C371.143 351.028 370.378 350.813 369.818 350.384C369.267 349.955 368.88 349.357 368.656 348.592C368.441 347.817 368.334 346.865 368.334 345.736C368.334 344.028 368.628 342.74 369.216 341.872C369.804 340.995 370.733 340.556 372.002 340.556C372.982 340.556 373.743 340.822 374.284 341.354C374.825 341.886 375.138 342.549 375.222 343.342H373.402ZM371.974 345.89C371.479 345.89 371.064 346.035 370.728 346.324C370.392 346.613 370.224 347.033 370.224 347.584C370.224 348.135 370.378 348.569 370.686 348.886C371.003 349.203 371.447 349.362 372.016 349.362C372.52 349.362 372.917 349.208 373.206 348.9C373.505 348.592 373.654 348.177 373.654 347.654C373.654 347.113 373.509 346.683 373.22 346.366C372.94 346.049 372.525 345.89 371.974 345.89ZM384.121 342.278L380.397 351H378.409L382.161 342.502H377.373V340.822H384.121V342.278ZM385.855 345.764C385.855 344.149 386.144 342.885 386.723 341.97C387.311 341.055 388.282 340.598 389.635 340.598C390.988 340.598 391.954 341.055 392.533 341.97C393.121 342.885 393.415 344.149 393.415 345.764C393.415 347.388 393.121 348.662 392.533 349.586C391.954 350.51 390.988 350.972 389.635 350.972C388.282 350.972 387.311 350.51 386.723 349.586C386.144 348.662 385.855 347.388 385.855 345.764ZM391.483 345.764C391.483 345.073 391.436 344.495 391.343 344.028C391.259 343.552 391.082 343.165 390.811 342.866C390.55 342.567 390.158 342.418 389.635 342.418C389.112 342.418 388.716 342.567 388.445 342.866C388.184 343.165 388.006 343.552 387.913 344.028C387.829 344.495 387.787 345.073 387.787 345.764C387.787 346.473 387.829 347.071 387.913 347.556C387.997 348.032 388.174 348.419 388.445 348.718C388.716 349.007 389.112 349.152 389.635 349.152C390.158 349.152 390.554 349.007 390.825 348.718C391.096 348.419 391.273 348.032 391.357 347.556C391.441 347.071 391.483 346.473 391.483 345.764Z" fill="#121212"/>
<path d="M457.793 340L465.347 340.001L465.447 340.014L465.546 340.042L465.606 340.068C465.685 340.102 465.76 340.153 465.825 340.218L465.866 340.262L465.909 340.319L465.963 340.409L466.002 340.499L466.021 340.563L466.035 340.627L466.044 340.721L466.045 348.254C466.045 348.668 465.709 349.004 465.295 349.004C464.915 349.004 464.601 348.722 464.551 348.356L464.545 348.254L464.544 342.559L456.825 350.279C456.559 350.545 456.142 350.57 455.849 350.352L455.765 350.279L452.794 347.309L447.325 352.779C447.032 353.072 446.557 353.072 446.264 352.779C445.998 352.512 445.973 352.096 446.191 351.802L446.264 351.718L452.264 345.718C452.53 345.452 452.947 345.427 453.24 345.645L453.325 345.718L456.295 348.688L463.482 341.5H457.793C457.413 341.5 457.1 341.218 457.05 340.852L457.043 340.75C457.043 340.37 457.325 340.057 457.691 340.007L457.793 340Z" fill="#459912"/>
<rect x="491.544" y="272" width="128" height="96" rx="20.5" stroke="#121212" stroke-opacity="0.1"/>
<path d="M505.16 286.742C506.224 286.742 507.144 286.943 507.918 287.344C508.702 287.736 509.3 288.301 509.71 289.038C510.13 289.775 510.34 290.643 510.34 291.642C510.34 292.641 510.13 293.509 509.71 294.246C509.3 294.974 508.702 295.534 507.918 295.926C507.144 296.309 506.224 296.5 505.16 296.5H502.122V286.742H505.16ZM505.16 295.45C506.42 295.45 507.382 295.119 508.044 294.456C508.707 293.784 509.038 292.846 509.038 291.642C509.038 290.429 508.702 289.481 508.03 288.8C507.368 288.119 506.411 287.778 505.16 287.778H503.396V295.45H505.16ZM515.927 296.626C515.208 296.626 514.555 296.463 513.967 296.136C513.388 295.809 512.931 295.347 512.595 294.75C512.268 294.143 512.105 293.443 512.105 292.65C512.105 291.866 512.273 291.175 512.609 290.578C512.954 289.971 513.421 289.509 514.009 289.192C514.597 288.865 515.255 288.702 515.983 288.702C516.711 288.702 517.369 288.865 517.957 289.192C518.545 289.509 519.007 289.967 519.343 290.564C519.688 291.161 519.861 291.857 519.861 292.65C519.861 293.443 519.683 294.143 519.329 294.75C518.983 295.347 518.512 295.809 517.915 296.136C517.317 296.463 516.655 296.626 515.927 296.626ZM515.927 295.506C516.384 295.506 516.813 295.399 517.215 295.184C517.616 294.969 517.938 294.647 518.181 294.218C518.433 293.789 518.559 293.266 518.559 292.65C518.559 292.034 518.437 291.511 518.195 291.082C517.952 290.653 517.635 290.335 517.243 290.13C516.851 289.915 516.426 289.808 515.969 289.808C515.502 289.808 515.073 289.915 514.681 290.13C514.298 290.335 513.99 290.653 513.757 291.082C513.523 291.511 513.407 292.034 513.407 292.65C513.407 293.275 513.519 293.803 513.743 294.232C513.976 294.661 514.284 294.983 514.667 295.198C515.049 295.403 515.469 295.506 515.927 295.506ZM521.62 292.65C521.62 291.857 521.778 291.166 522.096 290.578C522.413 289.981 522.852 289.519 523.412 289.192C523.981 288.865 524.63 288.702 525.358 288.702C526.3 288.702 527.075 288.931 527.682 289.388C528.298 289.845 528.704 290.48 528.9 291.292H527.528C527.397 290.825 527.14 290.457 526.758 290.186C526.384 289.915 525.918 289.78 525.358 289.78C524.63 289.78 524.042 290.032 523.594 290.536C523.146 291.031 522.922 291.735 522.922 292.65C522.922 293.574 523.146 294.288 523.594 294.792C524.042 295.296 524.63 295.548 525.358 295.548C525.918 295.548 526.384 295.417 526.758 295.156C527.131 294.895 527.388 294.521 527.528 294.036H528.9C528.694 294.82 528.284 295.45 527.668 295.926C527.052 296.393 526.282 296.626 525.358 296.626C524.63 296.626 523.981 296.463 523.412 296.136C522.852 295.809 522.413 295.347 522.096 294.75C521.778 294.153 521.62 293.453 521.62 292.65ZM532.714 289.878V294.4C532.714 294.773 532.793 295.039 532.952 295.198C533.11 295.347 533.386 295.422 533.778 295.422H534.716V296.5H533.568C532.858 296.5 532.326 296.337 531.972 296.01C531.617 295.683 531.44 295.147 531.44 294.4V289.878H530.446V288.828H531.44V286.896H532.714V288.828H534.716V289.878H532.714ZM540.165 296.626C539.447 296.626 538.793 296.463 538.205 296.136C537.627 295.809 537.169 295.347 536.833 294.75C536.507 294.143 536.343 293.443 536.343 292.65C536.343 291.866 536.511 291.175 536.847 290.578C537.193 289.971 537.659 289.509 538.247 289.192C538.835 288.865 539.493 288.702 540.221 288.702C540.949 288.702 541.607 288.865 542.195 289.192C542.783 289.509 543.245 289.967 543.581 290.564C543.927 291.161 544.099 291.857 544.099 292.65C544.099 293.443 543.922 294.143 543.567 294.75C543.222 295.347 542.751 295.809 542.153 296.136C541.556 296.463 540.893 296.626 540.165 296.626ZM540.165 295.506C540.623 295.506 541.052 295.399 541.453 295.184C541.855 294.969 542.177 294.647 542.419 294.218C542.671 293.789 542.797 293.266 542.797 292.65C542.797 292.034 542.676 291.511 542.433 291.082C542.191 290.653 541.873 290.335 541.481 290.13C541.089 289.915 540.665 289.808 540.207 289.808C539.741 289.808 539.311 289.915 538.919 290.13C538.537 290.335 538.229 290.653 537.995 291.082C537.762 291.511 537.645 292.034 537.645 292.65C537.645 293.275 537.757 293.803 537.981 294.232C538.215 294.661 538.523 294.983 538.905 295.198C539.288 295.403 539.708 295.506 540.165 295.506ZM547.608 290.074C547.832 289.635 548.15 289.295 548.56 289.052C548.98 288.809 549.489 288.688 550.086 288.688V290.004H549.75C548.322 290.004 547.608 290.779 547.608 292.328V296.5H546.334V288.828H547.608V290.074ZM554.833 296.626C554.245 296.626 553.718 296.528 553.251 296.332C552.784 296.127 552.416 295.847 552.145 295.492C551.874 295.128 551.725 294.713 551.697 294.246H553.013C553.05 294.629 553.228 294.941 553.545 295.184C553.872 295.427 554.296 295.548 554.819 295.548C555.304 295.548 555.687 295.441 555.967 295.226C556.247 295.011 556.387 294.741 556.387 294.414C556.387 294.078 556.238 293.831 555.939 293.672C555.64 293.504 555.178 293.341 554.553 293.182C553.984 293.033 553.517 292.883 553.153 292.734C552.798 292.575 552.49 292.347 552.229 292.048C551.977 291.74 551.851 291.339 551.851 290.844C551.851 290.452 551.968 290.093 552.201 289.766C552.434 289.439 552.766 289.183 553.195 288.996C553.624 288.8 554.114 288.702 554.665 288.702C555.514 288.702 556.2 288.917 556.723 289.346C557.246 289.775 557.526 290.363 557.563 291.11H556.289C556.261 290.709 556.098 290.387 555.799 290.144C555.51 289.901 555.118 289.78 554.623 289.78C554.166 289.78 553.802 289.878 553.531 290.074C553.26 290.27 553.125 290.527 553.125 290.844C553.125 291.096 553.204 291.306 553.363 291.474C553.531 291.633 553.736 291.763 553.979 291.866C554.231 291.959 554.576 292.067 555.015 292.188C555.566 292.337 556.014 292.487 556.359 292.636C556.704 292.776 556.998 292.991 557.241 293.28C557.493 293.569 557.624 293.947 557.633 294.414C557.633 294.834 557.516 295.212 557.283 295.548C557.05 295.884 556.718 296.15 556.289 296.346C555.869 296.533 555.384 296.626 554.833 296.626Z" fill="#121212"/>
<rect x="501.044" y="310.5" width="110" height="16" rx="5" fill="#121212" fill-opacity="0.1"/>
<path d="M501.548 342.6V340.794H504.922V351H502.906V342.6H501.548ZM508.034 348.788C508.93 348.041 509.644 347.421 510.176 346.926C510.708 346.422 511.152 345.899 511.506 345.358C511.861 344.817 512.038 344.285 512.038 343.762C512.038 343.286 511.926 342.913 511.702 342.642C511.478 342.371 511.133 342.236 510.666 342.236C510.2 342.236 509.84 342.395 509.588 342.712C509.336 343.02 509.206 343.445 509.196 343.986H507.292C507.33 342.866 507.661 342.017 508.286 341.438C508.921 340.859 509.724 340.57 510.694 340.57C511.758 340.57 512.575 340.855 513.144 341.424C513.714 341.984 513.998 342.726 513.998 343.65C513.998 344.378 513.802 345.073 513.41 345.736C513.018 346.399 512.57 346.977 512.066 347.472C511.562 347.957 510.904 348.545 510.092 349.236H514.222V350.86H507.306V349.404L508.034 348.788ZM522.514 342.278L518.79 351H516.802L520.554 342.502H515.766V340.822H522.514V342.278ZM524.163 349.012V347.472L528.741 340.92H531.023V347.304H532.255V349.012H531.023V351H529.063V349.012H524.163ZM529.189 343.02L526.319 347.304H529.189V343.02Z" fill="#121212"/>
<path d="M600.793 353L608.347 353L608.447 352.986L608.546 352.958L608.606 352.933C608.685 352.898 608.76 352.847 608.825 352.782L608.866 352.738L608.909 352.681L608.963 352.591L609.002 352.501L609.021 352.437L609.035 352.373L609.044 352.279L609.045 344.746C609.045 344.332 608.709 343.996 608.295 343.996C607.915 343.996 607.601 344.278 607.551 344.645L607.545 344.746L607.544 350.441L599.825 342.721C599.559 342.455 599.142 342.43 598.849 342.648L598.765 342.721L595.794 345.691L590.325 340.222C590.032 339.929 589.557 339.929 589.264 340.222C588.998 340.488 588.973 340.905 589.191 341.198L589.264 341.282L595.264 347.282C595.53 347.549 595.947 347.573 596.24 347.355L596.325 347.282L599.295 344.312L606.482 351.5H600.793C600.413 351.5 600.1 351.782 600.05 352.149L600.043 352.25C600.043 352.63 600.325 352.944 600.691 352.993L600.793 353Z" fill="#FD1919"/>
<rect x="634.544" y="272" width="128" height="96" rx="20.5" stroke="#121212" stroke-opacity="0.1"/>
<path d="M652.794 296.5H651.52L646.396 288.73V296.5H645.122V286.728H646.396L651.52 294.484V286.728H652.794V296.5ZM662.33 288.828V296.5H661.056V295.366C660.813 295.758 660.473 296.066 660.034 296.29C659.605 296.505 659.129 296.612 658.606 296.612C658.009 296.612 657.472 296.491 656.996 296.248C656.52 295.996 656.142 295.623 655.862 295.128C655.591 294.633 655.456 294.031 655.456 293.322V288.828H656.716V293.154C656.716 293.91 656.907 294.493 657.29 294.904C657.673 295.305 658.195 295.506 658.858 295.506C659.539 295.506 660.076 295.296 660.468 294.876C660.86 294.456 661.056 293.845 661.056 293.042V288.828H662.33ZM666.315 290.074C666.539 289.635 666.856 289.295 667.267 289.052C667.687 288.809 668.196 288.688 668.793 288.688V290.004H668.457C667.029 290.004 666.315 290.779 666.315 292.328V296.5H665.041V288.828H666.315V290.074ZM673.54 296.626C672.952 296.626 672.424 296.528 671.958 296.332C671.491 296.127 671.122 295.847 670.852 295.492C670.581 295.128 670.432 294.713 670.404 294.246H671.72C671.757 294.629 671.934 294.941 672.252 295.184C672.578 295.427 673.003 295.548 673.526 295.548C674.011 295.548 674.394 295.441 674.674 295.226C674.954 295.011 675.094 294.741 675.094 294.414C675.094 294.078 674.944 293.831 674.646 293.672C674.347 293.504 673.885 293.341 673.26 293.182C672.69 293.033 672.224 292.883 671.86 292.734C671.505 292.575 671.197 292.347 670.936 292.048C670.684 291.74 670.558 291.339 670.558 290.844C670.558 290.452 670.674 290.093 670.908 289.766C671.141 289.439 671.472 289.183 671.902 288.996C672.331 288.8 672.821 288.702 673.372 288.702C674.221 288.702 674.907 288.917 675.43 289.346C675.952 289.775 676.232 290.363 676.27 291.11H674.996C674.968 290.709 674.804 290.387 674.506 290.144C674.216 289.901 673.824 289.78 673.33 289.78C672.872 289.78 672.508 289.878 672.238 290.074C671.967 290.27 671.832 290.527 671.832 290.844C671.832 291.096 671.911 291.306 672.07 291.474C672.238 291.633 672.443 291.763 672.686 291.866C672.938 291.959 673.283 292.067 673.722 292.188C674.272 292.337 674.72 292.487 675.066 292.636C675.411 292.776 675.705 292.991 675.948 293.28C676.2 293.569 676.33 293.947 676.34 294.414C676.34 294.834 676.223 295.212 675.99 295.548C675.756 295.884 675.425 296.15 674.996 296.346C674.576 296.533 674.09 296.626 673.54 296.626ZM685.698 292.37C685.698 292.613 685.684 292.869 685.656 293.14H679.524C679.571 293.896 679.827 294.489 680.294 294.918C680.77 295.338 681.344 295.548 682.016 295.548C682.567 295.548 683.024 295.422 683.388 295.17C683.761 294.909 684.023 294.563 684.172 294.134H685.544C685.339 294.871 684.928 295.473 684.312 295.94C683.696 296.397 682.931 296.626 682.016 296.626C681.288 296.626 680.635 296.463 680.056 296.136C679.487 295.809 679.039 295.347 678.712 294.75C678.385 294.143 678.222 293.443 678.222 292.65C678.222 291.857 678.381 291.161 678.698 290.564C679.015 289.967 679.459 289.509 680.028 289.192C680.607 288.865 681.269 288.702 682.016 288.702C682.744 288.702 683.388 288.861 683.948 289.178C684.508 289.495 684.937 289.934 685.236 290.494C685.544 291.045 685.698 291.67 685.698 292.37ZM684.382 292.104C684.382 291.619 684.275 291.203 684.06 290.858C683.845 290.503 683.551 290.237 683.178 290.06C682.814 289.873 682.408 289.78 681.96 289.78C681.316 289.78 680.765 289.985 680.308 290.396C679.86 290.807 679.603 291.376 679.538 292.104H684.382ZM690.656 296.626C690.068 296.626 689.54 296.528 689.074 296.332C688.607 296.127 688.238 295.847 687.968 295.492C687.697 295.128 687.548 294.713 687.52 294.246H688.836C688.873 294.629 689.05 294.941 689.368 295.184C689.694 295.427 690.119 295.548 690.642 295.548C691.127 295.548 691.51 295.441 691.79 295.226C692.07 295.011 692.21 294.741 692.21 294.414C692.21 294.078 692.06 293.831 691.762 293.672C691.463 293.504 691.001 293.341 690.376 293.182C689.806 293.033 689.34 292.883 688.976 292.734C688.621 292.575 688.313 292.347 688.052 292.048C687.8 291.74 687.674 291.339 687.674 290.844C687.674 290.452 687.79 290.093 688.024 289.766C688.257 289.439 688.588 289.183 689.018 288.996C689.447 288.8 689.937 288.702 690.488 288.702C691.337 288.702 692.023 288.917 692.546 289.346C693.068 289.775 693.348 290.363 693.386 291.11H692.112C692.084 290.709 691.92 290.387 691.622 290.144C691.332 289.901 690.94 289.78 690.446 289.78C689.988 289.78 689.624 289.878 689.354 290.074C689.083 290.27 688.948 290.527 688.948 290.844C688.948 291.096 689.027 291.306 689.186 291.474C689.354 291.633 689.559 291.763 689.802 291.866C690.054 291.959 690.399 292.067 690.838 292.188C691.388 292.337 691.836 292.487 692.182 292.636C692.527 292.776 692.821 292.991 693.064 293.28C693.316 293.569 693.446 293.947 693.456 294.414C693.456 294.834 693.339 295.212 693.106 295.548C692.872 295.884 692.541 296.15 692.112 296.346C691.692 296.533 691.206 296.626 690.656 296.626Z" fill="#121212"/>
<rect x="644.044" y="310.5" width="110" height="16" rx="5" fill="#121212" fill-opacity="0.1"/>
<path d="M644.548 342.6V340.794H647.922V351H645.906V342.6H644.548ZM655.71 343.342C655.617 342.95 655.454 342.656 655.22 342.46C654.996 342.264 654.67 342.166 654.24 342.166C653.596 342.166 653.12 342.427 652.812 342.95C652.514 343.463 652.36 344.303 652.35 345.47C652.574 345.097 652.901 344.807 653.33 344.602C653.76 344.387 654.226 344.28 654.73 344.28C655.337 344.28 655.874 344.411 656.34 344.672C656.807 344.933 657.171 345.316 657.432 345.82C657.694 346.315 657.824 346.912 657.824 347.612C657.824 348.275 657.689 348.867 657.418 349.39C657.157 349.903 656.77 350.305 656.256 350.594C655.743 350.883 655.132 351.028 654.422 351.028C653.452 351.028 652.686 350.813 652.126 350.384C651.576 349.955 651.188 349.357 650.964 348.592C650.75 347.817 650.642 346.865 650.642 345.736C650.642 344.028 650.936 342.74 651.524 341.872C652.112 340.995 653.041 340.556 654.31 340.556C655.29 340.556 656.051 340.822 656.592 341.354C657.134 341.886 657.446 342.549 657.53 343.342H655.71ZM654.282 345.89C653.788 345.89 653.372 346.035 653.036 346.324C652.7 346.613 652.532 347.033 652.532 347.584C652.532 348.135 652.686 348.569 652.994 348.886C653.312 349.203 653.755 349.362 654.324 349.362C654.828 349.362 655.225 349.208 655.514 348.9C655.813 348.592 655.962 348.177 655.962 347.654C655.962 347.113 655.818 346.683 655.528 346.366C655.248 346.049 654.833 345.89 654.282 345.89ZM662.202 348.13C662.276 348.541 662.444 348.858 662.706 349.082C662.976 349.297 663.336 349.404 663.784 349.404C664.362 349.404 664.782 349.166 665.044 348.69C665.305 348.205 665.436 347.393 665.436 346.254C665.221 346.553 664.918 346.786 664.526 346.954C664.143 347.122 663.728 347.206 663.28 347.206C662.682 347.206 662.141 347.085 661.656 346.842C661.18 346.59 660.802 346.221 660.522 345.736C660.242 345.241 660.102 344.644 660.102 343.944C660.102 342.908 660.41 342.087 661.026 341.48C661.642 340.864 662.482 340.556 663.546 340.556C664.871 340.556 665.804 340.981 666.346 341.83C666.896 342.679 667.172 343.958 667.172 345.666C667.172 346.879 667.064 347.873 666.85 348.648C666.644 349.423 666.285 350.011 665.772 350.412C665.268 350.813 664.577 351.014 663.7 351.014C663.009 351.014 662.421 350.883 661.936 350.622C661.45 350.351 661.077 350.001 660.816 349.572C660.564 349.133 660.419 348.653 660.382 348.13H662.202ZM663.686 345.61C664.171 345.61 664.554 345.461 664.834 345.162C665.114 344.863 665.254 344.462 665.254 343.958C665.254 343.407 665.104 342.983 664.806 342.684C664.516 342.376 664.12 342.222 663.616 342.222C663.112 342.222 662.71 342.381 662.412 342.698C662.122 343.006 661.978 343.417 661.978 343.93C661.978 344.425 662.118 344.831 662.398 345.148C662.687 345.456 663.116 345.61 663.686 345.61ZM669.257 345.764C669.257 344.149 669.547 342.885 670.125 341.97C670.713 341.055 671.684 340.598 673.037 340.598C674.391 340.598 675.357 341.055 675.935 341.97C676.523 342.885 676.817 344.149 676.817 345.764C676.817 347.388 676.523 348.662 675.935 349.586C675.357 350.51 674.391 350.972 673.037 350.972C671.684 350.972 670.713 350.51 670.125 349.586C669.547 348.662 669.257 347.388 669.257 345.764ZM674.885 345.764C674.885 345.073 674.839 344.495 674.745 344.028C674.661 343.552 674.484 343.165 674.213 342.866C673.952 342.567 673.56 342.418 673.037 342.418C672.515 342.418 672.118 342.567 671.847 342.866C671.586 343.165 671.409 343.552 671.315 344.028C671.231 344.495 671.189 345.073 671.189 345.764C671.189 346.473 671.231 347.071 671.315 347.556C671.399 348.032 671.577 348.419 671.847 348.718C672.118 349.007 672.515 349.152 673.037 349.152C673.56 349.152 673.957 349.007 674.227 348.718C674.498 348.419 674.675 348.032 674.759 347.556C674.843 347.071 674.885 346.473 674.885 345.764ZM680.576 345.596C679.643 345.111 679.176 344.359 679.176 343.342C679.176 342.838 679.302 342.381 679.554 341.97C679.815 341.55 680.203 341.219 680.716 340.976C681.239 340.724 681.873 340.598 682.62 340.598C683.367 340.598 683.997 340.724 684.51 340.976C685.033 341.219 685.42 341.55 685.672 341.97C685.933 342.381 686.064 342.838 686.064 343.342C686.064 343.855 685.938 344.308 685.686 344.7C685.434 345.083 685.098 345.381 684.678 345.596C685.191 345.82 685.593 346.147 685.882 346.576C686.171 347.005 686.316 347.514 686.316 348.102C686.316 348.737 686.153 349.292 685.826 349.768C685.509 350.235 685.07 350.594 684.51 350.846C683.95 351.098 683.32 351.224 682.62 351.224C681.92 351.224 681.29 351.098 680.73 350.846C680.179 350.594 679.741 350.235 679.414 349.768C679.097 349.292 678.938 348.737 678.938 348.102C678.938 347.514 679.083 347.005 679.372 346.576C679.661 346.137 680.063 345.811 680.576 345.596ZM684.16 343.622C684.16 343.165 684.02 342.81 683.74 342.558C683.469 342.306 683.096 342.18 682.62 342.18C682.153 342.18 681.78 342.306 681.5 342.558C681.229 342.81 681.094 343.169 681.094 343.636C681.094 344.056 681.234 344.392 681.514 344.644C681.803 344.896 682.172 345.022 682.62 345.022C683.068 345.022 683.437 344.896 683.726 344.644C684.015 344.383 684.16 344.042 684.16 343.622ZM682.62 346.45C682.088 346.45 681.654 346.585 681.318 346.856C680.991 347.127 680.828 347.514 680.828 348.018C680.828 348.485 680.987 348.867 681.304 349.166C681.631 349.455 682.069 349.6 682.62 349.6C683.171 349.6 683.605 349.451 683.922 349.152C684.239 348.853 684.398 348.475 684.398 348.018C684.398 347.523 684.235 347.141 683.908 346.87C683.581 346.59 683.152 346.45 682.62 346.45Z" fill="#121212"/>
<path d="M743.793 340L751.347 340.001L751.447 340.014L751.546 340.042L751.606 340.068C751.685 340.102 751.76 340.153 751.825 340.218L751.866 340.262L751.909 340.319L751.963 340.409L752.002 340.499L752.021 340.563L752.035 340.627L752.044 340.721L752.045 348.254C752.045 348.668 751.709 349.004 751.295 349.004C750.915 349.004 750.601 348.722 750.551 348.356L750.545 348.254L750.544 342.559L742.825 350.279C742.559 350.545 742.142 350.57 741.849 350.352L741.765 350.279L738.794 347.309L733.325 352.779C733.032 353.072 732.557 353.072 732.264 352.779C731.998 352.512 731.973 352.096 732.191 351.802L732.264 351.718L738.264 345.718C738.53 345.452 738.947 345.427 739.24 345.645L739.325 345.718L742.295 348.688L749.482 341.5H743.793C743.413 341.5 743.1 341.218 743.05 340.852L743.043 340.75C743.043 340.37 743.325 340.057 743.691 340.007L743.793 340Z" fill="#459912"/>
<rect x="175.544" y="255.082" width="149.5" height="337.918" fill="#020024"/>
<circle cx="195.794" cy="286" r="8" fill="white" fill-opacity="0.5"/>
<rect x="210.794" y="278" width="102" height="16" rx="5" fill="white" fill-opacity="0.5"/>
<circle cx="195.794" cy="318" r="8" fill="white" fill-opacity="0.5"/>
<rect x="210.794" y="310" width="102" height="16" rx="5" fill="white" fill-opacity="0.5"/>
<circle cx="195.794" cy="350" r="8" fill="white" fill-opacity="0.5"/>
<rect x="210.794" y="342" width="102" height="16" rx="5" fill="white" fill-opacity="0.5"/>
<circle cx="576.919" cy="397.079" r="4" fill="#020024"/>
<path d="M594.29 392.715V401.079H593.198V397.287H588.938V401.079H587.846V392.715H588.938V396.387H593.198V392.715H594.29ZM599.502 401.187C598.886 401.187 598.326 401.047 597.822 400.767C597.326 400.487 596.934 400.091 596.646 399.579C596.366 399.059 596.226 398.459 596.226 397.779C596.226 397.107 596.37 396.515 596.658 396.003C596.954 395.483 597.354 395.087 597.858 394.815C598.362 394.535 598.926 394.395 599.55 394.395C600.174 394.395 600.738 394.535 601.242 394.815C601.746 395.087 602.142 395.479 602.43 395.991C602.726 396.503 602.874 397.099 602.874 397.779C602.874 398.459 602.722 399.059 602.418 399.579C602.122 400.091 601.718 400.487 601.206 400.767C600.694 401.047 600.126 401.187 599.502 401.187ZM599.502 400.227C599.894 400.227 600.262 400.135 600.606 399.951C600.95 399.767 601.226 399.491 601.434 399.123C601.65 398.755 601.758 398.307 601.758 397.779C601.758 397.251 601.654 396.803 601.446 396.435C601.238 396.067 600.966 395.795 600.63 395.619C600.294 395.435 599.93 395.343 599.538 395.343C599.138 395.343 598.77 395.435 598.434 395.619C598.106 395.795 597.842 396.067 597.642 396.435C597.442 396.803 597.342 397.251 597.342 397.779C597.342 398.315 597.438 398.767 597.63 399.135C597.83 399.503 598.094 399.779 598.422 399.963C598.75 400.139 599.11 400.227 599.502 400.227ZM607.118 401.187C606.614 401.187 606.162 401.103 605.762 400.935C605.362 400.759 605.046 400.519 604.814 400.215C604.582 399.903 604.454 399.547 604.43 399.147H605.558C605.59 399.475 605.742 399.743 606.014 399.951C606.294 400.159 606.658 400.263 607.106 400.263C607.522 400.263 607.85 400.171 608.09 399.987C608.33 399.803 608.45 399.571 608.45 399.291C608.45 399.003 608.322 398.791 608.066 398.655C607.81 398.511 607.414 398.371 606.878 398.235C606.39 398.107 605.99 397.979 605.678 397.851C605.374 397.715 605.11 397.519 604.886 397.263C604.67 396.999 604.562 396.655 604.562 396.231C604.562 395.895 604.662 395.587 604.862 395.307C605.062 395.027 605.346 394.807 605.714 394.647C606.082 394.479 606.502 394.395 606.974 394.395C607.702 394.395 608.29 394.579 608.738 394.947C609.186 395.315 609.426 395.819 609.458 396.459H608.366C608.342 396.115 608.202 395.839 607.946 395.631C607.698 395.423 607.362 395.319 606.938 395.319C606.546 395.319 606.234 395.403 606.002 395.571C605.77 395.739 605.654 395.959 605.654 396.231C605.654 396.447 605.722 396.627 605.858 396.771C606.002 396.907 606.178 397.019 606.386 397.107C606.602 397.187 606.898 397.279 607.274 397.383C607.746 397.511 608.13 397.639 608.426 397.767C608.722 397.887 608.974 398.071 609.182 398.319C609.398 398.567 609.51 398.891 609.518 399.291C609.518 399.651 609.418 399.975 609.218 400.263C609.018 400.551 608.734 400.779 608.366 400.947C608.006 401.107 607.59 401.187 607.118 401.187ZM612.631 395.715C612.847 395.339 613.167 395.027 613.591 394.779C614.023 394.523 614.523 394.395 615.091 394.395C615.675 394.395 616.203 394.535 616.675 394.815C617.155 395.095 617.531 395.491 617.803 396.003C618.075 396.507 618.211 397.095 618.211 397.767C618.211 398.431 618.075 399.023 617.803 399.543C617.531 400.063 617.155 400.467 616.675 400.755C616.203 401.043 615.675 401.187 615.091 401.187C614.531 401.187 614.035 401.063 613.603 400.815C613.179 400.559 612.855 400.243 612.631 399.867V404.199H611.539V394.503H612.631V395.715ZM617.095 397.767C617.095 397.271 616.995 396.839 616.795 396.471C616.595 396.103 616.323 395.823 615.979 395.631C615.643 395.439 615.271 395.343 614.863 395.343C614.463 395.343 614.091 395.443 613.747 395.643C613.411 395.835 613.139 396.119 612.931 396.495C612.731 396.863 612.631 397.291 612.631 397.779C612.631 398.275 612.731 398.711 612.931 399.087C613.139 399.455 613.411 399.739 613.747 399.939C614.091 400.131 614.463 400.227 614.863 400.227C615.271 400.227 615.643 400.131 615.979 399.939C616.323 399.739 616.595 399.455 616.795 399.087C616.995 398.711 617.095 398.271 617.095 397.767ZM620.693 393.435C620.485 393.435 620.309 393.363 620.165 393.219C620.021 393.075 619.949 392.899 619.949 392.691C619.949 392.483 620.021 392.307 620.165 392.163C620.309 392.019 620.485 391.947 620.693 391.947C620.893 391.947 621.061 392.019 621.197 392.163C621.341 392.307 621.413 392.483 621.413 392.691C621.413 392.899 621.341 393.075 621.197 393.219C621.061 393.363 620.893 393.435 620.693 393.435ZM621.221 394.503V401.079H620.129V394.503H621.221ZM624.894 395.403V399.279C624.894 399.599 624.962 399.827 625.098 399.963C625.234 400.091 625.47 400.155 625.806 400.155H626.61V401.079H625.626C625.018 401.079 624.562 400.939 624.258 400.659C623.954 400.379 623.802 399.919 623.802 399.279V395.403H622.95V394.503H623.802V392.847H624.894V394.503H626.61V395.403H624.894ZM628.005 397.767C628.005 397.095 628.141 396.507 628.413 396.003C628.685 395.491 629.057 395.095 629.529 394.815C630.009 394.535 630.541 394.395 631.125 394.395C631.701 394.395 632.201 394.519 632.625 394.767C633.049 395.015 633.365 395.327 633.573 395.703V394.503H634.677V401.079H633.573V399.855C633.357 400.239 633.033 400.559 632.601 400.815C632.177 401.063 631.681 401.187 631.113 401.187C630.529 401.187 630.001 401.043 629.529 400.755C629.057 400.467 628.685 400.063 628.413 399.543C628.141 399.023 628.005 398.431 628.005 397.767ZM633.573 397.779C633.573 397.283 633.473 396.851 633.273 396.483C633.073 396.115 632.801 395.835 632.457 395.643C632.121 395.443 631.749 395.343 631.341 395.343C630.933 395.343 630.561 395.439 630.225 395.631C629.889 395.823 629.621 396.103 629.421 396.471C629.221 396.839 629.121 397.271 629.121 397.767C629.121 398.271 629.221 398.711 629.421 399.087C629.621 399.455 629.889 399.739 630.225 399.939C630.561 400.131 630.933 400.227 631.341 400.227C631.749 400.227 632.121 400.131 632.457 399.939C632.801 399.739 633.073 399.455 633.273 399.087C633.473 398.711 633.573 398.275 633.573 397.779ZM638.094 392.199V401.079H637.002V392.199H638.094ZM641 393.435C640.792 393.435 640.616 393.363 640.472 393.219C640.328 393.075 640.256 392.899 640.256 392.691C640.256 392.483 640.328 392.307 640.472 392.163C640.616 392.019 640.792 391.947 641 391.947C641.2 391.947 641.368 392.019 641.504 392.163C641.648 392.307 641.72 392.483 641.72 392.691C641.72 392.899 641.648 393.075 641.504 393.219C641.368 393.363 641.2 393.435 641 393.435ZM641.528 394.503V401.079H640.436V394.503H641.528ZM644.685 400.179H647.913V401.079H643.437V400.179L646.629 395.391H643.461V394.503H647.889V395.391L644.685 400.179ZM655.81 397.539C655.81 397.747 655.798 397.967 655.774 398.199H650.518C650.558 398.847 650.778 399.355 651.178 399.723C651.586 400.083 652.078 400.263 652.654 400.263C653.126 400.263 653.518 400.155 653.83 399.939C654.15 399.715 654.374 399.419 654.502 399.051H655.678C655.502 399.683 655.15 400.199 654.622 400.599C654.094 400.991 653.438 401.187 652.654 401.187C652.03 401.187 651.47 401.047 650.974 400.767C650.486 400.487 650.102 400.091 649.822 399.579C649.542 399.059 649.402 398.459 649.402 397.779C649.402 397.099 649.538 396.503 649.81 395.991C650.082 395.479 650.462 395.087 650.95 394.815C651.446 394.535 652.014 394.395 652.654 394.395C653.278 394.395 653.83 394.531 654.31 394.803C654.79 395.075 655.158 395.451 655.414 395.931C655.678 396.403 655.81 396.939 655.81 397.539ZM654.682 397.311C654.682 396.895 654.59 396.539 654.406 396.243C654.222 395.939 653.97 395.711 653.65 395.559C653.338 395.399 652.99 395.319 652.606 395.319C652.054 395.319 651.582 395.495 651.19 395.847C650.806 396.199 650.586 396.687 650.53 397.311H654.682ZM657.323 397.767C657.323 397.095 657.459 396.507 657.731 396.003C658.003 395.491 658.375 395.095 658.847 394.815C659.327 394.535 659.863 394.395 660.455 394.395C660.967 394.395 661.443 394.515 661.883 394.755C662.323 394.987 662.659 395.295 662.891 395.679V392.199H663.995V401.079H662.891V399.843C662.675 400.235 662.355 400.559 661.931 400.815C661.507 401.063 661.011 401.187 660.443 401.187C659.859 401.187 659.327 401.043 658.847 400.755C658.375 400.467 658.003 400.063 657.731 399.543C657.459 399.023 657.323 398.431 657.323 397.767ZM662.891 397.779C662.891 397.283 662.791 396.851 662.591 396.483C662.391 396.115 662.119 395.835 661.775 395.643C661.439 395.443 661.067 395.343 660.659 395.343C660.251 395.343 659.879 395.439 659.543 395.631C659.207 395.823 658.939 396.103 658.739 396.471C658.539 396.839 658.439 397.271 658.439 397.767C658.439 398.271 658.539 398.711 658.739 399.087C658.939 399.455 659.207 399.739 659.543 399.939C659.879 400.131 660.251 400.227 660.659 400.227C661.067 400.227 661.439 400.131 661.775 399.939C662.119 399.739 662.391 399.455 662.591 399.087C662.791 398.711 662.891 398.275 662.891 397.779Z" fill="#121212"/>
<circle cx="680.919" cy="397.079" r="4" fill="#00C6C3"/>
<path d="M696.376 401.079L694.384 397.659H693.064V401.079H691.972V392.715H694.672C695.304 392.715 695.836 392.823 696.268 393.039C696.708 393.255 697.036 393.547 697.252 393.915C697.468 394.283 697.576 394.703 697.576 395.175C697.576 395.751 697.408 396.259 697.072 396.699C696.744 397.139 696.248 397.431 695.584 397.575L697.684 401.079H696.376ZM693.064 396.783H694.672C695.264 396.783 695.708 396.639 696.004 396.351C696.3 396.055 696.448 395.663 696.448 395.175C696.448 394.679 696.3 394.295 696.004 394.023C695.716 393.751 695.272 393.615 694.672 393.615H693.064V396.783ZM705.753 397.539C705.753 397.747 705.741 397.967 705.717 398.199H700.461C700.501 398.847 700.721 399.355 701.121 399.723C701.529 400.083 702.021 400.263 702.597 400.263C703.069 400.263 703.461 400.155 703.773 399.939C704.093 399.715 704.317 399.419 704.445 399.051H705.621C705.445 399.683 705.093 400.199 704.565 400.599C704.037 400.991 703.381 401.187 702.597 401.187C701.973 401.187 701.413 401.047 700.917 400.767C700.429 400.487 700.045 400.091 699.765 399.579C699.485 399.059 699.345 398.459 699.345 397.779C699.345 397.099 699.481 396.503 699.753 395.991C700.025 395.479 700.405 395.087 700.893 394.815C701.389 394.535 701.957 394.395 702.597 394.395C703.221 394.395 703.773 394.531 704.253 394.803C704.733 395.075 705.101 395.451 705.357 395.931C705.621 396.403 705.753 396.939 705.753 397.539ZM704.625 397.311C704.625 396.895 704.533 396.539 704.349 396.243C704.165 395.939 703.913 395.711 703.593 395.559C703.281 395.399 702.933 395.319 702.549 395.319C701.997 395.319 701.525 395.495 701.133 395.847C700.749 396.199 700.529 396.687 700.473 397.311H704.625ZM707.266 397.779C707.266 397.099 707.402 396.507 707.674 396.003C707.946 395.491 708.322 395.095 708.802 394.815C709.29 394.535 709.846 394.395 710.47 394.395C711.278 394.395 711.942 394.591 712.462 394.983C712.99 395.375 713.338 395.919 713.506 396.615H712.33C712.218 396.215 711.998 395.899 711.67 395.667C711.35 395.435 710.95 395.319 710.47 395.319C709.846 395.319 709.342 395.535 708.958 395.967C708.574 396.391 708.382 396.995 708.382 397.779C708.382 398.571 708.574 399.183 708.958 399.615C709.342 400.047 709.846 400.263 710.47 400.263C710.95 400.263 711.35 400.151 711.67 399.927C711.99 399.703 712.21 399.383 712.33 398.967H713.506C713.33 399.639 712.978 400.179 712.45 400.587C711.922 400.987 711.262 401.187 710.47 401.187C709.846 401.187 709.29 401.047 708.802 400.767C708.322 400.487 707.946 400.091 707.674 399.579C707.402 399.067 707.266 398.467 707.266 397.779ZM718.311 401.187C717.695 401.187 717.135 401.047 716.631 400.767C716.135 400.487 715.743 400.091 715.455 399.579C715.175 399.059 715.035 398.459 715.035 397.779C715.035 397.107 715.179 396.515 715.467 396.003C715.763 395.483 716.163 395.087 716.667 394.815C717.171 394.535 717.735 394.395 718.359 394.395C718.983 394.395 719.547 394.535 720.051 394.815C720.555 395.087 720.951 395.479 721.239 395.991C721.535 396.503 721.683 397.099 721.683 397.779C721.683 398.459 721.531 399.059 721.227 399.579C720.931 400.091 720.527 400.487 720.015 400.767C719.503 401.047 718.935 401.187 718.311 401.187ZM718.311 400.227C718.703 400.227 719.071 400.135 719.415 399.951C719.759 399.767 720.035 399.491 720.243 399.123C720.459 398.755 720.567 398.307 720.567 397.779C720.567 397.251 720.463 396.803 720.255 396.435C720.047 396.067 719.775 395.795 719.439 395.619C719.103 395.435 718.739 395.343 718.347 395.343C717.947 395.343 717.579 395.435 717.243 395.619C716.915 395.795 716.651 396.067 716.451 396.435C716.251 396.803 716.151 397.251 716.151 397.779C716.151 398.315 716.247 398.767 716.439 399.135C716.639 399.503 716.903 399.779 717.231 399.963C717.559 400.139 717.919 400.227 718.311 400.227ZM726.047 400.071L728.087 394.503H729.251L726.671 401.079H725.399L722.819 394.503H723.995L726.047 400.071ZM736.805 397.539C736.805 397.747 736.793 397.967 736.769 398.199H731.513C731.553 398.847 731.773 399.355 732.173 399.723C732.581 400.083 733.073 400.263 733.649 400.263C734.121 400.263 734.513 400.155 734.825 399.939C735.145 399.715 735.369 399.419 735.497 399.051H736.673C736.497 399.683 736.145 400.199 735.617 400.599C735.089 400.991 734.433 401.187 733.649 401.187C733.025 401.187 732.465 401.047 731.969 400.767C731.481 400.487 731.097 400.091 730.817 399.579C730.537 399.059 730.397 398.459 730.397 397.779C730.397 397.099 730.533 396.503 730.805 395.991C731.077 395.479 731.457 395.087 731.945 394.815C732.441 394.535 733.009 394.395 733.649 394.395C734.273 394.395 734.825 394.531 735.305 394.803C735.785 395.075 736.153 395.451 736.409 395.931C736.673 396.403 736.805 396.939 736.805 397.539ZM735.677 397.311C735.677 396.895 735.585 396.539 735.401 396.243C735.217 395.939 734.965 395.711 734.645 395.559C734.333 395.399 733.985 395.319 733.601 395.319C733.049 395.319 732.577 395.495 732.185 395.847C731.801 396.199 731.581 396.687 731.525 397.311H735.677ZM739.819 395.571C740.011 395.195 740.283 394.903 740.635 394.695C740.995 394.487 741.431 394.383 741.943 394.383V395.511H741.655C740.431 395.511 739.819 396.175 739.819 397.503V401.079H738.727V394.503H739.819V395.571ZM749.683 397.539C749.683 397.747 749.671 397.967 749.647 398.199H744.391C744.431 398.847 744.651 399.355 745.051 399.723C745.459 400.083 745.951 400.263 746.527 400.263C746.999 400.263 747.391 400.155 747.703 399.939C748.023 399.715 748.247 399.419 748.375 399.051H749.551C749.375 399.683 749.023 400.199 748.495 400.599C747.967 400.991 747.311 401.187 746.527 401.187C745.903 401.187 745.343 401.047 744.847 400.767C744.359 400.487 743.975 400.091 743.695 399.579C743.415 399.059 743.275 398.459 743.275 397.779C743.275 397.099 743.411 396.503 743.683 395.991C743.955 395.479 744.335 395.087 744.823 394.815C745.319 394.535 745.887 394.395 746.527 394.395C747.151 394.395 747.703 394.531 748.183 394.803C748.663 395.075 749.031 395.451 749.287 395.931C749.551 396.403 749.683 396.939 749.683 397.539ZM748.555 397.311C748.555 396.895 748.463 396.539 748.279 396.243C748.095 395.939 747.843 395.711 747.523 395.559C747.211 395.399 746.863 395.319 746.479 395.319C745.927 395.319 745.455 395.495 745.063 395.847C744.679 396.199 744.459 396.687 744.403 397.311H748.555ZM751.197 397.767C751.197 397.095 751.333 396.507 751.605 396.003C751.877 395.491 752.249 395.095 752.721 394.815C753.201 394.535 753.737 394.395 754.329 394.395C754.841 394.395 755.317 394.515 755.757 394.755C756.197 394.987 756.533 395.295 756.765 395.679V392.199H757.869V401.079H756.765V399.843C756.549 400.235 756.229 400.559 755.805 400.815C755.381 401.063 754.885 401.187 754.317 401.187C753.733 401.187 753.201 401.043 752.721 400.755C752.249 400.467 751.877 400.063 751.605 399.543C751.333 399.023 751.197 398.431 751.197 397.767ZM756.765 397.779C756.765 397.283 756.665 396.851 756.465 396.483C756.265 396.115 755.993 395.835 755.649 395.643C755.313 395.443 754.941 395.343 754.533 395.343C754.125 395.343 753.753 395.439 753.417 395.631C753.081 395.823 752.813 396.103 752.613 396.471C752.413 396.839 752.313 397.271 752.313 397.767C752.313 398.271 752.413 398.711 752.613 399.087C752.813 399.455 753.081 399.739 753.417 399.939C753.753 400.131 754.125 400.227 754.533 400.227C754.941 400.227 755.313 400.131 755.649 399.939C755.993 399.739 756.265 399.455 756.465 399.087C756.665 398.711 756.765 398.275 756.765 397.779Z" fill="#121212"/>
<path d="M324.007 497C324.007 494.791 325.797 493 328.007 493C330.216 493 332.007 494.791 332.007 497V575.616C332.007 577.825 330.216 579.616 328.007 579.616C325.797 579.616 324.007 577.825 324.007 575.616V497Z" fill="#020024"/>
<path d="M338.007 463.616C338.007 461.407 339.797 459.616 342.007 459.616C344.216 459.616 346.007 461.407 346.007 463.616V575.616C346.007 577.825 344.216 579.616 342.007 579.616C339.797 579.616 338.007 577.825 338.007 575.616V463.616Z" fill="#00C6C3"/>
<path d="M370.007 487.384C370.007 485.175 371.797 483.384 374.007 483.384C376.216 483.384 378.007 485.175 378.007 487.384V575.616C378.007 577.825 376.216 579.616 374.007 579.616C371.797 579.616 370.007 577.825 370.007 575.616V487.384Z" fill="#020024"/>
<path d="M384.007 482.384C384.007 480.175 385.797 478.384 388.007 478.384C390.216 478.384 392.007 480.175 392.007 482.384V575.616C392.007 577.825 390.216 579.616 388.007 579.616C385.797 579.616 384.007 577.825 384.007 575.616V482.384Z" fill="#00C6C3"/>
<path d="M416.007 469.884C416.007 467.675 417.797 465.884 420.007 465.884C422.216 465.884 424.007 467.675 424.007 469.884V575.616C424.007 577.825 422.216 579.616 420.007 579.616C417.797 579.616 416.007 577.825 416.007 575.616V469.884Z" fill="#020024"/>
<path d="M430.007 497C430.007 494.791 431.797 493 434.007 493C436.216 493 438.007 494.791 438.007 497V575.616C438.007 577.825 436.216 579.616 434.007 579.616C431.797 579.616 430.007 577.825 430.007 575.616V497Z" fill="#00C6C3"/>
<path d="M462.007 452C462.007 449.791 463.797 448 466.007 448C468.216 448 470.007 449.791 470.007 452V575.616C470.007 577.825 468.216 579.616 466.007 579.616C463.797 579.616 462.007 577.825 462.007 575.616V452Z" fill="#020024"/>
<path d="M476.007 536.884C476.007 534.675 477.797 532.884 480.007 532.884C482.216 532.884 484.007 534.675 484.007 536.884V575.616C484.007 577.825 482.216 579.616 480.007 579.616C477.797 579.616 476.007 577.825 476.007 575.616V536.884Z" fill="#00C6C3"/>
<path d="M508.007 416.384C508.007 414.175 509.797 412.384 512.007 412.384C514.216 412.384 516.007 414.175 516.007 416.384V575.616C516.007 577.825 514.216 579.616 512.007 579.616C509.797 579.616 508.007 577.825 508.007 575.616V416.384Z" fill="#020024"/>
<path d="M522.007 442.384C522.007 440.175 523.797 438.384 526.007 438.384C528.216 438.384 530.007 440.175 530.007 442.384V575.616C530.007 577.825 528.216 579.616 526.007 579.616C523.797 579.616 522.007 577.825 522.007 575.616V442.384Z" fill="#00C6C3"/>
<path d="M554.007 461C554.007 458.791 555.797 457 558.007 457C560.216 457 562.007 458.791 562.007 461V575.616C562.007 577.825 560.216 579.616 558.007 579.616C555.797 579.616 554.007 577.825 554.007 575.616V461Z" fill="#020024"/>
<path d="M568.007 474C568.007 471.791 569.797 470 572.007 470C574.216 470 576.007 471.791 576.007 474V575.616C576.007 577.825 574.216 579.616 572.007 579.616C569.797 579.616 568.007 577.825 568.007 575.616V474Z" fill="#00C6C3"/>
<path d="M600.007 431.08C600.007 428.871 601.797 427.08 604.007 427.08C606.216 427.08 608.007 428.871 608.007 431.08V575.616C608.007 577.825 606.216 579.616 604.007 579.616C601.797 579.616 600.007 577.825 600.007 575.616V431.08Z" fill="#020024"/>
<path d="M614.007 488.08C614.007 485.871 615.797 484.08 618.007 484.08C620.216 484.08 622.007 485.871 622.007 488.08V575.616C622.007 577.825 620.216 579.616 618.007 579.616C615.797 579.616 614.007 577.825 614.007 575.616V488.08Z" fill="#00C6C3"/>
<path d="M646.007 511.08C646.007 508.871 647.797 507.08 650.007 507.08C652.216 507.08 654.007 508.871 654.007 511.08V575.616C654.007 577.825 652.216 579.616 650.007 579.616C647.797 579.616 646.007 577.825 646.007 575.616V511.08Z" fill="#020024"/>
<path d="M660.007 461.08C660.007 458.871 661.797 457.08 664.007 457.08C666.216 457.08 668.007 458.871 668.007 461.08V575.616C668.007 577.825 666.216 579.616 664.007 579.616C661.797 579.616 660.007 577.825 660.007 575.616V461.08Z" fill="#00C6C3"/>
<path d="M692.007 445.08C692.007 442.871 693.797 441.08 696.007 441.08C698.216 441.08 700.007 442.871 700.007 445.08V575.616C700.007 577.825 698.216 579.616 696.007 579.616C693.797 579.616 692.007 577.825 692.007 575.616V445.08Z" fill="#020024"/>
<path d="M706.007 492.08C706.007 489.871 707.797 488.08 710.007 488.08C712.216 488.08 714.007 489.871 714.007 492.08V575.616C714.007 577.825 712.216 579.616 710.007 579.616C707.797 579.616 706.007 577.825 706.007 575.616V492.08Z" fill="#00C6C3"/>
<path d="M738.007 445.08C738.007 442.871 739.797 441.08 742.007 441.08C744.216 441.08 746.007 442.871 746.007 445.08V575.616C746.007 577.825 744.216 579.616 742.007 579.616C739.797 579.616 738.007 577.825 738.007 575.616V445.08Z" fill="#020024"/>
<path d="M752.007 523.08C752.007 520.871 753.797 519.08 756.007 519.08C758.216 519.08 760.007 520.871 760.007 523.08V575.616C760.007 577.825 758.216 579.616 756.007 579.616C753.797 579.616 752.007 577.825 752.007 575.616V523.08Z" fill="#00C6C3"/>
</g>
</g>
<g filter="url(#filter1_ddii_1_163)">
<g clip-path="url(#clip1_1_163)">
<rect x="125.374" y="422" width="221" height="228" rx="20" fill="white"/>
<path d="M293.252 567.831C294.367 569.057 296.269 569.15 297.45 567.988C309.976 555.667 317.936 539.407 319.954 521.893C321.972 504.379 317.919 486.734 308.523 471.887C307.637 470.487 305.764 470.146 304.399 471.085L303.158 471.941C301.793 472.88 301.455 474.745 302.335 476.149C310.704 489.497 314.306 505.324 312.496 521.033C310.686 536.743 303.578 551.336 292.393 562.431C291.217 563.598 291.122 565.491 292.237 566.716L293.252 567.831Z" fill="#020024"/>
<path d="M163.12 497.749C161.492 497.443 159.918 498.514 159.675 500.153C157.835 512.591 159.066 525.306 163.281 537.184C167.495 549.062 174.555 559.709 183.823 568.205C185.044 569.325 186.941 569.164 188.013 567.9L188.987 566.75C190.059 565.486 189.897 563.598 188.681 562.473C180.422 554.838 174.127 545.301 170.356 534.673C166.585 524.045 165.461 512.674 167.06 501.541C167.295 499.901 166.23 498.333 164.602 498.027L163.12 497.749Z" fill="#595E60"/>
<path d="M299.648 468.522C300.914 467.454 301.079 465.556 299.962 464.333C288.453 451.723 273.077 443.292 256.257 440.37C254.625 440.086 253.113 441.245 252.893 442.887L252.693 444.381C252.473 446.023 253.628 447.526 255.259 447.817C270.232 450.483 283.92 457.989 294.219 469.178C295.341 470.397 297.23 470.563 298.496 469.494L299.648 468.522Z" fill="#00C6C3"/>
<path d="M248.698 442.165C248.989 440.534 247.902 438.97 246.261 438.743C228.588 436.303 210.579 440.071 195.335 449.459C180.092 458.846 168.621 473.232 162.846 490.111C162.31 491.679 163.217 493.353 164.805 493.828L166.249 494.261C167.836 494.735 169.502 493.831 170.045 492.265C175.287 477.15 185.597 464.272 199.272 455.851C212.947 447.43 229.087 444.019 244.944 446.141C246.587 446.36 248.144 445.28 248.434 443.649L248.698 442.165Z" fill="#A7AFAC"/>
<mask id="path-62-inside-1_1_163" fill="white">
<path d="M192.804 560.034C184.564 551.046 179.11 539.86 177.103 527.832C175.096 515.805 176.623 503.454 181.498 492.278C186.373 481.101 194.387 471.58 204.568 464.869C214.749 458.158 226.658 454.546 238.851 454.471C251.045 454.396 262.997 457.862 273.26 464.447C283.522 471.033 291.652 480.455 296.664 491.571C301.677 502.686 303.355 515.018 301.496 527.069C299.637 539.12 294.32 550.372 286.191 559.461L239.238 517.464L192.804 560.034Z"/>
</mask>
<path d="M192.804 560.034C184.564 551.046 179.11 539.86 177.103 527.832C175.096 515.805 176.623 503.454 181.498 492.278C186.373 481.101 194.387 471.58 204.568 464.869C214.749 458.158 226.658 454.546 238.851 454.471C251.045 454.396 262.997 457.862 273.26 464.447C283.522 471.033 291.652 480.455 296.664 491.571C301.677 502.686 303.355 515.018 301.496 527.069C299.637 539.12 294.32 550.372 286.191 559.461L239.238 517.464L192.804 560.034Z" stroke="#909090" stroke-opacity="0.5" stroke-width="2" stroke-dasharray="10 10" mask="url(#path-62-inside-1_1_163)"/>
<g filter="url(#filter2_ddddii_1_163)">
<circle cx="239.238" cy="517.464" r="50.1694" transform="rotate(2.48627 239.238 517.464)" fill="white"/>
</g>
<path d="M229.31 504.895L229.31 505.783L227.03 505.783L227.03 513.259L225.938 513.259L225.938 505.783L223.646 505.783L223.646 504.895L229.31 504.895ZM234.002 513.367C233.386 513.367 232.826 513.227 232.322 512.947C231.826 512.667 231.434 512.271 231.146 511.759C230.866 511.239 230.726 510.639 230.726 509.959C230.726 509.287 230.87 508.695 231.158 508.183C231.454 507.663 231.854 507.267 232.358 506.995C232.862 506.715 233.426 506.575 234.05 506.575C234.674 506.575 235.238 506.715 235.742 506.995C236.246 507.267 236.642 507.659 236.93 508.171C237.226 508.683 237.374 509.279 237.374 509.959C237.374 510.639 237.222 511.239 236.918 511.759C236.622 512.271 236.218 512.667 235.706 512.947C235.194 513.227 234.626 513.367 234.002 513.367ZM234.002 512.407C234.394 512.407 234.762 512.315 235.106 512.131C235.45 511.947 235.726 511.671 235.934 511.303C236.15 510.935 236.258 510.487 236.258 509.959C236.258 509.431 236.154 508.983 235.946 508.615C235.738 508.247 235.466 507.975 235.13 507.799C234.794 507.615 234.43 507.523 234.038 507.523C233.638 507.523 233.27 507.615 232.934 507.799C232.606 507.975 232.342 508.247 232.142 508.615C231.942 508.983 231.842 509.431 231.842 509.959C231.842 510.495 231.938 510.947 232.13 511.315C232.33 511.683 232.594 511.959 232.922 512.143C233.25 512.319 233.61 512.407 234.002 512.407ZM240.622 507.583L240.622 511.459C240.622 511.779 240.69 512.007 240.826 512.143C240.962 512.271 241.198 512.335 241.534 512.335L242.338 512.335L242.338 513.259L241.354 513.259C240.746 513.259 240.29 513.119 239.986 512.839C239.682 512.559 239.53 512.099 239.53 511.459L239.53 507.583L238.678 507.583L238.678 506.683L239.53 506.683L239.53 505.027L240.622 505.027L240.622 506.683L242.338 506.683L242.338 507.583L240.622 507.583ZM243.733 509.947C243.733 509.275 243.869 508.687 244.141 508.183C244.413 507.671 244.785 507.275 245.257 506.995C245.737 506.715 246.269 506.575 246.853 506.575C247.429 506.575 247.929 506.699 248.353 506.947C248.777 507.195 249.093 507.507 249.301 507.883L249.301 506.683L250.405 506.683L250.405 513.259L249.301 513.259L249.301 512.035C249.085 512.419 248.761 512.739 248.329 512.995C247.905 513.243 247.409 513.367 246.841 513.367C246.257 513.367 245.729 513.223 245.257 512.935C244.785 512.647 244.413 512.243 244.141 511.723C243.869 511.203 243.733 510.611 243.733 509.947ZM249.301 509.959C249.301 509.463 249.201 509.031 249.001 508.663C248.801 508.295 248.529 508.015 248.185 507.823C247.849 507.623 247.477 507.523 247.069 507.523C246.661 507.523 246.289 507.619 245.953 507.811C245.617 508.003 245.349 508.283 245.149 508.651C244.949 509.019 244.849 509.451 244.849 509.947C244.849 510.451 244.949 510.891 245.149 511.267C245.349 511.635 245.617 511.919 245.953 512.119C246.289 512.311 246.661 512.407 247.069 512.407C247.477 512.407 247.849 512.311 248.185 512.119C248.529 511.919 248.801 511.635 249.001 511.267C249.201 510.891 249.301 510.455 249.301 509.959ZM253.822 504.379L253.822 513.259L252.73 513.259L252.73 504.379L253.822 504.379Z" fill="#121212" fill-opacity="0.6"/>
<path d="M217.885 534.445C217.885 534.93 217.759 535.388 217.507 535.817C217.264 536.237 216.9 536.587 216.415 536.867C215.939 537.138 215.374 537.296 214.721 537.343L214.721 538.477L213.825 538.477L213.825 537.329C212.891 537.245 212.14 536.965 211.571 536.489C211.001 536.004 210.707 535.35 210.689 534.529L212.789 534.529C212.845 535.201 213.19 535.607 213.825 535.747L213.825 533.073C213.153 532.905 212.611 532.737 212.201 532.569C211.79 532.401 211.435 532.13 211.137 531.757C210.838 531.384 210.689 530.875 210.689 530.231C210.689 529.419 210.978 528.756 211.557 528.243C212.145 527.73 212.901 527.436 213.825 527.361L213.825 526.227L214.721 526.227L214.721 527.361C215.617 527.436 216.331 527.706 216.863 528.173C217.404 528.64 217.707 529.284 217.773 530.105L215.659 530.105C215.631 529.834 215.533 529.601 215.365 529.405C215.206 529.2 214.991 529.055 214.721 528.971L214.721 531.617C215.421 531.794 215.971 531.967 216.373 532.135C216.783 532.294 217.138 532.56 217.437 532.933C217.735 533.297 217.885 533.801 217.885 534.445ZM212.733 530.133C212.733 530.441 212.826 530.693 213.013 530.889C213.199 531.076 213.47 531.23 213.825 531.351L213.825 528.929C213.489 528.976 213.223 529.102 213.027 529.307C212.831 529.512 212.733 529.788 212.733 530.133ZM214.721 535.775C215.075 535.71 215.351 535.565 215.547 535.341C215.752 535.117 215.855 534.846 215.855 534.529C215.855 534.221 215.757 533.974 215.561 533.787C215.365 533.6 215.085 533.446 214.721 533.325L214.721 535.775ZM220.745 535.047C221.641 534.3 222.355 533.68 222.887 533.185C223.419 532.681 223.862 532.158 224.217 531.617C224.572 531.076 224.749 530.544 224.749 530.021C224.749 529.545 224.637 529.172 224.413 528.901C224.189 528.63 223.844 528.495 223.377 528.495C222.91 528.495 222.551 528.654 222.299 528.971C222.047 529.279 221.916 529.704 221.907 530.245L220.003 530.245C220.04 529.125 220.372 528.276 220.997 527.697C221.632 527.118 222.434 526.829 223.405 526.829C224.469 526.829 225.286 527.114 225.855 527.683C226.424 528.243 226.709 528.985 226.709 529.909C226.709 530.637 226.513 531.332 226.121 531.995C225.729 532.658 225.281 533.236 224.777 533.731C224.273 534.216 223.615 534.804 222.803 535.495L226.933 535.495L226.933 537.119L220.017 537.119L220.017 535.663L220.745 535.047ZM233.74 529.601C233.647 529.209 233.483 528.915 233.25 528.719C233.026 528.523 232.699 528.425 232.27 528.425C231.626 528.425 231.15 528.686 230.842 529.209C230.543 529.722 230.389 530.562 230.38 531.729C230.604 531.356 230.931 531.066 231.36 530.861C231.789 530.646 232.256 530.539 232.76 530.539C233.367 530.539 233.903 530.67 234.37 530.931C234.837 531.192 235.201 531.575 235.462 532.079C235.723 532.574 235.854 533.171 235.854 533.871C235.854 534.534 235.719 535.126 235.448 535.649C235.187 536.162 234.799 536.564 234.286 536.853C233.773 537.142 233.161 537.287 232.452 537.287C231.481 537.287 230.716 537.072 230.156 536.643C229.605 536.214 229.218 535.616 228.994 534.851C228.779 534.076 228.672 533.124 228.672 531.995C228.672 530.287 228.966 528.999 229.554 528.131C230.142 527.254 231.071 526.815 232.34 526.815C233.32 526.815 234.081 527.081 234.622 527.613C235.163 528.145 235.476 528.808 235.56 529.601L233.74 529.601ZM232.312 532.149C231.817 532.149 231.402 532.294 231.066 532.583C230.73 532.872 230.562 533.292 230.562 533.843C230.562 534.394 230.716 534.828 231.024 535.145C231.341 535.462 231.785 535.621 232.354 535.621C232.858 535.621 233.255 535.467 233.544 535.159C233.843 534.851 233.992 534.436 233.992 533.913C233.992 533.372 233.847 532.942 233.558 532.625C233.278 532.308 232.863 532.149 232.312 532.149ZM238.775 537.357C238.42 537.357 238.126 537.25 237.893 537.035C237.669 536.811 237.557 536.536 237.557 536.209C237.557 535.882 237.669 535.612 237.893 535.397C238.126 535.173 238.42 535.061 238.775 535.061C239.12 535.061 239.405 535.173 239.629 535.397C239.853 535.612 239.965 535.882 239.965 536.209C239.965 536.536 239.853 536.811 239.629 537.035C239.405 537.25 239.12 537.357 238.775 537.357ZM248.46 528.747L243.924 528.747L243.924 531.141C244.12 530.898 244.4 530.702 244.764 530.553C245.128 530.394 245.515 530.315 245.926 530.315C246.672 530.315 247.284 530.478 247.76 530.805C248.236 531.132 248.581 531.552 248.796 532.065C249.01 532.569 249.118 533.11 249.118 533.689C249.118 534.762 248.81 535.626 248.194 536.279C247.587 536.932 246.719 537.259 245.59 537.259C244.526 537.259 243.676 536.993 243.042 536.461C242.407 535.929 242.048 535.234 241.964 534.375L243.868 534.375C243.952 534.748 244.138 535.047 244.428 535.271C244.726 535.495 245.104 535.607 245.562 535.607C246.112 535.607 246.528 535.434 246.808 535.089C247.088 534.744 247.228 534.286 247.228 533.717C247.228 533.138 247.083 532.7 246.794 532.401C246.514 532.093 246.098 531.939 245.548 531.939C245.156 531.939 244.829 532.037 244.568 532.233C244.306 532.429 244.12 532.69 244.008 533.017L242.132 533.017L242.132 527.025L248.46 527.025L248.46 528.747ZM250.89 532.023C250.89 530.408 251.179 529.144 251.758 528.229C252.346 527.314 253.316 526.857 254.67 526.857C256.023 526.857 256.989 527.314 257.568 528.229C258.156 529.144 258.45 530.408 258.45 532.023C258.45 533.647 258.156 534.921 257.568 535.845C256.989 536.769 256.023 537.231 254.67 537.231C253.316 537.231 252.346 536.769 251.758 535.845C251.179 534.921 250.89 533.647 250.89 532.023ZM256.518 532.023C256.518 531.332 256.471 530.754 256.378 530.287C256.294 529.811 256.116 529.424 255.846 529.125C255.584 528.826 255.192 528.677 254.67 528.677C254.147 528.677 253.75 528.826 253.48 529.125C253.218 529.424 253.041 529.811 252.948 530.287C252.864 530.754 252.822 531.332 252.822 532.023C252.822 532.732 252.864 533.33 252.948 533.815C253.032 534.291 253.209 534.678 253.48 534.977C253.75 535.266 254.147 535.411 254.67 535.411C255.192 535.411 255.589 535.266 255.86 534.977C256.13 534.678 256.308 534.291 256.392 533.815C256.476 533.33 256.518 532.732 256.518 532.023ZM260.22 532.023C260.22 530.408 260.51 529.144 261.088 528.229C261.676 527.314 262.647 526.857 264 526.857C265.354 526.857 266.32 527.314 266.898 528.229C267.486 529.144 267.78 530.408 267.78 532.023C267.78 533.647 267.486 534.921 266.898 535.845C266.32 536.769 265.354 537.231 264 537.231C262.647 537.231 261.676 536.769 261.088 535.845C260.51 534.921 260.22 533.647 260.22 532.023ZM265.848 532.023C265.848 531.332 265.802 530.754 265.708 530.287C265.624 529.811 265.447 529.424 265.176 529.125C264.915 528.826 264.523 528.677 264 528.677C263.478 528.677 263.081 528.826 262.81 529.125C262.549 529.424 262.372 529.811 262.278 530.287C262.194 530.754 262.152 531.332 262.152 532.023C262.152 532.732 262.194 533.33 262.278 533.815C262.362 534.291 262.54 534.678 262.81 534.977C263.081 535.266 263.478 535.411 264 535.411C264.523 535.411 264.92 535.266 265.19 534.977C265.461 534.678 265.638 534.291 265.722 533.815C265.806 533.33 265.848 532.732 265.848 532.023Z" fill="black"/>
<rect x="136.436" y="593.35" width="18.9258" height="16" rx="5" fill="#121212" fill-opacity="0.05"/>
<rect x="163.362" y="593.35" width="171.949" height="16" rx="5" fill="#121212" fill-opacity="0.05"/>
<rect x="136.436" y="618.35" width="18.9258" height="16" rx="5" fill="#121212" fill-opacity="0.05"/>
<rect x="163.362" y="618.35" width="171.949" height="16" rx="5" fill="#121212" fill-opacity="0.05"/>
</g>
</g>
<defs>
<filter id="filter0_ddddii_1_163" x="0.0441895" y="0" width="990" height="800" filterUnits="userSpaceOnUse" color-interpolation-filters="sRGB">
<feFlood flood-opacity="0" result="BackgroundImageFix"/>
<feColorMatrix in="SourceAlpha" type="matrix" values="0 0 0 0 0 0 0 0 0 0 0 0 0 0 0 0 0 0 127 0" result="hardAlpha"/>
<feOffset dx="59" dy="59"/>
<feGaussianBlur stdDeviation="74"/>
<feColorMatrix type="matrix" values="0 0 0 0 0.960784 0 0 0 0 0.960784 0 0 0 0 0.960784 0 0 0 0.9 0"/>
<feBlend mode="normal" in2="BackgroundImageFix" result="effect1_dropShadow_1_163"/>
<feColorMatrix in="SourceAlpha" type="matrix" values="0 0 0 0 0 0 0 0 0 0 0 0 0 0 0 0 0 0 127 0" result="hardAlpha"/>
<feOffset dx="-59" dy="-59"/>
<feGaussianBlur stdDeviation="59"/>
<feColorMatrix type="matrix" values="0 0 0 0 1 0 0 0 0 1 0 0 0 0 1 0 0 0 0.9 0"/>
<feBlend mode="normal" in2="effect1_dropShadow_1_163" result="effect2_dropShadow_1_163"/>
<feColorMatrix in="SourceAlpha" type="matrix" values="0 0 0 0 0 0 0 0 0 0 0 0 0 0 0 0 0 0 127 0" result="hardAlpha"/>
<feOffset dx="59" dy="-59"/>
<feGaussianBlur stdDeviation="59"/>
<feColorMatrix type="matrix" values="0 0 0 0 0.960784 0 0 0 0 0.960784 0 0 0 0 0.960784 0 0 0 0.2 0"/>
<feBlend mode="normal" in2="effect2_dropShadow_1_163" result="effect3_dropShadow_1_163"/>
<feColorMatrix in="SourceAlpha" type="matrix" values="0 0 0 0 0 0 0 0 0 0 0 0 0 0 0 0 0 0 127 0" result="hardAlpha"/>
<feOffset dx="-59" dy="59"/>
<feGaussianBlur stdDeviation="59"/>
<feColorMatrix type="matrix" values="0 0 0 0 0.960784 0 0 0 0 0.960784 0 0 0 0 0.960784 0 0 0 0.2 0"/>
<feBlend mode="normal" in2="effect3_dropShadow_1_163" result="effect4_dropShadow_1_163"/>
<feBlend mode="normal" in="SourceGraphic" in2="effect4_dropShadow_1_163" result="shape"/>
<feColorMatrix in="SourceAlpha" type="matrix" values="0 0 0 0 0 0 0 0 0 0 0 0 0 0 0 0 0 0 127 0" result="hardAlpha"/>
<feOffset dx="-2" dy="-2"/>
<feGaussianBlur stdDeviation="1.5"/>
<feComposite in2="hardAlpha" operator="arithmetic" k2="-1" k3="1"/>
<feColorMatrix type="matrix" values="0 0 0 0 0.960784 0 0 0 0 0.960784 0 0 0 0 0.960784 0 0 0 0.5 0"/>
<feBlend mode="normal" in2="shape" result="effect5_innerShadow_1_163"/>
<feColorMatrix in="SourceAlpha" type="matrix" values="0 0 0 0 0 0 0 0 0 0 0 0 0 0 0 0 0 0 127 0" result="hardAlpha"/>
<feOffset dx="2" dy="2"/>
<feGaussianBlur stdDeviation="1.5"/>
<feComposite in2="hardAlpha" operator="arithmetic" k2="-1" k3="1"/>
<feColorMatrix type="matrix" values="0 0 0 0 1 0 0 0 0 1 0 0 0 0 1 0 0 0 0.3 0"/>
<feBlend mode="normal" in2="effect5_innerShadow_1_163" result="effect6_innerShadow_1_163"/>
</filter>
<filter id="filter1_ddii_1_163" x="110.374" y="414" width="254" height="254" filterUnits="userSpaceOnUse" color-interpolation-filters="sRGB">
<feFlood flood-opacity="0" result="BackgroundImageFix"/>
<feColorMatrix in="SourceAlpha" type="matrix" values="0 0 0 0 0 0 0 0 0 0 0 0 0 0 0 0 0 0 127 0" result="hardAlpha"/>
<feOffset dx="5" dy="5"/>
<feGaussianBlur stdDeviation="6.5"/>
<feColorMatrix type="matrix" values="0 0 0 0 0.901961 0 0 0 0 0.901961 0 0 0 0 0.901961 0 0 0 0.9 0"/>
<feBlend mode="normal" in2="BackgroundImageFix" result="effect1_dropShadow_1_163"/>
<feColorMatrix in="SourceAlpha" type="matrix" values="0 0 0 0 0 0 0 0 0 0 0 0 0 0 0 0 0 0 127 0" result="hardAlpha"/>
<feOffset dx="-5" dy="5"/>
<feGaussianBlur stdDeviation="5"/>
<feColorMatrix type="matrix" values="0 0 0 0 0.901961 0 0 0 0 0.901961 0 0 0 0 0.901961 0 0 0 0.2 0"/>
<feBlend mode="normal" in2="effect1_dropShadow_1_163" result="effect2_dropShadow_1_163"/>
<feBlend mode="normal" in="SourceGraphic" in2="effect2_dropShadow_1_163" result="shape"/>
<feColorMatrix in="SourceAlpha" type="matrix" values="0 0 0 0 0 0 0 0 0 0 0 0 0 0 0 0 0 0 127 0" result="hardAlpha"/>
<feOffset dx="-1" dy="-1"/>
<feGaussianBlur stdDeviation="1"/>
<feComposite in2="hardAlpha" operator="arithmetic" k2="-1" k3="1"/>
<feColorMatrix type="matrix" values="0 0 0 0 0.901961 0 0 0 0 0.901961 0 0 0 0 0.901961 0 0 0 0.5 0"/>
<feBlend mode="normal" in2="shape" result="effect3_innerShadow_1_163"/>
<feColorMatrix in="SourceAlpha" type="matrix" values="0 0 0 0 0 0 0 0 0 0 0 0 0 0 0 0 0 0 127 0" result="hardAlpha"/>
<feOffset dx="1" dy="1"/>
<feGaussianBlur stdDeviation="1"/>
<feComposite in2="hardAlpha" operator="arithmetic" k2="-1" k3="1"/>
<feColorMatrix type="matrix" values="0 0 0 0 1 0 0 0 0 1 0 0 0 0 1 0 0 0 0.3 0"/>
<feBlend mode="normal" in2="effect3_innerShadow_1_163" result="effect4_innerShadow_1_163"/>
</filter>
<filter id="filter2_ddddii_1_163" x="174.068" y="452.294" width="133.341" height="133.341" filterUnits="userSpaceOnUse" color-interpolation-filters="sRGB">
<feFlood flood-opacity="0" result="BackgroundImageFix"/>
<feColorMatrix in="SourceAlpha" type="matrix" values="0 0 0 0 0 0 0 0 0 0 0 0 0 0 0 0 0 0 127 0" result="hardAlpha"/>
<feOffset dx="5" dy="5"/>
<feGaussianBlur stdDeviation="6.5"/>
<feColorMatrix type="matrix" values="0 0 0 0 0.901961 0 0 0 0 0.901961 0 0 0 0 0.901961 0 0 0 0.9 0"/>
<feBlend mode="normal" in2="BackgroundImageFix" result="effect1_dropShadow_1_163"/>
<feColorMatrix in="SourceAlpha" type="matrix" values="0 0 0 0 0 0 0 0 0 0 0 0 0 0 0 0 0 0 127 0" result="hardAlpha"/>
<feOffset dx="-5" dy="-5"/>
<feGaussianBlur stdDeviation="5"/>
<feColorMatrix type="matrix" values="0 0 0 0 1 0 0 0 0 1 0 0 0 0 1 0 0 0 0.9 0"/>
<feBlend mode="normal" in2="effect1_dropShadow_1_163" result="effect2_dropShadow_1_163"/>
<feColorMatrix in="SourceAlpha" type="matrix" values="0 0 0 0 0 0 0 0 0 0 0 0 0 0 0 0 0 0 127 0" result="hardAlpha"/>
<feOffset dx="5" dy="-5"/>
<feGaussianBlur stdDeviation="5"/>
<feColorMatrix type="matrix" values="0 0 0 0 0.901961 0 0 0 0 0.901961 0 0 0 0 0.901961 0 0 0 0.2 0"/>
<feBlend mode="normal" in2="effect2_dropShadow_1_163" result="effect3_dropShadow_1_163"/>
<feColorMatrix in="SourceAlpha" type="matrix" values="0 0 0 0 0 0 0 0 0 0 0 0 0 0 0 0 0 0 127 0" result="hardAlpha"/>
<feOffset dx="-5" dy="5"/>
<feGaussianBlur stdDeviation="5"/>
<feColorMatrix type="matrix" values="0 0 0 0 0.901961 0 0 0 0 0.901961 0 0 0 0 0.901961 0 0 0 0.2 0"/>
<feBlend mode="normal" in2="effect3_dropShadow_1_163" result="effect4_dropShadow_1_163"/>
<feBlend mode="normal" in="SourceGraphic" in2="effect4_dropShadow_1_163" result="shape"/>
<feColorMatrix in="SourceAlpha" type="matrix" values="0 0 0 0 0 0 0 0 0 0 0 0 0 0 0 0 0 0 127 0" result="hardAlpha"/>
<feOffset dx="-1" dy="-1"/>
<feGaussianBlur stdDeviation="1"/>
<feComposite in2="hardAlpha" operator="arithmetic" k2="-1" k3="1"/>
<feColorMatrix type="matrix" values="0 0 0 0 0.901961 0 0 0 0 0.901961 0 0 0 0 0.901961 0 0 0 0.5 0"/>
<feBlend mode="normal" in2="shape" result="effect5_innerShadow_1_163"/>
<feColorMatrix in="SourceAlpha" type="matrix" values="0 0 0 0 0 0 0 0 0 0 0 0 0 0 0 0 0 0 127 0" result="hardAlpha"/>
<feOffset dx="1" dy="1"/>
<feGaussianBlur stdDeviation="1"/>
<feComposite in2="hardAlpha" operator="arithmetic" k2="-1" k3="1"/>
<feColorMatrix type="matrix" values="0 0 0 0 1 0 0 0 0 1 0 0 0 0 1 0 0 0 0.3 0"/>
<feBlend mode="normal" in2="effect5_innerShadow_1_163" result="effect6_innerShadow_1_163"/>
</filter>
<clipPath id="clip0_1_163">
<rect x="177.044" y="177" width="606" height="416" rx="40" fill="white"/>
</clipPath>
<clipPath id="clip1_1_163">
<rect x="125.374" y="422" width="221" height="228" rx="20" fill="white"/>
</clipPath>
</defs>
</svg>
