<svg width="44" height="48" viewBox="0 0 44 48" fill="none" xmlns="http://www.w3.org/2000/svg">
<path d="M32.4951 4.65991C35.4556 10.4644 37.125 17.0372 37.125 23.9999C37.125 30.9627 35.4555 37.5355 32.4951 43.34C39.3483 39.6131 44 32.3498 44 23.9999C44 15.6501 39.3484 8.38678 32.4951 4.65991Z" fill="#10B981"/>
<path d="M22.6024 4.1986C21.6073 2.78895 19.9122 2.02977 18.2121 2.3248C7.86686 4.12011 0 13.1413 0 23.9999C0 34.8585 7.86682 43.8797 18.212 45.675C19.9121 45.9701 21.6073 45.2109 22.6023 43.8013C26.5538 38.2035 28.875 31.3728 28.875 23.9999C28.875 16.627 26.5538 9.79629 22.6024 4.1986Z" fill="#059669"/>
</svg>