<svg width="1193" height="196" viewBox="0 0 1193 196" fill="none" xmlns="http://www.w3.org/2000/svg">
<line x1="0.00125838" y1="1.23682" x2="1192.01" y2="4.23682" stroke="white"/>
<line x1="0.00894881" y1="192.437" x2="1192.02" y2="195.437" stroke="white"/>
<g opacity="0.5">
<path d="M543.9 48.6888V54.6888H541.548V50.8248H536.424V64.6008H539.1V66.7368H531.396V64.6008H534.072V50.8248H528.96V54.6888H526.608V48.6888H543.9ZM549.888 64.8048H552.252V66.7368H545.16V64.8048H547.632V55.8168H545.16V53.8848H549.888V64.8048ZM554.568 56.3208C554.4 56.2728 554.224 56.2368 554.04 56.2128C553.864 56.1888 553.684 56.1768 553.5 56.1768C552.404 56.1768 551.528 56.5688 550.872 57.3528C550.216 58.1368 549.888 59.2288 549.888 60.6288L549.384 57.7608H549.984C550.088 56.8648 550.308 56.1168 550.644 55.5168C550.98 54.9088 551.416 54.4528 551.952 54.1488C552.488 53.8448 553.104 53.6928 553.8 53.6928C553.936 53.6928 554.064 53.7008 554.184 53.7168C554.312 53.7248 554.44 53.7408 554.568 53.7648V56.3208ZM566.338 55.8168H564.01V53.8848H568.594V64.8048H570.886V66.7368H566.338V55.8168ZM559.978 53.8848V62.0688C559.978 62.9888 560.19 63.7168 560.614 64.2528C561.038 64.7888 561.686 65.0568 562.558 65.0568C563.27 65.0568 563.91 64.8728 564.478 64.5048C565.054 64.1288 565.506 63.5888 565.834 62.8848C566.17 62.1808 566.338 61.3408 566.338 60.3648L566.854 62.9328H566.242C566.05 64.3008 565.546 65.3288 564.73 66.0168C563.922 66.7048 562.926 67.0488 561.742 67.0488C560.406 67.0488 559.402 66.6408 558.73 65.8248C558.058 65.0088 557.722 63.8768 557.722 62.4288V55.8168H555.598V53.8848H559.978ZM579.299 66.9768C578.491 66.9768 577.803 66.8568 577.235 66.6168C576.675 66.3688 576.231 66.0328 575.903 65.6088C575.583 65.1768 575.383 64.6808 575.303 64.1208H574.763L575.207 62.7048C575.343 63.4248 575.727 64.0128 576.359 64.4688C576.991 64.9248 577.787 65.1528 578.747 65.1528C579.555 65.1528 580.171 64.9928 580.595 64.6728C581.027 64.3448 581.243 63.8688 581.243 63.2448C581.243 62.6608 581.019 62.2168 580.571 61.9128C580.131 61.6008 579.335 61.3528 578.183 61.1688C576.295 60.8728 574.959 60.3928 574.175 59.7288C573.391 59.0648 572.999 58.2048 572.999 57.1488C572.999 56.1088 573.343 55.2648 574.031 54.6168C574.719 53.9688 575.699 53.6448 576.971 53.6448C577.755 53.6448 578.403 53.7688 578.915 54.0168C579.427 54.2648 579.819 54.6088 580.091 55.0488C580.371 55.4808 580.547 55.9848 580.619 56.5608H581.159L580.715 57.9048C580.587 57.1928 580.223 56.6088 579.623 56.1528C579.031 55.6968 578.299 55.4688 577.427 55.4688C576.723 55.4688 576.183 55.6208 575.807 55.9248C575.439 56.2288 575.255 56.6168 575.255 57.0888C575.255 57.6248 575.519 58.0488 576.047 58.3608C576.583 58.6648 577.419 58.9128 578.555 59.1048C580.363 59.3848 581.635 59.8608 582.371 60.5328C583.115 61.2048 583.487 62.1088 583.487 63.2448C583.487 64.4128 583.135 65.3288 582.431 65.9928C581.735 66.6488 580.691 66.9768 579.299 66.9768ZM572.951 66.7368V62.7048H575.207V66.7368H572.951ZM580.715 57.9048V53.8848H582.971V57.9048H580.715ZM589.757 63.2928C589.757 63.8448 589.857 64.2568 590.057 64.5288C590.265 64.7928 590.565 64.9248 590.957 64.9248C591.349 64.9248 591.649 64.7888 591.857 64.5168C592.065 64.2368 592.169 63.8288 592.169 63.2928V62.0328H594.173V63.2688C594.173 64.0608 594.057 64.7328 593.825 65.2848C593.601 65.8368 593.249 66.2568 592.769 66.5448C592.289 66.8328 591.669 66.9768 590.909 66.9768C590.125 66.9768 589.481 66.8288 588.977 66.5328C588.481 66.2288 588.109 65.8048 587.861 65.2608C587.621 64.7088 587.501 64.0528 587.501 63.2928V55.8168H585.341V53.8848H587.501V50.6448H589.757V53.8848H593.969L593.945 55.8168H589.757V63.2928ZM603.009 66.9768C601.657 66.9768 600.489 66.6968 599.505 66.1368C598.521 65.5688 597.765 64.7888 597.237 63.7968C596.709 62.7968 596.445 61.6488 596.445 60.3528C596.445 59.0488 596.713 57.8928 597.249 56.8848C597.785 55.8688 598.537 55.0768 599.505 54.5088C600.473 53.9328 601.601 53.6448 602.889 53.6448C604.193 53.6448 605.317 53.9288 606.261 54.4968C607.213 55.0648 607.941 55.8528 608.445 56.8608C608.957 57.8688 609.213 59.0328 609.213 60.3528C609.213 60.5448 609.209 60.6968 609.201 60.8088C609.193 60.9128 609.181 61.0008 609.165 61.0728H606.933C606.949 60.9528 606.961 60.8248 606.969 60.6888C606.977 60.5448 606.981 60.3768 606.981 60.1848C606.981 59.3128 606.817 58.5408 606.489 57.8688C606.169 57.1888 605.705 56.6528 605.097 56.2608C604.489 55.8688 603.753 55.6728 602.889 55.6728C602.057 55.6728 601.329 55.8728 600.705 56.2728C600.081 56.6648 599.593 57.2128 599.241 57.9168C598.897 58.6208 598.725 59.4328 598.725 60.3528C598.725 61.2408 598.893 62.0288 599.229 62.7168C599.573 63.3968 600.061 63.9328 600.693 64.3248C601.333 64.7088 602.097 64.9008 602.985 64.9008C603.905 64.9008 604.693 64.6888 605.349 64.2648C606.013 63.8328 606.501 63.2448 606.813 62.5008L608.949 63.3048C608.485 64.4408 607.729 65.3368 606.681 65.9928C605.633 66.6488 604.409 66.9768 603.009 66.9768ZM597.873 61.0728V59.3568H608.493L609.165 61.0728H597.873ZM622.418 66.7368V62.1048L622.49 60.9888V59.3328L622.418 57.2808V49.7088H619.166V47.7768H624.674V64.8048H626.978V66.7368H622.418ZM618.014 53.6208C619.022 53.6208 619.926 53.8368 620.726 54.2688C621.534 54.7008 622.21 55.3288 622.754 56.1528C623.306 56.9768 623.698 57.9808 623.93 59.1648L622.49 60.2688C622.49 59.3648 622.322 58.5648 621.986 57.8688C621.658 57.1728 621.178 56.6288 620.546 56.2368C619.922 55.8448 619.162 55.6488 618.266 55.6488C617.394 55.6488 616.642 55.8488 616.01 56.2488C615.378 56.6408 614.894 57.1888 614.558 57.8928C614.222 58.5888 614.054 59.3968 614.054 60.3168C614.054 61.2288 614.23 62.0368 614.582 62.7408C614.934 63.4368 615.426 63.9848 616.058 64.3848C616.69 64.7768 617.426 64.9728 618.266 64.9728C619.146 64.9728 619.898 64.7768 620.522 64.3848C621.154 63.9848 621.638 63.4328 621.974 62.7288C622.318 62.0168 622.49 61.1968 622.49 60.2688L622.85 63.2448H622.322C622.162 63.9808 621.89 64.6328 621.506 65.2008C621.122 65.7608 620.618 66.2008 619.994 66.5208C619.37 66.8408 618.626 67.0008 617.762 67.0008C616.882 67.0008 616.074 66.8368 615.338 66.5088C614.602 66.1808 613.962 65.7168 613.418 65.1168C612.882 64.5168 612.466 63.8088 612.17 62.9928C611.874 62.1768 611.726 61.2848 611.726 60.3168C611.726 59.0048 611.982 57.8448 612.494 56.8368C613.014 55.8288 613.742 55.0408 614.678 54.4728C615.622 53.9048 616.734 53.6208 618.014 53.6208ZM637.273 67.0848V49.7088H634.885V47.7768H639.529V58.1328L639.457 59.8368V61.7088L639.529 64.5888L637.381 67.0848H637.273ZM643.825 67.0008C642.801 67.0008 641.881 66.8248 641.065 66.4728C640.257 66.1128 639.573 65.5968 639.013 64.9248C638.461 64.2528 638.065 63.4328 637.825 62.4648L639.457 60.3168C639.457 61.2208 639.621 62.0248 639.949 62.7288C640.277 63.4248 640.753 63.9728 641.377 64.3728C642.009 64.7728 642.773 64.9728 643.669 64.9728C644.589 64.9728 645.361 64.7808 645.985 64.3968C646.609 64.0048 647.081 63.4608 647.401 62.7648C647.721 62.0608 647.881 61.2368 647.881 60.2928C647.881 59.3728 647.705 58.5648 647.353 57.8688C647.001 57.1728 646.509 56.6288 645.877 56.2368C645.245 55.8448 644.509 55.6488 643.669 55.6488C642.789 55.6488 642.033 55.8448 641.401 56.2368C640.777 56.6288 640.297 57.1768 639.961 57.8808C639.625 58.5768 639.457 59.3888 639.457 60.3168L639.085 57.3768H639.613C639.773 56.6408 640.045 55.9928 640.429 55.4328C640.813 54.8648 641.317 54.4208 641.941 54.1008C642.565 53.7808 643.309 53.6208 644.173 53.6208C645.053 53.6208 645.861 53.7848 646.597 54.1128C647.341 54.4408 647.981 54.9048 648.517 55.5048C649.053 56.1048 649.469 56.8168 649.765 57.6408C650.061 58.4568 650.209 59.3528 650.209 60.3288C650.209 61.6408 649.949 62.8008 649.429 63.8088C648.909 64.8088 648.169 65.5928 647.209 66.1608C646.257 66.7208 645.129 67.0008 643.825 67.0008ZM659.607 53.8848H665.559V55.8168H664.191L659.163 68.2968C658.707 69.4168 657.999 70.2768 657.039 70.8768C656.079 71.4768 654.899 71.7768 653.499 71.7768H652.191V69.7968H653.499C654.331 69.7968 655.075 69.6248 655.731 69.2808C656.395 68.9448 656.863 68.4488 657.135 67.7928L658.047 65.5368L657.627 67.4568L652.863 55.8168H651.291V53.8848H657.387V55.8168H655.299L659.355 66.0288L657.303 64.2528H659.475L658.299 65.2848L661.935 55.8168H659.607V53.8848Z" fill="white"/>
</g>
<g opacity="0.5">
<path d="M36.1969 131.981C36.8597 136.766 39.2316 141.149 42.8743 144.32C46.517 147.492 51.1845 149.238 56.0145 149.237C60.8446 149.235 65.5109 147.486 69.1514 144.311C72.792 141.137 75.1608 136.753 75.8204 131.968C76.4799 127.183 75.3856 122.321 72.7396 118.28C70.0935 114.24 66.0746 111.293 61.4251 109.984C56.7756 108.676 51.8097 109.095 47.4447 111.163C43.0798 113.231 39.6106 116.808 37.6782 121.235L44.4713 124.201C45.6876 121.414 47.871 119.163 50.6183 117.861C53.3655 116.56 56.491 116.296 59.4173 117.12C62.3437 117.943 64.8732 119.798 66.5385 122.341C68.2039 124.884 68.8927 127.944 68.4776 130.956C68.0625 133.967 66.5715 136.727 64.2802 138.725C61.9889 140.722 59.052 141.824 56.012 141.825C52.972 141.826 50.0344 140.727 47.7417 138.73C45.449 136.734 43.9562 133.975 43.539 130.964L36.1969 131.981Z" fill="white"/>
<circle cx="56.0077" cy="129.237" r="8" fill="white"/>
<path d="M98.2066 123.1H100.667V130.657C100.667 131.506 100.464 132.248 100.059 132.885C99.6573 133.521 99.0948 134.017 98.3713 134.373C97.6478 134.725 96.805 134.902 95.8429 134.902C94.877 134.902 94.0323 134.725 93.3088 134.373C92.5853 134.017 92.0228 133.521 91.6213 132.885C91.2198 132.248 91.0191 131.506 91.0191 130.657V123.1H93.4793V130.447C93.4793 130.89 93.5759 131.284 93.7691 131.629C93.966 131.974 94.2425 132.244 94.5986 132.441C94.9547 132.638 95.3694 132.737 95.8429 132.737C96.3202 132.737 96.735 132.638 97.0872 132.441C97.4433 132.244 97.7179 131.974 97.9111 131.629C98.1081 131.284 98.2066 130.89 98.2066 130.447V123.1ZM102.645 134.737V126.01H104.992V127.532H105.083C105.242 126.991 105.509 126.582 105.884 126.305C106.259 126.025 106.691 125.885 107.18 125.885C107.301 125.885 107.431 125.892 107.572 125.907C107.712 125.922 107.835 125.943 107.941 125.97V128.117C107.827 128.083 107.67 128.053 107.469 128.027C107.269 128 107.085 127.987 106.918 127.987C106.562 127.987 106.244 128.064 105.964 128.22C105.687 128.371 105.467 128.583 105.305 128.856C105.145 129.129 105.066 129.443 105.066 129.799V134.737H102.645ZM109.238 134.737V123.1H111.658V127.475H111.732C111.838 127.241 111.992 127.002 112.192 126.76C112.397 126.513 112.662 126.309 112.988 126.146C113.317 125.979 113.726 125.896 114.215 125.896C114.851 125.896 115.439 126.063 115.976 126.396C116.514 126.725 116.944 127.224 117.266 127.89C117.588 128.553 117.749 129.385 117.749 130.385C117.749 131.358 117.592 132.18 117.278 132.85C116.967 133.517 116.543 134.023 116.005 134.367C115.471 134.708 114.872 134.879 114.209 134.879C113.74 134.879 113.34 134.801 113.011 134.646C112.685 134.491 112.418 134.296 112.209 134.061C112.001 133.822 111.842 133.582 111.732 133.339H111.624V134.737H109.238ZM111.607 130.373C111.607 130.892 111.679 131.345 111.823 131.731C111.967 132.117 112.175 132.419 112.448 132.635C112.721 132.847 113.052 132.953 113.442 132.953C113.836 132.953 114.17 132.845 114.442 132.629C114.715 132.409 114.922 132.106 115.062 131.72C115.206 131.33 115.278 130.881 115.278 130.373C115.278 129.869 115.208 129.426 115.067 129.044C114.927 128.661 114.721 128.362 114.448 128.146C114.175 127.93 113.84 127.822 113.442 127.822C113.048 127.822 112.715 127.926 112.442 128.135C112.173 128.343 111.967 128.638 111.823 129.021C111.679 129.403 111.607 129.854 111.607 130.373ZM121.853 134.902C121.296 134.902 120.8 134.805 120.364 134.612C119.929 134.415 119.584 134.125 119.33 133.742C119.08 133.356 118.955 132.875 118.955 132.299C118.955 131.814 119.044 131.407 119.222 131.078C119.4 130.748 119.643 130.483 119.949 130.282C120.256 130.082 120.605 129.93 120.995 129.828C121.389 129.725 121.802 129.653 122.234 129.612C122.741 129.559 123.15 129.51 123.461 129.464C123.771 129.415 123.997 129.343 124.137 129.248C124.277 129.153 124.347 129.013 124.347 128.828V128.794C124.347 128.434 124.234 128.155 124.006 127.958C123.783 127.761 123.465 127.663 123.052 127.663C122.616 127.663 122.27 127.76 122.012 127.953C121.754 128.142 121.584 128.381 121.501 128.669L119.262 128.487C119.376 127.957 119.599 127.498 119.932 127.112C120.266 126.722 120.696 126.422 121.222 126.214C121.752 126.002 122.366 125.896 123.063 125.896C123.548 125.896 124.012 125.953 124.455 126.066C124.902 126.18 125.298 126.356 125.643 126.595C125.991 126.833 126.266 127.14 126.466 127.515C126.667 127.886 126.768 128.332 126.768 128.85V134.737H124.472V133.527H124.404C124.264 133.799 124.076 134.04 123.841 134.248C123.607 134.453 123.324 134.614 122.995 134.731C122.665 134.845 122.285 134.902 121.853 134.902ZM122.546 133.231C122.902 133.231 123.216 133.161 123.489 133.021C123.762 132.877 123.976 132.684 124.131 132.441C124.287 132.199 124.364 131.924 124.364 131.617V130.691C124.288 130.741 124.184 130.786 124.052 130.828C123.923 130.866 123.777 130.902 123.614 130.936C123.451 130.966 123.288 130.994 123.126 131.021C122.963 131.044 122.815 131.064 122.682 131.083C122.398 131.125 122.15 131.191 121.938 131.282C121.726 131.373 121.561 131.496 121.444 131.652C121.326 131.803 121.268 131.992 121.268 132.22C121.268 132.549 121.387 132.801 121.626 132.975C121.868 133.146 122.175 133.231 122.546 133.231ZM131.066 129.691V134.737H128.645V126.01H130.952V127.549H131.055C131.248 127.042 131.572 126.64 132.026 126.345C132.481 126.046 133.032 125.896 133.68 125.896C134.286 125.896 134.814 126.028 135.265 126.294C135.716 126.559 136.066 126.938 136.316 127.43C136.566 127.919 136.691 128.502 136.691 129.18V134.737H134.27V129.612C134.274 129.078 134.138 128.661 133.861 128.362C133.585 128.059 133.204 127.907 132.719 127.907C132.394 127.907 132.106 127.977 131.856 128.117C131.609 128.258 131.416 128.462 131.276 128.731C131.14 128.996 131.07 129.316 131.066 129.691ZM141.904 125.129V123.1H151.461V125.129H147.898V134.737H145.466V125.129H141.904ZM155.701 134.907C154.803 134.907 154.03 134.725 153.383 134.362C152.739 133.994 152.243 133.475 151.894 132.805C151.546 132.131 151.371 131.333 151.371 130.413C151.371 129.515 151.546 128.727 151.894 128.049C152.243 127.371 152.733 126.843 153.366 126.464C154.002 126.085 154.748 125.896 155.604 125.896C156.18 125.896 156.716 125.989 157.212 126.174C157.712 126.356 158.148 126.631 158.519 126.998C158.894 127.366 159.186 127.828 159.394 128.385C159.602 128.938 159.707 129.585 159.707 130.328V130.992H152.337V129.492H157.428C157.428 129.144 157.352 128.835 157.201 128.566C157.049 128.297 156.839 128.087 156.57 127.936C156.305 127.78 155.996 127.703 155.644 127.703C155.277 127.703 154.951 127.788 154.667 127.958C154.386 128.125 154.167 128.35 154.008 128.635C153.849 128.915 153.767 129.227 153.763 129.572V130.998C153.763 131.43 153.843 131.803 154.002 132.117C154.165 132.432 154.394 132.674 154.69 132.845C154.985 133.015 155.335 133.1 155.741 133.1C156.01 133.1 156.256 133.063 156.479 132.987C156.703 132.911 156.894 132.797 157.053 132.646C157.212 132.494 157.333 132.309 157.417 132.089L159.655 132.237C159.542 132.775 159.309 133.244 158.957 133.646C158.608 134.044 158.157 134.354 157.604 134.578C157.055 134.797 156.421 134.907 155.701 134.907ZM165.229 134.907C164.335 134.907 163.566 134.718 162.922 134.339C162.282 133.957 161.79 133.426 161.445 132.748C161.104 132.07 160.934 131.29 160.934 130.407C160.934 129.513 161.106 128.729 161.451 128.055C161.799 127.377 162.294 126.849 162.934 126.47C163.574 126.087 164.335 125.896 165.218 125.896C165.979 125.896 166.646 126.034 167.218 126.311C167.79 126.587 168.243 126.975 168.576 127.475C168.909 127.975 169.093 128.563 169.127 129.237H166.843C166.779 128.801 166.608 128.451 166.332 128.186C166.059 127.917 165.701 127.782 165.258 127.782C164.883 127.782 164.555 127.885 164.275 128.089C163.998 128.29 163.782 128.583 163.627 128.97C163.472 129.356 163.394 129.824 163.394 130.373C163.394 130.93 163.47 131.403 163.621 131.794C163.777 132.184 163.994 132.481 164.275 132.686C164.555 132.89 164.883 132.992 165.258 132.992C165.534 132.992 165.782 132.936 166.002 132.822C166.225 132.708 166.409 132.544 166.553 132.328C166.701 132.108 166.797 131.845 166.843 131.538H169.127C169.089 132.205 168.907 132.792 168.582 133.299C168.26 133.803 167.815 134.197 167.246 134.481C166.678 134.765 166.006 134.907 165.229 134.907ZM173.097 129.691V134.737H170.677V123.1H173.029V127.549H173.131C173.328 127.034 173.646 126.631 174.086 126.339C174.525 126.044 175.076 125.896 175.739 125.896C176.345 125.896 176.874 126.028 177.324 126.294C177.779 126.555 178.131 126.932 178.381 127.424C178.635 127.913 178.76 128.498 178.756 129.18V134.737H176.336V129.612C176.34 129.074 176.203 128.655 175.927 128.356C175.654 128.057 175.271 127.907 174.779 127.907C174.449 127.907 174.158 127.977 173.904 128.117C173.654 128.258 173.457 128.462 173.313 128.731C173.173 128.996 173.101 129.316 173.097 129.691Z" fill="white"/>
<path d="M312.381 109.861L305.559 144L340.166 145.489L295.419 151.737L312.381 109.861Z" fill="white"/>
<path d="M318.174 147.898L320.816 131.386L304.131 130.203L326.477 126.889L318.174 147.898Z" fill="white"/>
<path d="M355.177 134.737V123.1H359.836C360.692 123.1 361.406 123.227 361.978 123.481C362.55 123.735 362.98 124.087 363.268 124.538C363.556 124.985 363.7 125.5 363.7 126.083C363.7 126.538 363.609 126.938 363.427 127.282C363.245 127.623 362.995 127.903 362.677 128.123C362.362 128.339 362.003 128.492 361.597 128.583V128.697C362.041 128.716 362.455 128.841 362.842 129.072C363.232 129.303 363.548 129.627 363.791 130.044C364.033 130.457 364.154 130.949 364.154 131.521C364.154 132.138 364.001 132.689 363.694 133.174C363.391 133.655 362.942 134.036 362.347 134.316C361.753 134.597 361.02 134.737 360.148 134.737H355.177ZM357.637 132.725H359.643C360.328 132.725 360.828 132.595 361.143 132.333C361.457 132.068 361.614 131.716 361.614 131.277C361.614 130.955 361.537 130.671 361.381 130.424C361.226 130.178 361.005 129.985 360.717 129.845C360.433 129.705 360.094 129.635 359.7 129.635H357.637V132.725ZM357.637 127.97H359.461C359.798 127.97 360.097 127.911 360.359 127.794C360.624 127.672 360.832 127.502 360.984 127.282C361.139 127.063 361.217 126.799 361.217 126.492C361.217 126.072 361.067 125.733 360.768 125.475C360.472 125.218 360.052 125.089 359.506 125.089H357.637V127.97ZM369.653 134.907C368.77 134.907 368.007 134.72 367.363 134.345C366.723 133.966 366.229 133.439 365.88 132.765C365.532 132.087 365.357 131.301 365.357 130.407C365.357 129.506 365.532 128.718 365.88 128.044C366.229 127.366 366.723 126.839 367.363 126.464C368.007 126.085 368.77 125.896 369.653 125.896C370.535 125.896 371.297 126.085 371.937 126.464C372.581 126.839 373.077 127.366 373.425 128.044C373.774 128.718 373.948 129.506 373.948 130.407C373.948 131.301 373.774 132.087 373.425 132.765C373.077 133.439 372.581 133.966 371.937 134.345C371.297 134.72 370.535 134.907 369.653 134.907ZM369.664 133.032C370.066 133.032 370.401 132.919 370.67 132.691C370.939 132.46 371.141 132.146 371.278 131.748C371.418 131.35 371.488 130.898 371.488 130.39C371.488 129.883 371.418 129.43 371.278 129.032C371.141 128.635 370.939 128.32 370.67 128.089C370.401 127.858 370.066 127.742 369.664 127.742C369.259 127.742 368.918 127.858 368.641 128.089C368.369 128.32 368.162 128.635 368.022 129.032C367.886 129.43 367.818 129.883 367.818 130.39C367.818 130.898 367.886 131.35 368.022 131.748C368.162 132.146 368.369 132.46 368.641 132.691C368.918 132.919 369.259 133.032 369.664 133.032ZM377.943 129.691V134.737H375.522V126.01H377.829V127.549H377.931C378.124 127.042 378.448 126.64 378.903 126.345C379.357 126.046 379.908 125.896 380.556 125.896C381.162 125.896 381.691 126.028 382.141 126.294C382.592 126.559 382.943 126.938 383.193 127.43C383.443 127.919 383.568 128.502 383.568 129.18V134.737H381.147V129.612C381.151 129.078 381.014 128.661 380.738 128.362C380.461 128.059 380.081 127.907 379.596 127.907C379.27 127.907 378.982 127.977 378.732 128.117C378.486 128.258 378.293 128.462 378.153 128.731C378.016 128.996 377.946 129.316 377.943 129.691ZM388.691 134.879C388.028 134.879 387.428 134.708 386.89 134.367C386.356 134.023 385.932 133.517 385.617 132.85C385.307 132.18 385.151 131.358 385.151 130.385C385.151 129.385 385.312 128.553 385.634 127.89C385.956 127.224 386.384 126.725 386.918 126.396C387.456 126.063 388.045 125.896 388.685 125.896C389.174 125.896 389.581 125.979 389.907 126.146C390.237 126.309 390.502 126.513 390.702 126.76C390.907 127.002 391.062 127.241 391.168 127.475H391.242V123.1H393.657V134.737H391.271V133.339H391.168C391.055 133.582 390.894 133.822 390.685 134.061C390.481 134.296 390.214 134.491 389.884 134.646C389.559 134.801 389.161 134.879 388.691 134.879ZM389.458 132.953C389.848 132.953 390.178 132.847 390.447 132.635C390.72 132.419 390.928 132.117 391.072 131.731C391.22 131.345 391.293 130.892 391.293 130.373C391.293 129.854 391.221 129.403 391.077 129.021C390.934 128.638 390.725 128.343 390.452 128.135C390.18 127.926 389.848 127.822 389.458 127.822C389.06 127.822 388.725 127.93 388.452 128.146C388.18 128.362 387.973 128.661 387.833 129.044C387.693 129.426 387.623 129.869 387.623 130.373C387.623 130.881 387.693 131.33 387.833 131.72C387.977 132.106 388.184 132.409 388.452 132.629C388.725 132.845 389.06 132.953 389.458 132.953ZM395.624 134.737V132.964L399.766 129.129C400.119 128.788 400.414 128.481 400.653 128.208C400.895 127.936 401.079 127.669 401.204 127.407C401.329 127.142 401.391 126.856 401.391 126.549C401.391 126.208 401.314 125.915 401.158 125.669C401.003 125.419 400.791 125.227 400.522 125.095C400.253 124.958 399.948 124.89 399.607 124.89C399.251 124.89 398.941 124.962 398.675 125.106C398.41 125.25 398.206 125.457 398.062 125.725C397.918 125.994 397.846 126.314 397.846 126.686H395.511C395.511 125.924 395.683 125.263 396.028 124.703C396.372 124.142 396.855 123.708 397.477 123.402C398.098 123.095 398.814 122.941 399.624 122.941C400.458 122.941 401.183 123.089 401.8 123.385C402.422 123.676 402.905 124.082 403.249 124.6C403.594 125.119 403.766 125.714 403.766 126.385C403.766 126.824 403.679 127.258 403.505 127.686C403.335 128.114 403.03 128.589 402.59 129.112C402.151 129.631 401.532 130.254 400.732 130.981L399.033 132.646V132.725H403.92V134.737H395.624Z" fill="white"/>
<path d="M560.166 129.237C560.166 124.031 558.361 118.987 555.058 114.963C551.756 110.939 547.161 108.185 542.055 107.169C536.95 106.154 531.65 106.94 527.059 109.394C522.468 111.847 518.87 115.817 516.878 120.626C514.886 125.436 514.623 130.787 516.134 135.768C517.646 140.75 520.837 145.053 525.165 147.945C529.494 150.837 534.691 152.139 539.871 151.628C545.051 151.118 549.895 148.828 553.576 145.147L537.666 129.237H560.166Z" fill="white"/>
<path d="M581.49 126.447C581.444 125.989 581.249 125.633 580.904 125.379C580.56 125.125 580.092 124.998 579.501 124.998C579.099 124.998 578.76 125.055 578.484 125.169C578.207 125.278 577.995 125.432 577.847 125.629C577.704 125.826 577.632 126.049 577.632 126.299C577.624 126.508 577.668 126.689 577.762 126.845C577.861 127 577.995 127.135 578.166 127.248C578.336 127.358 578.533 127.455 578.757 127.538C578.98 127.617 579.219 127.686 579.472 127.742L580.518 127.992C581.025 128.106 581.491 128.258 581.916 128.447C582.34 128.636 582.707 128.869 583.018 129.146C583.329 129.422 583.569 129.748 583.74 130.123C583.914 130.498 584.003 130.928 584.007 131.413C584.003 132.125 583.821 132.742 583.461 133.265C583.105 133.784 582.59 134.188 581.916 134.475C581.245 134.76 580.436 134.902 579.49 134.902C578.55 134.902 577.732 134.758 577.035 134.47C576.342 134.182 575.8 133.756 575.41 133.191C575.024 132.623 574.821 131.921 574.802 131.083H577.183C577.209 131.474 577.321 131.799 577.518 132.061C577.719 132.318 577.986 132.513 578.319 132.646C578.656 132.775 579.037 132.839 579.461 132.839C579.878 132.839 580.24 132.778 580.546 132.657C580.857 132.536 581.097 132.367 581.268 132.152C581.438 131.936 581.524 131.688 581.524 131.407C581.524 131.146 581.446 130.926 581.291 130.748C581.139 130.57 580.916 130.419 580.62 130.294C580.329 130.169 579.971 130.055 579.546 129.953L578.279 129.635C577.298 129.396 576.524 129.023 575.955 128.515C575.387 128.008 575.105 127.324 575.109 126.464C575.105 125.76 575.293 125.144 575.671 124.617C576.054 124.091 576.579 123.68 577.245 123.385C577.912 123.089 578.669 122.941 579.518 122.941C580.382 122.941 581.135 123.089 581.779 123.385C582.427 123.68 582.931 124.091 583.291 124.617C583.65 125.144 583.836 125.754 583.847 126.447H581.49ZM588.036 129.691V134.737H585.616V123.1H587.968V127.549H588.07C588.267 127.034 588.586 126.631 589.025 126.339C589.464 126.044 590.016 125.896 590.678 125.896C591.284 125.896 591.813 126.028 592.264 126.294C592.718 126.555 593.07 126.932 593.32 127.424C593.574 127.913 593.699 128.498 593.695 129.18V134.737H591.275V129.612C591.279 129.074 591.142 128.655 590.866 128.356C590.593 128.057 590.211 127.907 589.718 127.907C589.389 127.907 589.097 127.977 588.843 128.117C588.593 128.258 588.396 128.462 588.252 128.731C588.112 128.996 588.04 129.316 588.036 129.691ZM598.089 134.902C597.532 134.902 597.036 134.805 596.6 134.612C596.165 134.415 595.82 134.125 595.566 133.742C595.316 133.356 595.191 132.875 595.191 132.299C595.191 131.814 595.28 131.407 595.458 131.078C595.636 130.748 595.879 130.483 596.186 130.282C596.492 130.082 596.841 129.93 597.231 129.828C597.625 129.725 598.038 129.653 598.47 129.612C598.977 129.559 599.386 129.51 599.697 129.464C600.008 129.415 600.233 129.343 600.373 129.248C600.513 129.153 600.583 129.013 600.583 128.828V128.794C600.583 128.434 600.47 128.155 600.242 127.958C600.019 127.761 599.701 127.663 599.288 127.663C598.852 127.663 598.506 127.76 598.248 127.953C597.99 128.142 597.82 128.381 597.737 128.669L595.498 128.487C595.612 127.957 595.835 127.498 596.168 127.112C596.502 126.722 596.932 126.422 597.458 126.214C597.989 126.002 598.602 125.896 599.299 125.896C599.784 125.896 600.248 125.953 600.691 126.066C601.138 126.18 601.534 126.356 601.879 126.595C602.227 126.833 602.502 127.14 602.703 127.515C602.903 127.886 603.004 128.332 603.004 128.85V134.737H600.708V133.527H600.64C600.5 133.799 600.312 134.04 600.078 134.248C599.843 134.453 599.561 134.614 599.231 134.731C598.901 134.845 598.521 134.902 598.089 134.902ZM598.782 133.231C599.138 133.231 599.453 133.161 599.725 133.021C599.998 132.877 600.212 132.684 600.367 132.441C600.523 132.199 600.6 131.924 600.6 131.617V130.691C600.525 130.741 600.42 130.786 600.288 130.828C600.159 130.866 600.013 130.902 599.85 130.936C599.687 130.966 599.525 130.994 599.362 131.021C599.199 131.044 599.051 131.064 598.918 131.083C598.634 131.125 598.386 131.191 598.174 131.282C597.962 131.373 597.797 131.496 597.68 131.652C597.562 131.803 597.504 131.992 597.504 132.22C597.504 132.549 597.623 132.801 597.862 132.975C598.104 133.146 598.411 133.231 598.782 133.231ZM604.882 134.737V126.01H607.228V127.532H607.319C607.478 126.991 607.745 126.582 608.12 126.305C608.495 126.025 608.927 125.885 609.416 125.885C609.537 125.885 609.668 125.892 609.808 125.907C609.948 125.922 610.071 125.943 610.177 125.97V128.117C610.063 128.083 609.906 128.053 609.705 128.027C609.505 128 609.321 127.987 609.154 127.987C608.798 127.987 608.48 128.064 608.2 128.22C607.923 128.371 607.704 128.583 607.541 128.856C607.382 129.129 607.302 129.443 607.302 129.799V134.737H604.882ZM611.428 138.01V126.01H613.815V127.475H613.923C614.029 127.241 614.182 127.002 614.383 126.76C614.588 126.513 614.853 126.309 615.178 126.146C615.508 125.979 615.917 125.896 616.406 125.896C617.042 125.896 617.629 126.063 618.167 126.396C618.705 126.725 619.135 127.224 619.457 127.89C619.779 128.553 619.94 129.385 619.94 130.385C619.94 131.358 619.783 132.18 619.468 132.85C619.158 133.517 618.733 134.023 618.195 134.367C617.661 134.708 617.063 134.879 616.4 134.879C615.93 134.879 615.531 134.801 615.201 134.646C614.875 134.491 614.608 134.296 614.4 134.061C614.192 133.822 614.033 133.582 613.923 133.339H613.849V138.01H611.428ZM613.798 130.373C613.798 130.892 613.87 131.345 614.014 131.731C614.158 132.117 614.366 132.419 614.639 132.635C614.911 132.847 615.243 132.953 615.633 132.953C616.027 132.953 616.36 132.845 616.633 132.629C616.906 132.409 617.112 132.106 617.252 131.72C617.396 131.33 617.468 130.881 617.468 130.373C617.468 129.869 617.398 129.426 617.258 129.044C617.118 128.661 616.911 128.362 616.639 128.146C616.366 127.93 616.031 127.822 615.633 127.822C615.239 127.822 614.906 127.926 614.633 128.135C614.364 128.343 614.158 128.638 614.014 129.021C613.87 129.403 613.798 129.854 613.798 130.373ZM624.859 125.129V123.1H634.416V125.129H630.853V134.737H628.421V125.129H624.859ZM638.656 134.907C637.758 134.907 636.985 134.725 636.338 134.362C635.694 133.994 635.197 133.475 634.849 132.805C634.5 132.131 634.326 131.333 634.326 130.413C634.326 129.515 634.5 128.727 634.849 128.049C635.197 127.371 635.688 126.843 636.32 126.464C636.957 126.085 637.703 125.896 638.559 125.896C639.135 125.896 639.671 125.989 640.167 126.174C640.667 126.356 641.103 126.631 641.474 126.998C641.849 127.366 642.141 127.828 642.349 128.385C642.557 128.938 642.661 129.585 642.661 130.328V130.992H635.292V129.492H640.383C640.383 129.144 640.307 128.835 640.156 128.566C640.004 128.297 639.794 128.087 639.525 127.936C639.26 127.78 638.951 127.703 638.599 127.703C638.231 127.703 637.906 127.788 637.622 127.958C637.341 128.125 637.122 128.35 636.963 128.635C636.803 128.915 636.722 129.227 636.718 129.572V130.998C636.718 131.43 636.798 131.803 636.957 132.117C637.12 132.432 637.349 132.674 637.644 132.845C637.94 133.015 638.29 133.1 638.695 133.1C638.964 133.1 639.211 133.063 639.434 132.987C639.658 132.911 639.849 132.797 640.008 132.646C640.167 132.494 640.288 132.309 640.372 132.089L642.61 132.237C642.497 132.775 642.264 133.244 641.911 133.646C641.563 134.044 641.112 134.354 640.559 134.578C640.01 134.797 639.375 134.907 638.656 134.907ZM648.184 134.907C647.29 134.907 646.521 134.718 645.877 134.339C645.237 133.957 644.745 133.426 644.4 132.748C644.059 132.07 643.889 131.29 643.889 130.407C643.889 129.513 644.061 128.729 644.406 128.055C644.754 127.377 645.249 126.849 645.889 126.47C646.529 126.087 647.29 125.896 648.173 125.896C648.934 125.896 649.601 126.034 650.173 126.311C650.745 126.587 651.197 126.975 651.531 127.475C651.864 127.975 652.048 128.563 652.082 129.237H649.798C649.733 128.801 649.563 128.451 649.286 128.186C649.014 127.917 648.656 127.782 648.213 127.782C647.838 127.782 647.51 127.885 647.23 128.089C646.953 128.29 646.737 128.583 646.582 128.97C646.427 129.356 646.349 129.824 646.349 130.373C646.349 130.93 646.425 131.403 646.576 131.794C646.731 132.184 646.949 132.481 647.23 132.686C647.51 132.89 647.838 132.992 648.213 132.992C648.489 132.992 648.737 132.936 648.957 132.822C649.18 132.708 649.364 132.544 649.508 132.328C649.656 132.108 649.752 131.845 649.798 131.538H652.082C652.044 132.205 651.862 132.792 651.536 133.299C651.214 133.803 650.769 134.197 650.201 134.481C649.633 134.765 648.961 134.907 648.184 134.907ZM656.052 129.691V134.737H653.632V123.1H655.984V127.549H656.086C656.283 127.034 656.601 126.631 657.041 126.339C657.48 126.044 658.031 125.896 658.694 125.896C659.3 125.896 659.829 126.028 660.279 126.294C660.734 126.555 661.086 126.932 661.336 127.424C661.59 127.913 661.715 128.498 661.711 129.18V134.737H659.291V129.612C659.294 129.074 659.158 128.655 658.882 128.356C658.609 128.057 658.226 127.907 657.734 127.907C657.404 127.907 657.113 127.977 656.859 128.117C656.609 128.258 656.412 128.462 656.268 128.731C656.128 128.996 656.056 129.316 656.052 129.691Z" fill="white"/>
<circle cx="800.901" cy="117.775" r="5.09434" fill="white"/>
<path d="M784.523 111.261C788.32 109.083 793.119 111.399 793.777 115.727L794.522 120.634C795.157 124.813 799.682 127.158 803.462 125.268L809.438 122.28C813.578 120.21 818.449 123.221 818.449 127.849V136.568C818.449 138.926 817.116 141.082 815.007 142.137L798.592 150.345C796.839 151.221 794.776 151.221 793.023 150.345L776.608 142.137C774.498 141.082 773.166 138.926 773.166 136.568V121.381C773.166 119.15 774.359 117.09 776.294 115.98L784.523 111.261Z" fill="white"/>
<path d="M833.46 134.737V123.1H835.92V132.708H840.909V134.737H833.46ZM842.493 134.737V126.01H844.913V134.737H842.493ZM843.709 124.885C843.349 124.885 843.04 124.765 842.783 124.527C842.529 124.284 842.402 123.994 842.402 123.657C842.402 123.324 842.529 123.038 842.783 122.799C843.04 122.557 843.349 122.436 843.709 122.436C844.069 122.436 844.375 122.557 844.629 122.799C844.887 123.038 845.015 123.324 845.015 123.657C845.015 123.994 844.887 124.284 844.629 124.527C844.375 124.765 844.069 124.885 843.709 124.885ZM852.619 138.01V133.339H852.545C852.432 133.582 852.271 133.822 852.062 134.061C851.858 134.296 851.591 134.491 851.261 134.646C850.935 134.801 850.538 134.879 850.068 134.879C849.405 134.879 848.805 134.708 848.267 134.367C847.733 134.023 847.309 133.517 846.994 132.85C846.684 132.18 846.528 131.358 846.528 130.385C846.528 129.385 846.689 128.553 847.011 127.89C847.333 127.224 847.761 126.725 848.295 126.396C848.833 126.063 849.422 125.896 850.062 125.896C850.551 125.896 850.958 125.979 851.284 126.146C851.614 126.309 851.879 126.513 852.079 126.76C852.284 127.002 852.439 127.241 852.545 127.475H852.648V126.01H855.034V138.01H852.619ZM850.835 132.953C851.225 132.953 851.555 132.847 851.824 132.635C852.096 132.419 852.305 132.117 852.449 131.731C852.596 131.345 852.67 130.892 852.67 130.373C852.67 129.854 852.598 129.403 852.454 129.021C852.31 128.638 852.102 128.343 851.829 128.135C851.557 127.926 851.225 127.822 850.835 127.822C850.437 127.822 850.102 127.93 849.829 128.146C849.557 128.362 849.35 128.661 849.21 129.044C849.07 129.426 849 129.869 849 130.373C849 130.881 849.07 131.33 849.21 131.72C849.354 132.106 849.56 132.409 849.829 132.629C850.102 132.845 850.437 132.953 850.835 132.953ZM862.574 131.021V126.01H864.994V134.737H862.67V133.152H862.579C862.382 133.663 862.055 134.074 861.596 134.385C861.142 134.695 860.587 134.85 859.932 134.85C859.348 134.85 858.835 134.718 858.392 134.453C857.949 134.188 857.602 133.811 857.352 133.322C857.106 132.833 856.981 132.248 856.977 131.566V126.01H859.398V131.135C859.401 131.65 859.54 132.057 859.812 132.356C860.085 132.655 860.451 132.805 860.909 132.805C861.201 132.805 861.473 132.739 861.727 132.606C861.981 132.47 862.185 132.269 862.341 132.004C862.5 131.739 862.578 131.411 862.574 131.021ZM866.93 134.737V126.01H869.351V134.737H866.93ZM868.146 124.885C867.786 124.885 867.478 124.765 867.22 124.527C866.966 124.284 866.839 123.994 866.839 123.657C866.839 123.324 866.966 123.038 867.22 122.799C867.478 122.557 867.786 122.436 868.146 122.436C868.506 122.436 868.813 122.557 869.067 122.799C869.324 123.038 869.453 123.324 869.453 123.657C869.453 123.994 869.324 124.284 869.067 124.527C868.813 124.765 868.506 124.885 868.146 124.885ZM874.506 134.879C873.843 134.879 873.242 134.708 872.704 134.367C872.17 134.023 871.746 133.517 871.432 132.85C871.121 132.18 870.966 131.358 870.966 130.385C870.966 129.385 871.127 128.553 871.449 127.89C871.771 127.224 872.199 126.725 872.733 126.396C873.271 126.063 873.86 125.896 874.5 125.896C874.989 125.896 875.396 125.979 875.721 126.146C876.051 126.309 876.316 126.513 876.517 126.76C876.721 127.002 876.877 127.241 876.983 127.475H877.057V123.1H879.471V134.737H877.085V133.339H876.983C876.869 133.582 876.708 133.822 876.5 134.061C876.295 134.296 876.028 134.491 875.699 134.646C875.373 134.801 874.975 134.879 874.506 134.879ZM875.273 132.953C875.663 132.953 875.992 132.847 876.261 132.635C876.534 132.419 876.742 132.117 876.886 131.731C877.034 131.345 877.108 130.892 877.108 130.373C877.108 129.854 877.036 129.403 876.892 129.021C876.748 128.638 876.54 128.343 876.267 128.135C875.994 127.926 875.663 127.822 875.273 127.822C874.875 127.822 874.54 127.93 874.267 128.146C873.994 128.362 873.788 128.661 873.648 129.044C873.507 129.426 873.437 129.869 873.437 130.373C873.437 130.881 873.507 131.33 873.648 131.72C873.792 132.106 873.998 132.409 874.267 132.629C874.54 132.845 874.875 132.953 875.273 132.953ZM883.95 134.902C883.393 134.902 882.897 134.805 882.462 134.612C882.026 134.415 881.681 134.125 881.427 133.742C881.177 133.356 881.052 132.875 881.052 132.299C881.052 131.814 881.141 131.407 881.319 131.078C881.497 130.748 881.74 130.483 882.047 130.282C882.354 130.082 882.702 129.93 883.092 129.828C883.486 129.725 883.899 129.653 884.331 129.612C884.838 129.559 885.247 129.51 885.558 129.464C885.869 129.415 886.094 129.343 886.234 129.248C886.374 129.153 886.444 129.013 886.444 128.828V128.794C886.444 128.434 886.331 128.155 886.104 127.958C885.88 127.761 885.562 127.663 885.149 127.663C884.713 127.663 884.367 127.76 884.109 127.953C883.852 128.142 883.681 128.381 883.598 128.669L881.359 128.487C881.473 127.957 881.696 127.498 882.03 127.112C882.363 126.722 882.793 126.422 883.319 126.214C883.85 126.002 884.463 125.896 885.16 125.896C885.645 125.896 886.109 125.953 886.552 126.066C886.999 126.18 887.395 126.356 887.74 126.595C888.088 126.833 888.363 127.14 888.564 127.515C888.765 127.886 888.865 128.332 888.865 128.85V134.737H886.569V133.527H886.501C886.361 133.799 886.174 134.04 885.939 134.248C885.704 134.453 885.422 134.614 885.092 134.731C884.763 134.845 884.382 134.902 883.95 134.902ZM884.643 133.231C884.999 133.231 885.314 133.161 885.587 133.021C885.859 132.877 886.073 132.684 886.229 132.441C886.384 132.199 886.462 131.924 886.462 131.617V130.691C886.386 130.741 886.282 130.786 886.149 130.828C886.02 130.866 885.874 130.902 885.712 130.936C885.549 130.966 885.386 130.994 885.223 131.021C885.06 131.044 884.912 131.064 884.78 131.083C884.496 131.125 884.247 131.191 884.035 131.282C883.823 131.373 883.658 131.496 883.541 131.652C883.424 131.803 883.365 131.992 883.365 132.22C883.365 132.549 883.484 132.801 883.723 132.975C883.965 133.146 884.272 133.231 884.643 133.231ZM895.385 126.01V127.828H890.129V126.01H895.385ZM891.322 123.919H893.743V132.055C893.743 132.278 893.777 132.453 893.845 132.578C893.913 132.699 894.008 132.784 894.129 132.833C894.254 132.883 894.398 132.907 894.561 132.907C894.675 132.907 894.788 132.898 894.902 132.879C895.015 132.856 895.103 132.839 895.163 132.828L895.544 134.629C895.423 134.667 895.252 134.71 895.033 134.76C894.813 134.813 894.546 134.845 894.231 134.856C893.648 134.879 893.137 134.801 892.697 134.623C892.262 134.445 891.923 134.169 891.68 133.794C891.438 133.419 891.319 132.945 891.322 132.373V123.919ZM900.845 134.907C899.947 134.907 899.175 134.725 898.527 134.362C897.883 133.994 897.387 133.475 897.038 132.805C896.69 132.131 896.515 131.333 896.515 130.413C896.515 129.515 896.69 128.727 897.038 128.049C897.387 127.371 897.877 126.843 898.51 126.464C899.146 126.085 899.892 125.896 900.748 125.896C901.324 125.896 901.86 125.989 902.356 126.174C902.856 126.356 903.292 126.631 903.663 126.998C904.038 127.366 904.33 127.828 904.538 128.385C904.747 128.938 904.851 129.585 904.851 130.328V130.992H897.481V129.492H902.572C902.572 129.144 902.497 128.835 902.345 128.566C902.194 128.297 901.983 128.087 901.714 127.936C901.449 127.78 901.14 127.703 900.788 127.703C900.421 127.703 900.095 127.788 899.811 127.958C899.531 128.125 899.311 128.35 899.152 128.635C898.993 128.915 898.911 129.227 898.908 129.572V130.998C898.908 131.43 898.987 131.803 899.146 132.117C899.309 132.432 899.538 132.674 899.834 132.845C900.129 133.015 900.48 133.1 900.885 133.1C901.154 133.1 901.4 133.063 901.623 132.987C901.847 132.911 902.038 132.797 902.197 132.646C902.356 132.494 902.478 132.309 902.561 132.089L904.8 132.237C904.686 132.775 904.453 133.244 904.101 133.646C903.752 134.044 903.301 134.354 902.748 134.578C902.199 134.797 901.565 134.907 900.845 134.907ZM909.646 134.879C908.983 134.879 908.383 134.708 907.845 134.367C907.311 134.023 906.887 133.517 906.572 132.85C906.262 132.18 906.106 131.358 906.106 130.385C906.106 129.385 906.267 128.553 906.589 127.89C906.911 127.224 907.339 126.725 907.873 126.396C908.411 126.063 909 125.896 909.64 125.896C910.129 125.896 910.536 125.979 910.862 126.146C911.192 126.309 911.457 126.513 911.658 126.76C911.862 127.002 912.017 127.241 912.123 127.475H912.197V123.1H914.612V134.737H912.226V133.339H912.123C912.01 133.582 911.849 133.822 911.64 134.061C911.436 134.296 911.169 134.491 910.839 134.646C910.514 134.801 910.116 134.879 909.646 134.879ZM910.413 132.953C910.803 132.953 911.133 132.847 911.402 132.635C911.675 132.419 911.883 132.117 912.027 131.731C912.175 131.345 912.248 130.892 912.248 130.373C912.248 129.854 912.176 129.403 912.033 129.021C911.889 128.638 911.68 128.343 911.408 128.135C911.135 127.926 910.803 127.822 910.413 127.822C910.015 127.822 909.68 127.93 909.408 128.146C909.135 128.362 908.928 128.661 908.788 129.044C908.648 129.426 908.578 129.869 908.578 130.373C908.578 130.881 908.648 131.33 908.788 131.72C908.932 132.106 909.139 132.409 909.408 132.629C909.68 132.845 910.015 132.953 910.413 132.953Z" fill="white"/>
<path d="M1036.93 145.337V120.791H1044.74V145.337H1036.93ZM1040.84 117.931C1039.74 117.931 1038.8 117.569 1038.01 116.844C1037.22 116.109 1036.83 115.225 1036.83 114.192C1036.83 113.169 1037.22 112.295 1038.01 111.571C1038.8 110.836 1039.74 110.468 1040.84 110.468C1041.95 110.468 1042.89 110.836 1043.67 111.571C1044.46 112.295 1044.85 113.169 1044.85 114.192C1044.85 115.225 1044.46 116.109 1043.67 116.844C1042.89 117.569 1041.95 117.931 1040.84 117.931Z" fill="white"/>
<path d="M1072.92 123.2V134.837H1070.46V123.2H1072.92ZM1078.84 135.007C1077.95 135.007 1077.18 134.818 1076.54 134.439C1075.9 134.057 1075.4 133.526 1075.06 132.848C1074.72 132.17 1074.55 131.39 1074.55 130.507C1074.55 129.613 1074.72 128.829 1075.06 128.155C1075.41 127.477 1075.91 126.949 1076.55 126.57C1077.19 126.187 1077.95 125.996 1078.83 125.996C1079.59 125.996 1080.26 126.134 1080.83 126.411C1081.4 126.687 1081.86 127.075 1082.19 127.575C1082.52 128.075 1082.71 128.663 1082.74 129.337H1080.46C1080.39 128.901 1080.22 128.551 1079.94 128.286C1079.67 128.017 1079.31 127.882 1078.87 127.882C1078.5 127.882 1078.17 127.985 1077.89 128.189C1077.61 128.39 1077.4 128.683 1077.24 129.07C1077.08 129.456 1077.01 129.924 1077.01 130.473C1077.01 131.03 1077.08 131.503 1077.23 131.894C1077.39 132.284 1077.61 132.581 1077.89 132.786C1078.17 132.99 1078.5 133.093 1078.87 133.093C1079.15 133.093 1079.4 133.036 1079.61 132.922C1079.84 132.808 1080.02 132.644 1080.17 132.428C1080.31 132.208 1080.41 131.945 1080.46 131.638H1082.74C1082.7 132.305 1082.52 132.892 1082.19 133.399C1081.87 133.903 1081.43 134.297 1080.86 134.581C1080.29 134.865 1079.62 135.007 1078.84 135.007ZM1088.23 135.007C1087.35 135.007 1086.59 134.82 1085.94 134.445C1085.3 134.066 1084.81 133.539 1084.46 132.865C1084.11 132.187 1083.94 131.401 1083.94 130.507C1083.94 129.606 1084.11 128.818 1084.46 128.144C1084.81 127.466 1085.3 126.939 1085.94 126.564C1086.59 126.185 1087.35 125.996 1088.23 125.996C1089.12 125.996 1089.88 126.185 1090.52 126.564C1091.16 126.939 1091.66 127.466 1092.01 128.144C1092.35 128.818 1092.53 129.606 1092.53 130.507C1092.53 131.401 1092.35 132.187 1092.01 132.865C1091.66 133.539 1091.16 134.066 1090.52 134.445C1089.88 134.82 1089.12 135.007 1088.23 135.007ZM1088.24 133.132C1088.65 133.132 1088.98 133.019 1089.25 132.791C1089.52 132.56 1089.72 132.246 1089.86 131.848C1090 131.45 1090.07 130.998 1090.07 130.49C1090.07 129.983 1090 129.53 1089.86 129.132C1089.72 128.735 1089.52 128.42 1089.25 128.189C1088.98 127.958 1088.65 127.843 1088.24 127.843C1087.84 127.843 1087.5 127.958 1087.22 128.189C1086.95 128.42 1086.74 128.735 1086.6 129.132C1086.47 129.53 1086.4 129.983 1086.4 130.49C1086.4 130.998 1086.47 131.45 1086.6 131.848C1086.74 132.246 1086.95 132.56 1087.22 132.791C1087.5 133.019 1087.84 133.132 1088.24 133.132ZM1096.52 129.791V134.837H1094.1V126.11H1096.41V127.649H1096.51C1096.7 127.142 1097.03 126.74 1097.48 126.445C1097.94 126.146 1098.49 125.996 1099.14 125.996C1099.74 125.996 1100.27 126.128 1100.72 126.394C1101.17 126.659 1101.52 127.038 1101.77 127.53C1102.02 128.019 1102.15 128.602 1102.15 129.28V134.837H1099.73V129.712C1099.73 129.178 1099.59 128.761 1099.32 128.462C1099.04 128.159 1098.66 128.007 1098.18 128.007C1097.85 128.007 1097.56 128.077 1097.31 128.218C1097.07 128.358 1096.87 128.562 1096.73 128.831C1096.6 129.096 1096.53 129.416 1096.52 129.791ZM1104.06 134.837V126.11H1106.48V134.837H1104.06ZM1105.27 124.985C1104.91 124.985 1104.6 124.865 1104.34 124.627C1104.09 124.384 1103.96 124.094 1103.96 123.757C1103.96 123.424 1104.09 123.138 1104.34 122.899C1104.6 122.657 1104.91 122.536 1105.27 122.536C1105.63 122.536 1105.94 122.657 1106.19 122.899C1106.45 123.138 1106.58 123.424 1106.58 123.757C1106.58 124.094 1106.45 124.384 1106.19 124.627C1105.94 124.865 1105.63 124.985 1105.27 124.985ZM1112.36 135.007C1111.46 135.007 1110.69 134.818 1110.05 134.439C1109.41 134.057 1108.92 133.526 1108.57 132.848C1108.23 132.17 1108.06 131.39 1108.06 130.507C1108.06 129.613 1108.23 128.829 1108.58 128.155C1108.93 127.477 1109.42 126.949 1110.06 126.57C1110.7 126.187 1111.46 125.996 1112.35 125.996C1113.11 125.996 1113.77 126.134 1114.35 126.411C1114.92 126.687 1115.37 127.075 1115.7 127.575C1116.04 128.075 1116.22 128.663 1116.26 129.337H1113.97C1113.91 128.901 1113.74 128.551 1113.46 128.286C1113.19 128.017 1112.83 127.882 1112.39 127.882C1112.01 127.882 1111.68 127.985 1111.4 128.189C1111.13 128.39 1110.91 128.683 1110.76 129.07C1110.6 129.456 1110.52 129.924 1110.52 130.473C1110.52 131.03 1110.6 131.503 1110.75 131.894C1110.91 132.284 1111.12 132.581 1111.4 132.786C1111.68 132.99 1112.01 133.093 1112.39 133.093C1112.66 133.093 1112.91 133.036 1113.13 132.922C1113.35 132.808 1113.54 132.644 1113.68 132.428C1113.83 132.208 1113.93 131.945 1113.97 131.638H1116.26C1116.22 132.305 1116.04 132.892 1115.71 133.399C1115.39 133.903 1114.94 134.297 1114.37 134.581C1113.81 134.865 1113.13 135.007 1112.36 135.007ZM1121.55 123.2H1124.59L1127.79 131.019H1127.93L1131.13 123.2H1134.17V134.837H1131.78V127.263H1131.68L1128.67 134.78H1127.05L1124.04 127.235H1123.94V134.837H1121.55V123.2ZM1140.13 135.007C1139.23 135.007 1138.46 134.825 1137.81 134.462C1137.16 134.094 1136.67 133.575 1136.32 132.905C1135.97 132.231 1135.8 131.433 1135.8 130.513C1135.8 129.615 1135.97 128.827 1136.32 128.149C1136.67 127.471 1137.16 126.943 1137.79 126.564C1138.43 126.185 1139.17 125.996 1140.03 125.996C1140.61 125.996 1141.14 126.089 1141.64 126.274C1142.14 126.456 1142.57 126.731 1142.94 127.098C1143.32 127.466 1143.61 127.928 1143.82 128.485C1144.03 129.038 1144.13 129.685 1144.13 130.428V131.093H1136.76V129.593H1141.85C1141.85 129.244 1141.78 128.935 1141.63 128.666C1141.47 128.397 1141.26 128.187 1141 128.036C1140.73 127.88 1140.42 127.803 1140.07 127.803C1139.7 127.803 1139.38 127.888 1139.09 128.058C1138.81 128.225 1138.59 128.45 1138.43 128.735C1138.27 129.015 1138.19 129.327 1138.19 129.672V131.098C1138.19 131.53 1138.27 131.903 1138.43 132.218C1138.59 132.532 1138.82 132.774 1139.11 132.945C1139.41 133.115 1139.76 133.2 1140.17 133.2C1140.43 133.2 1140.68 133.163 1140.9 133.087C1141.13 133.011 1141.32 132.897 1141.48 132.746C1141.64 132.594 1141.76 132.409 1141.84 132.189L1144.08 132.337C1143.97 132.875 1143.73 133.344 1143.38 133.746C1143.03 134.144 1142.58 134.454 1142.03 134.678C1141.48 134.897 1140.85 135.007 1140.13 135.007Z" fill="white"/>
</g>
</svg>
