<svg width="580" height="331" viewBox="0 0 580 331" fill="none" xmlns="http://www.w3.org/2000/svg">
<rect y="0.936768" width="580" height="60" rx="20" fill="#0D161E"/>
<path d="M27.625 27.3572C27.5644 26.8193 27.3144 26.4027 26.875 26.1072C26.4356 25.808 25.8826 25.6584 25.2159 25.6584C24.7386 25.6584 24.3258 25.7341 23.9773 25.8856C23.6288 26.0334 23.358 26.2379 23.1648 26.4993C22.9754 26.7568 22.8807 27.0504 22.8807 27.3799C22.8807 27.6565 22.9451 27.8951 23.0739 28.0959C23.2064 28.2966 23.3788 28.4652 23.5909 28.6015C23.8068 28.7341 24.0379 28.8459 24.2841 28.9368C24.5303 29.0239 24.767 29.0959 24.9943 29.1527L26.1307 29.4481C26.5019 29.539 26.8826 29.6621 27.2727 29.8174C27.6629 29.9728 28.0246 30.1773 28.358 30.4311C28.6913 30.6849 28.9602 30.9993 29.1648 31.3743C29.3731 31.7493 29.4773 32.1981 29.4773 32.7209C29.4773 33.3799 29.3068 33.9652 28.9659 34.4765C28.6288 34.9879 28.1383 35.3913 27.4943 35.6868C26.8542 35.9822 26.0795 36.1299 25.1705 36.1299C24.2992 36.1299 23.5455 35.9917 22.9091 35.7152C22.2727 35.4387 21.7746 35.0466 21.4148 34.539C21.0549 34.0277 20.8561 33.4216 20.8182 32.7209H22.5795C22.6136 33.1413 22.75 33.4917 22.9886 33.772C23.2311 34.0485 23.5398 34.2549 23.9148 34.3913C24.2936 34.5239 24.7083 34.5902 25.1591 34.5902C25.6553 34.5902 26.0966 34.5125 26.483 34.3572C26.8731 34.1981 27.1799 33.9784 27.4034 33.6981C27.6269 33.414 27.7386 33.0826 27.7386 32.7038C27.7386 32.3591 27.6402 32.0769 27.4432 31.8572C27.25 31.6375 26.9867 31.4557 26.6534 31.3118C26.3239 31.1678 25.9508 31.0409 25.5341 30.9311L24.1591 30.5561C23.2273 30.3023 22.4886 29.9292 21.9432 29.4368C21.4015 28.9443 21.1307 28.2928 21.1307 27.4822C21.1307 26.8118 21.3125 26.2265 21.6761 25.7265C22.0398 25.2265 22.5322 24.8383 23.1534 24.5618C23.7746 24.2815 24.4754 24.1413 25.2557 24.1413C26.0436 24.1413 26.7386 24.2796 27.3409 24.5561C27.947 24.8326 28.4242 25.2133 28.7727 25.6981C29.1212 26.1792 29.303 26.7322 29.3182 27.3572H27.625ZM31.4389 35.9368V27.2095H33.1378V35.9368H31.4389ZM32.2969 25.8629C32.0014 25.8629 31.7476 25.7644 31.5355 25.5674C31.3272 25.3667 31.223 25.1281 31.223 24.8515C31.223 24.5712 31.3272 24.3326 31.5355 24.1356C31.7476 23.9349 32.0014 23.8345 32.2969 23.8345C32.5923 23.8345 32.8442 23.9349 33.0526 24.1356C33.2647 24.3326 33.3707 24.5712 33.3707 24.8515C33.3707 25.1281 33.2647 25.3667 33.0526 25.5674C32.8442 25.7644 32.5923 25.8629 32.2969 25.8629ZM39.0824 39.3913C38.3892 39.3913 37.7926 39.3004 37.2926 39.1186C36.7964 38.9368 36.3911 38.6962 36.0767 38.397C35.7623 38.0978 35.5275 37.7701 35.3722 37.414L36.8324 36.8118C36.9347 36.9784 37.071 37.1546 37.2415 37.3402C37.4157 37.5296 37.6506 37.6906 37.946 37.8231C38.2453 37.9557 38.6297 38.022 39.0994 38.022C39.7434 38.022 40.2756 37.8648 40.696 37.5504C41.1165 37.2398 41.3267 36.7436 41.3267 36.0618V34.3459H41.2188C41.1165 34.5315 40.9688 34.7379 40.7756 34.9652C40.5862 35.1924 40.3248 35.3894 39.9915 35.5561C39.6581 35.7228 39.2244 35.8061 38.6903 35.8061C38.0009 35.8061 37.3797 35.6451 36.8267 35.3231C36.2775 34.9974 35.8419 34.5182 35.5199 33.8856C35.2017 33.2493 35.0426 32.4671 35.0426 31.539C35.0426 30.611 35.1998 29.8156 35.5142 29.1527C35.8324 28.4898 36.268 27.9822 36.821 27.6299C37.3741 27.2739 38.0009 27.0959 38.7017 27.0959C39.2434 27.0959 39.6809 27.1868 40.0142 27.3686C40.3475 27.5466 40.607 27.7549 40.7926 27.9936C40.982 28.2322 41.1278 28.4424 41.2301 28.6243H41.3551V27.2095H43.0199V36.1299C43.0199 36.8799 42.8456 37.4955 42.4972 37.9765C42.1487 38.4576 41.6771 38.8137 41.0824 39.0447C40.4915 39.2758 39.8248 39.3913 39.0824 39.3913ZM39.0653 34.397C39.554 34.397 39.9669 34.2834 40.304 34.0561C40.6449 33.825 40.9025 33.4955 41.0767 33.0674C41.2547 32.6356 41.3438 32.1186 41.3438 31.5163C41.3438 30.9292 41.2566 30.4121 41.0824 29.9652C40.9081 29.5182 40.6525 29.1697 40.3153 28.9197C39.9782 28.6659 39.5616 28.539 39.0653 28.539C38.554 28.539 38.1278 28.6716 37.7869 28.9368C37.446 29.1981 37.1884 29.5542 37.0142 30.0049C36.8438 30.4557 36.7585 30.9595 36.7585 31.5163C36.7585 32.0883 36.8456 32.5902 37.0199 33.022C37.1941 33.4538 37.4517 33.7909 37.7926 34.0334C38.1373 34.2758 38.5616 34.397 39.0653 34.397ZM46.9972 30.7549V35.9368H45.2983V27.2095H46.929V28.6299H47.0369C47.2377 28.1678 47.5521 27.7966 47.9801 27.5163C48.4119 27.236 48.9555 27.0959 49.6108 27.0959C50.2055 27.0959 50.7263 27.2209 51.1733 27.4709C51.6203 27.7171 51.9669 28.0845 52.2131 28.5731C52.4593 29.0618 52.5824 29.6659 52.5824 30.3856V35.9368H50.8835V30.5902C50.8835 29.9576 50.7188 29.4633 50.3892 29.1072C50.0597 28.7474 49.607 28.5674 49.0312 28.5674C48.6373 28.5674 48.2869 28.6527 47.9801 28.8231C47.6771 28.9936 47.4366 29.2436 47.2585 29.5731C47.0843 29.8989 46.9972 30.2928 46.9972 30.7549ZM64.6236 32.3174V27.2095H66.3281V35.9368H64.6577V34.4254H64.5668C64.366 34.8913 64.044 35.2796 63.6009 35.5902C63.1615 35.897 62.6141 36.0504 61.9588 36.0504C61.3982 36.0504 60.902 35.9273 60.4702 35.6811C60.0421 35.4311 59.705 35.0618 59.4588 34.5731C59.2164 34.0845 59.0952 33.4803 59.0952 32.7606V27.2095H60.794V32.5561C60.794 33.1508 60.9588 33.6243 61.2884 33.9765C61.6179 34.3288 62.0459 34.5049 62.5724 34.5049C62.8906 34.5049 63.2069 34.4254 63.5213 34.2663C63.8395 34.1072 64.1027 33.8667 64.3111 33.5447C64.5232 33.2228 64.6274 32.8137 64.6236 32.3174ZM68.6108 39.2095V27.2095H70.2699V28.6243H70.4119C70.5104 28.4424 70.6525 28.2322 70.8381 27.9936C71.0237 27.7549 71.2813 27.5466 71.6108 27.3686C71.9403 27.1868 72.3759 27.0959 72.9176 27.0959C73.6222 27.0959 74.2509 27.2739 74.804 27.6299C75.357 27.986 75.7907 28.4993 76.1051 29.1697C76.4233 29.8402 76.5824 30.647 76.5824 31.5902C76.5824 32.5334 76.4252 33.3421 76.1108 34.0163C75.7964 34.6868 75.3646 35.2038 74.8153 35.5674C74.2661 35.9273 73.6392 36.1072 72.9347 36.1072C72.4044 36.1072 71.9706 36.0182 71.6335 35.8402C71.3002 35.6621 71.0388 35.4538 70.8494 35.2152C70.66 34.9765 70.5142 34.7644 70.4119 34.5788H70.3097V39.2095H68.6108ZM70.2756 31.5731C70.2756 32.1868 70.3646 32.7246 70.5426 33.1868C70.7206 33.6489 70.9782 34.0106 71.3153 34.272C71.6525 34.5296 72.0653 34.6584 72.554 34.6584C73.0616 34.6584 73.4858 34.5239 73.8267 34.2549C74.1676 33.9822 74.4252 33.6129 74.5994 33.147C74.7775 32.6811 74.8665 32.1565 74.8665 31.5731C74.8665 30.9974 74.7794 30.4803 74.6051 30.022C74.4347 29.5637 74.1771 29.2019 73.8324 28.9368C73.4915 28.6716 73.0653 28.539 72.554 28.539C72.0616 28.539 71.6449 28.6659 71.304 28.9197C70.9669 29.1735 70.7112 29.5277 70.5369 29.9822C70.3627 30.4368 70.2756 30.9671 70.2756 31.5731ZM85.2599 36.1299C84.7069 36.1299 84.2069 36.0277 83.7599 35.8231C83.313 35.6148 82.9588 35.3137 82.6974 34.9197C82.4399 34.5258 82.3111 34.0428 82.3111 33.4709C82.3111 32.9784 82.4058 32.5731 82.5952 32.2549C82.7846 31.9368 83.0402 31.6849 83.3622 31.4993C83.6842 31.3137 84.044 31.1735 84.4418 31.0788C84.8395 30.9841 85.2448 30.9121 85.6577 30.8629C86.1804 30.8023 86.6046 30.7531 86.9304 30.7152C87.2562 30.6735 87.4929 30.6072 87.6406 30.5163C87.7884 30.4254 87.8622 30.2777 87.8622 30.0731V30.0334C87.8622 29.5371 87.7221 29.1527 87.4418 28.8799C87.1652 28.6072 86.7524 28.4709 86.2031 28.4709C85.6312 28.4709 85.1804 28.5978 84.8509 28.8515C84.5251 29.1015 84.2997 29.3799 84.1747 29.6868L82.5781 29.3231C82.7675 28.7928 83.044 28.3648 83.4077 28.039C83.7751 27.7095 84.1974 27.4709 84.6747 27.3231C85.152 27.1716 85.6539 27.0959 86.1804 27.0959C86.5289 27.0959 86.8982 27.1375 87.2884 27.2209C87.6823 27.3004 88.0497 27.4481 88.3906 27.664C88.7353 27.8799 89.0175 28.1887 89.2372 28.5902C89.4569 28.9879 89.5668 29.5049 89.5668 30.1413V35.9368H87.9077V34.7436H87.8395C87.7296 34.9633 87.5649 35.1792 87.3452 35.3913C87.1255 35.6034 86.8433 35.7796 86.4986 35.9197C86.1539 36.0599 85.741 36.1299 85.2599 36.1299ZM85.6293 34.7663C86.099 34.7663 86.5005 34.6735 86.8338 34.4879C87.1709 34.3023 87.4266 34.0599 87.6009 33.7606C87.7789 33.4576 87.8679 33.1337 87.8679 32.789V31.664C87.8073 31.7246 87.6899 31.7815 87.5156 31.8345C87.3452 31.8837 87.1501 31.9273 86.9304 31.9652C86.7107 31.9993 86.4967 32.0315 86.2884 32.0618C86.08 32.0883 85.9058 32.111 85.7656 32.1299C85.4361 32.1716 85.1349 32.2417 84.8622 32.3402C84.5933 32.4387 84.3774 32.5807 84.2145 32.7663C84.0554 32.9481 83.9759 33.1906 83.9759 33.4936C83.9759 33.914 84.1312 34.2322 84.4418 34.4481C84.7524 34.6603 85.1482 34.7663 85.6293 34.7663ZM93.5284 30.7549V35.9368H91.8295V27.2095H93.4602V28.6299H93.5682C93.7689 28.1678 94.0833 27.7966 94.5114 27.5163C94.9432 27.236 95.4867 27.0959 96.142 27.0959C96.7367 27.0959 97.2576 27.2209 97.7045 27.4709C98.1515 27.7171 98.4981 28.0845 98.7443 28.5731C98.9905 29.0618 99.1136 29.6659 99.1136 30.3856V35.9368H97.4148V30.5902C97.4148 29.9576 97.25 29.4633 96.9205 29.1072C96.5909 28.7474 96.1383 28.5674 95.5625 28.5674C95.1686 28.5674 94.8182 28.6527 94.5114 28.8231C94.2083 28.9936 93.9678 29.2436 93.7898 29.5731C93.6155 29.8989 93.5284 30.2928 93.5284 30.7549ZM104.659 36.1072C103.955 36.1072 103.326 35.9273 102.773 35.5674C102.223 35.2038 101.792 34.6868 101.477 34.0163C101.167 33.3421 101.011 32.5334 101.011 31.5902C101.011 30.647 101.169 29.8402 101.483 29.1697C101.801 28.4993 102.237 27.986 102.79 27.6299C103.343 27.2739 103.97 27.0959 104.67 27.0959C105.212 27.0959 105.648 27.1868 105.977 27.3686C106.311 27.5466 106.568 27.7549 106.75 27.9936C106.936 28.2322 107.08 28.4424 107.182 28.6243H107.284V24.3004H108.983V35.9368H107.324V34.5788H107.182C107.08 34.7644 106.932 34.9765 106.739 35.2152C106.549 35.4538 106.288 35.6621 105.955 35.8402C105.621 36.0182 105.189 36.1072 104.659 36.1072ZM105.034 34.6584C105.523 34.6584 105.936 34.5296 106.273 34.272C106.614 34.0106 106.871 33.6489 107.045 33.1868C107.223 32.7246 107.312 32.1868 107.312 31.5731C107.312 30.9671 107.225 30.4368 107.051 29.9822C106.877 29.5277 106.621 29.1735 106.284 28.9197C105.947 28.6659 105.53 28.539 105.034 28.539C104.523 28.539 104.097 28.6716 103.756 28.9368C103.415 29.2019 103.157 29.5637 102.983 30.022C102.813 30.4803 102.727 30.9974 102.727 31.5731C102.727 32.1565 102.814 32.6811 102.989 33.147C103.163 33.6129 103.42 33.9822 103.761 34.2549C104.106 34.5239 104.53 34.6584 105.034 34.6584ZM122.125 27.3572C122.064 26.8193 121.814 26.4027 121.375 26.1072C120.936 25.808 120.383 25.6584 119.716 25.6584C119.239 25.6584 118.826 25.7341 118.477 25.8856C118.129 26.0334 117.858 26.2379 117.665 26.4993C117.475 26.7568 117.381 27.0504 117.381 27.3799C117.381 27.6565 117.445 27.8951 117.574 28.0959C117.706 28.2966 117.879 28.4652 118.091 28.6015C118.307 28.7341 118.538 28.8459 118.784 28.9368C119.03 29.0239 119.267 29.0959 119.494 29.1527L120.631 29.4481C121.002 29.539 121.383 29.6621 121.773 29.8174C122.163 29.9728 122.525 30.1773 122.858 30.4311C123.191 30.6849 123.46 30.9993 123.665 31.3743C123.873 31.7493 123.977 32.1981 123.977 32.7209C123.977 33.3799 123.807 33.9652 123.466 34.4765C123.129 34.9879 122.638 35.3913 121.994 35.6868C121.354 35.9822 120.58 36.1299 119.67 36.1299C118.799 36.1299 118.045 35.9917 117.409 35.7152C116.773 35.4387 116.275 35.0466 115.915 34.539C115.555 34.0277 115.356 33.4216 115.318 32.7209H117.08C117.114 33.1413 117.25 33.4917 117.489 33.772C117.731 34.0485 118.04 34.2549 118.415 34.3913C118.794 34.5239 119.208 34.5902 119.659 34.5902C120.155 34.5902 120.597 34.5125 120.983 34.3572C121.373 34.1981 121.68 33.9784 121.903 33.6981C122.127 33.414 122.239 33.0826 122.239 32.7038C122.239 32.3591 122.14 32.0769 121.943 31.8572C121.75 31.6375 121.487 31.4557 121.153 31.3118C120.824 31.1678 120.451 31.0409 120.034 30.9311L118.659 30.5561C117.727 30.3023 116.989 29.9292 116.443 29.4368C115.902 28.9443 115.631 28.2928 115.631 27.4822C115.631 26.8118 115.813 26.2265 116.176 25.7265C116.54 25.2265 117.032 24.8383 117.653 24.5618C118.275 24.2815 118.975 24.1413 119.756 24.1413C120.544 24.1413 121.239 24.2796 121.841 24.5561C122.447 24.8326 122.924 25.2133 123.273 25.6981C123.621 26.1792 123.803 26.7322 123.818 27.3572H122.125ZM129.7 36.1129C128.84 36.1129 128.1 35.9292 127.479 35.5618C126.861 35.1906 126.384 34.6697 126.047 33.9993C125.714 33.325 125.547 32.5353 125.547 31.6299C125.547 30.736 125.714 29.9481 126.047 29.2663C126.384 28.5845 126.854 28.0523 127.456 27.6697C128.062 27.2871 128.77 27.0959 129.581 27.0959C130.073 27.0959 130.551 27.1773 131.013 27.3402C131.475 27.5031 131.89 27.7587 132.257 28.1072C132.625 28.4557 132.914 28.9084 133.126 29.4652C133.339 30.0182 133.445 30.6906 133.445 31.4822V32.0845H126.507V30.8118H131.78C131.78 30.3648 131.689 29.969 131.507 29.6243C131.325 29.2758 131.07 29.0012 130.74 28.8004C130.414 28.5996 130.032 28.4993 129.592 28.4993C129.115 28.4993 128.698 28.6167 128.342 28.8515C127.99 29.0826 127.717 29.3856 127.524 29.7606C127.335 30.1318 127.24 30.5353 127.24 30.9709V31.9652C127.24 32.5485 127.342 33.0447 127.547 33.4538C127.755 33.8629 128.045 34.1754 128.416 34.3913C128.787 34.6034 129.221 34.7095 129.717 34.7095C130.039 34.7095 130.333 34.664 130.598 34.5731C130.863 34.4784 131.092 34.3383 131.286 34.1527C131.479 33.9671 131.626 33.7379 131.729 33.4652L133.337 33.7549C133.208 34.2284 132.977 34.6432 132.643 34.9993C132.314 35.3515 131.899 35.6262 131.399 35.8231C130.903 36.0163 130.337 36.1129 129.7 36.1129ZM139.403 27.2095V28.5731H134.636V27.2095H139.403ZM135.915 25.1186H137.614V33.3743C137.614 33.7038 137.663 33.9519 137.761 34.1186C137.86 34.2815 137.987 34.3932 138.142 34.4538C138.301 34.5106 138.473 34.539 138.659 34.539C138.795 34.539 138.915 34.5296 139.017 34.5106C139.119 34.4917 139.199 34.4765 139.256 34.4652L139.562 35.8686C139.464 35.9065 139.324 35.9443 139.142 35.9822C138.96 36.0239 138.733 36.0466 138.46 36.0504C138.013 36.058 137.597 35.9784 137.21 35.8118C136.824 35.6451 136.511 35.3875 136.273 35.039C136.034 34.6906 135.915 34.2531 135.915 33.7265V25.1186ZM151.045 32.3174V27.2095H152.75V35.9368H151.08V34.4254H150.989C150.788 34.8913 150.466 35.2796 150.023 35.5902C149.583 35.897 149.036 36.0504 148.381 36.0504C147.82 36.0504 147.324 35.9273 146.892 35.6811C146.464 35.4311 146.127 35.0618 145.881 34.5731C145.638 34.0845 145.517 33.4803 145.517 32.7606V27.2095H147.216V32.5561C147.216 33.1508 147.381 33.6243 147.71 33.9765C148.04 34.3288 148.468 34.5049 148.994 34.5049C149.313 34.5049 149.629 34.4254 149.943 34.2663C150.261 34.1072 150.525 33.8667 150.733 33.5447C150.945 33.2228 151.049 32.8137 151.045 32.3174ZM155.033 39.2095V27.2095H156.692V28.6243H156.834C156.932 28.4424 157.074 28.2322 157.26 27.9936C157.446 27.7549 157.703 27.5466 158.033 27.3686C158.362 27.1868 158.798 27.0959 159.339 27.0959C160.044 27.0959 160.673 27.2739 161.226 27.6299C161.779 27.986 162.213 28.4993 162.527 29.1697C162.845 29.8402 163.004 30.647 163.004 31.5902C163.004 32.5334 162.847 33.3421 162.533 34.0163C162.218 34.6868 161.786 35.2038 161.237 35.5674C160.688 35.9273 160.061 36.1072 159.357 36.1072C158.826 36.1072 158.393 36.0182 158.055 35.8402C157.722 35.6621 157.461 35.4538 157.271 35.2152C157.082 34.9765 156.936 34.7644 156.834 34.5788H156.732V39.2095H155.033ZM156.697 31.5731C156.697 32.1868 156.786 32.7246 156.964 33.1868C157.143 33.6489 157.4 34.0106 157.737 34.272C158.074 34.5296 158.487 34.6584 158.976 34.6584C159.483 34.6584 159.908 34.5239 160.249 34.2549C160.589 33.9822 160.847 33.6129 161.021 33.147C161.199 32.6811 161.288 32.1565 161.288 31.5731C161.288 30.9974 161.201 30.4803 161.027 30.022C160.857 29.5637 160.599 29.2019 160.254 28.9368C159.913 28.6716 159.487 28.539 158.976 28.539C158.483 28.539 158.067 28.6659 157.726 28.9197C157.389 29.1735 157.133 29.5277 156.959 29.9822C156.785 30.4368 156.697 30.9671 156.697 31.5731Z" fill="white"/>
<path d="M555 27.9368L548 33.9368L541 27.9368" stroke="white" stroke-width="1.5" stroke-linecap="round" stroke-linejoin="round"/>
<rect y="90.9368" width="580" height="60" rx="20" fill="#0D161E"/>
<path d="M23.0341 114.3V125.937H21.2784V114.3H23.0341ZM27.1534 120.755V125.937H25.4545V117.209H27.0852V118.63H27.1932C27.3939 118.168 27.7083 117.797 28.1364 117.516C28.5682 117.236 29.1117 117.096 29.767 117.096C30.3617 117.096 30.8826 117.221 31.3295 117.471C31.7765 117.717 32.1231 118.084 32.3693 118.573C32.6155 119.062 32.7386 119.666 32.7386 120.386V125.937H31.0398V120.59C31.0398 119.958 30.875 119.463 30.5455 119.107C30.2159 118.747 29.7633 118.567 29.1875 118.567C28.7936 118.567 28.4432 118.653 28.1364 118.823C27.8333 118.994 27.5928 119.244 27.4148 119.573C27.2405 119.899 27.1534 120.293 27.1534 120.755ZM39.0909 117.209V118.573H34.3239V117.209H39.0909ZM35.6023 115.119H37.3011V123.374C37.3011 123.704 37.3504 123.952 37.4489 124.119C37.5473 124.281 37.6742 124.393 37.8295 124.454C37.9886 124.511 38.161 124.539 38.3466 124.539C38.483 124.539 38.6023 124.53 38.7045 124.511C38.8068 124.492 38.8864 124.477 38.9432 124.465L39.25 125.869C39.1515 125.906 39.0114 125.944 38.8295 125.982C38.6477 126.024 38.4205 126.047 38.1477 126.05C37.7008 126.058 37.2841 125.978 36.8977 125.812C36.5114 125.645 36.1989 125.388 35.9602 125.039C35.7216 124.691 35.6023 124.253 35.6023 123.727V115.119ZM44.6378 126.113C43.7779 126.113 43.0374 125.929 42.4162 125.562C41.7988 125.191 41.3215 124.67 40.9844 123.999C40.651 123.325 40.4844 122.535 40.4844 121.63C40.4844 120.736 40.651 119.948 40.9844 119.266C41.3215 118.584 41.7912 118.052 42.3935 117.67C42.9995 117.287 43.7079 117.096 44.5185 117.096C45.0109 117.096 45.4882 117.177 45.9503 117.34C46.4124 117.503 46.8272 117.759 47.1946 118.107C47.562 118.456 47.8518 118.908 48.0639 119.465C48.276 120.018 48.3821 120.691 48.3821 121.482V122.084H41.4446V120.812H46.7173C46.7173 120.365 46.6264 119.969 46.4446 119.624C46.2628 119.276 46.0071 119.001 45.6776 118.8C45.3518 118.6 44.9692 118.499 44.5298 118.499C44.0526 118.499 43.6359 118.617 43.2798 118.852C42.9276 119.083 42.6548 119.386 42.4616 119.761C42.2723 120.132 42.1776 120.535 42.1776 120.971V121.965C42.1776 122.549 42.2798 123.045 42.4844 123.454C42.6927 123.863 42.9825 124.175 43.3537 124.391C43.7249 124.603 44.1586 124.709 44.6548 124.709C44.9768 124.709 45.2704 124.664 45.5355 124.573C45.8007 124.478 46.0298 124.338 46.223 124.153C46.4162 123.967 46.5639 123.738 46.6662 123.465L48.2741 123.755C48.1454 124.228 47.9143 124.643 47.581 124.999C47.2514 125.352 46.8366 125.626 46.3366 125.823C45.8404 126.016 45.2741 126.113 44.6378 126.113ZM53.9261 129.391C53.233 129.391 52.6364 129.3 52.1364 129.119C51.6402 128.937 51.2348 128.696 50.9205 128.397C50.6061 128.098 50.3712 127.77 50.2159 127.414L51.6761 126.812C51.7784 126.978 51.9148 127.155 52.0852 127.34C52.2595 127.53 52.4943 127.691 52.7898 127.823C53.089 127.956 53.4735 128.022 53.9432 128.022C54.5871 128.022 55.1193 127.865 55.5398 127.55C55.9602 127.24 56.1705 126.744 56.1705 126.062V124.346H56.0625C55.9602 124.531 55.8125 124.738 55.6193 124.965C55.4299 125.192 55.1686 125.389 54.8352 125.556C54.5019 125.723 54.0682 125.806 53.5341 125.806C52.8447 125.806 52.2235 125.645 51.6705 125.323C51.1212 124.997 50.6856 124.518 50.3636 123.886C50.0455 123.249 49.8864 122.467 49.8864 121.539C49.8864 120.611 50.0436 119.816 50.358 119.153C50.6761 118.49 51.1117 117.982 51.6648 117.63C52.2178 117.274 52.8447 117.096 53.5455 117.096C54.0871 117.096 54.5246 117.187 54.858 117.369C55.1913 117.547 55.4508 117.755 55.6364 117.994C55.8258 118.232 55.9716 118.442 56.0739 118.624H56.1989V117.209H57.8636V126.13C57.8636 126.88 57.6894 127.495 57.3409 127.977C56.9924 128.458 56.5208 128.814 55.9261 129.045C55.3352 129.276 54.6686 129.391 53.9261 129.391ZM53.9091 124.397C54.3977 124.397 54.8106 124.283 55.1477 124.056C55.4886 123.825 55.7462 123.495 55.9205 123.067C56.0985 122.636 56.1875 122.119 56.1875 121.516C56.1875 120.929 56.1004 120.412 55.9261 119.965C55.7519 119.518 55.4962 119.17 55.1591 118.92C54.822 118.666 54.4053 118.539 53.9091 118.539C53.3977 118.539 52.9716 118.672 52.6307 118.937C52.2898 119.198 52.0322 119.554 51.858 120.005C51.6875 120.456 51.6023 120.959 51.6023 121.516C51.6023 122.088 51.6894 122.59 51.8636 123.022C52.0379 123.454 52.2955 123.791 52.6364 124.033C52.9811 124.276 53.4053 124.397 53.9091 124.397ZM60.142 125.937V117.209H61.7841V118.596H61.875C62.0341 118.126 62.3144 117.757 62.7159 117.488C63.1212 117.215 63.5795 117.079 64.0909 117.079C64.197 117.079 64.322 117.083 64.4659 117.09C64.6136 117.098 64.7292 117.107 64.8125 117.119V118.744C64.7443 118.725 64.6231 118.704 64.4489 118.681C64.2746 118.655 64.1004 118.641 63.9261 118.641C63.5246 118.641 63.1667 118.727 62.8523 118.897C62.5417 119.064 62.2955 119.297 62.1136 119.596C61.9318 119.891 61.8409 120.228 61.8409 120.607V125.937H60.142ZM68.7443 126.13C68.1913 126.13 67.6913 126.028 67.2443 125.823C66.7973 125.615 66.4432 125.314 66.1818 124.92C65.9242 124.526 65.7955 124.043 65.7955 123.471C65.7955 122.978 65.8902 122.573 66.0795 122.255C66.2689 121.937 66.5246 121.685 66.8466 121.499C67.1686 121.314 67.5284 121.174 67.9261 121.079C68.3239 120.984 68.7292 120.912 69.142 120.863C69.6648 120.802 70.089 120.753 70.4148 120.715C70.7405 120.674 70.9773 120.607 71.125 120.516C71.2727 120.425 71.3466 120.278 71.3466 120.073V120.033C71.3466 119.537 71.2064 119.153 70.9261 118.88C70.6496 118.607 70.2367 118.471 69.6875 118.471C69.1155 118.471 68.6648 118.598 68.3352 118.852C68.0095 119.102 67.7841 119.38 67.6591 119.687L66.0625 119.323C66.2519 118.793 66.5284 118.365 66.892 118.039C67.2595 117.709 67.6818 117.471 68.1591 117.323C68.6364 117.172 69.1383 117.096 69.6648 117.096C70.0133 117.096 70.3826 117.138 70.7727 117.221C71.1667 117.3 71.5341 117.448 71.875 117.664C72.2197 117.88 72.5019 118.189 72.7216 118.59C72.9413 118.988 73.0511 119.505 73.0511 120.141V125.937H71.392V124.744H71.3239C71.214 124.963 71.0492 125.179 70.8295 125.391C70.6098 125.603 70.3277 125.78 69.983 125.92C69.6383 126.06 69.2254 126.13 68.7443 126.13ZM69.1136 124.766C69.5833 124.766 69.9848 124.674 70.3182 124.488C70.6553 124.302 70.911 124.06 71.0852 123.761C71.2633 123.458 71.3523 123.134 71.3523 122.789V121.664C71.2917 121.725 71.1742 121.781 71 121.834C70.8295 121.884 70.6345 121.927 70.4148 121.965C70.1951 121.999 69.9811 122.031 69.7727 122.062C69.5644 122.088 69.3902 122.111 69.25 122.13C68.9205 122.172 68.6193 122.242 68.3466 122.34C68.0777 122.439 67.8617 122.581 67.6989 122.766C67.5398 122.948 67.4602 123.191 67.4602 123.494C67.4602 123.914 67.6155 124.232 67.9261 124.448C68.2367 124.66 68.6326 124.766 69.1136 124.766ZM79.3878 117.209V118.573H74.6207V117.209H79.3878ZM75.8991 115.119H77.598V123.374C77.598 123.704 77.6473 123.952 77.7457 124.119C77.8442 124.281 77.9711 124.393 78.1264 124.454C78.2855 124.511 78.4579 124.539 78.6435 124.539C78.7798 124.539 78.8991 124.53 79.0014 124.511C79.1037 124.492 79.1832 124.477 79.2401 124.465L79.5469 125.869C79.4484 125.906 79.3082 125.944 79.1264 125.982C78.9446 126.024 78.7173 126.047 78.4446 126.05C77.9976 126.058 77.581 125.978 77.1946 125.812C76.8082 125.645 76.4957 125.388 76.2571 125.039C76.0185 124.691 75.8991 124.253 75.8991 123.727V115.119ZM84.9347 126.113C84.0748 126.113 83.3343 125.929 82.7131 125.562C82.0956 125.191 81.6184 124.67 81.2812 123.999C80.9479 123.325 80.7812 122.535 80.7812 121.63C80.7812 120.736 80.9479 119.948 81.2812 119.266C81.6184 118.584 82.0881 118.052 82.6903 117.67C83.2964 117.287 84.0047 117.096 84.8153 117.096C85.3078 117.096 85.785 117.177 86.2472 117.34C86.7093 117.503 87.1241 117.759 87.4915 118.107C87.8589 118.456 88.1487 118.908 88.3608 119.465C88.5729 120.018 88.679 120.691 88.679 121.482V122.084H81.7415V120.812H87.0142C87.0142 120.365 86.9233 119.969 86.7415 119.624C86.5597 119.276 86.304 119.001 85.9744 118.8C85.6487 118.6 85.2661 118.499 84.8267 118.499C84.3494 118.499 83.9328 118.617 83.5767 118.852C83.2244 119.083 82.9517 119.386 82.7585 119.761C82.5691 120.132 82.4744 120.535 82.4744 120.971V121.965C82.4744 122.549 82.5767 123.045 82.7812 123.454C82.9896 123.863 83.2794 124.175 83.6506 124.391C84.0218 124.603 84.4555 124.709 84.9517 124.709C85.2737 124.709 85.5672 124.664 85.8324 124.573C86.0975 124.478 86.3267 124.338 86.5199 124.153C86.7131 123.967 86.8608 123.738 86.9631 123.465L88.571 123.755C88.4422 124.228 88.2112 124.643 87.8778 124.999C87.5483 125.352 87.1335 125.626 86.6335 125.823C86.1373 126.016 85.571 126.113 84.9347 126.113ZM97.3381 126.13C96.785 126.13 96.285 126.028 95.8381 125.823C95.3911 125.615 95.0369 125.314 94.7756 124.92C94.518 124.526 94.3892 124.043 94.3892 123.471C94.3892 122.978 94.4839 122.573 94.6733 122.255C94.8627 121.937 95.1184 121.685 95.4403 121.499C95.7623 121.314 96.1222 121.174 96.5199 121.079C96.9176 120.984 97.3229 120.912 97.7358 120.863C98.2585 120.802 98.6828 120.753 99.0085 120.715C99.3343 120.674 99.571 120.607 99.7188 120.516C99.8665 120.425 99.9403 120.278 99.9403 120.073V120.033C99.9403 119.537 99.8002 119.153 99.5199 118.88C99.2434 118.607 98.8305 118.471 98.2812 118.471C97.7093 118.471 97.2585 118.598 96.929 118.852C96.6032 119.102 96.3778 119.38 96.2528 119.687L94.6562 119.323C94.8456 118.793 95.1222 118.365 95.4858 118.039C95.8532 117.709 96.2756 117.471 96.7528 117.323C97.2301 117.172 97.732 117.096 98.2585 117.096C98.607 117.096 98.9763 117.138 99.3665 117.221C99.7604 117.3 100.128 117.448 100.469 117.664C100.813 117.88 101.096 118.189 101.315 118.59C101.535 118.988 101.645 119.505 101.645 120.141V125.937H99.9858V124.744H99.9176C99.8078 124.963 99.643 125.179 99.4233 125.391C99.2036 125.603 98.9214 125.78 98.5767 125.92C98.232 126.06 97.8191 126.13 97.3381 126.13ZM97.7074 124.766C98.1771 124.766 98.5786 124.674 98.9119 124.488C99.2491 124.302 99.5047 124.06 99.679 123.761C99.857 123.458 99.946 123.134 99.946 122.789V121.664C99.8854 121.725 99.768 121.781 99.5938 121.834C99.4233 121.884 99.2282 121.927 99.0085 121.965C98.7888 121.999 98.5748 122.031 98.3665 122.062C98.1581 122.088 97.9839 122.111 97.8438 122.13C97.5142 122.172 97.2131 122.242 96.9403 122.34C96.6714 122.439 96.4555 122.581 96.2926 122.766C96.1335 122.948 96.054 123.191 96.054 123.494C96.054 123.914 96.2093 124.232 96.5199 124.448C96.8305 124.66 97.2263 124.766 97.7074 124.766ZM105.607 120.755V125.937H103.908V117.209H105.538V118.63H105.646C105.847 118.168 106.161 117.797 106.589 117.516C107.021 117.236 107.565 117.096 108.22 117.096C108.815 117.096 109.336 117.221 109.783 117.471C110.23 117.717 110.576 118.084 110.822 118.573C111.069 119.062 111.192 119.666 111.192 120.386V125.937H109.493V120.59C109.493 119.958 109.328 119.463 108.999 119.107C108.669 118.747 108.216 118.567 107.641 118.567C107.247 118.567 106.896 118.653 106.589 118.823C106.286 118.994 106.046 119.244 105.868 119.573C105.694 119.899 105.607 120.293 105.607 120.755ZM116.737 126.107C116.033 126.107 115.404 125.927 114.851 125.567C114.302 125.204 113.87 124.687 113.555 124.016C113.245 123.342 113.089 122.533 113.089 121.59C113.089 120.647 113.247 119.84 113.561 119.17C113.879 118.499 114.315 117.986 114.868 117.63C115.421 117.274 116.048 117.096 116.749 117.096C117.29 117.096 117.726 117.187 118.055 117.369C118.389 117.547 118.646 117.755 118.828 117.994C119.014 118.232 119.158 118.442 119.26 118.624H119.362V114.3H121.061V125.937H119.402V124.579H119.26C119.158 124.764 119.01 124.977 118.817 125.215C118.627 125.454 118.366 125.662 118.033 125.84C117.699 126.018 117.268 126.107 116.737 126.107ZM117.112 124.658C117.601 124.658 118.014 124.53 118.351 124.272C118.692 124.011 118.949 123.649 119.124 123.187C119.302 122.725 119.391 122.187 119.391 121.573C119.391 120.967 119.304 120.437 119.129 119.982C118.955 119.528 118.699 119.174 118.362 118.92C118.025 118.666 117.608 118.539 117.112 118.539C116.601 118.539 116.175 118.672 115.834 118.937C115.493 119.202 115.235 119.564 115.061 120.022C114.891 120.48 114.805 120.997 114.805 121.573C114.805 122.156 114.893 122.681 115.067 123.147C115.241 123.613 115.499 123.982 115.839 124.255C116.184 124.524 116.608 124.658 117.112 124.658ZM137.521 118.084H135.749C135.68 117.706 135.554 117.372 135.368 117.084C135.182 116.797 134.955 116.552 134.686 116.352C134.417 116.151 134.116 115.999 133.783 115.897C133.453 115.795 133.103 115.744 132.732 115.744C132.061 115.744 131.461 115.912 130.93 116.249C130.404 116.586 129.987 117.081 129.68 117.732C129.377 118.384 129.226 119.179 129.226 120.119C129.226 121.066 129.377 121.865 129.68 122.516C129.987 123.168 130.406 123.66 130.936 123.994C131.466 124.327 132.063 124.494 132.726 124.494C133.093 124.494 133.442 124.444 133.771 124.346C134.105 124.244 134.406 124.094 134.675 123.897C134.944 123.7 135.171 123.459 135.357 123.175C135.546 122.888 135.677 122.558 135.749 122.187L137.521 122.192C137.427 122.764 137.243 123.291 136.97 123.772C136.701 124.249 136.355 124.662 135.93 125.011C135.51 125.355 135.029 125.622 134.487 125.812C133.946 126.001 133.355 126.096 132.714 126.096C131.707 126.096 130.809 125.857 130.021 125.38C129.233 124.899 128.612 124.211 128.158 123.317C127.707 122.424 127.482 121.357 127.482 120.119C127.482 118.876 127.709 117.81 128.163 116.92C128.618 116.026 129.239 115.34 130.027 114.863C130.815 114.382 131.711 114.141 132.714 114.141C133.332 114.141 133.908 114.23 134.442 114.408C134.98 114.583 135.463 114.84 135.891 115.181C136.319 115.518 136.673 115.931 136.953 116.42C137.233 116.905 137.423 117.459 137.521 118.084ZM143.162 126.113C142.344 126.113 141.63 125.925 141.02 125.55C140.41 125.175 139.937 124.651 139.599 123.977C139.262 123.302 139.094 122.514 139.094 121.613C139.094 120.708 139.262 119.916 139.599 119.238C139.937 118.56 140.41 118.033 141.02 117.658C141.63 117.283 142.344 117.096 143.162 117.096C143.98 117.096 144.694 117.283 145.304 117.658C145.914 118.033 146.387 118.56 146.724 119.238C147.062 119.916 147.23 120.708 147.23 121.613C147.23 122.514 147.062 123.302 146.724 123.977C146.387 124.651 145.914 125.175 145.304 125.55C144.694 125.925 143.98 126.113 143.162 126.113ZM143.168 124.687C143.698 124.687 144.137 124.547 144.486 124.266C144.834 123.986 145.092 123.613 145.259 123.147C145.429 122.681 145.514 122.168 145.514 121.607C145.514 121.05 145.429 120.539 145.259 120.073C145.092 119.603 144.834 119.227 144.486 118.942C144.137 118.658 143.698 118.516 143.168 118.516C142.634 118.516 142.19 118.658 141.838 118.942C141.49 119.227 141.23 119.603 141.06 120.073C140.893 120.539 140.81 121.05 140.81 121.607C140.81 122.168 140.893 122.681 141.06 123.147C141.23 123.613 141.49 123.986 141.838 124.266C142.19 124.547 142.634 124.687 143.168 124.687ZM150.825 120.755V125.937H149.126V117.209H150.757V118.63H150.865C151.066 118.168 151.38 117.797 151.808 117.516C152.24 117.236 152.784 117.096 153.439 117.096C154.034 117.096 154.554 117.221 155.001 117.471C155.448 117.717 155.795 118.084 156.041 118.573C156.287 119.062 156.411 119.666 156.411 120.386V125.937H154.712V120.59C154.712 119.958 154.547 119.463 154.217 119.107C153.888 118.747 153.435 118.567 152.859 118.567C152.465 118.567 152.115 118.653 151.808 118.823C151.505 118.994 151.265 119.244 151.087 119.573C150.912 119.899 150.825 120.293 150.825 120.755ZM160.388 120.755V125.937H158.689V117.209H160.32V118.63H160.428C160.628 118.168 160.943 117.797 161.371 117.516C161.803 117.236 162.346 117.096 163.001 117.096C163.596 117.096 164.117 117.221 164.564 117.471C165.011 117.717 165.357 118.084 165.604 118.573C165.85 119.062 165.973 119.666 165.973 120.386V125.937H164.274V120.59C164.274 119.958 164.109 119.463 163.78 119.107C163.45 118.747 162.998 118.567 162.422 118.567C162.028 118.567 161.678 118.653 161.371 118.823C161.068 118.994 160.827 119.244 160.649 119.573C160.475 119.899 160.388 120.293 160.388 120.755ZM172.013 126.113C171.153 126.113 170.412 125.929 169.791 125.562C169.174 125.191 168.696 124.67 168.359 123.999C168.026 123.325 167.859 122.535 167.859 121.63C167.859 120.736 168.026 119.948 168.359 119.266C168.696 118.584 169.166 118.052 169.768 117.67C170.375 117.287 171.083 117.096 171.893 117.096C172.386 117.096 172.863 117.177 173.325 117.34C173.787 117.503 174.202 117.759 174.57 118.107C174.937 118.456 175.227 118.908 175.439 119.465C175.651 120.018 175.757 120.691 175.757 121.482V122.084H168.82V120.812H174.092C174.092 120.365 174.001 119.969 173.82 119.624C173.638 119.276 173.382 119.001 173.053 118.8C172.727 118.6 172.344 118.499 171.905 118.499C171.428 118.499 171.011 118.617 170.655 118.852C170.303 119.083 170.03 119.386 169.837 119.761C169.647 120.132 169.553 120.535 169.553 120.971V121.965C169.553 122.549 169.655 123.045 169.859 123.454C170.068 123.863 170.357 124.175 170.729 124.391C171.1 124.603 171.534 124.709 172.03 124.709C172.352 124.709 172.645 124.664 172.911 124.573C173.176 124.478 173.405 124.338 173.598 124.153C173.791 123.967 173.939 123.738 174.041 123.465L175.649 123.755C175.52 124.228 175.289 124.643 174.956 124.999C174.626 125.352 174.212 125.626 173.712 125.823C173.215 126.016 172.649 126.113 172.013 126.113ZM181.318 126.113C180.473 126.113 179.746 125.922 179.136 125.539C178.53 125.153 178.064 124.62 177.739 123.942C177.413 123.264 177.25 122.488 177.25 121.613C177.25 120.727 177.417 119.944 177.75 119.266C178.083 118.584 178.553 118.052 179.159 117.67C179.765 117.287 180.479 117.096 181.301 117.096C181.964 117.096 182.555 117.219 183.074 117.465C183.593 117.708 184.011 118.049 184.33 118.488C184.652 118.927 184.843 119.441 184.903 120.028H183.25C183.159 119.619 182.951 119.266 182.625 118.971C182.303 118.675 181.871 118.528 181.33 118.528C180.856 118.528 180.441 118.653 180.085 118.903C179.733 119.149 179.458 119.501 179.261 119.959C179.064 120.414 178.966 120.952 178.966 121.573C178.966 122.209 179.063 122.759 179.256 123.221C179.449 123.683 179.722 124.041 180.074 124.295C180.43 124.549 180.848 124.675 181.33 124.675C181.652 124.675 181.943 124.617 182.205 124.499C182.47 124.378 182.691 124.206 182.869 123.982C183.051 123.759 183.178 123.49 183.25 123.175H184.903C184.843 123.74 184.659 124.244 184.352 124.687C184.045 125.13 183.634 125.478 183.119 125.732C182.608 125.986 182.008 126.113 181.318 126.113ZM190.794 117.209V118.573H186.027V117.209H190.794ZM187.305 115.119H189.004V123.374C189.004 123.704 189.054 123.952 189.152 124.119C189.25 124.281 189.377 124.393 189.533 124.454C189.692 124.511 189.864 124.539 190.05 124.539C190.186 124.539 190.305 124.53 190.408 124.511C190.51 124.492 190.589 124.477 190.646 124.465L190.953 125.869C190.855 125.906 190.714 125.944 190.533 125.982C190.351 126.024 190.124 126.047 189.851 126.05C189.404 126.058 188.987 125.978 188.601 125.812C188.214 125.645 187.902 125.388 187.663 125.039C187.425 124.691 187.305 124.253 187.305 123.727V115.119Z" fill="white"/>
<path d="M555 117.937L548 123.937L541 117.937" stroke="white" stroke-width="1.5" stroke-linecap="round" stroke-linejoin="round"/>
<rect y="180.937" width="580" height="60" rx="20" fill="#0D161E"/>
<path d="M21.2784 215.937V204.3H28.5739V205.812H23.0341V209.357H28.1932V210.863H23.0341V214.425H28.642V215.937H21.2784ZM32.1236 207.209L34.0497 210.607L35.9929 207.209H37.8509L35.1293 211.573L37.8736 215.937H36.0156L34.0497 212.675L32.0895 215.937H30.2259L32.9418 211.573L30.2599 207.209H32.1236ZM39.5952 219.209V207.209H41.2543V208.624H41.3963C41.4948 208.442 41.6368 208.232 41.8224 207.994C42.008 207.755 42.2656 207.547 42.5952 207.369C42.9247 207.187 43.3603 207.096 43.902 207.096C44.6065 207.096 45.2353 207.274 45.7884 207.63C46.3414 207.986 46.7751 208.499 47.0895 209.17C47.4077 209.84 47.5668 210.647 47.5668 211.59C47.5668 212.533 47.4096 213.342 47.0952 214.016C46.7808 214.687 46.349 215.204 45.7997 215.567C45.2505 215.927 44.6236 216.107 43.919 216.107C43.3887 216.107 42.955 216.018 42.6179 215.84C42.2846 215.662 42.0232 215.454 41.8338 215.215C41.6444 214.977 41.4986 214.764 41.3963 214.579H41.294V219.209H39.5952ZM41.2599 211.573C41.2599 212.187 41.349 212.725 41.527 213.187C41.705 213.649 41.9626 214.011 42.2997 214.272C42.6368 214.53 43.0497 214.658 43.5384 214.658C44.0459 214.658 44.4702 214.524 44.8111 214.255C45.152 213.982 45.4096 213.613 45.5838 213.147C45.7618 212.681 45.8509 212.156 45.8509 211.573C45.8509 210.997 45.7637 210.48 45.5895 210.022C45.419 209.564 45.1615 209.202 44.8168 208.937C44.4759 208.672 44.0497 208.539 43.5384 208.539C43.0459 208.539 42.6293 208.666 42.2884 208.92C41.9512 209.174 41.6955 209.528 41.5213 209.982C41.3471 210.437 41.2599 210.967 41.2599 211.573ZM51.169 204.3V215.937H49.4702V204.3H51.169ZM57.1307 216.113C56.3125 216.113 55.5985 215.925 54.9886 215.55C54.3788 215.175 53.9053 214.651 53.5682 213.977C53.2311 213.302 53.0625 212.514 53.0625 211.613C53.0625 210.708 53.2311 209.916 53.5682 209.238C53.9053 208.56 54.3788 208.033 54.9886 207.658C55.5985 207.283 56.3125 207.096 57.1307 207.096C57.9489 207.096 58.6629 207.283 59.2727 207.658C59.8826 208.033 60.3561 208.56 60.6932 209.238C61.0303 209.916 61.1989 210.708 61.1989 211.613C61.1989 212.514 61.0303 213.302 60.6932 213.977C60.3561 214.651 59.8826 215.175 59.2727 215.55C58.6629 215.925 57.9489 216.113 57.1307 216.113ZM57.1364 214.687C57.6667 214.687 58.1061 214.547 58.4545 214.266C58.803 213.986 59.0606 213.613 59.2273 213.147C59.3977 212.681 59.483 212.168 59.483 211.607C59.483 211.05 59.3977 210.539 59.2273 210.073C59.0606 209.603 58.803 209.227 58.4545 208.942C58.1061 208.658 57.6667 208.516 57.1364 208.516C56.6023 208.516 56.1591 208.658 55.8068 208.942C55.4583 209.227 55.1989 209.603 55.0284 210.073C54.8617 210.539 54.7784 211.05 54.7784 211.607C54.7784 212.168 54.8617 212.681 55.0284 213.147C55.1989 213.613 55.4583 213.986 55.8068 214.266C56.1591 214.547 56.6023 214.687 57.1364 214.687ZM63.0952 215.937V207.209H64.7372V208.596H64.8281C64.9872 208.126 65.2675 207.757 65.669 207.488C66.0743 207.215 66.5327 207.079 67.044 207.079C67.1501 207.079 67.2751 207.083 67.419 207.09C67.5668 207.098 67.6823 207.107 67.7656 207.119V208.744C67.6974 208.725 67.5762 208.704 67.402 208.681C67.2277 208.655 67.0535 208.641 66.8793 208.641C66.4777 208.641 66.1198 208.727 65.8054 208.897C65.4948 209.064 65.2486 209.297 65.0668 209.596C64.8849 209.891 64.794 210.228 64.794 210.607V215.937H63.0952ZM72.6847 216.113C71.8248 216.113 71.0843 215.929 70.4631 215.562C69.8456 215.191 69.3684 214.67 69.0312 213.999C68.6979 213.325 68.5312 212.535 68.5312 211.63C68.5312 210.736 68.6979 209.948 69.0312 209.266C69.3684 208.584 69.8381 208.052 70.4403 207.67C71.0464 207.287 71.7547 207.096 72.5653 207.096C73.0578 207.096 73.535 207.177 73.9972 207.34C74.4593 207.503 74.8741 207.759 75.2415 208.107C75.6089 208.456 75.8987 208.908 76.1108 209.465C76.3229 210.018 76.429 210.691 76.429 211.482V212.084H69.4915V210.812H74.7642C74.7642 210.365 74.6733 209.969 74.4915 209.624C74.3097 209.276 74.054 209.001 73.7244 208.8C73.3987 208.6 73.0161 208.499 72.5767 208.499C72.0994 208.499 71.6828 208.617 71.3267 208.852C70.9744 209.083 70.7017 209.386 70.5085 209.761C70.3191 210.132 70.2244 210.535 70.2244 210.971V211.965C70.2244 212.549 70.3267 213.045 70.5312 213.454C70.7396 213.863 71.0294 214.175 71.4006 214.391C71.7718 214.603 72.2055 214.709 72.7017 214.709C73.0237 214.709 73.3172 214.664 73.5824 214.573C73.8475 214.478 74.0767 214.338 74.2699 214.153C74.4631 213.967 74.6108 213.738 74.7131 213.465L76.321 213.755C76.1922 214.228 75.9612 214.643 75.6278 214.999C75.2983 215.352 74.8835 215.626 74.3835 215.823C73.8873 216.016 73.321 216.113 72.6847 216.113ZM85.0881 216.13C84.535 216.13 84.035 216.028 83.5881 215.823C83.1411 215.615 82.7869 215.314 82.5256 214.92C82.268 214.526 82.1392 214.043 82.1392 213.471C82.1392 212.978 82.2339 212.573 82.4233 212.255C82.6127 211.937 82.8684 211.685 83.1903 211.499C83.5123 211.314 83.8722 211.174 84.2699 211.079C84.6676 210.984 85.0729 210.912 85.4858 210.863C86.0085 210.802 86.4328 210.753 86.7585 210.715C87.0843 210.674 87.321 210.607 87.4688 210.516C87.6165 210.425 87.6903 210.278 87.6903 210.073V210.033C87.6903 209.537 87.5502 209.153 87.2699 208.88C86.9934 208.607 86.5805 208.471 86.0312 208.471C85.4593 208.471 85.0085 208.598 84.679 208.852C84.3532 209.102 84.1278 209.38 84.0028 209.687L82.4062 209.323C82.5956 208.793 82.8722 208.365 83.2358 208.039C83.6032 207.709 84.0256 207.471 84.5028 207.323C84.9801 207.172 85.482 207.096 86.0085 207.096C86.357 207.096 86.7263 207.138 87.1165 207.221C87.5104 207.3 87.8778 207.448 88.2188 207.664C88.5634 207.88 88.8456 208.189 89.0653 208.59C89.285 208.988 89.3949 209.505 89.3949 210.141V215.937H87.7358V214.744H87.6676C87.5578 214.963 87.393 215.179 87.1733 215.391C86.9536 215.603 86.6714 215.78 86.3267 215.92C85.982 216.06 85.5691 216.13 85.0881 216.13ZM85.4574 214.766C85.9271 214.766 86.3286 214.674 86.6619 214.488C86.9991 214.302 87.2547 214.06 87.429 213.761C87.607 213.458 87.696 213.134 87.696 212.789V211.664C87.6354 211.725 87.518 211.781 87.3438 211.834C87.1733 211.884 86.9782 211.927 86.7585 211.965C86.5388 211.999 86.3248 212.031 86.1165 212.062C85.9081 212.088 85.7339 212.111 85.5938 212.13C85.2642 212.172 84.9631 212.242 84.6903 212.34C84.4214 212.439 84.2055 212.581 84.0426 212.766C83.8835 212.948 83.804 213.191 83.804 213.494C83.804 213.914 83.9593 214.232 84.2699 214.448C84.5805 214.66 84.9763 214.766 85.4574 214.766ZM93.3565 210.755V215.937H91.6577V207.209H93.2884V208.63H93.3963C93.5971 208.168 93.9115 207.797 94.3395 207.516C94.7713 207.236 95.3149 207.096 95.9702 207.096C96.5649 207.096 97.0857 207.221 97.5327 207.471C97.9796 207.717 98.3262 208.084 98.5724 208.573C98.8187 209.062 98.9418 209.666 98.9418 210.386V215.937H97.2429V210.59C97.2429 209.958 97.0781 209.463 96.7486 209.107C96.419 208.747 95.9664 208.567 95.3906 208.567C94.9967 208.567 94.6463 208.653 94.3395 208.823C94.0365 208.994 93.7959 209.244 93.6179 209.573C93.4437 209.899 93.3565 210.293 93.3565 210.755ZM104.487 216.107C103.783 216.107 103.154 215.927 102.601 215.567C102.052 215.204 101.62 214.687 101.305 214.016C100.995 213.342 100.839 212.533 100.839 211.59C100.839 210.647 100.997 209.84 101.311 209.17C101.629 208.499 102.065 207.986 102.618 207.63C103.171 207.274 103.798 207.096 104.499 207.096C105.04 207.096 105.476 207.187 105.805 207.369C106.139 207.547 106.396 207.755 106.578 207.994C106.764 208.232 106.908 208.442 107.01 208.624H107.112V204.3H108.811V215.937H107.152V214.579H107.01C106.908 214.764 106.76 214.977 106.567 215.215C106.377 215.454 106.116 215.662 105.783 215.84C105.449 216.018 105.018 216.107 104.487 216.107ZM104.862 214.658C105.351 214.658 105.764 214.53 106.101 214.272C106.442 214.011 106.699 213.649 106.874 213.187C107.052 212.725 107.141 212.187 107.141 211.573C107.141 210.967 107.054 210.437 106.879 209.982C106.705 209.528 106.449 209.174 106.112 208.92C105.775 208.666 105.358 208.539 104.862 208.539C104.351 208.539 103.925 208.672 103.584 208.937C103.243 209.202 102.985 209.564 102.811 210.022C102.641 210.48 102.555 210.997 102.555 211.573C102.555 212.156 102.643 212.681 102.817 213.147C102.991 213.613 103.249 213.982 103.589 214.255C103.934 214.524 104.358 214.658 104.862 214.658ZM125.271 208.084H123.499C123.43 207.706 123.304 207.372 123.118 207.084C122.932 206.797 122.705 206.552 122.436 206.352C122.167 206.151 121.866 205.999 121.533 205.897C121.203 205.795 120.853 205.744 120.482 205.744C119.811 205.744 119.211 205.912 118.68 206.249C118.154 206.586 117.737 207.081 117.43 207.732C117.127 208.384 116.976 209.179 116.976 210.119C116.976 211.066 117.127 211.865 117.43 212.516C117.737 213.168 118.156 213.66 118.686 213.994C119.216 214.327 119.813 214.494 120.476 214.494C120.843 214.494 121.192 214.444 121.521 214.346C121.855 214.244 122.156 214.094 122.425 213.897C122.694 213.7 122.921 213.459 123.107 213.175C123.296 212.888 123.427 212.558 123.499 212.187L125.271 212.192C125.177 212.764 124.993 213.291 124.72 213.772C124.451 214.249 124.105 214.662 123.68 215.011C123.26 215.355 122.779 215.622 122.237 215.812C121.696 216.001 121.105 216.096 120.464 216.096C119.457 216.096 118.559 215.857 117.771 215.38C116.983 214.899 116.362 214.211 115.908 213.317C115.457 212.424 115.232 211.357 115.232 210.119C115.232 208.876 115.459 207.81 115.913 206.92C116.368 206.026 116.989 205.34 117.777 204.863C118.565 204.382 119.461 204.141 120.464 204.141C121.082 204.141 121.658 204.23 122.192 204.408C122.73 204.583 123.213 204.84 123.641 205.181C124.069 205.518 124.423 205.931 124.703 206.42C124.983 206.905 125.173 207.459 125.271 208.084ZM132.764 212.317V207.209H134.469V215.937H132.798V214.425H132.707C132.507 214.891 132.185 215.28 131.741 215.59C131.302 215.897 130.755 216.05 130.099 216.05C129.539 216.05 129.043 215.927 128.611 215.681C128.183 215.431 127.846 215.062 127.599 214.573C127.357 214.084 127.236 213.48 127.236 212.761V207.209H128.935V212.556C128.935 213.151 129.099 213.624 129.429 213.977C129.759 214.329 130.187 214.505 130.713 214.505C131.031 214.505 131.348 214.425 131.662 214.266C131.98 214.107 132.243 213.867 132.452 213.545C132.664 213.223 132.768 212.814 132.764 212.317ZM143.291 209.34L141.751 209.613C141.687 209.416 141.585 209.228 141.445 209.05C141.308 208.872 141.123 208.727 140.888 208.613C140.653 208.499 140.359 208.442 140.007 208.442C139.526 208.442 139.125 208.55 138.803 208.766C138.481 208.978 138.32 209.253 138.32 209.59C138.32 209.882 138.428 210.117 138.643 210.295C138.859 210.473 139.208 210.619 139.689 210.732L141.075 211.05C141.878 211.236 142.477 211.522 142.871 211.908C143.265 212.295 143.462 212.797 143.462 213.414C143.462 213.937 143.31 214.403 143.007 214.812C142.708 215.217 142.289 215.535 141.751 215.766C141.217 215.997 140.598 216.113 139.893 216.113C138.916 216.113 138.119 215.905 137.501 215.488C136.884 215.067 136.505 214.471 136.365 213.698L138.007 213.448C138.109 213.876 138.32 214.2 138.638 214.42C138.956 214.636 139.371 214.744 139.882 214.744C140.439 214.744 140.884 214.628 141.217 214.397C141.551 214.162 141.717 213.876 141.717 213.539C141.717 213.266 141.615 213.037 141.411 212.852C141.21 212.666 140.901 212.526 140.484 212.431L139.007 212.107C138.193 211.922 137.59 211.626 137.2 211.221C136.814 210.816 136.621 210.302 136.621 209.681C136.621 209.166 136.765 208.715 137.053 208.329C137.34 207.942 137.738 207.641 138.246 207.425C138.753 207.206 139.335 207.096 139.99 207.096C140.933 207.096 141.676 207.3 142.217 207.709C142.759 208.115 143.117 208.658 143.291 209.34ZM149.403 207.209V208.573H144.636V207.209H149.403ZM145.915 205.119H147.614V213.374C147.614 213.704 147.663 213.952 147.761 214.119C147.86 214.281 147.987 214.393 148.142 214.454C148.301 214.511 148.473 214.539 148.659 214.539C148.795 214.539 148.915 214.53 149.017 214.511C149.119 214.492 149.199 214.477 149.256 214.465L149.562 215.869C149.464 215.906 149.324 215.944 149.142 215.982C148.96 216.024 148.733 216.047 148.46 216.05C148.013 216.058 147.597 215.978 147.21 215.812C146.824 215.645 146.511 215.388 146.273 215.039C146.034 214.691 145.915 214.253 145.915 213.727V205.119ZM154.865 216.113C154.047 216.113 153.333 215.925 152.723 215.55C152.113 215.175 151.64 214.651 151.303 213.977C150.965 213.302 150.797 212.514 150.797 211.613C150.797 210.708 150.965 209.916 151.303 209.238C151.64 208.56 152.113 208.033 152.723 207.658C153.333 207.283 154.047 207.096 154.865 207.096C155.683 207.096 156.397 207.283 157.007 207.658C157.617 208.033 158.09 208.56 158.428 209.238C158.765 209.916 158.933 210.708 158.933 211.613C158.933 212.514 158.765 213.302 158.428 213.977C158.09 214.651 157.617 215.175 157.007 215.55C156.397 215.925 155.683 216.113 154.865 216.113ZM154.871 214.687C155.401 214.687 155.84 214.547 156.189 214.266C156.537 213.986 156.795 213.613 156.962 213.147C157.132 212.681 157.217 212.168 157.217 211.607C157.217 211.05 157.132 210.539 156.962 210.073C156.795 209.603 156.537 209.227 156.189 208.942C155.84 208.658 155.401 208.516 154.871 208.516C154.337 208.516 153.893 208.658 153.541 208.942C153.193 209.227 152.933 209.603 152.763 210.073C152.596 210.539 152.513 211.05 152.513 211.607C152.513 212.168 152.596 212.681 152.763 213.147C152.933 213.613 153.193 213.986 153.541 214.266C153.893 214.547 154.337 214.687 154.871 214.687ZM160.83 215.937V207.209H162.46V208.63H162.568C162.75 208.149 163.047 207.774 163.46 207.505C163.873 207.232 164.367 207.096 164.943 207.096C165.527 207.096 166.015 207.232 166.409 207.505C166.807 207.778 167.1 208.153 167.29 208.63H167.381C167.589 208.164 167.92 207.793 168.375 207.516C168.83 207.236 169.371 207.096 170 207.096C170.792 207.096 171.438 207.344 171.938 207.84C172.441 208.336 172.693 209.084 172.693 210.084V215.937H170.994V210.244C170.994 209.653 170.833 209.225 170.511 208.959C170.189 208.694 169.805 208.562 169.358 208.562C168.805 208.562 168.375 208.732 168.068 209.073C167.761 209.41 167.608 209.844 167.608 210.374V215.937H165.915V210.136C165.915 209.662 165.767 209.281 165.472 208.994C165.176 208.706 164.792 208.562 164.318 208.562C163.996 208.562 163.699 208.647 163.426 208.817C163.157 208.984 162.939 209.217 162.773 209.516C162.61 209.816 162.528 210.162 162.528 210.556V215.937H160.83ZM174.97 215.937V207.209H176.669V215.937H174.97ZM175.828 205.863C175.533 205.863 175.279 205.764 175.067 205.567C174.858 205.367 174.754 205.128 174.754 204.852C174.754 204.571 174.858 204.333 175.067 204.136C175.279 203.935 175.533 203.834 175.828 203.834C176.124 203.834 176.375 203.935 176.584 204.136C176.796 204.333 176.902 204.571 176.902 204.852C176.902 205.128 176.796 205.367 176.584 205.567C176.375 205.764 176.124 205.863 175.828 205.863ZM178.773 215.937V214.772L183.5 208.766V208.687H178.926V207.209H185.619V208.448L181.074 214.38V214.459H185.778V215.937H178.773ZM191.294 216.113C190.434 216.113 189.694 215.929 189.072 215.562C188.455 215.191 187.978 214.67 187.641 213.999C187.307 213.325 187.141 212.535 187.141 211.63C187.141 210.736 187.307 209.948 187.641 209.266C187.978 208.584 188.447 208.052 189.05 207.67C189.656 207.287 190.364 207.096 191.175 207.096C191.667 207.096 192.144 207.177 192.607 207.34C193.069 207.503 193.483 207.759 193.851 208.107C194.218 208.456 194.508 208.908 194.72 209.465C194.932 210.018 195.038 210.691 195.038 211.482V212.084H188.101V210.812H193.374C193.374 210.365 193.283 209.969 193.101 209.624C192.919 209.276 192.663 209.001 192.334 208.8C192.008 208.6 191.625 208.499 191.186 208.499C190.709 208.499 190.292 208.617 189.936 208.852C189.584 209.083 189.311 209.386 189.118 209.761C188.929 210.132 188.834 210.535 188.834 210.971V211.965C188.834 212.549 188.936 213.045 189.141 213.454C189.349 213.863 189.639 214.175 190.01 214.391C190.381 214.603 190.815 214.709 191.311 214.709C191.633 214.709 191.927 214.664 192.192 214.573C192.457 214.478 192.686 214.338 192.879 214.153C193.072 213.967 193.22 213.738 193.322 213.465L194.93 213.755C194.802 214.228 194.571 214.643 194.237 214.999C193.908 215.352 193.493 215.626 192.993 215.823C192.497 216.016 191.93 216.113 191.294 216.113Z" fill="white"/>
<path d="M555 207.937L548 213.937L541 207.937" stroke="white" stroke-width="1.5" stroke-linecap="round" stroke-linejoin="round"/>
<rect y="270.937" width="580" height="60" rx="20" fill="#0D161E"/>
<path d="M30.9432 298.084H29.1705C29.1023 297.706 28.9754 297.372 28.7898 297.084C28.6042 296.797 28.3769 296.552 28.108 296.352C27.839 296.151 27.5379 295.999 27.2045 295.897C26.875 295.795 26.5246 295.744 26.1534 295.744C25.483 295.744 24.8826 295.912 24.3523 296.249C23.8258 296.586 23.4091 297.081 23.1023 297.732C22.7992 298.384 22.6477 299.179 22.6477 300.119C22.6477 301.066 22.7992 301.865 23.1023 302.516C23.4091 303.168 23.8277 303.66 24.358 303.994C24.8883 304.327 25.4848 304.494 26.1477 304.494C26.5152 304.494 26.8636 304.444 27.1932 304.346C27.5265 304.244 27.8277 304.094 28.0966 303.897C28.3655 303.7 28.5928 303.459 28.7784 303.175C28.9678 302.888 29.0985 302.558 29.1705 302.187L30.9432 302.192C30.8485 302.764 30.6648 303.291 30.392 303.772C30.1231 304.249 29.7765 304.662 29.3523 305.011C28.9318 305.355 28.4508 305.622 27.9091 305.812C27.3674 306.001 26.7765 306.096 26.1364 306.096C25.1288 306.096 24.2311 305.857 23.4432 305.38C22.6553 304.899 22.0341 304.211 21.5795 303.317C21.1288 302.424 20.9034 301.357 20.9034 300.119C20.9034 298.876 21.1307 297.81 21.5852 296.92C22.0398 296.026 22.661 295.34 23.4489 294.863C24.2367 294.382 25.1326 294.141 26.1364 294.141C26.7538 294.141 27.3295 294.23 27.8636 294.408C28.4015 294.583 28.8845 294.84 29.3125 295.181C29.7405 295.518 30.0947 295.931 30.375 296.42C30.6553 296.905 30.8447 297.459 30.9432 298.084ZM36.5838 306.113C35.7656 306.113 35.0516 305.925 34.4418 305.55C33.8319 305.175 33.3584 304.651 33.0213 303.977C32.6842 303.302 32.5156 302.514 32.5156 301.613C32.5156 300.708 32.6842 299.916 33.0213 299.238C33.3584 298.56 33.8319 298.033 34.4418 297.658C35.0516 297.283 35.7656 297.096 36.5838 297.096C37.402 297.096 38.116 297.283 38.7259 297.658C39.3357 298.033 39.8092 298.56 40.1463 299.238C40.4834 299.916 40.652 300.708 40.652 301.613C40.652 302.514 40.4834 303.302 40.1463 303.977C39.8092 304.651 39.3357 305.175 38.7259 305.55C38.116 305.925 37.402 306.113 36.5838 306.113ZM36.5895 304.687C37.1198 304.687 37.5592 304.547 37.9077 304.266C38.2562 303.986 38.5137 303.613 38.6804 303.147C38.8509 302.681 38.9361 302.168 38.9361 301.607C38.9361 301.05 38.8509 300.539 38.6804 300.073C38.5137 299.603 38.2562 299.227 37.9077 298.942C37.5592 298.658 37.1198 298.516 36.5895 298.516C36.0554 298.516 35.6122 298.658 35.2599 298.942C34.9115 299.227 34.652 299.603 34.4815 300.073C34.3149 300.539 34.2315 301.05 34.2315 301.607C34.2315 302.168 34.3149 302.681 34.4815 303.147C34.652 303.613 34.9115 303.986 35.2599 304.266C35.6122 304.547 36.0554 304.687 36.5895 304.687ZM42.5483 305.937V297.209H44.179V298.63H44.2869C44.4688 298.149 44.7661 297.774 45.179 297.505C45.5919 297.232 46.0862 297.096 46.6619 297.096C47.2453 297.096 47.7339 297.232 48.1278 297.505C48.5256 297.778 48.8191 298.153 49.0085 298.63H49.0994C49.3078 298.164 49.6392 297.793 50.0938 297.516C50.5483 297.236 51.09 297.096 51.7188 297.096C52.5104 297.096 53.1562 297.344 53.6562 297.84C54.16 298.336 54.4119 299.084 54.4119 300.084V305.937H52.7131V300.244C52.7131 299.653 52.5521 299.225 52.2301 298.959C51.9081 298.694 51.5237 298.562 51.0767 298.562C50.5237 298.562 50.0938 298.732 49.7869 299.073C49.4801 299.41 49.3267 299.844 49.3267 300.374V305.937H47.6335V300.136C47.6335 299.662 47.4858 299.281 47.1903 298.994C46.8949 298.706 46.5104 298.562 46.0369 298.562C45.715 298.562 45.4176 298.647 45.1449 298.817C44.8759 298.984 44.6581 299.217 44.4915 299.516C44.3286 299.816 44.2472 300.162 44.2472 300.556V305.937H42.5483ZM56.6889 309.209V297.209H58.348V298.624H58.4901C58.5885 298.442 58.7306 298.232 58.9162 297.994C59.1018 297.755 59.3594 297.547 59.6889 297.369C60.0185 297.187 60.4541 297.096 60.9957 297.096C61.7003 297.096 62.3291 297.274 62.8821 297.63C63.4351 297.986 63.8688 298.499 64.1832 299.17C64.5014 299.84 64.6605 300.647 64.6605 301.59C64.6605 302.533 64.5033 303.342 64.1889 304.016C63.8745 304.687 63.4427 305.204 62.8935 305.567C62.3442 305.927 61.7173 306.107 61.0128 306.107C60.4825 306.107 60.0488 306.018 59.7116 305.84C59.3783 305.662 59.117 305.454 58.9276 305.215C58.7382 304.977 58.5923 304.764 58.4901 304.579H58.3878V309.209H56.6889ZM58.3537 301.573C58.3537 302.187 58.4427 302.725 58.6207 303.187C58.7988 303.649 59.0563 304.011 59.3935 304.272C59.7306 304.53 60.1435 304.658 60.6321 304.658C61.1397 304.658 61.5639 304.524 61.9048 304.255C62.2457 303.982 62.5033 303.613 62.6776 303.147C62.8556 302.681 62.9446 302.156 62.9446 301.573C62.9446 300.997 62.8575 300.48 62.6832 300.022C62.5128 299.564 62.2552 299.202 61.9105 298.937C61.5696 298.672 61.1435 298.539 60.6321 298.539C60.1397 298.539 59.723 298.666 59.3821 298.92C59.045 299.174 58.7893 299.528 58.6151 299.982C58.4408 300.437 58.3537 300.967 58.3537 301.573ZM66.5639 305.937V297.209H68.206V298.596H68.2969C68.456 298.126 68.7363 297.757 69.1378 297.488C69.5431 297.215 70.0014 297.079 70.5128 297.079C70.6188 297.079 70.7438 297.083 70.8878 297.09C71.0355 297.098 71.151 297.107 71.2344 297.119V298.744C71.1662 298.725 71.045 298.704 70.8707 298.681C70.6965 298.655 70.5223 298.641 70.348 298.641C69.9465 298.641 69.5885 298.727 69.2741 298.897C68.9635 299.064 68.7173 299.297 68.5355 299.596C68.3537 299.891 68.2628 300.228 68.2628 300.607V305.937H66.5639ZM76.1534 306.113C75.2936 306.113 74.553 305.929 73.9318 305.562C73.3144 305.191 72.8371 304.67 72.5 303.999C72.1667 303.325 72 302.535 72 301.63C72 300.736 72.1667 299.948 72.5 299.266C72.8371 298.584 73.3068 298.052 73.9091 297.67C74.5152 297.287 75.2235 297.096 76.0341 297.096C76.5265 297.096 77.0038 297.177 77.4659 297.34C77.928 297.503 78.3428 297.759 78.7102 298.107C79.0777 298.456 79.3674 298.908 79.5795 299.465C79.7917 300.018 79.8977 300.691 79.8977 301.482V302.084H72.9602V300.812H78.233C78.233 300.365 78.142 299.969 77.9602 299.624C77.7784 299.276 77.5227 299.001 77.1932 298.8C76.8674 298.6 76.4848 298.499 76.0455 298.499C75.5682 298.499 75.1515 298.617 74.7955 298.852C74.4432 299.083 74.1705 299.386 73.9773 299.761C73.7879 300.132 73.6932 300.535 73.6932 300.971V301.965C73.6932 302.549 73.7955 303.045 74 303.454C74.2083 303.863 74.4981 304.175 74.8693 304.391C75.2405 304.603 75.6742 304.709 76.1705 304.709C76.4924 304.709 76.786 304.664 77.0511 304.573C77.3163 304.478 77.5455 304.338 77.7386 304.153C77.9318 303.967 78.0795 303.738 78.1818 303.465L79.7898 303.755C79.661 304.228 79.4299 304.643 79.0966 304.999C78.767 305.352 78.3523 305.626 77.8523 305.823C77.3561 306.016 76.7898 306.113 76.1534 306.113ZM83.4815 300.755V305.937H81.7827V294.3H83.4588V298.63H83.5668C83.7713 298.16 84.0838 297.787 84.5043 297.511C84.9247 297.234 85.474 297.096 86.152 297.096C86.7505 297.096 87.2732 297.219 87.7202 297.465C88.1709 297.711 88.5194 298.079 88.7656 298.567C89.0156 299.052 89.1406 299.658 89.1406 300.386V305.937H87.4418V300.59C87.4418 299.95 87.277 299.454 86.9474 299.102C86.6179 298.745 86.1596 298.567 85.5724 298.567C85.1709 298.567 84.8111 298.653 84.4929 298.823C84.1785 298.994 83.9304 299.244 83.7486 299.573C83.5705 299.899 83.4815 300.293 83.4815 300.755ZM95.169 306.113C94.3092 306.113 93.5687 305.929 92.9474 305.562C92.33 305.191 91.8527 304.67 91.5156 303.999C91.1823 303.325 91.0156 302.535 91.0156 301.63C91.0156 300.736 91.1823 299.948 91.5156 299.266C91.8527 298.584 92.3224 298.052 92.9247 297.67C93.5308 297.287 94.2391 297.096 95.0497 297.096C95.5421 297.096 96.0194 297.177 96.4815 297.34C96.9437 297.503 97.3584 297.759 97.7259 298.107C98.0933 298.456 98.383 298.908 98.5952 299.465C98.8073 300.018 98.9134 300.691 98.9134 301.482V302.084H91.9759V300.812H97.2486C97.2486 300.365 97.1577 299.969 96.9759 299.624C96.794 299.276 96.5384 299.001 96.2088 298.8C95.883 298.6 95.5005 298.499 95.0611 298.499C94.5838 298.499 94.1671 298.617 93.8111 298.852C93.4588 299.083 93.1861 299.386 92.9929 299.761C92.8035 300.132 92.7088 300.535 92.7088 300.971V301.965C92.7088 302.549 92.8111 303.045 93.0156 303.454C93.224 303.863 93.5137 304.175 93.8849 304.391C94.2562 304.603 94.6899 304.709 95.1861 304.709C95.508 304.709 95.8016 304.664 96.0668 304.573C96.3319 304.478 96.5611 304.338 96.7543 304.153C96.9474 303.967 97.0952 303.738 97.1974 303.465L98.8054 303.755C98.6766 304.228 98.4455 304.643 98.1122 304.999C97.7827 305.352 97.3679 305.626 96.8679 305.823C96.3717 306.016 95.8054 306.113 95.169 306.113ZM102.497 300.755V305.937H100.798V297.209H102.429V298.63H102.537C102.738 298.168 103.052 297.797 103.48 297.516C103.912 297.236 104.455 297.096 105.111 297.096C105.705 297.096 106.226 297.221 106.673 297.471C107.12 297.717 107.467 298.084 107.713 298.573C107.959 299.062 108.082 299.666 108.082 300.386V305.937H106.384V300.59C106.384 299.958 106.219 299.463 105.889 299.107C105.56 298.747 105.107 298.567 104.531 298.567C104.137 298.567 103.787 298.653 103.48 298.823C103.177 298.994 102.937 299.244 102.759 299.573C102.584 299.899 102.497 300.293 102.497 300.755ZM116.901 299.34L115.361 299.613C115.296 299.416 115.194 299.228 115.054 299.05C114.918 298.872 114.732 298.727 114.497 298.613C114.262 298.499 113.969 298.442 113.616 298.442C113.135 298.442 112.734 298.55 112.412 298.766C112.09 298.978 111.929 299.253 111.929 299.59C111.929 299.882 112.037 300.117 112.253 300.295C112.469 300.473 112.817 300.619 113.298 300.732L114.685 301.05C115.488 301.236 116.086 301.522 116.48 301.908C116.874 302.295 117.071 302.797 117.071 303.414C117.071 303.937 116.92 304.403 116.616 304.812C116.317 305.217 115.899 305.535 115.361 305.766C114.827 305.997 114.207 306.113 113.503 306.113C112.526 306.113 111.728 305.905 111.111 305.488C110.493 305.067 110.115 304.471 109.974 303.698L111.616 303.448C111.719 303.876 111.929 304.2 112.247 304.42C112.565 304.636 112.98 304.744 113.491 304.744C114.048 304.744 114.493 304.628 114.827 304.397C115.16 304.162 115.327 303.876 115.327 303.539C115.327 303.266 115.224 303.037 115.02 302.852C114.819 302.666 114.51 302.526 114.094 302.431L112.616 302.107C111.802 301.922 111.2 301.626 110.81 301.221C110.423 300.816 110.23 300.302 110.23 299.681C110.23 299.166 110.374 298.715 110.662 298.329C110.95 297.942 111.348 297.641 111.855 297.425C112.363 297.206 112.944 297.096 113.599 297.096C114.543 297.096 115.285 297.3 115.827 297.709C116.368 298.115 116.726 298.658 116.901 299.34ZM118.939 305.937V297.209H120.638V305.937H118.939ZM119.797 295.863C119.501 295.863 119.248 295.764 119.036 295.567C118.827 295.367 118.723 295.128 118.723 294.852C118.723 294.571 118.827 294.333 119.036 294.136C119.248 293.935 119.501 293.834 119.797 293.834C120.092 293.834 120.344 293.935 120.553 294.136C120.765 294.333 120.871 294.571 120.871 294.852C120.871 295.128 120.765 295.367 120.553 295.567C120.344 295.764 120.092 295.863 119.797 295.863ZM130.389 297.209L127.224 305.937H125.406L122.236 297.209H124.06L126.27 303.925H126.361L128.565 297.209H130.389ZM135.45 306.113C134.59 306.113 133.85 305.929 133.229 305.562C132.611 305.191 132.134 304.67 131.797 303.999C131.464 303.325 131.297 302.535 131.297 301.63C131.297 300.736 131.464 299.948 131.797 299.266C132.134 298.584 132.604 298.052 133.206 297.67C133.812 297.287 134.52 297.096 135.331 297.096C135.823 297.096 136.301 297.177 136.763 297.34C137.225 297.503 137.64 297.759 138.007 298.107C138.375 298.456 138.664 298.908 138.876 299.465C139.089 300.018 139.195 300.691 139.195 301.482V302.084H132.257V300.812H137.53C137.53 300.365 137.439 299.969 137.257 299.624C137.075 299.276 136.82 299.001 136.49 298.8C136.164 298.6 135.782 298.499 135.342 298.499C134.865 298.499 134.448 298.617 134.092 298.852C133.74 299.083 133.467 299.386 133.274 299.761C133.085 300.132 132.99 300.535 132.99 300.971V301.965C132.99 302.549 133.092 303.045 133.297 303.454C133.505 303.863 133.795 304.175 134.166 304.391C134.537 304.603 134.971 304.709 135.467 304.709C135.789 304.709 136.083 304.664 136.348 304.573C136.613 304.478 136.842 304.338 137.036 304.153C137.229 303.967 137.376 303.738 137.479 303.465L139.087 303.755C138.958 304.228 138.727 304.643 138.393 304.999C138.064 305.352 137.649 305.626 137.149 305.823C136.653 306.016 136.087 306.113 135.45 306.113ZM145.45 305.937V294.3H149.598C150.5 294.3 151.248 294.456 151.842 294.766C152.441 295.077 152.888 295.507 153.183 296.056C153.479 296.602 153.626 297.232 153.626 297.948C153.626 298.66 153.477 299.287 153.178 299.829C152.882 300.367 152.435 300.785 151.837 301.084C151.242 301.384 150.494 301.533 149.592 301.533H146.45V300.022H149.433C150.001 300.022 150.464 299.941 150.82 299.778C151.179 299.615 151.443 299.378 151.609 299.067C151.776 298.757 151.859 298.384 151.859 297.948C151.859 297.509 151.774 297.128 151.604 296.806C151.437 296.484 151.174 296.238 150.814 296.067C150.458 295.893 149.99 295.806 149.411 295.806H147.206V305.937H145.45ZM151.195 300.687L154.07 305.937H152.07L149.251 300.687H151.195ZM159.278 306.113C158.419 306.113 157.678 305.929 157.057 305.562C156.439 305.191 155.962 304.67 155.625 303.999C155.292 303.325 155.125 302.535 155.125 301.63C155.125 300.736 155.292 299.948 155.625 299.266C155.962 298.584 156.432 298.052 157.034 297.67C157.64 297.287 158.348 297.096 159.159 297.096C159.652 297.096 160.129 297.177 160.591 297.34C161.053 297.503 161.468 297.759 161.835 298.107C162.203 298.456 162.492 298.908 162.705 299.465C162.917 300.018 163.023 300.691 163.023 301.482V302.084H156.085V300.812H161.358C161.358 300.365 161.267 299.969 161.085 299.624C160.903 299.276 160.648 299.001 160.318 298.8C159.992 298.6 159.61 298.499 159.17 298.499C158.693 298.499 158.277 298.617 157.92 298.852C157.568 299.083 157.295 299.386 157.102 299.761C156.913 300.132 156.818 300.535 156.818 300.971V301.965C156.818 302.549 156.92 303.045 157.125 303.454C157.333 303.863 157.623 304.175 157.994 304.391C158.366 304.603 158.799 304.709 159.295 304.709C159.617 304.709 159.911 304.664 160.176 304.573C160.441 304.478 160.67 304.338 160.864 304.153C161.057 303.967 161.205 303.738 161.307 303.465L162.915 303.755C162.786 304.228 162.555 304.643 162.222 304.999C161.892 305.352 161.477 305.626 160.977 305.823C160.481 306.016 159.915 306.113 159.278 306.113ZM164.908 309.209V297.209H166.567V298.624H166.709C166.807 298.442 166.949 298.232 167.135 297.994C167.321 297.755 167.578 297.547 167.908 297.369C168.237 297.187 168.673 297.096 169.214 297.096C169.919 297.096 170.548 297.274 171.101 297.63C171.654 297.986 172.088 298.499 172.402 299.17C172.72 299.84 172.879 300.647 172.879 301.59C172.879 302.533 172.722 303.342 172.408 304.016C172.093 304.687 171.661 305.204 171.112 305.567C170.563 305.927 169.936 306.107 169.232 306.107C168.701 306.107 168.268 306.018 167.93 305.84C167.597 305.662 167.336 305.454 167.146 305.215C166.957 304.977 166.811 304.764 166.709 304.579H166.607V309.209H164.908ZM166.572 301.573C166.572 302.187 166.661 302.725 166.839 303.187C167.018 303.649 167.275 304.011 167.612 304.272C167.949 304.53 168.362 304.658 168.851 304.658C169.358 304.658 169.783 304.524 170.124 304.255C170.464 303.982 170.722 303.613 170.896 303.147C171.074 302.681 171.163 302.156 171.163 301.573C171.163 300.997 171.076 300.48 170.902 300.022C170.732 299.564 170.474 299.202 170.129 298.937C169.788 298.672 169.362 298.539 168.851 298.539C168.358 298.539 167.942 298.666 167.601 298.92C167.264 299.174 167.008 299.528 166.834 299.982C166.66 300.437 166.572 300.967 166.572 301.573ZM178.459 306.113C177.641 306.113 176.927 305.925 176.317 305.55C175.707 305.175 175.233 304.651 174.896 303.977C174.559 303.302 174.391 302.514 174.391 301.613C174.391 300.708 174.559 299.916 174.896 299.238C175.233 298.56 175.707 298.033 176.317 297.658C176.927 297.283 177.641 297.096 178.459 297.096C179.277 297.096 179.991 297.283 180.601 297.658C181.211 298.033 181.684 298.56 182.021 299.238C182.358 299.916 182.527 300.708 182.527 301.613C182.527 302.514 182.358 303.302 182.021 303.977C181.684 304.651 181.211 305.175 180.601 305.55C179.991 305.925 179.277 306.113 178.459 306.113ZM178.464 304.687C178.995 304.687 179.434 304.547 179.783 304.266C180.131 303.986 180.389 303.613 180.555 303.147C180.726 302.681 180.811 302.168 180.811 301.607C180.811 301.05 180.726 300.539 180.555 300.073C180.389 299.603 180.131 299.227 179.783 298.942C179.434 298.658 178.995 298.516 178.464 298.516C177.93 298.516 177.487 298.658 177.135 298.942C176.786 299.227 176.527 299.603 176.357 300.073C176.19 300.539 176.107 301.05 176.107 301.607C176.107 302.168 176.19 302.681 176.357 303.147C176.527 303.613 176.786 303.986 177.135 304.266C177.487 304.547 177.93 304.687 178.464 304.687ZM184.423 305.937V297.209H186.065V298.596H186.156C186.315 298.126 186.596 297.757 186.997 297.488C187.402 297.215 187.861 297.079 188.372 297.079C188.478 297.079 188.603 297.083 188.747 297.09C188.895 297.098 189.01 297.107 189.094 297.119V298.744C189.026 298.725 188.904 298.704 188.73 298.681C188.556 298.655 188.382 298.641 188.207 298.641C187.806 298.641 187.448 298.727 187.134 298.897C186.823 299.064 186.577 299.297 186.395 299.596C186.213 299.891 186.122 300.228 186.122 300.607V305.937H184.423ZM195.153 297.209V298.573H190.386V297.209H195.153ZM191.665 295.119H193.364V303.374C193.364 303.704 193.413 303.952 193.511 304.119C193.61 304.281 193.737 304.393 193.892 304.454C194.051 304.511 194.223 304.539 194.409 304.539C194.545 304.539 194.665 304.53 194.767 304.511C194.869 304.492 194.949 304.477 195.006 304.465L195.312 305.869C195.214 305.906 195.074 305.944 194.892 305.982C194.71 306.024 194.483 306.047 194.21 306.05C193.763 306.058 193.347 305.978 192.96 305.812C192.574 305.645 192.261 305.388 192.023 305.039C191.784 304.691 191.665 304.253 191.665 303.727V295.119ZM197.033 305.937V297.209H198.732V305.937H197.033ZM197.891 295.863C197.595 295.863 197.341 295.764 197.129 295.567C196.921 295.367 196.817 295.128 196.817 294.852C196.817 294.571 196.921 294.333 197.129 294.136C197.341 293.935 197.595 293.834 197.891 293.834C198.186 293.834 198.438 293.935 198.646 294.136C198.858 294.333 198.964 294.571 198.964 294.852C198.964 295.128 198.858 295.367 198.646 295.567C198.438 295.764 198.186 295.863 197.891 295.863ZM202.716 300.755V305.937H201.017V297.209H202.648V298.63H202.756C202.956 298.168 203.271 297.797 203.699 297.516C204.131 297.236 204.674 297.096 205.33 297.096C205.924 297.096 206.445 297.221 206.892 297.471C207.339 297.717 207.686 298.084 207.932 298.573C208.178 299.062 208.301 299.666 208.301 300.386V305.937H206.602V300.59C206.602 299.958 206.438 299.463 206.108 299.107C205.778 298.747 205.326 298.567 204.75 298.567C204.356 298.567 204.006 298.653 203.699 298.823C203.396 298.994 203.155 299.244 202.977 299.573C202.803 299.899 202.716 300.293 202.716 300.755ZM214.239 309.391C213.545 309.391 212.949 309.3 212.449 309.119C211.953 308.937 211.547 308.696 211.233 308.397C210.919 308.098 210.684 307.77 210.528 307.414L211.989 306.812C212.091 306.978 212.227 307.155 212.398 307.34C212.572 307.53 212.807 307.691 213.102 307.823C213.402 307.956 213.786 308.022 214.256 308.022C214.9 308.022 215.432 307.865 215.852 307.55C216.273 307.24 216.483 306.744 216.483 306.062V304.346H216.375C216.273 304.531 216.125 304.738 215.932 304.965C215.742 305.192 215.481 305.389 215.148 305.556C214.814 305.723 214.381 305.806 213.847 305.806C213.157 305.806 212.536 305.645 211.983 305.323C211.434 304.997 210.998 304.518 210.676 303.886C210.358 303.249 210.199 302.467 210.199 301.539C210.199 300.611 210.356 299.816 210.67 299.153C210.989 298.49 211.424 297.982 211.977 297.63C212.53 297.274 213.157 297.096 213.858 297.096C214.4 297.096 214.837 297.187 215.17 297.369C215.504 297.547 215.763 297.755 215.949 297.994C216.138 298.232 216.284 298.442 216.386 298.624H216.511V297.209H218.176V306.13C218.176 306.88 218.002 307.495 217.653 307.977C217.305 308.458 216.833 308.814 216.239 309.045C215.648 309.276 214.981 309.391 214.239 309.391ZM214.222 304.397C214.71 304.397 215.123 304.283 215.46 304.056C215.801 303.825 216.059 303.495 216.233 303.067C216.411 302.636 216.5 302.119 216.5 301.516C216.5 300.929 216.413 300.412 216.239 299.965C216.064 299.518 215.809 299.17 215.472 298.92C215.134 298.666 214.718 298.539 214.222 298.539C213.71 298.539 213.284 298.672 212.943 298.937C212.602 299.198 212.345 299.554 212.17 300.005C212 300.456 211.915 300.959 211.915 301.516C211.915 302.088 212.002 302.59 212.176 303.022C212.35 303.454 212.608 303.791 212.949 304.033C213.294 304.276 213.718 304.397 214.222 304.397ZM227.229 306.13C226.676 306.13 226.176 306.028 225.729 305.823C225.282 305.615 224.928 305.314 224.666 304.92C224.409 304.526 224.28 304.043 224.28 303.471C224.28 302.978 224.375 302.573 224.564 302.255C224.753 301.937 225.009 301.685 225.331 301.499C225.653 301.314 226.013 301.174 226.411 301.079C226.808 300.984 227.214 300.912 227.626 300.863C228.149 300.802 228.573 300.753 228.899 300.715C229.225 300.674 229.462 300.607 229.609 300.516C229.757 300.425 229.831 300.278 229.831 300.073V300.033C229.831 299.537 229.691 299.153 229.411 298.88C229.134 298.607 228.721 298.471 228.172 298.471C227.6 298.471 227.149 298.598 226.82 298.852C226.494 299.102 226.268 299.38 226.143 299.687L224.547 299.323C224.736 298.793 225.013 298.365 225.376 298.039C225.744 297.709 226.166 297.471 226.643 297.323C227.121 297.172 227.623 297.096 228.149 297.096C228.498 297.096 228.867 297.138 229.257 297.221C229.651 297.3 230.018 297.448 230.359 297.664C230.704 297.88 230.986 298.189 231.206 298.59C231.426 298.988 231.536 299.505 231.536 300.141V305.937H229.876V304.744H229.808C229.698 304.963 229.534 305.179 229.314 305.391C229.094 305.603 228.812 305.78 228.467 305.92C228.123 306.06 227.71 306.13 227.229 306.13ZM227.598 304.766C228.068 304.766 228.469 304.674 228.803 304.488C229.14 304.302 229.395 304.06 229.57 303.761C229.748 303.458 229.837 303.134 229.837 302.789V301.664C229.776 301.725 229.659 301.781 229.484 301.834C229.314 301.884 229.119 301.927 228.899 301.965C228.679 301.999 228.465 302.031 228.257 302.062C228.049 302.088 227.875 302.111 227.734 302.13C227.405 302.172 227.104 302.242 226.831 302.34C226.562 302.439 226.346 302.581 226.183 302.766C226.024 302.948 225.945 303.191 225.945 303.494C225.945 303.914 226.1 304.232 226.411 304.448C226.721 304.66 227.117 304.766 227.598 304.766ZM235.497 300.755V305.937H233.798V297.209H235.429V298.63H235.537C235.738 298.168 236.052 297.797 236.48 297.516C236.912 297.236 237.455 297.096 238.111 297.096C238.705 297.096 239.226 297.221 239.673 297.471C240.12 297.717 240.467 298.084 240.713 298.573C240.959 299.062 241.082 299.666 241.082 300.386V305.937H239.384V300.59C239.384 299.958 239.219 299.463 238.889 299.107C238.56 298.747 238.107 298.567 237.531 298.567C237.137 298.567 236.787 298.653 236.48 298.823C236.177 298.994 235.937 299.244 235.759 299.573C235.584 299.899 235.497 300.293 235.497 300.755ZM246.628 306.107C245.923 306.107 245.295 305.927 244.741 305.567C244.192 305.204 243.76 304.687 243.446 304.016C243.135 303.342 242.98 302.533 242.98 301.59C242.98 300.647 243.137 299.84 243.452 299.17C243.77 298.499 244.205 297.986 244.759 297.63C245.312 297.274 245.938 297.096 246.639 297.096C247.181 297.096 247.616 297.187 247.946 297.369C248.279 297.547 248.537 297.755 248.719 297.994C248.904 298.232 249.048 298.442 249.151 298.624H249.253V294.3H250.952V305.937H249.293V304.579H249.151C249.048 304.764 248.901 304.977 248.707 305.215C248.518 305.454 248.257 305.662 247.923 305.84C247.59 306.018 247.158 306.107 246.628 306.107ZM247.003 304.658C247.491 304.658 247.904 304.53 248.241 304.272C248.582 304.011 248.84 303.649 249.014 303.187C249.192 302.725 249.281 302.187 249.281 301.573C249.281 300.967 249.194 300.437 249.02 299.982C248.846 299.528 248.59 299.174 248.253 298.92C247.916 298.666 247.499 298.539 247.003 298.539C246.491 298.539 246.065 298.672 245.724 298.937C245.384 299.202 245.126 299.564 244.952 300.022C244.781 300.48 244.696 300.997 244.696 301.573C244.696 302.156 244.783 302.681 244.957 303.147C245.132 303.613 245.389 303.982 245.73 304.255C246.075 304.524 246.499 304.658 247.003 304.658ZM258.73 305.937H256.866L261.054 294.3H263.082L267.27 305.937H265.406L262.116 296.414H262.026L258.73 305.937ZM259.043 301.38H265.088V302.857H259.043V301.38ZM270.513 300.755V305.937H268.814V297.209H270.445V298.63H270.553C270.753 298.168 271.068 297.797 271.496 297.516C271.928 297.236 272.471 297.096 273.126 297.096C273.721 297.096 274.242 297.221 274.689 297.471C275.136 297.717 275.482 298.084 275.729 298.573C275.975 299.062 276.098 299.666 276.098 300.386V305.937H274.399V300.59C274.399 299.958 274.234 299.463 273.905 299.107C273.575 298.747 273.123 298.567 272.547 298.567C272.153 298.567 271.803 298.653 271.496 298.823C271.193 298.994 270.952 299.244 270.774 299.573C270.6 299.899 270.513 300.293 270.513 300.755ZM280.916 306.13C280.363 306.13 279.863 306.028 279.416 305.823C278.969 305.615 278.615 305.314 278.354 304.92C278.096 304.526 277.967 304.043 277.967 303.471C277.967 302.978 278.062 302.573 278.251 302.255C278.441 301.937 278.696 301.685 279.018 301.499C279.34 301.314 279.7 301.174 280.098 301.079C280.496 300.984 280.901 300.912 281.314 300.863C281.837 300.802 282.261 300.753 282.587 300.715C282.912 300.674 283.149 300.607 283.297 300.516C283.445 300.425 283.518 300.278 283.518 300.073V300.033C283.518 299.537 283.378 299.153 283.098 298.88C282.821 298.607 282.409 298.471 281.859 298.471C281.287 298.471 280.837 298.598 280.507 298.852C280.181 299.102 279.956 299.38 279.831 299.687L278.234 299.323C278.424 298.793 278.7 298.365 279.064 298.039C279.431 297.709 279.854 297.471 280.331 297.323C280.808 297.172 281.31 297.096 281.837 297.096C282.185 297.096 282.554 297.138 282.945 297.221C283.339 297.3 283.706 297.448 284.047 297.664C284.392 297.88 284.674 298.189 284.893 298.59C285.113 298.988 285.223 299.505 285.223 300.141V305.937H283.564V304.744H283.496C283.386 304.963 283.221 305.179 283.001 305.391C282.782 305.603 282.5 305.78 282.155 305.92C281.81 306.06 281.397 306.13 280.916 306.13ZM281.286 304.766C281.755 304.766 282.157 304.674 282.49 304.488C282.827 304.302 283.083 304.06 283.257 303.761C283.435 303.458 283.524 303.134 283.524 302.789V301.664C283.464 301.725 283.346 301.781 283.172 301.834C283.001 301.884 282.806 301.927 282.587 301.965C282.367 301.999 282.153 302.031 281.945 302.062C281.736 302.088 281.562 302.111 281.422 302.13C281.092 302.172 280.791 302.242 280.518 302.34C280.25 302.439 280.034 302.581 279.871 302.766C279.712 302.948 279.632 303.191 279.632 303.494C279.632 303.914 279.787 304.232 280.098 304.448C280.409 304.66 280.804 304.766 281.286 304.766ZM289.185 294.3V305.937H287.486V294.3H289.185ZM292.544 309.209C292.29 309.209 292.059 309.189 291.851 309.147C291.643 309.109 291.487 309.067 291.385 309.022L291.794 307.63C292.105 307.713 292.381 307.749 292.624 307.738C292.866 307.727 293.08 307.636 293.266 307.465C293.455 307.295 293.622 307.016 293.766 306.63L293.976 306.05L290.783 297.209H292.601L294.811 303.982H294.902L297.112 297.209H298.936L295.339 307.102C295.173 307.556 294.961 307.941 294.703 308.255C294.446 308.573 294.139 308.812 293.783 308.971C293.427 309.13 293.014 309.209 292.544 309.209ZM304.607 297.209V298.573H299.839V297.209H304.607ZM301.118 295.119H302.817V303.374C302.817 303.704 302.866 303.952 302.964 304.119C303.063 304.281 303.19 304.393 303.345 304.454C303.504 304.511 303.677 304.539 303.862 304.539C303.999 304.539 304.118 304.53 304.22 304.511C304.322 304.492 304.402 304.477 304.459 304.465L304.766 305.869C304.667 305.906 304.527 305.944 304.345 305.982C304.163 306.024 303.936 306.047 303.663 306.05C303.216 306.058 302.8 305.978 302.413 305.812C302.027 305.645 301.714 305.388 301.476 305.039C301.237 304.691 301.118 304.253 301.118 303.727V295.119ZM306.486 305.937V297.209H308.185V305.937H306.486ZM307.344 295.863C307.048 295.863 306.795 295.764 306.582 295.567C306.374 295.367 306.27 295.128 306.27 294.852C306.27 294.571 306.374 294.333 306.582 294.136C306.795 293.935 307.048 293.834 307.344 293.834C307.639 293.834 307.891 293.935 308.099 294.136C308.312 294.333 308.418 294.571 308.418 294.852C308.418 295.128 308.312 295.367 308.099 295.567C307.891 295.764 307.639 295.863 307.344 295.863ZM314.146 306.113C313.302 306.113 312.574 305.922 311.964 305.539C311.358 305.153 310.893 304.62 310.567 303.942C310.241 303.264 310.078 302.488 310.078 301.613C310.078 300.727 310.245 299.944 310.578 299.266C310.911 298.584 311.381 298.052 311.987 297.67C312.593 297.287 313.307 297.096 314.129 297.096C314.792 297.096 315.383 297.219 315.902 297.465C316.421 297.708 316.839 298.049 317.158 298.488C317.48 298.927 317.671 299.441 317.732 300.028H316.078C315.987 299.619 315.779 299.266 315.453 298.971C315.131 298.675 314.699 298.528 314.158 298.528C313.684 298.528 313.269 298.653 312.913 298.903C312.561 299.149 312.286 299.501 312.089 299.959C311.893 300.414 311.794 300.952 311.794 301.573C311.794 302.209 311.891 302.759 312.084 303.221C312.277 303.683 312.55 304.041 312.902 304.295C313.258 304.549 313.677 304.675 314.158 304.675C314.48 304.675 314.771 304.617 315.033 304.499C315.298 304.378 315.519 304.206 315.697 303.982C315.879 303.759 316.006 303.49 316.078 303.175H317.732C317.671 303.74 317.487 304.244 317.18 304.687C316.874 305.13 316.463 305.478 315.947 305.732C315.436 305.986 314.836 306.113 314.146 306.113ZM326.088 299.34L324.548 299.613C324.484 299.416 324.382 299.228 324.241 299.05C324.105 298.872 323.92 298.727 323.685 298.613C323.45 298.499 323.156 298.442 322.804 298.442C322.323 298.442 321.921 298.55 321.599 298.766C321.277 298.978 321.116 299.253 321.116 299.59C321.116 299.882 321.224 300.117 321.44 300.295C321.656 300.473 322.005 300.619 322.486 300.732L323.872 301.05C324.675 301.236 325.274 301.522 325.668 301.908C326.062 302.295 326.259 302.797 326.259 303.414C326.259 303.937 326.107 304.403 325.804 304.812C325.505 305.217 325.086 305.535 324.548 305.766C324.014 305.997 323.395 306.113 322.69 306.113C321.713 306.113 320.916 305.905 320.298 305.488C319.681 305.067 319.302 304.471 319.162 303.698L320.804 303.448C320.906 303.876 321.116 304.2 321.435 304.42C321.753 304.636 322.168 304.744 322.679 304.744C323.236 304.744 323.681 304.628 324.014 304.397C324.348 304.162 324.514 303.876 324.514 303.539C324.514 303.266 324.412 303.037 324.207 302.852C324.007 302.666 323.698 302.526 323.281 302.431L321.804 302.107C320.99 301.922 320.387 301.626 319.997 301.221C319.611 300.816 319.418 300.302 319.418 299.681C319.418 299.166 319.562 298.715 319.849 298.329C320.137 297.942 320.535 297.641 321.043 297.425C321.55 297.206 322.132 297.096 322.787 297.096C323.73 297.096 324.473 297.3 325.014 297.709C325.556 298.115 325.914 298.658 326.088 299.34Z" fill="white"/>
<path d="M555 297.937L548 303.937L541 297.937" stroke="white" stroke-width="1.5" stroke-linecap="round" stroke-linejoin="round"/>
</svg>
