<svg width="57" height="38" viewBox="0 0 57 38" fill="none" xmlns="http://www.w3.org/2000/svg">
<path d="M15.5221 34.8105C12.56 34.8105 10.1947 34.1989 8.4263 32.9758C6.67262 31.7379 5.61893 29.9989 5.26525 27.7589H4.29262L5.08841 24.2884C5.4863 26.381 6.55472 28.0316 8.29367 29.24C10.0474 30.4337 12.2284 31.0305 14.8368 31.0305C17.1653 31.0305 18.9484 30.5589 20.1863 29.6158C21.4389 28.6579 22.0653 27.2947 22.0653 25.5263C22.0653 24.3179 21.7779 23.3158 21.2031 22.52C20.6284 21.7095 19.7074 21.0537 18.44 20.5526C17.1726 20.0368 15.4779 19.6316 13.3558 19.3368C10.541 18.9537 8.20525 18.3274 6.34841 17.4579C4.5063 16.5884 3.12104 15.4831 2.19262 14.1421C1.27893 12.7863 0.822093 11.1947 0.822093 9.36736C0.822093 6.64104 1.75051 4.51156 3.60736 2.97893C5.4642 1.4463 8.01367 0.679987 11.2558 0.679987C13.1568 0.679987 14.7853 0.952618 16.141 1.49788C17.4968 2.04314 18.5653 2.85367 19.3463 3.92946C20.1274 4.99051 20.621 6.30209 20.8274 7.8642H21.8L20.9821 11.2021C20.6284 9.15367 19.6116 7.51788 17.9316 6.29472C16.2663 5.07157 14.24 4.45999 11.8526 4.45999C9.8042 4.45999 8.18315 4.87999 6.98946 5.71999C5.81051 6.54525 5.22104 7.68736 5.22104 9.1463C5.22104 10.1631 5.52315 11.04 6.12736 11.7768C6.73157 12.5137 7.68209 13.1474 8.97893 13.6779C10.2758 14.2084 11.9558 14.6653 14.0189 15.0484C16.9958 15.5052 19.3905 16.1537 21.2031 16.9937C23.0305 17.8337 24.3642 18.9242 25.2042 20.2653C26.0442 21.6063 26.4642 23.2568 26.4642 25.2168C26.4642 28.2231 25.4989 30.5737 23.5684 32.2684C21.6526 33.9631 18.9705 34.8105 15.5221 34.8105ZM0.777882 34.3684V24.2884H5.08841V34.3684H0.777882ZM20.9821 11.2021V1.12209H25.3147V11.2021H20.9821ZM33.2807 26.521H36.9354V27.4347H35.9554L32.7133 35.4147C32.448 36.073 32.0379 36.5789 31.4828 36.9326C30.9326 37.2863 30.2473 37.4631 29.427 37.4631H28.6533V36.5274H29.427C29.9772 36.5274 30.4561 36.4119 30.8638 36.181C31.2765 35.9551 31.5761 35.621 31.7628 35.1789L32.3228 33.801L32.1386 34.7147L29.1396 27.4347H28.0565V26.521H31.7849V27.4347H30.2965L32.9417 34.0442L31.9765 33.1895H32.9933L32.4407 33.6905L34.8944 27.4347H33.2807V26.521ZM40.5716 33.4547H41.9716V34.3684H37.8969V33.4547H39.5106V27.4347H37.8969V26.521H40.5716V33.4547ZM45.0958 33.4547V29.3505C45.0958 28.707 44.9509 28.201 44.6611 27.8326C44.3713 27.4642 43.9144 27.28 43.2906 27.28C42.7846 27.28 42.3253 27.4052 41.9127 27.6558C41.5 27.9063 41.1734 28.2698 40.9327 28.7463C40.692 29.2228 40.5716 29.8 40.5716 30.4779L40.3285 28.9084H40.6232C40.7165 28.373 40.8958 27.9186 41.1611 27.5452C41.4264 27.167 41.7653 26.8796 42.1779 26.6831C42.5955 26.4817 43.0744 26.381 43.6148 26.381C44.4695 26.381 45.1056 26.6291 45.5232 27.1252C45.9456 27.6165 46.1569 28.3116 46.1569 29.2105V33.4547H47.6674V34.3684H43.7179V33.4547H45.0958ZM52.8245 34.5084C52.0091 34.5084 51.2992 34.3365 50.695 33.9926C50.0957 33.6488 49.6291 33.1747 49.295 32.5705C48.9659 31.9614 48.8013 31.2614 48.8013 30.4705C48.8013 29.8712 48.8922 29.3235 49.074 28.8274C49.2557 28.3263 49.5161 27.894 49.855 27.5305C50.194 27.1621 50.5968 26.8796 51.0634 26.6831C51.5301 26.4817 52.0508 26.381 52.6255 26.381C53.1806 26.381 53.6424 26.4719 54.0108 26.6537C54.3841 26.8305 54.674 27.0761 54.8803 27.3905C55.0866 27.7 55.2192 28.0561 55.2782 28.4589H55.5361L55.3224 29.5716C55.2585 29.1295 55.1136 28.7414 54.8877 28.4074C54.6617 28.0684 54.3669 27.8056 54.0034 27.6189C53.6399 27.4274 53.2199 27.3316 52.7434 27.3316C52.1736 27.3316 51.6726 27.4667 51.2403 27.7368C50.8129 28.0021 50.4789 28.3705 50.2382 28.8421C50.0024 29.3088 49.8845 29.8516 49.8845 30.4705C49.8845 31.0698 50.0048 31.6003 50.2455 32.0621C50.4912 32.5189 50.8326 32.8775 51.2698 33.1379C51.7119 33.3982 52.2326 33.5284 52.8319 33.5284C53.4508 33.5284 53.9838 33.3933 54.4308 33.1231C54.8778 32.8481 55.2045 32.4796 55.4108 32.0179L56.3908 32.4526C56.1108 33.0863 55.6613 33.5874 55.0424 33.9558C54.4284 34.3242 53.6891 34.5084 52.8245 34.5084ZM55.3224 29.5716V26.521H56.3834V29.5716H55.3224Z" fill="white"/>
</svg>
