<svg width="18" height="19" viewBox="0 0 18 19" fill="none" xmlns="http://www.w3.org/2000/svg">
<path d="M17.0167 4.13886L9.79447 0.688861C9.71911 0.652455 9.6365 0.633545 9.5528 0.633545C9.46911 0.633545 9.3865 0.652455 9.31114 0.688861L0.977803 4.71108C0.883263 4.75611 0.803374 4.82694 0.747346 4.91541C0.691318 5.00387 0.661433 5.10637 0.661136 5.21108V14.4055C0.660759 14.514 0.692118 14.6201 0.751349 14.7109C0.81058 14.8018 0.895093 14.8733 0.994469 14.9166L8.21669 18.3555C8.29205 18.3919 8.37466 18.4108 8.45836 18.4108C8.54205 18.4108 8.62466 18.3919 8.70002 18.3555L17.0334 14.3333C17.1279 14.2883 17.2078 14.2175 17.2638 14.129C17.3198 14.0405 17.3497 13.938 17.35 13.8333V4.63886C17.3483 4.53233 17.3159 4.42855 17.2568 4.3399C17.1977 4.25125 17.1143 4.18147 17.0167 4.13886ZM9.55558 1.80553L15.6278 4.70553L12.8222 6.06108L6.89447 3.08886L9.55558 1.80553ZM8.44447 8.18886L2.33336 5.28331L5.61114 3.69997L11.5556 6.67219L8.44447 8.18886ZM1.7778 6.23886L7.88891 9.16664V16.9778L1.7778 14.0555V6.23886ZM9.00003 16.9722V9.14442L16.2222 5.64997V13.4833L9.00003 16.9722Z" fill="#202020"/>
</svg>
