<svg width="22" height="17" viewBox="0 0 22 17" fill="none" xmlns="http://www.w3.org/2000/svg">
<path d="M21.0533 2.58003C20.9913 2.50356 20.9131 2.44177 20.8243 2.39912C20.7356 2.35647 20.6385 2.33402 20.54 2.33337H6.66001L7.09335 3.6667H19.6667L17.8867 11.6667H7.88668L4.84001 2.02003C4.80706 1.91767 4.74983 1.8248 4.67321 1.74935C4.5966 1.67389 4.50287 1.61809 4.40001 1.5867L1.66668 0.746699C1.58263 0.720872 1.49432 0.711852 1.40679 0.720155C1.31926 0.728457 1.23422 0.753919 1.15653 0.795086C0.999623 0.878227 0.882172 1.02029 0.830013 1.19003C0.777853 1.35977 0.795259 1.54328 0.8784 1.70018C0.961541 1.85709 1.10361 1.97454 1.27335 2.0267L3.66668 2.76003L6.72668 12.4267L5.63335 13.32L5.54668 13.4067C5.27624 13.7184 5.12295 14.1146 5.11321 14.5271C5.10348 14.9396 5.23791 15.3426 5.49335 15.6667C5.67505 15.8877 5.90595 16.0631 6.16757 16.1788C6.42919 16.2946 6.71427 16.3475 7.00001 16.3334H18.1267C18.3035 16.3334 18.4731 16.2631 18.5981 16.1381C18.7231 16.0131 18.7933 15.8435 18.7933 15.6667C18.7933 15.4899 18.7231 15.3203 18.5981 15.1953C18.4731 15.0703 18.3035 15 18.1267 15H6.89335C6.81658 14.9974 6.74178 14.975 6.67619 14.9351C6.61059 14.8951 6.55641 14.8389 6.51888 14.7719C6.48134 14.7048 6.46173 14.6293 6.46193 14.5525C6.46213 14.4757 6.48213 14.4002 6.52001 14.3334L8.12668 13H18.42C18.5741 13.0038 18.7248 12.954 18.8463 12.8592C18.9679 12.7644 19.0528 12.6304 19.0867 12.48L21.2 3.1467C21.2203 3.04731 21.2176 2.94461 21.1922 2.84641C21.1668 2.74821 21.1193 2.6571 21.0533 2.58003Z" fill="#1E3B3B"/>
</svg>
