<svg width="104" height="24" viewBox="0 0 104 24" fill="none" xmlns="http://www.w3.org/2000/svg">
<path d="M58 6.3H54.9935C54.4505 6.3 54.01 6.74 54.01 7.2835V10.7335H58L57.4155 14.532H54.0105V21.5H49.6225V14.532H46V10.7335H49.5755L49.6225 7.1285L49.616 6.4735C49.6108 5.95361 49.7087 5.43784 49.904 4.95601C50.0993 4.47418 50.3882 4.03584 50.754 3.66635C51.1198 3.29686 51.5552 3.00353 52.035 2.80334C52.5148 2.60314 53.0296 2.50004 53.5495 2.5H58V6.3Z" stroke="white" stroke-width="2.375" stroke-linejoin="round"/>
<g clip-path="url(#clip0_23_162)">
<path d="M94.2342 10.1625L102.977 0H100.905L93.314 8.82375L87.251 0H80.258L89.4264 13.3433L80.258 24H82.3299L90.3462 14.6818L96.749 24H103.742L94.2337 10.1625H94.2342ZM91.3966 13.4606L90.4676 12.132L83.0763 1.55962H86.2586L92.2231 10.092L93.152 11.4206L100.906 22.5112H97.7238L91.3966 13.4612V13.4606Z" fill="white"/>
</g>
<path d="M16 7C16 6.73478 16.1054 6.48043 16.2929 6.29289C16.4804 6.10536 16.7348 6 17 6C17.2652 6 17.5196 6.10536 17.7071 6.29289C17.8946 6.48043 18 6.73478 18 7C18 7.26522 17.8946 7.51957 17.7071 7.70711C17.5196 7.89464 17.2652 8 17 8C16.7348 8 16.4804 7.89464 16.2929 7.70711C16.1054 7.51957 16 7.26522 16 7Z" fill="white"/>
<path fill-rule="evenodd" clip-rule="evenodd" d="M12 7.25C10.7402 7.25 9.53204 7.75045 8.64124 8.64124C7.75045 9.53204 7.25 10.7402 7.25 12C7.25 13.2598 7.75045 14.468 8.64124 15.3588C9.53204 16.2496 10.7402 16.75 12 16.75C13.2598 16.75 14.468 16.2496 15.3588 15.3588C16.2496 14.468 16.75 13.2598 16.75 12C16.75 10.7402 16.2496 9.53204 15.3588 8.64124C14.468 7.75045 13.2598 7.25 12 7.25ZM8.75 12C8.75 11.138 9.09241 10.3114 9.7019 9.7019C10.3114 9.09241 11.138 8.75 12 8.75C12.862 8.75 13.6886 9.09241 14.2981 9.7019C14.9076 10.3114 15.25 11.138 15.25 12C15.25 12.862 14.9076 13.6886 14.2981 14.2981C13.6886 14.9076 12.862 15.25 12 15.25C11.138 15.25 10.3114 14.9076 9.7019 14.2981C9.09241 13.6886 8.75 12.862 8.75 12Z" fill="white"/>
<path fill-rule="evenodd" clip-rule="evenodd" d="M17.258 2.83303C13.7634 2.44563 10.2366 2.44563 6.74199 2.83303C4.72999 3.05803 3.10499 4.64303 2.86899 6.66503C2.45439 10.2096 2.45439 13.7904 2.86899 17.335C3.10499 19.357 4.72899 20.942 6.74199 21.167C10.2366 21.554 13.7633 21.554 17.258 21.167C19.27 20.942 20.895 19.357 21.131 17.335C21.5457 13.7905 21.5457 10.2096 21.131 6.66503C20.895 4.64303 19.271 3.05803 17.258 2.83303ZM6.90799 4.32303C10.2923 3.94791 13.7077 3.94791 17.092 4.32303C18.422 4.47303 19.487 5.52203 19.642 6.84003C20.0429 10.2684 20.0429 13.7317 19.642 17.16C19.5618 17.8051 19.2665 18.4043 18.8038 18.8608C18.3411 19.3173 17.7381 19.6045 17.092 19.676C13.7077 20.0512 10.2923 20.0512 6.90799 19.676C6.26194 19.6045 5.65885 19.3173 5.19615 18.8608C4.73345 18.4043 4.43817 17.8051 4.35799 17.16C3.95704 13.7317 3.95704 10.2684 4.35799 6.84003C4.43817 6.19499 4.73345 5.59581 5.19615 5.13929C5.65885 4.68276 6.26194 4.39454 6.90799 4.32303Z" fill="white"/>
<defs>
<clipPath id="clip0_23_162">
<rect width="24" height="24" fill="white" transform="translate(80)"/>
</clipPath>
</defs>
</svg>
