<svg width="18" height="19" viewBox="0 0 18 19" fill="none" xmlns="http://www.w3.org/2000/svg">
<path fill-rule="evenodd" clip-rule="evenodd" d="M8.95669 0.541688H9.04335C9.79209 0.541663 10.4164 0.541643 10.9121 0.608282C11.4352 0.678619 11.9076 0.833344 12.2871 1.2129C12.6667 1.59246 12.8214 2.06479 12.8918 2.58796C12.941 2.95429 12.9539 3.39093 12.9572 3.89613C13.4976 3.91347 13.9794 3.94507 14.4075 4.00263C15.3846 4.13399 16.1753 4.41076 16.799 5.03439C17.4226 5.65803 17.6994 6.44882 17.8307 7.42584C17.9584 8.37518 17.9584 9.58821 17.9584 11.1197V11.2137C17.9584 12.7452 17.9584 13.9582 17.8307 14.9075C17.6994 15.8846 17.4226 16.6754 16.799 17.299C16.1753 17.9226 15.3846 18.1994 14.4075 18.3307C13.4582 18.4584 12.2452 18.4584 10.7137 18.4584H7.28634C5.75488 18.4584 4.54185 18.4584 3.5925 18.3307C2.61548 18.1994 1.82469 17.9226 1.20106 17.299C0.577421 16.6754 0.300656 15.8846 0.1693 14.9075C0.0416635 13.9582 0.0416741 12.7452 0.0416873 11.2137V11.1197C0.0416741 9.58821 0.0416635 8.37518 0.1693 7.42584C0.300656 6.44882 0.577421 5.65803 1.20106 5.03439C1.82469 4.41076 2.61548 4.13399 3.5925 4.00263C4.02065 3.94507 4.50242 3.91347 5.04285 3.89613C5.04619 3.39093 5.05903 2.95429 5.10828 2.58796C5.17862 2.06479 5.33334 1.59246 5.7129 1.2129C6.09246 0.833344 6.56479 0.678619 7.08795 0.608282C7.58361 0.541643 8.20795 0.541663 8.95669 0.541688ZM6.29319 3.8765C6.6083 3.87502 6.93913 3.87502 7.28634 3.87502H10.7137C11.0609 3.87502 11.3917 3.87502 11.7069 3.8765C11.7033 3.40123 11.6917 3.04273 11.6529 2.75452C11.6012 2.36996 11.5119 2.20538 11.4033 2.09679C11.2947 1.98819 11.1301 1.89884 10.7455 1.84713C10.343 1.79302 9.80336 1.79169 9.00002 1.79169C8.19668 1.79169 7.65704 1.79302 7.25451 1.84713C6.86996 1.89884 6.70538 1.98819 6.59678 2.09679C6.48819 2.20538 6.39884 2.36996 6.34713 2.75452C6.30838 3.04273 6.2967 3.40123 6.29319 3.8765ZM3.75906 5.24149C2.92065 5.35421 2.43761 5.5656 2.08494 5.91827C1.73227 6.27095 1.52087 6.75399 1.40815 7.5924C1.29301 8.44878 1.29169 9.57767 1.29169 11.1667C1.29169 12.7557 1.29301 13.8846 1.40815 14.741C1.52087 15.5794 1.73227 16.0624 2.08494 16.4151C2.43761 16.7678 2.92065 16.9792 3.75906 17.0919C4.61545 17.207 5.74434 17.2084 7.33335 17.2084H10.6667C12.2557 17.2084 13.3846 17.207 14.241 17.0919C15.0794 16.9792 15.5624 16.7678 15.9151 16.4151C16.2678 16.0624 16.4792 15.5794 16.5919 14.741C16.707 13.8846 16.7084 12.7557 16.7084 11.1667C16.7084 9.57767 16.707 8.44878 16.5919 7.5924C16.4792 6.75399 16.2678 6.27095 15.9151 5.91827C15.5624 5.5656 15.0794 5.35421 14.241 5.24149C13.3846 5.12635 12.2557 5.12502 10.6667 5.12502H7.33335C5.74434 5.12502 4.61545 5.12635 3.75906 5.24149ZM9.00002 7.20835C9.3452 7.20835 9.62502 7.48818 9.62502 7.83335V7.84188C10.5323 8.07047 11.2917 8.78585 11.2917 9.7778C11.2917 10.123 11.0119 10.4028 10.6667 10.4028C10.3215 10.4028 10.0417 10.123 10.0417 9.7778C10.0417 9.45777 9.68685 9.01391 9.00002 9.01391C8.31319 9.01391 7.95835 9.45777 7.95835 9.7778C7.95835 10.0978 8.31319 10.5417 9.00002 10.5417C10.1541 10.5417 11.2917 11.3415 11.2917 12.5556C11.2917 13.5475 10.5323 14.2629 9.62502 14.4915V14.5C9.62502 14.8452 9.3452 15.125 9.00002 15.125C8.65484 15.125 8.37502 14.8452 8.37502 14.5V14.4915C7.4677 14.2629 6.70835 13.5475 6.70835 12.5556C6.70835 12.2104 6.98818 11.9306 7.33335 11.9306C7.67853 11.9306 7.95835 12.2104 7.95835 12.5556C7.95835 12.8756 8.31319 13.3195 9.00002 13.3195C9.68685 13.3195 10.0417 12.8756 10.0417 12.5556C10.0417 12.2356 9.68685 11.7917 9.00002 11.7917C7.84591 11.7917 6.70835 10.9919 6.70835 9.7778C6.70835 8.78585 7.4677 8.07047 8.37502 7.84188V7.83335C8.37502 7.48818 8.65484 7.20835 9.00002 7.20835Z" fill="black"/>
</svg>
