<svg width="16" height="16" viewBox="0 0 16 16" fill="none" xmlns="http://www.w3.org/2000/svg">
<path d="M9.49999 6.50004L7.24999 8.75004M14.216 1.27329C14.2872 1.24873 14.3638 1.24469 14.4372 1.26163C14.5105 1.27857 14.5776 1.3158 14.6308 1.36907C14.684 1.42235 14.7211 1.48951 14.738 1.5629C14.7548 1.63628 14.7507 1.71291 14.726 1.78404L10.283 14.4815C10.2564 14.5574 10.2076 14.6236 10.143 14.6714C10.0783 14.7193 10.0008 14.7466 9.92043 14.7498C9.84007 14.7531 9.7606 14.7321 9.69231 14.6896C9.62403 14.6471 9.57009 14.5851 9.53749 14.5115L7.12324 9.08004C7.08297 8.98948 7.01055 8.91706 6.91999 8.87679L1.48849 6.46179C1.41521 6.42908 1.35343 6.37514 1.31112 6.30694C1.26881 6.23875 1.24792 6.15944 1.25115 6.07925C1.25438 5.99907 1.28158 5.92169 1.32924 5.85712C1.37689 5.79255 1.44282 5.74376 1.51849 5.71704L14.216 1.27329Z" stroke="white" stroke-width="1.5" stroke-linecap="round" stroke-linejoin="round"/>
</svg>
