<svg width="18" height="19" viewBox="0 0 18 19" fill="none" xmlns="http://www.w3.org/2000/svg">
<path d="M12.3586 7.85863C12.6027 7.61455 12.6027 7.21882 12.3586 6.97475C12.1146 6.73067 11.7188 6.73067 11.4747 6.97475L7.75002 10.6995L6.5253 9.47474C6.28122 9.23067 5.88549 9.23067 5.64141 9.47474C5.39733 9.71882 5.39733 10.1146 5.64141 10.3586L7.30808 12.0253C7.55216 12.2694 7.94788 12.2694 8.19196 12.0253L12.3586 7.85863Z" fill="#202020"/>
<path fill-rule="evenodd" clip-rule="evenodd" d="M9.04784 0.541687H8.95221C7.02855 0.541677 5.52101 0.541669 4.34478 0.69981C3.14083 0.861676 2.19081 1.19946 1.44513 1.94513C0.69946 2.69081 0.361676 3.64083 0.19981 4.84478C0.0416687 6.02101 0.0416768 7.52854 0.0416872 9.45219V9.54784C0.0416768 11.4715 0.0416687 12.979 0.19981 14.1553C0.361676 15.3592 0.69946 16.3092 1.44513 17.0549C2.19081 17.8006 3.14083 18.1384 4.34478 18.3002C5.52102 18.4584 7.02855 18.4584 8.95221 18.4584H9.04783C10.9715 18.4584 12.479 18.4584 13.6553 18.3002C14.8592 18.1384 15.8092 17.8006 16.5549 17.0549C17.3006 16.3092 17.6384 15.3592 17.8002 14.1553C17.9584 12.979 17.9584 11.4715 17.9584 9.54783V9.45221C17.9584 7.52855 17.9584 6.02102 17.8002 4.84478C17.6384 3.64083 17.3006 2.69081 16.5549 1.94513C15.8092 1.19946 14.8592 0.861676 13.6553 0.69981C12.479 0.541669 10.9715 0.541677 9.04784 0.541687ZM2.32902 2.82902C2.80373 2.3543 3.446 2.08189 4.51133 1.93866C5.59465 1.79302 7.01817 1.79169 9.00002 1.79169C10.9819 1.79169 12.4054 1.79302 13.4887 1.93866C14.554 2.08189 15.1963 2.3543 15.671 2.82902C16.1457 3.30373 16.4181 3.946 16.5614 5.01133C16.707 6.09465 16.7084 7.51817 16.7084 9.50002C16.7084 11.4819 16.707 12.9054 16.5614 13.9887C16.4181 15.054 16.1457 15.6963 15.671 16.171C15.1963 16.6457 14.554 16.9181 13.4887 17.0614C12.4054 17.207 10.9819 17.2084 9.00002 17.2084C7.01817 17.2084 5.59465 17.207 4.51133 17.0614C3.446 16.9181 2.80373 16.6457 2.32902 16.171C1.8543 15.6963 1.58189 15.054 1.43866 13.9887C1.29302 12.9054 1.29169 11.4819 1.29169 9.50002C1.29169 7.51817 1.29302 6.09465 1.43866 5.01133C1.58189 3.946 1.8543 3.30373 2.32902 2.82902Z" fill="#202020"/>
</svg>
