<svg width="18" height="19" viewBox="0 0 18 19" fill="none" xmlns="http://www.w3.org/2000/svg">
<path fill-rule="evenodd" clip-rule="evenodd" d="M4.83335 0.958313C5.17853 0.958313 5.45835 1.23814 5.45835 1.58331V2.21891C6.01005 2.2083 6.61786 2.20831 7.28634 2.20831H10.7137C11.3822 2.20831 11.99 2.2083 12.5417 2.21891V1.58331C12.5417 1.23814 12.8215 0.958313 13.1667 0.958313C13.5119 0.958313 13.7917 1.23814 13.7917 1.58331V2.27255C14.0083 2.28907 14.2134 2.30983 14.4075 2.33593C15.3846 2.46728 16.1753 2.74405 16.799 3.36768C17.4226 3.99132 17.6994 4.78211 17.8307 5.75913C17.8727 6.07137 17.9009 6.41214 17.9198 6.78337C17.9447 6.85086 17.9584 6.92383 17.9584 6.99998C17.9584 7.05775 17.9505 7.11368 17.9358 7.16678C17.9584 7.8351 17.9584 8.59394 17.9584 9.45297V11.2137C17.9584 12.7451 17.9584 13.9582 17.8307 14.9075C17.6994 15.8845 17.4226 16.6753 16.799 17.2989C16.1753 17.9226 15.3846 18.1993 14.4075 18.3307C13.4582 18.4583 12.2452 18.4583 10.7137 18.4583H7.28635C5.75488 18.4583 4.54185 18.4583 3.5925 18.3307C2.61548 18.1993 1.82469 17.9226 1.20106 17.2989C0.577421 16.6753 0.300656 15.8845 0.1693 14.9075C0.0416635 13.9582 0.0416741 12.7451 0.0416873 11.2137V9.45297C0.0416799 8.59394 0.0416733 7.8351 0.0641945 7.16679C0.049525 7.11369 0.0416876 7.05775 0.0416876 6.99998C0.0416876 6.92383 0.0553075 6.85085 0.0802443 6.78337C0.0991488 6.41213 0.12732 6.07137 0.1693 5.75913C0.300656 4.78211 0.577421 3.99132 1.20106 3.36768C1.82469 2.74405 2.61548 2.46728 3.5925 2.33593C3.78661 2.30983 3.99173 2.28907 4.20835 2.27255V1.58331C4.20835 1.23814 4.48818 0.958313 4.83335 0.958313ZM1.30259 7.62498C1.29195 8.16892 1.29169 8.7883 1.29169 9.49998V11.1666C1.29169 12.7557 1.29301 13.8846 1.40815 14.7409C1.52087 15.5793 1.73227 16.0624 2.08494 16.4151C2.43761 16.7677 2.92065 16.9791 3.75906 17.0918C4.61545 17.207 5.74434 17.2083 7.33335 17.2083H10.6667C12.2557 17.2083 13.3846 17.207 14.241 17.0918C15.0794 16.9791 15.5624 16.7677 15.9151 16.4151C16.2678 16.0624 16.4792 15.5793 16.5919 14.7409C16.707 13.8846 16.7084 12.7557 16.7084 11.1666V9.49998C16.7084 8.7883 16.7081 8.16892 16.6974 7.62498H1.30259ZM16.6403 6.37498H1.35976C1.3731 6.21715 1.38906 6.06767 1.40815 5.92569C1.52087 5.08728 1.73227 4.60424 2.08494 4.25157C2.43761 3.89889 2.92065 3.6875 3.75906 3.57478C4.61545 3.45964 5.74434 3.45831 7.33335 3.45831H10.6667C12.2557 3.45831 13.3846 3.45964 14.241 3.57478C15.0794 3.6875 15.5624 3.89889 15.9151 4.25157C16.2678 4.60424 16.4792 5.08728 16.5919 5.92569C16.611 6.06768 16.6269 6.21715 16.6403 6.37498ZM7.9892 9.75589C8.22274 9.85263 8.37502 10.0805 8.37502 10.3333V13.6666C8.37502 14.0118 8.0952 14.2916 7.75002 14.2916C7.40484 14.2916 7.12502 14.0118 7.12502 13.6666V11.8422L6.94196 12.0253C6.69788 12.2693 6.30216 12.2693 6.05808 12.0253C5.814 11.7812 5.814 11.3854 6.05808 11.1414L7.30808 9.89137C7.48683 9.71262 7.75565 9.65915 7.9892 9.75589ZM10.6667 10.9583C10.5516 10.9583 10.4584 11.0516 10.4584 11.1666V12.8333C10.4584 12.9484 10.5516 13.0416 10.6667 13.0416C10.7817 13.0416 10.875 12.9484 10.875 12.8333V11.1666C10.875 11.0516 10.7817 10.9583 10.6667 10.9583ZM9.20835 11.1666C9.20835 10.3612 9.86127 9.70831 10.6667 9.70831C11.4721 9.70831 12.125 10.3612 12.125 11.1666V12.8333C12.125 13.6387 11.4721 14.2916 10.6667 14.2916C9.86127 14.2916 9.20835 13.6387 9.20835 12.8333V11.1666Z" fill="#202020"/>
</svg>
