<svg width="41" height="41" viewBox="0 0 41 41" fill="none" xmlns="http://www.w3.org/2000/svg">
<path d="M12.2917 10.6076C12.2917 9.68712 13.0379 8.94092 13.9584 8.94092H27.2917C28.2122 8.94092 28.9584 9.68712 28.9584 10.6076V13.9409C28.9584 14.8614 28.2122 15.6076 27.2917 15.6076H13.9584C13.0379 15.6076 12.2917 14.8614 12.2917 13.9409V10.6076ZM14.7917 13.1076H26.4584V11.4409H14.7917V13.1076ZM7.29169 8.10758C7.29169 5.8064 9.15717 3.94092 11.4584 3.94092H30.625C32.9262 3.94092 34.7917 5.8064 34.7917 8.10758V31.8576C34.7917 32.5479 34.232 33.1076 33.5417 33.1076H9.79169C9.79169 34.0281 10.5379 34.7743 11.4584 34.7743H33.5417C34.232 34.7743 34.7917 35.3339 34.7917 36.0243C34.7917 36.7146 34.232 37.2743 33.5417 37.2743H11.4584C9.15717 37.2743 7.29169 35.4088 7.29169 33.1076V8.10758ZM9.79169 30.6076H32.2917V8.10758C32.2917 7.18712 31.5455 6.44092 30.625 6.44092H11.4584C10.5379 6.44092 9.79169 7.18712 9.79169 8.10758V30.6076Z" fill="#020024"/>
</svg>
