<svg width="27" height="35" viewBox="0 0 27 35" fill="none" xmlns="http://www.w3.org/2000/svg">
<path d="M5.04166 9.27425V5.94092C5.04166 3.1795 7.28024 0.940918 10.0417 0.940918C11.3223 0.940918 12.4903 1.42235 13.375 2.21408C14.2597 1.42233 15.4278 0.940918 16.7083 0.940918C19.4698 0.940918 21.7083 3.1795 21.7083 5.94092V9.27425H24.2083C25.589 9.27425 26.7083 10.3935 26.7083 11.7743V28.4492C26.7083 31.6662 24.1003 34.2743 20.8833 34.2743H6.70832C3.02642 34.2743 0.0416565 31.2894 0.0416565 27.6076V11.7743C0.0416565 10.3935 1.16094 9.27425 2.54166 9.27425H5.04166ZM16.1 31.7743C15.4433 30.8314 15.0583 29.6852 15.0583 28.4492V11.7743H2.54166V27.6076C2.54166 29.9088 4.40714 31.7743 6.70832 31.7743H16.1ZM12.5417 9.27425V5.94092C12.5417 4.5602 11.4223 3.44092 10.0417 3.44092C8.66094 3.44092 7.54166 4.5602 7.54166 5.94092V9.27425H12.5417ZM15.0417 9.27425H19.2083V5.94092C19.2083 4.5602 18.089 3.44092 16.7083 3.44092C15.9333 3.44092 15.2408 3.79352 14.7823 4.34705C14.9505 4.84763 15.0417 5.38363 15.0417 5.94092V9.27425ZM17.5583 28.4492C17.5583 30.2856 19.047 31.7743 20.8833 31.7743C22.7197 31.7743 24.2083 30.2856 24.2083 28.4492V11.7743H17.5583V28.4492Z" fill="#020024"/>
</svg>
