<svg width="32" height="36" viewBox="0 0 32 36" fill="none" xmlns="http://www.w3.org/2000/svg">
<path d="M20.2687 4.27307C20.061 2.39854 18.4715 0.940674 16.5417 0.940674H10.7084C8.77844 0.940674 7.18904 2.39854 6.98134 4.27307L4.04169 4.27401C1.97062 4.27401 0.291687 5.95294 0.291687 8.02401V30.524C0.291687 32.595 1.97062 34.274 4.04169 34.274H11.9607C11.9487 33.9532 11.9815 33.622 12.0654 33.2865L12.4435 31.774H4.04169C3.35134 31.774 2.79169 31.2143 2.79169 30.524V8.02401C2.79169 7.33366 3.35134 6.77401 4.04169 6.77401L7.59005 6.77434C8.2628 7.77917 9.4083 8.44067 10.7084 8.44067H16.5417C17.8417 8.44067 18.9874 7.77912 19.66 6.77427L23.2084 6.77401C23.8987 6.77401 24.4584 7.33366 24.4584 8.02401V17.375C25.1869 16.708 26.0519 16.2737 26.9584 16.072V8.02401C26.9584 5.95294 25.2794 4.27401 23.2084 4.27401L20.2687 4.27307ZM20.283 4.43392L20.2917 4.69067C20.2917 4.60437 20.2889 4.51876 20.283 4.43392ZM10.7084 3.44067H16.5417C17.232 3.44067 17.7917 4.00032 17.7917 4.69067C17.7917 5.38102 17.232 5.94067 16.5417 5.94067H10.7084C10.018 5.94067 9.45835 5.38102 9.45835 4.69067C9.45835 4.00032 10.018 3.44067 10.7084 3.44067ZM15.885 25.9407H6.95835C6.268 25.9407 5.70835 26.5003 5.70835 27.1907C5.70835 27.881 6.268 28.4407 6.95835 28.4407H13.5967C13.838 28.0593 14.1217 27.704 14.4437 27.382L15.885 25.9407ZM13.625 21.774H6.95835C6.268 21.774 5.70835 21.2143 5.70835 20.524C5.70835 19.8337 6.268 19.274 6.95835 19.274H13.625C14.3154 19.274 14.875 19.8337 14.875 20.524C14.875 21.2143 14.3154 21.774 13.625 21.774ZM20.2917 15.1073H6.95835C6.268 15.1073 5.70835 14.5477 5.70835 13.8573C5.70835 13.167 6.268 12.6073 6.95835 12.6073H20.2917C20.982 12.6073 21.5417 13.167 21.5417 13.8573C21.5417 14.5477 20.982 15.1073 20.2917 15.1073ZM25.4582 18.7232L15.6207 28.5605C15.0472 29.134 14.6404 29.8527 14.4435 30.6397L13.6807 33.6908C13.349 35.0177 14.551 36.2197 15.8779 35.8878L18.929 35.125C19.7159 34.9283 20.4345 34.5215 21.0082 33.9478L30.8455 24.1105C32.3332 22.6228 32.3332 20.2108 30.8455 18.7232C29.3579 17.2353 26.9459 17.2353 25.4582 18.7232Z" fill="#020024"/>
</svg>
