<svg width="33" height="35" viewBox="0 0 33 35" fill="none" xmlns="http://www.w3.org/2000/svg">
<path d="M23.2898 0.940674L30.8795 0.94154L31.0467 0.964741L31.2113 1.01076L31.3118 1.05334C31.4438 1.11144 31.5675 1.19592 31.6763 1.30461L31.7442 1.37801L31.8167 1.47197L31.907 1.62217L31.9715 1.77271L32.0033 1.87951L32.026 1.98617L32.0417 2.14317L32.0423 9.69716C32.0423 10.3875 31.4828 10.9472 30.7923 10.9472C30.1597 10.9472 29.6367 10.4769 29.5538 9.86677L29.5423 9.69716L29.5417 5.20567L18.8095 15.9402C18.3657 16.384 17.6712 16.4243 17.1818 16.0613L17.0417 15.9403L11.9912 11.0894L2.50888 20.5717C2.02073 21.0598 1.22927 21.0598 0.741117 20.5717C0.297334 20.1278 0.257 19.4335 0.620084 18.9442L0.741117 18.8038L11.1073 8.43777C11.551 7.99399 12.2455 7.95366 12.7348 8.31672L12.875 8.43776L17.9255 13.2886L27.7717 3.44067H23.2898C22.657 3.44067 22.134 2.97042 22.0513 2.36029L22.0398 2.19067C22.0398 1.55784 22.5102 1.03486 23.1203 0.952091L23.2898 0.940674ZM1.625 25.9407C2.31535 25.9407 2.875 26.5003 2.875 27.1907V33.024C2.875 33.7143 2.31535 34.274 1.625 34.274C0.934651 34.274 0.375001 33.7143 0.375001 33.024V27.1907C0.375001 26.5003 0.934651 25.9407 1.625 25.9407ZM11.2083 20.524C11.2083 19.8337 10.6487 19.274 9.95833 19.274C9.26798 19.274 8.70833 19.8337 8.70833 20.524V33.024C8.70833 33.7143 9.26798 34.274 9.95833 34.274C10.6487 34.274 11.2083 33.7143 11.2083 33.024V20.524ZM18.2917 22.6073C18.982 22.6073 19.5417 23.167 19.5417 23.8573V33.024C19.5417 33.7143 18.982 34.274 18.2917 34.274C17.6013 34.274 17.0417 33.7143 17.0417 33.024V23.8573C17.0417 23.167 17.6013 22.6073 18.2917 22.6073ZM27.875 15.524C27.875 14.8337 27.3153 14.274 26.625 14.274C25.9347 14.274 25.375 14.8337 25.375 15.524V33.024C25.375 33.7143 25.9347 34.274 26.625 34.274C27.3153 34.274 27.875 33.7143 27.875 33.024V15.524Z" fill="#020024"/>
</svg>
