<svg width="25" height="24" viewBox="0 0 25 24" fill="none" xmlns="http://www.w3.org/2000/svg">
<path d="M12.3738 1.99988C17.8966 1.99988 22.3738 6.47703 22.3738 11.9999C22.3738 17.5227 17.8966 21.9999 12.3738 21.9999C6.85093 21.9999 2.37378 17.5227 2.37378 11.9999C2.37378 6.47703 6.85093 1.99988 12.3738 1.99988ZM12.3738 3.49988C7.67936 3.49988 3.87378 7.30546 3.87378 11.9999C3.87378 16.6943 7.67936 20.4999 12.3738 20.4999C17.0682 20.4999 20.8738 16.6943 20.8738 11.9999C20.8738 7.30546 17.0682 3.49988 12.3738 3.49988ZM11.1238 13.4392L15.5935 8.96955C15.8864 8.67666 16.3612 8.67666 16.6541 8.96955C16.9204 9.23582 16.9446 9.65248 16.7267 9.94609L16.6541 10.0302L11.6541 15.0302C11.3879 15.2965 10.9712 15.3207 10.6776 15.1028L10.5935 15.0302L8.09345 12.5302C7.80056 12.2373 7.80056 11.7625 8.09345 11.4696C8.35972 11.2033 8.77638 11.1791 9.06999 11.397L9.15411 11.4696L11.1238 13.4392Z" fill="#020024"/>
</svg>
