
<svg width="41" height="41" viewBox="0 0 41 41" fill="none" xmlns="http://www.w3.org/2000/svg">
<path d="M10.7917 6.44092C10.1013 6.44092 9.54166 7.00057 9.54166 7.69092V34.7743H12.875V30.1909C12.875 29.0403 13.8077 28.1076 14.9583 28.1076H25.7917C26.9423 28.1076 27.875 29.0403 27.875 30.1909V34.7743H31.2083V20.1909C31.2083 19.5006 30.6487 18.9409 29.9583 18.9409H26.625C25.9347 18.9409 25.375 18.3813 25.375 17.6909V7.69092C25.375 7.00057 24.8153 6.44092 24.125 6.44092H10.7917ZM15.375 30.6076V34.7743H19.125V30.6076H15.375ZM21.625 30.6076V34.7743H25.375V30.6076H21.625ZM32.4583 37.2743H8.29166C7.60131 37.2743 7.04166 36.7146 7.04166 36.0243V7.69092C7.04166 5.61985 8.7206 3.94092 10.7917 3.94092H24.125C26.196 3.94092 27.875 5.61985 27.875 7.69092V16.4409H29.9583C32.0293 16.4409 33.7083 18.1199 33.7083 20.1909V36.0243C33.7083 36.7146 33.1487 37.2743 32.4583 37.2743ZM12.875 11.4409C12.875 10.5205 13.6212 9.77425 14.5417 9.77425C15.4621 9.77425 16.2083 10.5205 16.2083 11.4409C16.2083 12.3614 15.4621 13.1076 14.5417 13.1076C13.6212 13.1076 12.875 12.3614 12.875 11.4409ZM14.5417 21.4409C13.6212 21.4409 12.875 22.1871 12.875 23.1076C12.875 24.0281 13.6212 24.7743 14.5417 24.7743C15.4621 24.7743 16.2083 24.0281 16.2083 23.1076C16.2083 22.1871 15.4621 21.4409 14.5417 21.4409ZM14.5417 15.6076C13.6212 15.6076 12.875 16.3538 12.875 17.2743C12.875 18.1948 13.6212 18.9409 14.5417 18.9409C15.4621 18.9409 16.2083 18.1948 16.2083 17.2743C16.2083 16.3538 15.4621 15.6076 14.5417 15.6076ZM20.375 9.77425C19.4545 9.77425 18.7083 10.5205 18.7083 11.4409C18.7083 12.3614 19.4545 13.1076 20.375 13.1076C21.2955 13.1076 22.0417 12.3614 22.0417 11.4409C22.0417 10.5205 21.2955 9.77425 20.375 9.77425ZM20.375 21.4409C19.4545 21.4409 18.7083 22.1871 18.7083 23.1076C18.7083 24.0281 19.4545 24.7743 20.375 24.7743C21.2955 24.7743 22.0417 24.0281 22.0417 23.1076C22.0417 22.1871 21.2955 21.4409 20.375 21.4409ZM26.2083 21.4409C25.2878 21.4409 24.5417 22.1871 24.5417 23.1076C24.5417 24.0281 25.2878 24.7743 26.2083 24.7743C27.1288 24.7743 27.875 24.0281 27.875 23.1076C27.875 22.1871 27.1288 21.4409 26.2083 21.4409ZM20.375 15.6076C19.4545 15.6076 18.7083 16.3538 18.7083 17.2743C18.7083 18.1948 19.4545 18.9409 20.375 18.9409C21.2955 18.9409 22.0417 18.1948 22.0417 17.2743C22.0417 16.3538 21.2955 15.6076 20.375 15.6076Z" fill="#020024"/>
</svg>
