<svg width="41" height="41" viewBox="0 0 41 41" fill="none" xmlns="http://www.w3.org/2000/svg">
<path d="M13.7083 10.6073C13.7083 11.5278 12.9621 12.274 12.0417 12.274C11.1212 12.274 10.375 11.5278 10.375 10.6073C10.375 9.68687 11.1212 8.94067 12.0417 8.94067C12.9621 8.94067 13.7083 9.68687 13.7083 10.6073ZM12.0417 17.274C12.9621 17.274 13.7083 16.5278 13.7083 15.6073C13.7083 14.6869 12.9621 13.9407 12.0417 13.9407C11.1212 13.9407 10.375 14.6869 10.375 15.6073C10.375 16.5278 11.1212 17.274 12.0417 17.274ZM13.7083 20.6073C13.7083 21.5278 12.9621 22.274 12.0417 22.274C11.1212 22.274 10.375 21.5278 10.375 20.6073C10.375 19.6868 11.1212 18.9407 12.0417 18.9407C12.9621 18.9407 13.7083 19.6868 13.7083 20.6073ZM13.7083 25.6073C13.7083 26.5278 12.9621 27.274 12.0417 27.274C11.1212 27.274 10.375 26.5278 10.375 25.6073C10.375 24.6868 11.1212 23.9407 12.0417 23.9407C12.9621 23.9407 13.7083 24.6868 13.7083 25.6073ZM12.0417 32.274C12.9621 32.274 13.7083 31.5278 13.7083 30.6073C13.7083 29.6868 12.9621 28.9407 12.0417 28.9407C11.1212 28.9407 10.375 29.6868 10.375 30.6073C10.375 31.5278 11.1212 32.274 12.0417 32.274ZM23.7083 27.274C24.6288 27.274 25.375 26.5278 25.375 25.6073C25.375 24.6868 24.6288 23.9407 23.7083 23.9407C22.7878 23.9407 22.0417 24.6868 22.0417 25.6073C22.0417 26.5278 22.7878 27.274 23.7083 27.274ZM28.7083 27.274C29.6288 27.274 30.375 26.5278 30.375 25.6073C30.375 24.6868 29.6288 23.9407 28.7083 23.9407C27.7878 23.9407 27.0417 24.6868 27.0417 25.6073C27.0417 26.5278 27.7878 27.274 28.7083 27.274ZM28.7083 22.274C29.6288 22.274 30.375 21.5278 30.375 20.6073C30.375 19.6868 29.6288 18.9407 28.7083 18.9407C27.7878 18.9407 27.0417 19.6868 27.0417 20.6073C27.0417 21.5278 27.7878 22.274 28.7083 22.274ZM25.375 20.6073C25.375 21.5278 24.6288 22.274 23.7083 22.274C22.7878 22.274 22.0417 21.5278 22.0417 20.6073C22.0417 19.6868 22.7878 18.9407 23.7083 18.9407C24.6288 18.9407 25.375 19.6868 25.375 20.6073ZM28.7083 17.274C29.6288 17.274 30.375 16.5278 30.375 15.6073C30.375 14.6869 29.6288 13.9407 28.7083 13.9407C27.7878 13.9407 27.0417 14.6869 27.0417 15.6073C27.0417 16.5278 27.7878 17.274 28.7083 17.274ZM25.375 15.6073C25.375 16.5278 24.6288 17.274 23.7083 17.274C22.7878 17.274 22.0417 16.5278 22.0417 15.6073C22.0417 14.6869 22.7878 13.9407 23.7083 13.9407C24.6288 13.9407 25.375 14.6869 25.375 15.6073ZM23.7083 8.94067V7.69067C23.7083 5.61961 22.0293 3.94067 19.9583 3.94067H9.125C7.05393 3.94067 5.375 5.61961 5.375 7.69067V35.1907C5.375 35.881 5.93465 36.4407 6.625 36.4407H34.125C34.8153 36.4407 35.375 35.881 35.375 35.1907V12.6907C35.375 10.6196 33.696 8.94067 31.625 8.94067H23.7083ZM7.875 7.69067C7.875 7.00032 8.43465 6.44067 9.125 6.44067H19.9583C20.6487 6.44067 21.2083 7.00032 21.2083 7.69067V8.94067H20.7917C18.7207 8.94067 17.0417 10.6196 17.0417 12.6907V33.9407H7.875V7.69067ZM24.5417 33.9407V31.4407H27.875V33.9407H24.5417ZM30.375 30.1907C30.375 29.5003 29.8153 28.9407 29.125 28.9407H23.2917C22.6013 28.9407 22.0417 29.5003 22.0417 30.1907V33.9407H19.5417V12.6907C19.5417 12.0003 20.1013 11.4407 20.7917 11.4407H31.625C32.3153 11.4407 32.875 12.0003 32.875 12.6907V33.9407H30.375V30.1907Z" fill="#020024"/>
</svg>
