<svg width="115" height="64" viewBox="0 0 115 64" fill="none" xmlns="http://www.w3.org/2000/svg">
<g clip-path="url(#clip0_3630_3646)">
<path d="M114.272 0.669586H0.667969V46.2337H114.272V0.669586Z" stroke="#212121" stroke-width="1.28335"/>
<path d="M96.5473 34.2483C89.8817 34.2483 84.1992 28.5303 84.1992 21.7599C84.1992 14.9896 89.8817 9.30667 96.5473 9.30667C99.8795 9.30667 102.967 10.7099 105.212 12.99L103.352 14.8843C101.599 13.0251 99.1781 11.8324 96.5473 11.8324C91.3553 11.8324 86.9701 16.3928 86.9701 21.7599C86.9701 27.1622 91.3553 31.7226 96.5473 31.7226C99.1781 31.7226 101.599 30.5299 103.352 28.6707L105.212 30.5649C102.967 32.8101 99.8795 34.2483 96.5473 34.2483Z" fill="#212121"/>
<path d="M53.0625 33.8275V9.72778H55.7988L70.7426 29.3373V9.72778H73.4789V33.8275H70.7426L55.7988 14.218V33.8275H53.0625Z" fill="#212121"/>
<path d="M38.668 38.6678V8.20227H41.3463V38.6678H38.668Z" fill="#212121"/>
<path d="M19.8582 34.2132C15.8942 34.2132 12.7721 32.775 10.3516 30.3896L12.0705 28.2497C14.1051 30.2843 16.5958 31.7226 19.9634 31.7226C23.6819 31.7226 25.5761 29.688 25.5761 27.513C25.5761 24.9522 23.296 23.9349 19.0864 22.9527C14.2454 21.8301 11.1935 20.3217 11.1935 16.1472C11.1935 12.2884 14.6313 9.27158 19.2618 9.27158C22.8399 9.27158 25.506 10.6748 27.716 12.7094L26.0322 14.8492C24.0327 12.9199 21.6473 11.7622 19.1215 11.7622C16.1397 11.7622 13.9648 13.7267 13.9648 15.9367C13.9648 18.4274 16.3502 19.3044 20.4545 20.2866C25.05 21.374 28.3474 23.0228 28.3474 27.2675C28.3474 31.0912 25.4709 34.2132 19.8582 34.2132Z" fill="#212121"/>
<path d="M1.61719 62.4873V54.248H4.96338C6.66645 54.248 7.99773 55.3394 7.99773 56.8863C7.99773 58.4336 6.66645 59.525 4.96338 59.525H2.55268V62.4873H1.61719ZM2.55268 58.6378H4.79547C6.13877 58.6378 7.05022 57.99 7.05022 56.8863C7.05022 55.7832 6.13877 55.1355 4.79547 55.1355H2.55268V58.6378ZM23.1162 62.4873L22.2887 60.6164H17.6951L16.8676 62.4873H15.8481L19.4822 54.248H20.5017L24.1357 62.4873H23.1162ZM18.0789 59.7292H21.9049L19.9979 55.3994L18.0789 59.7292ZM38.9223 56.8863C38.9223 58.182 37.9868 59.1651 36.6795 59.4413L38.8144 62.4873H37.7469L35.6601 59.525H33.4772V62.4873H32.5418V54.248H35.8879C37.591 54.248 38.9223 55.3394 38.9223 56.8863ZM33.4772 55.1355V58.6378H35.72C37.0633 58.6378 37.9748 57.99 37.9748 56.8863C37.9748 55.7832 37.0633 55.1355 35.72 55.1355H33.4772ZM49.7811 62.4873V55.1355H47.0106V54.248H53.4871V55.1355H50.7166V62.4873H49.7811ZM62.2291 62.4873V54.248H63.1643L68.2737 60.9523V54.248H69.2094V62.4873H68.2737L63.1643 55.7832V62.4873H62.2291ZM84.2675 55.1355H79.3021V57.8461H83.776V58.7338H79.3021V61.6001H84.2675V62.4873H78.3546V54.248H84.2675V55.1355ZM99.3307 56.8863C99.3307 58.182 98.3955 59.1651 97.0882 59.4413L99.223 62.4873H98.1556L96.0688 59.525H93.8859V62.4873H92.9502V54.248H96.2964C97.9994 54.248 99.3307 55.3394 99.3307 56.8863ZM93.8859 55.1355V58.6378H96.1285C97.4715 58.6378 98.3832 57.99 98.3832 56.8863C98.3832 55.7832 97.4715 55.1355 96.1285 55.1355H93.8859ZM110.681 62.6196C109.326 62.6196 108.259 62.128 107.431 61.3122L108.019 60.5807C108.714 61.2759 109.566 61.7681 110.717 61.7681C111.988 61.7681 112.636 61.0723 112.636 60.3285C112.636 59.453 111.857 59.1054 110.418 58.7695C108.762 58.3856 107.719 57.8701 107.719 56.4427C107.719 55.1235 108.894 54.0921 110.477 54.0921C111.7 54.0921 112.612 54.5719 113.368 55.2675L112.792 55.9992C112.108 55.3394 111.293 54.9436 110.429 54.9436C109.41 54.9436 108.666 55.6153 108.666 56.3708C108.666 57.2222 109.482 57.5224 110.885 57.8583C112.457 58.23 113.584 58.7935 113.584 60.2448C113.584 61.5521 112.601 62.6196 110.681 62.6196Z" fill="#212121"/>
</g>
<defs>
<clipPath id="clip0_3630_3646">
<rect width="114.943" height="64" fill="white"/>
</clipPath>
</defs>
</svg>
