<svg width="10" height="20" viewBox="0 0 10 20" fill="none" xmlns="http://www.w3.org/2000/svg">
<path d="M8.34077 19.9999C8.12731 20.0006 7.9164 19.9535 7.72354 19.8621C7.53068 19.7706 7.36076 19.6371 7.22628 19.4714L0.325041 10.9008C0.114887 10.6452 0 10.3246 0 9.9937C0 9.66284 0.114887 9.34224 0.325041 9.08665L7.46918 0.516026C7.71171 0.224316 8.06022 0.0408693 8.43804 0.00604443C8.81586 -0.0287805 9.19204 0.0878684 9.48383 0.330329C9.77562 0.57279 9.95912 0.921202 9.99395 1.29892C10.0288 1.67663 9.91211 2.05271 9.66958 2.34442L3.28272 10.0008L9.45526 17.6573C9.62998 17.8669 9.74096 18.1223 9.77508 18.393C9.8092 18.6638 9.76503 18.9386 9.64779 19.1851C9.53054 19.4315 9.34514 19.6392 9.11351 19.7836C8.88188 19.928 8.61372 20.0031 8.34077 19.9999Z" fill="black"/>
</svg>
