<svg width="22" height="22" viewBox="0 0 22 22" fill="none" xmlns="http://www.w3.org/2000/svg">
<path d="M13.4062 8.61264H2.17393C1.80552 8.61264 1.5 8.30712 1.5 7.9387C1.5 7.57029 1.80552 7.26477 2.17393 7.26477H13.4062C13.7746 7.26477 14.0801 7.57029 14.0801 7.9387C14.0801 8.30712 13.7746 8.61264 13.4062 8.61264Z" fill="#292A65"/>
<path d="M7.56582 15.8012H5.76866C5.40024 15.8012 5.09473 15.4957 5.09473 15.1273C5.09473 14.7589 5.40024 14.4534 5.76866 14.4534H7.56582C7.93423 14.4534 8.23975 14.7589 8.23975 15.1273C8.23975 15.4957 7.93423 15.8012 7.56582 15.8012Z" fill="#292A65"/>
<path d="M13.4059 15.8012H9.81163C9.44321 15.8012 9.1377 15.4957 9.1377 15.1273C9.1377 14.7589 9.44321 14.4534 9.81163 14.4534H13.4059C13.7744 14.4534 14.0799 14.7589 14.0799 15.1273C14.0799 15.4957 13.7744 15.8012 13.4059 15.8012Z" fill="#292A65"/>
<path d="M16.1558 19.3955H6.16362C2.58728 19.3955 1.5 18.3173 1.5 14.7769V7.39054C1.5 3.85014 2.58728 2.77185 6.16362 2.77185H13.4062C13.7746 2.77185 14.0801 3.07737 14.0801 3.44578C14.0801 3.8142 13.7746 4.11972 13.4062 4.11972H6.16362C3.34209 4.11972 2.84787 4.60495 2.84787 7.39054V14.7679C2.84787 17.5535 3.34209 18.0387 6.16362 18.0387H16.1468C18.9684 18.0387 19.4626 17.5535 19.4626 14.7679V12.8988C19.4626 12.5304 19.7681 12.2249 20.1365 12.2249C20.5049 12.2249 20.8104 12.5304 20.8104 12.8988V14.7679C20.8194 18.3173 19.7322 19.3955 16.1558 19.3955Z" fill="#292A65"/>
<path d="M18.3487 9.51112C17.9803 9.51112 17.6748 9.2056 17.6748 8.83718V3.44571C17.6748 3.17614 17.8365 2.92454 18.0881 2.82569C18.3398 2.72685 18.6273 2.78077 18.825 2.96947L20.6221 4.76662C20.8827 5.02721 20.8827 5.45853 20.6221 5.71912C20.3616 5.9797 19.9302 5.9797 19.6696 5.71912L19.0227 5.07214V8.83718C19.0227 9.2056 18.7172 9.51112 18.3487 9.51112Z" fill="#292A65"/>
<path d="M16.5516 5.91683C16.3808 5.91683 16.2101 5.85393 16.0753 5.71914C15.8147 5.45855 15.8147 5.02723 16.0753 4.76665L17.8725 2.96949C18.1331 2.7089 18.5644 2.7089 18.825 2.96949C19.0856 3.23008 19.0856 3.66139 18.825 3.92198L17.0278 5.71914C16.893 5.85393 16.7223 5.91683 16.5516 5.91683Z" fill="#292A65"/>
</svg>
