<svg width="24" height="24" viewBox="0 0 24 24" fill="none" xmlns="http://www.w3.org/2000/svg">
<rect x="0.358691" y="0.551074" width="22.6423" height="22.6423" rx="11.3212" stroke="#292A65" stroke-width="0.686132"/>
<path d="M12.0153 11.2489C11.7496 11.2489 11.5293 11.0286 11.5293 10.7629V8.60503C11.5293 8.33934 11.7496 8.11902 12.0153 8.11902C12.281 8.11902 12.5013 8.33934 12.5013 8.60503V10.7629C12.5013 11.0351 12.281 11.2489 12.0153 11.2489Z" fill="#292A65"/>
<path d="M12.0285 17.6189C10.3566 17.6189 8.69125 17.3532 7.10362 16.8218C6.51392 16.6274 6.0668 16.2062 5.87239 15.6748C5.67799 15.1435 5.74279 14.5343 6.06032 14.003L6.88329 12.6292C7.06474 12.3246 7.22674 11.7544 7.22674 11.398V10.0371C7.22674 7.38676 9.37814 5.23535 12.0285 5.23535C14.6789 5.23535 16.8303 7.38676 16.8303 10.0371V11.398C16.8303 11.7479 16.9923 12.3246 17.1737 12.6292L17.9967 14.003C18.3013 14.5084 18.3531 15.1111 18.1522 15.6619C17.9514 16.2127 17.5107 16.6339 16.9534 16.8218C15.3658 17.3597 13.7004 17.6189 12.0285 17.6189ZM12.0285 6.21385C9.91599 6.21385 8.19876 7.93109 8.19876 10.0436V11.4044C8.19876 11.9293 7.99139 12.6875 7.71923 13.1346L6.89625 14.5149C6.72777 14.7935 6.68889 15.0916 6.78609 15.3508C6.88329 15.61 7.10362 15.8044 7.41466 15.9081C10.3955 16.8996 13.6745 16.8996 16.6553 15.9081C16.934 15.8174 17.1478 15.61 17.245 15.3379C17.3487 15.0657 17.3163 14.7676 17.1673 14.5149L16.3443 13.1411C16.0721 12.694 15.8648 11.9358 15.8648 11.4109V10.0501C15.8583 7.93109 14.141 6.21385 12.0285 6.21385Z" fill="#292A65"/>
<path d="M12.015 19.2713C11.3216 19.2713 10.6412 18.9862 10.1487 18.4937C9.65622 18.0012 9.37109 17.3208 9.37109 16.6274H10.3431C10.3431 17.0681 10.5246 17.4958 10.8356 17.8068C11.1466 18.1179 11.5743 18.2993 12.015 18.2993C12.9352 18.2993 13.6869 17.5476 13.6869 16.6274H14.6589C14.6589 18.0855 13.473 19.2713 12.015 19.2713Z" fill="#292A65"/>
<rect x="14.0127" y="6.42896" width="3.43066" height="3.43066" rx="1.71533" fill="#E71D1D"/>
</svg>
