<svg width="14" height="14" viewBox="0 0 14 14" fill="none" xmlns="http://www.w3.org/2000/svg">
<path d="M0.591797 2.654C0.591797 2.15903 0.788422 1.68433 1.13842 1.33434C1.48841 0.984345 1.96311 0.78772 2.45807 0.78772H8.99005C9.48502 0.78772 9.95971 0.984345 10.3097 1.33434C10.6597 1.68433 10.8563 2.15903 10.8563 2.654V9.18597H13.6557V11.0522C13.6557 11.7947 13.3608 12.5067 12.8358 13.0317C12.3108 13.5567 11.5988 13.8517 10.8563 13.8517H3.39121C2.64876 13.8517 1.93672 13.5567 1.41173 13.0317C0.886735 12.5067 0.591797 11.7947 0.591797 11.0522V2.654ZM10.8563 10.1191V12.9185C11.3513 12.9185 11.826 12.7219 12.176 12.3719C12.526 12.0219 12.7226 11.5472 12.7226 11.0522V10.1191H10.8563ZM9.92319 12.9185V2.654C9.92319 2.40651 9.82487 2.16917 9.64988 1.99417C9.47488 1.81917 9.23753 1.72086 8.99005 1.72086H2.45807C2.21059 1.72086 1.97324 1.81917 1.79825 1.99417C1.62325 2.16917 1.52494 2.40651 1.52494 2.654V11.0522C1.52494 11.5472 1.72156 12.0219 2.07156 12.3719C2.42155 12.7219 2.89625 12.9185 3.39121 12.9185H9.92319ZM3.39121 4.05371C3.39121 3.92996 3.44037 3.81129 3.52787 3.72379C3.61537 3.63629 3.73404 3.58714 3.85778 3.58714H7.59034C7.71408 3.58714 7.83276 3.63629 7.92025 3.72379C8.00775 3.81129 8.05691 3.92996 8.05691 4.05371C8.05691 4.17745 8.00775 4.29612 7.92025 4.38362C7.83276 4.47112 7.71408 4.52028 7.59034 4.52028H3.85778C3.73404 4.52028 3.61537 4.47112 3.52787 4.38362C3.44037 4.29612 3.39121 4.17745 3.39121 4.05371ZM3.39121 6.85312C3.39121 6.72938 3.44037 6.61071 3.52787 6.52321C3.61537 6.43571 3.73404 6.38655 3.85778 6.38655H7.59034C7.71408 6.38655 7.83276 6.43571 7.92025 6.52321C8.00775 6.61071 8.05691 6.72938 8.05691 6.85312C8.05691 6.97687 8.00775 7.09554 7.92025 7.18304C7.83276 7.27054 7.71408 7.31969 7.59034 7.31969H3.85778C3.73404 7.31969 3.61537 7.27054 3.52787 7.18304C3.44037 7.09554 3.39121 6.97687 3.39121 6.85312ZM3.39121 9.65254C3.39121 9.5288 3.44037 9.41012 3.52787 9.32263C3.61537 9.23513 3.73404 9.18597 3.85778 9.18597H5.72406C5.8478 9.18597 5.96648 9.23513 6.05398 9.32263C6.14148 9.41012 6.19063 9.5288 6.19063 9.65254C6.19063 9.77628 6.14148 9.89496 6.05398 9.98246C5.96648 10.07 5.8478 10.1191 5.72406 10.1191H3.85778C3.73404 10.1191 3.61537 10.07 3.52787 9.98246C3.44037 9.89496 3.39121 9.77628 3.39121 9.65254Z" fill="#73768C"/>
</svg>
