<svg width="18" height="18" viewBox="0 0 18 18" fill="none" xmlns="http://www.w3.org/2000/svg">
<path d="M11.5351 9.61694V12.6108C11.5351 15.1056 10.5371 16.1036 8.04228 16.1036H5.04846C2.5536 16.1036 1.55566 15.1056 1.55566 12.6108V9.61694C1.55566 7.12209 2.5536 6.12415 5.04846 6.12415H8.04228C10.5371 6.12415 11.5351 7.12209 11.5351 9.61694Z" stroke="#292D32" stroke-width="1.06922" stroke-linecap="round" stroke-linejoin="round"/>
<path opacity="0.4" d="M15.8114 5.34008V8.3339C15.8114 10.8288 14.8135 11.8267 12.3186 11.8267H11.5345V9.61697C11.5345 7.12212 10.5366 6.12418 8.04176 6.12418H5.83203V5.34008C5.83203 2.84523 6.82997 1.84729 9.32482 1.84729H12.3186C14.8135 1.84729 15.8114 2.84523 15.8114 5.34008Z" stroke="#292D32" stroke-width="1.06922" stroke-linecap="round" stroke-linejoin="round"/>
</svg>
