<svg width="17" height="15" viewBox="0 0 17 15" fill="none" xmlns="http://www.w3.org/2000/svg">
<path d="M2.02424 1.08518L4.33635 3.39729C2.87461 4.3379 1.6801 5.63954 0.868185 7.1765L0.733398 7.42015L0.868185 7.66899C2.61523 10.8987 5.67903 12.8531 9.06944 12.8531C10.3928 12.8534 11.6991 12.5538 12.8901 11.977L15.4822 14.569L16.3894 13.7914L2.91072 0.312744L2.02424 1.08518ZM7.07874 6.13968L10.5262 9.58711C10.1368 9.82846 9.68828 9.95763 9.23015 9.96037C8.89729 9.96037 8.56772 9.89456 8.2604 9.76671C7.95307 9.63886 7.67406 9.45151 7.43942 9.21542C7.20478 8.97933 7.01914 8.69918 6.89318 8.39108C6.76723 8.08297 6.70344 7.753 6.70549 7.42015C6.71107 6.96732 6.84012 6.52459 7.07874 6.13968ZM6.32705 5.38798C5.84204 6.07198 5.61471 6.90553 5.68532 7.74104C5.75592 8.57656 6.1199 9.36015 6.7128 9.95305C7.30571 10.546 8.08929 10.9099 8.92481 10.9805C9.76033 11.0511 10.5939 10.8238 11.2779 10.3388L12.1073 11.1683C11.1472 11.5788 10.1137 11.7905 9.06944 11.7904C6.15079 11.7904 3.49653 10.1625 1.91537 7.42015C2.67436 6.07669 3.76714 4.95177 5.08805 4.15417L6.32705 5.38798Z" fill="#73768C"/>
</svg>
