<svg width="15" height="15" viewBox="0 0 15 15" fill="none" xmlns="http://www.w3.org/2000/svg">
<g clip-path="url(#clip0_164_6464)">
<path d="M1.19629 7.43877C1.19629 6.10379 1.19629 5.4366 1.49956 4.88371C1.80166 4.33025 2.35513 3.98732 3.46148 3.30029L4.62791 2.57653C5.79725 1.85043 6.38221 1.48767 7.02841 1.48767C7.67461 1.48767 8.25898 1.85043 9.42891 2.57653L10.5953 3.30029C11.7017 3.98732 12.2552 4.33025 12.5578 4.88371C12.8605 5.4366 12.8605 6.10379 12.8605 7.43818V8.32583C12.8605 10.6004 12.8605 11.7382 12.177 12.4451C11.4941 13.1519 10.3941 13.1519 8.19483 13.1519H5.86198C3.66269 13.1519 2.56275 13.1519 1.87981 12.4451C1.19629 11.7382 1.19629 10.6009 1.19629 8.32583V7.43877Z" stroke="white" stroke-width="0.874818"/>
<path d="M7.02832 9.06934V10.819" stroke="white" stroke-width="0.874818" stroke-linecap="round"/>
</g>
<defs>
<clipPath id="clip0_164_6464">
<rect width="13.9971" height="13.9971" fill="white" transform="translate(0.0292969 0.321167)"/>
</clipPath>
</defs>
</svg>
