<svg width="20" height="20" viewBox="0 0 20 20" fill="none" xmlns="http://www.w3.org/2000/svg">
<path d="M7.6825 9.44091C7.60474 9.43313 7.51143 9.43313 7.42589 9.44091C5.57516 9.3787 4.10547 7.86235 4.10547 5.99607C4.10547 4.09091 5.64515 2.54346 7.55808 2.54346C9.46324 2.54346 11.0107 4.09091 11.0107 5.99607C11.0029 7.86235 9.53323 9.3787 7.6825 9.44091Z" stroke="#73768C" stroke-width="1.16642" stroke-linecap="round" stroke-linejoin="round"/>
<path opacity="0.4" d="M13.3208 4.09875C14.8294 4.09875 16.0425 5.31961 16.0425 6.82041C16.0425 8.2901 14.876 9.48763 13.4219 9.54207C13.3597 9.53429 13.2897 9.53429 13.2197 9.54207" stroke="#73768C" stroke-width="1.16642" stroke-linecap="round" stroke-linejoin="round"/>
<path d="M3.79419 12.3103C1.91235 13.5701 1.91235 15.623 3.79419 16.8749C5.93263 18.3057 9.43968 18.3057 11.5781 16.8749C13.46 15.6152 13.46 13.5623 11.5781 12.3103C9.44745 10.8873 5.94041 10.8873 3.79419 12.3103Z" stroke="#73768C" stroke-width="1.16642" stroke-linecap="round" stroke-linejoin="round"/>
<path opacity="0.4" d="M14.8213 16.5406C15.3812 16.4239 15.91 16.1984 16.3454 15.864C17.5585 14.9542 17.5585 13.4534 16.3454 12.5436C15.9177 12.217 15.3967 11.9993 14.8446 11.8749" stroke="#73768C" stroke-width="1.16642" stroke-linecap="round" stroke-linejoin="round"/>
</svg>
