<svg width="19" height="20" viewBox="0 0 19 20" fill="none" xmlns="http://www.w3.org/2000/svg">
<path opacity="0.34" d="M9.65902 12.6525C10.9474 12.6525 11.9919 11.6081 11.9919 10.3197C11.9919 9.03127 10.9474 7.98682 9.65902 7.98682C8.37062 7.98682 7.32617 9.03127 7.32617 10.3197C7.32617 11.6081 8.37062 12.6525 9.65902 12.6525Z" stroke="#73768C" stroke-width="1.16642" stroke-miterlimit="10" stroke-linecap="round" stroke-linejoin="round"/>
<path d="M1.88281 11.004V9.6354C1.88281 8.82667 2.54379 8.15793 3.36028 8.15793C4.76777 8.15793 5.3432 7.16258 4.63557 5.94172C4.23121 5.24187 4.47227 4.33206 5.1799 3.9277L6.52518 3.15786C7.1395 2.79238 7.93266 3.01011 8.29814 3.62443L8.38368 3.77217C9.08353 4.99303 10.2344 4.99303 10.942 3.77217L11.0276 3.62443C11.3931 3.01011 12.1862 2.79238 12.8005 3.15786L14.1458 3.9277C14.8534 4.33206 15.0945 5.24187 14.6901 5.94172C13.9825 7.16258 14.558 8.15793 15.9654 8.15793C16.7742 8.15793 17.4429 8.8189 17.4429 9.6354V11.004C17.4429 11.8127 16.7819 12.4815 15.9654 12.4815C14.558 12.4815 13.9825 13.4768 14.6901 14.6977C15.0945 15.4053 14.8534 16.3073 14.1458 16.7117L12.8005 17.4815C12.1862 17.847 11.3931 17.6293 11.0276 17.015L10.942 16.8672C10.2422 15.6464 9.09131 15.6464 8.38368 16.8672L8.29814 17.015C7.93266 17.6293 7.1395 17.847 6.52518 17.4815L5.1799 16.7117C4.47227 16.3073 4.23121 15.3975 4.63557 14.6977C5.3432 13.4768 4.76777 12.4815 3.36028 12.4815C2.54379 12.4815 1.88281 11.8127 1.88281 11.004Z" stroke="#73768C" stroke-width="1.16642" stroke-miterlimit="10" stroke-linecap="round" stroke-linejoin="round"/>
</svg>
