<svg width="23" height="22" viewBox="0 0 23 22" fill="none" xmlns="http://www.w3.org/2000/svg">
<path d="M13.5946 15.3519H9.10167C8.73325 15.3519 8.42773 15.0464 8.42773 14.678C8.42773 14.3095 8.73325 14.004 9.10167 14.004H13.5946C13.963 14.004 14.2685 14.3095 14.2685 14.678C14.2685 15.0464 13.963 15.3519 13.5946 15.3519Z" fill="#292A65"/>
<path d="M5.23804 9.69999C5.06731 9.69999 4.89658 9.6281 4.76179 9.5023C4.57309 9.3136 4.51019 9.01707 4.61802 8.76547L6.28937 4.77578C6.32532 4.69491 6.34329 4.64099 6.37025 4.59607C7.70014 1.53191 9.39845 0.786093 12.3997 1.93627C12.5704 1.99917 12.7052 2.13396 12.7771 2.30469C12.849 2.47542 12.849 2.66412 12.7771 2.83485L10.1443 8.94518C10.0364 9.1878 9.79383 9.34954 9.52426 9.34954H6.96331C6.45112 9.34954 5.96588 9.44839 5.49862 9.64608C5.41775 9.68202 5.32789 9.69999 5.23804 9.69999ZM10.0993 2.77195C8.98511 2.77195 8.30219 3.4998 7.59231 5.15318C7.58333 5.18014 7.56535 5.2071 7.55637 5.23406L6.37923 8.02863C6.57692 8.01066 6.76562 8.00168 6.96331 8.00168H9.07497L11.2405 2.96964C10.8182 2.83485 10.4408 2.77195 10.0993 2.77195Z" fill="#292A65"/>
<path d="M17.0003 9.52919C16.9374 9.52919 16.8655 9.52021 16.8026 9.50223C16.4701 9.40339 16.1017 9.34948 15.7243 9.34948H9.52409C9.29945 9.34948 9.08379 9.23266 8.95799 9.04396C8.84117 8.85526 8.81422 8.61264 8.90407 8.40597L11.51 2.35854C11.6447 2.03505 12.0311 1.81939 12.3726 1.92722C12.4804 1.96316 12.5793 2.00809 12.6871 2.05302L14.8077 2.94261C16.0478 3.4548 16.8745 3.99395 17.4136 4.64093C17.5214 4.76673 17.6113 4.90151 17.6922 5.0363C17.791 5.18906 17.8809 5.37776 17.9438 5.56646C17.9707 5.62936 18.0157 5.74618 18.0426 5.87198C18.2942 6.71664 18.1684 7.76798 17.6293 9.11585C17.5214 9.36745 17.2698 9.52919 17.0003 9.52919ZM10.5485 8.00161H15.7333C16.0208 8.00161 16.2994 8.02857 16.5779 8.0735C16.8295 7.29173 16.8834 6.68969 16.7397 6.20445C16.7217 6.12358 16.7037 6.08764 16.6947 6.05169C16.6408 5.90792 16.6049 5.82705 16.56 5.75516C16.4971 5.65632 16.4521 5.57545 16.3802 5.49458C15.9939 5.02732 15.3109 4.596 14.2955 4.18265L12.5164 3.43683L10.5485 8.00161Z" fill="#292A65"/>
<path d="M14.8526 20.7436H7.8437C7.5921 20.7436 7.35847 20.7256 7.12484 20.6986C3.97083 20.483 2.17367 18.6858 1.95801 15.4959C1.93106 15.2982 1.91309 15.0555 1.91309 14.8129V13.0607C1.91309 11.0389 3.11718 9.21479 4.97724 8.40607C5.60624 8.1365 6.28018 8.00171 6.97208 8.00171H15.7422C16.2544 8.00171 16.7486 8.0736 17.2069 8.21737C19.3185 8.85536 20.8012 10.8502 20.8012 13.0607V14.8129C20.8012 15.0106 20.7922 15.1993 20.7832 15.379C20.5855 18.8925 18.5368 20.7436 14.8526 20.7436ZM6.9631 9.34958C6.45091 9.34958 5.96567 9.44842 5.49841 9.64611C4.13257 10.2392 3.25197 11.5781 3.25197 13.0607V14.8129C3.25197 15.0016 3.26994 15.1903 3.28791 15.3701C3.45864 17.931 4.71665 19.189 7.24166 19.3597C7.4663 19.3867 7.64602 19.4047 7.83472 19.4047H14.8436C17.8089 19.4047 19.2646 18.1017 19.4084 15.3161C19.4174 15.1544 19.4264 14.9926 19.4264 14.8129V13.0607C19.4264 11.4343 18.3391 9.97858 16.7935 9.50233C16.4611 9.40349 16.0927 9.34958 15.7152 9.34958H6.9631V9.34958Z" fill="#292A65"/>
<path d="M2.57823 13.7346C2.20981 13.7346 1.9043 13.4291 1.9043 13.0607V10.4279C1.9043 7.59735 3.90813 5.15321 6.67575 4.61407C6.91836 4.56914 7.16997 4.65899 7.33171 4.8477C7.48447 5.0364 7.5294 5.30597 7.43055 5.53062L5.85804 9.28667C5.78615 9.44842 5.66035 9.57422 5.5076 9.6461C4.14176 10.2392 3.26115 11.578 3.26115 13.0607C3.25216 13.4291 2.95563 13.7346 2.57823 13.7346ZM5.59745 6.42919C4.44727 7.07617 3.6116 8.20838 3.35101 9.52929C3.74638 9.12493 4.20466 8.78347 4.72583 8.53187L5.59745 6.42919Z" fill="#292A65"/>
<path d="M20.1189 13.7346C19.7504 13.7346 19.4449 13.429 19.4449 13.0606C19.4449 11.4342 18.3576 9.97849 16.8121 9.50225C16.6324 9.44833 16.4796 9.32253 16.3987 9.1518C16.3179 8.98107 16.3089 8.78339 16.3808 8.61266C16.8031 7.56132 16.9109 6.79753 16.7402 6.20447C16.7222 6.12359 16.7043 6.08765 16.6953 6.05171C16.5785 5.79112 16.6414 5.4856 16.848 5.28792C17.0547 5.09023 17.3692 5.0453 17.6208 5.18009C19.5797 6.20447 20.7928 8.21728 20.7928 10.4278V13.0606C20.7928 13.429 20.4873 13.7346 20.1189 13.7346ZM17.8634 8.46888C18.4295 8.72947 18.9327 9.09789 19.3551 9.53819C19.1843 8.65758 18.762 7.85785 18.142 7.22884C18.0971 7.60625 18.0072 8.01959 17.8634 8.46888Z" fill="#292A65"/>
</svg>
