<svg width="20" height="21" viewBox="0 0 20 21" fill="none" xmlns="http://www.w3.org/2000/svg">
<path d="M12 6C11.7348 6 11.4804 6.10536 11.2929 6.29289C11.1054 6.48043 11 6.73478 11 7C11 7.26522 11.1054 7.51957 11.2929 7.70711C11.4804 7.89464 11.7348 8 12 8C12.2652 8 12.5196 7.89464 12.7071 7.70711C12.8946 7.51957 13 7.26522 13 7C13 6.73478 12.8946 6.48043 12.7071 6.29289C12.5196 6.10536 12.2652 6 12 6ZM7 7C7 6.73478 7.10536 6.48043 7.29289 6.29289C7.48043 6.10536 7.73478 6 8 6C8.26522 6 8.51957 6.10536 8.70711 6.29289C8.89464 6.48043 9 6.73478 9 7C9 7.26522 8.89464 7.51957 8.70711 7.70711C8.51957 7.89464 8.26522 8 8 8C7.73478 8 7.48043 7.89464 7.29289 7.70711C7.10536 7.51957 7 7.26522 7 7ZM10.5 3C10.5 2.86739 10.4473 2.74021 10.3536 2.64645C10.2598 2.55268 10.1326 2.5 10 2.5C9.86739 2.5 9.74021 2.55268 9.64645 2.64645C9.55268 2.74021 9.5 2.86739 9.5 3V3.5H6.5C6.10218 3.5 5.72064 3.65804 5.43934 3.93934C5.15804 4.22064 5 4.60218 5 5V9C5 9.39782 5.15804 9.77936 5.43934 10.0607C5.72064 10.342 6.10218 10.5 6.5 10.5H13.5C13.8978 10.5 14.2794 10.342 14.5607 10.0607C14.842 9.77936 15 9.39782 15 9V5C15 4.60218 14.842 4.22064 14.5607 3.93934C14.2794 3.65804 13.8978 3.5 13.5 3.5H10.5V3ZM6.5 4.5H13.5C13.6326 4.5 13.7598 4.55268 13.8536 4.64645C13.9473 4.74021 14 4.86739 14 5V9C14 9.13261 13.9473 9.25979 13.8536 9.35355C13.7598 9.44732 13.6326 9.5 13.5 9.5H6.5C6.36739 9.5 6.24021 9.44732 6.14645 9.35355C6.05268 9.25979 6 9.13261 6 9V5C6 4.86739 6.05268 4.74021 6.14645 4.64645C6.24021 4.55268 6.36739 4.5 6.5 4.5ZM10.25 18.498C12.866 18.465 14.445 17.903 15.372 17.058C16.247 16.258 16.461 15.281 16.495 14.502H16.5V13.812C16.4997 13.3321 16.3089 12.872 15.9695 12.5328C15.6301 12.1936 15.1699 12.003 14.69 12.003H11.5V12H8.5V12.003H5.31C4.31 12.003 3.5 12.813 3.5 13.813V14.502H3.505C3.539 15.282 3.753 16.259 4.628 17.057C5.555 17.903 7.134 18.465 9.75 18.498V18.5H10.25V18.498ZM5.31 13.003H14.69C14.9048 13.003 15.1109 13.0883 15.2628 13.2402C15.4147 13.3921 15.5 13.5982 15.5 13.813V14.25C15.5 14.94 15.369 15.706 14.698 16.319C14.01 16.946 12.66 17.5 10 17.5C7.34 17.5 5.99 16.946 5.302 16.319C4.632 15.706 4.5 14.939 4.5 14.25V13.812C4.50027 13.5973 4.58572 13.3916 4.7376 13.2399C4.88947 13.0882 5.09535 13.003 5.31 13.003Z" fill="#F5F5F5"/>
</svg>
