<svg width="20" height="21" viewBox="0 0 20 21" fill="none" xmlns="http://www.w3.org/2000/svg">
<path d="M4.5 7.25C4.5 6.65326 4.73705 6.08097 5.15901 5.65901C5.58097 5.23705 6.15326 5 6.75 5C7.34674 5 7.91903 5.23705 8.34099 5.65901C8.76295 6.08097 9 6.65326 9 7.25C9 7.84674 8.76295 8.41903 8.34099 8.84099C7.91903 9.26295 7.34674 9.5 6.75 9.5C6.15326 9.5 5.58097 9.26295 5.15901 8.84099C4.73705 8.41903 4.5 7.84674 4.5 7.25ZM6.75 4C5.88805 4 5.0614 4.34241 4.4519 4.9519C3.84241 5.5614 3.5 6.38805 3.5 7.25C3.5 8.11195 3.84241 8.9386 4.4519 9.5481C5.0614 10.1576 5.88805 10.5 6.75 10.5C7.61195 10.5 8.4386 10.1576 9.0481 9.5481C9.65759 8.9386 10 8.11195 10 7.25C10 6.38805 9.65759 5.5614 9.0481 4.9519C8.4386 4.34241 7.61195 4 6.75 4ZM12.437 15.645C12.975 15.865 13.652 16 14.5 16C16.381 16 17.421 15.332 17.969 14.566C18.2555 14.1644 18.4348 13.6963 18.49 13.206C18.4949 13.1605 18.4982 13.1148 18.5 13.069V13C18.5 12.803 18.4612 12.608 18.3858 12.426C18.3104 12.244 18.1999 12.0786 18.0607 11.9393C17.9214 11.8001 17.756 11.6896 17.574 11.6142C17.392 11.5388 17.197 11.5 17 11.5H12.37C12.61 11.79 12.79 12.129 12.895 12.5H17C17.1326 12.5 17.2598 12.5527 17.3536 12.6464C17.4473 12.7402 17.5 12.8674 17.5 13V13.054L17.495 13.104C17.4575 13.4213 17.3405 13.7239 17.155 13.984C16.828 14.443 16.118 15 14.5 15C13.768 15 13.222 14.886 12.813 14.719C12.731 14.999 12.612 15.315 12.437 15.645ZM1.5 13.5C1.5 12.9696 1.71071 12.4609 2.08579 12.0858C2.46086 11.7107 2.96957 11.5 3.5 11.5H10C10.5304 11.5 11.0391 11.7107 11.4142 12.0858C11.7893 12.4609 12 12.9696 12 13.5V13.584L11.998 13.624L11.988 13.759C11.9171 14.4071 11.6869 15.0275 11.318 15.565C10.617 16.58 9.263 17.5 6.75 17.5C4.237 17.5 2.883 16.58 2.182 15.566C1.8129 15.0282 1.58271 14.4074 1.512 13.759C1.5063 13.7008 1.50229 13.6424 1.5 13.584V13.5ZM2.5 13.56V13.578L2.507 13.661C2.56126 14.1404 2.73226 14.5991 3.005 14.997C3.492 15.701 4.513 16.5 6.75 16.5C8.987 16.5 10.008 15.701 10.495 14.997C10.7677 14.5991 10.9387 14.1404 10.993 13.661C10.997 13.623 10.999 13.5953 10.999 13.578L11 13.561V13.5C11 13.2348 10.8946 12.9804 10.7071 12.7929C10.5196 12.6054 10.2652 12.5 10 12.5H3.5C3.23478 12.5 2.98043 12.6054 2.79289 12.7929C2.60536 12.9804 2.5 13.2348 2.5 13.5V13.56ZM13 8C13 7.60218 13.158 7.22064 13.4393 6.93934C13.7206 6.65804 14.1022 6.5 14.5 6.5C14.8978 6.5 15.2794 6.65804 15.5607 6.93934C15.842 7.22064 16 7.60218 16 8C16 8.39782 15.842 8.77936 15.5607 9.06066C15.2794 9.34196 14.8978 9.5 14.5 9.5C14.1022 9.5 13.7206 9.34196 13.4393 9.06066C13.158 8.77936 13 8.39782 13 8ZM14.5 5.5C13.837 5.5 13.2011 5.76339 12.7322 6.23223C12.2634 6.70107 12 7.33696 12 8C12 8.66304 12.2634 9.29893 12.7322 9.76777C13.2011 10.2366 13.837 10.5 14.5 10.5C15.163 10.5 15.7989 10.2366 16.2678 9.76777C16.7366 9.29893 17 8.66304 17 8C17 7.33696 16.7366 6.70107 16.2678 6.23223C15.7989 5.76339 15.163 5.5 14.5 5.5Z" fill="#F5F5F5"/>
</svg>
