<svg width="20" height="21" viewBox="0 0 20 21" fill="none" xmlns="http://www.w3.org/2000/svg">
<g clip-path="url(#clip0_74_111)">
<path d="M7.77785 2.72229H3.3334C3.03872 2.72229 2.7561 2.83935 2.54773 3.04773C2.33935 3.2561 2.22229 3.53872 2.22229 3.8334V8.27785C2.22229 8.57253 2.33935 8.85515 2.54773 9.06352C2.7561 9.27189 3.03872 9.38896 3.3334 9.38896H7.77785C8.07253 9.38896 8.35515 9.27189 8.56352 9.06352C8.77189 8.85515 8.88896 8.57253 8.88896 8.27785V3.8334C8.88896 3.53872 8.77189 3.2561 8.56352 3.04773C8.35515 2.83935 8.07253 2.72229 7.77785 2.72229ZM3.3334 8.27785V3.8334H7.77785V8.27785H3.3334Z" fill="#F5F5F5"/>
<path d="M16.6666 2.72229H12.2222C11.9275 2.72229 11.6449 2.83935 11.4365 3.04773C11.2281 3.2561 11.1111 3.53872 11.1111 3.8334V8.27785C11.1111 8.57253 11.2281 8.85515 11.4365 9.06352C11.6449 9.27189 11.9275 9.38896 12.2222 9.38896H16.6666C16.9613 9.38896 17.2439 9.27189 17.4523 9.06352C17.6607 8.85515 17.7778 8.57253 17.7778 8.27785V3.8334C17.7778 3.53872 17.6607 3.2561 17.4523 3.04773C17.2439 2.83935 16.9613 2.72229 16.6666 2.72229ZM12.2222 8.27785V3.8334H16.6666V8.27785H12.2222Z" fill="#F5F5F5"/>
<path d="M7.77785 11.6111H3.3334C3.03872 11.6111 2.7561 11.7281 2.54773 11.9365C2.33935 12.1449 2.22229 12.4275 2.22229 12.7222V17.1666C2.22229 17.4613 2.33935 17.7439 2.54773 17.9523C2.7561 18.1607 3.03872 18.2778 3.3334 18.2778H7.77785C8.07253 18.2778 8.35515 18.1607 8.56352 17.9523C8.77189 17.7439 8.88896 17.4613 8.88896 17.1666V12.7222C8.88896 12.4275 8.77189 12.1449 8.56352 11.9365C8.35515 11.7281 8.07253 11.6111 7.77785 11.6111ZM3.3334 17.1666V12.7222H7.77785V17.1666H3.3334Z" fill="#F5F5F5"/>
<path d="M16.6666 11.6111H12.2222C11.9275 11.6111 11.6449 11.7281 11.4365 11.9365C11.2281 12.1449 11.1111 12.4275 11.1111 12.7222V17.1666C11.1111 17.4613 11.2281 17.7439 11.4365 17.9523C11.6449 18.1607 11.9275 18.2778 12.2222 18.2778H16.6666C16.9613 18.2778 17.2439 18.1607 17.4523 17.9523C17.6607 17.7439 17.7778 17.4613 17.7778 17.1666V12.7222C17.7778 12.4275 17.6607 12.1449 17.4523 11.9365C17.2439 11.7281 16.9613 11.6111 16.6666 11.6111ZM12.2222 17.1666V12.7222H16.6666V17.1666H12.2222Z" fill="#F5F5F5"/>
</g>
<defs>
<clipPath id="clip0_74_111">
<rect width="20" height="20" fill="white" transform="translate(0 0.5)"/>
</clipPath>
</defs>
</svg>
