<svg width="20" height="20" viewBox="0 0 20 20" fill="none" xmlns="http://www.w3.org/2000/svg">
<path d="M3.60932 7.4676C2.86404 8.20782 2.23342 9.05516 1.73833 9.98159L1.7285 10L1.73834 10.0184C2.23355 10.945 2.86414 11.7926 3.60931 12.5332L3.60933 12.5332C5.38758 14.2989 7.53804 15.1953 10.0001 15.1953C15.258 15.1953 17.7632 10.9743 18.2621 10.0181L18.2716 9.99978L18.2619 9.98159C17.7668 9.05516 17.1362 8.20782 16.3909 7.4676C14.6127 5.70111 12.4622 4.80469 10.0001 4.80469C7.53804 4.80469 5.38758 5.70111 3.60932 7.4676ZM3.60932 7.4676L3.63685 7.49531L3.60932 7.4676C3.60932 7.4676 3.60932 7.4676 3.60932 7.4676ZM19.1424 9.82577L19.1426 9.82604C19.1671 9.88104 19.1797 9.94058 19.1797 10.0008C19.1797 10.061 19.1671 10.1205 19.1426 10.1755L19.1423 10.1761C19.117 10.2356 18.4695 11.6699 17.0225 13.1169C15.6804 14.4575 13.3757 16.0547 10.0001 16.0547C6.62456 16.0547 4.31986 14.4575 2.97774 13.1169C1.53084 11.67 0.883219 10.2333 0.857739 10.1756L0.857692 10.1755C0.833208 10.1205 0.820557 10.061 0.820557 10.0008C0.820557 9.94058 0.833208 9.88104 0.857692 9.82604L0.8577 9.82605L0.858023 9.82528C0.883229 9.76523 1.53073 8.3309 2.97774 6.88389C4.31986 5.54332 6.62457 3.94531 10.0001 3.94531C13.3757 3.94531 15.6804 5.5433 17.0225 6.88387C18.4694 8.3308 19.117 9.76748 19.1424 9.82577ZM8.02525 7.04439C8.6098 6.6538 9.29705 6.44532 10.0001 6.44531C10.9425 6.44654 11.8459 6.82145 12.5123 7.48783C13.1787 8.1542 13.5536 9.05765 13.5548 10.0001C13.5548 10.7031 13.3463 11.3903 12.9557 11.9749C12.5652 12.5594 12.01 13.0151 11.3604 13.2841C10.7109 13.5532 9.99619 13.6235 9.30665 13.4864C8.6171 13.3492 7.98372 13.0107 7.48659 12.5135C6.98945 12.0164 6.6509 11.383 6.51375 10.6935C6.37659 10.0039 6.44698 9.28921 6.71603 8.63968C6.98507 7.99015 7.44069 7.43498 8.02525 7.04439ZM8.5027 12.2411C8.94594 12.5372 9.46705 12.6953 10.0001 12.6953C10.715 12.6953 11.4005 12.4113 11.906 11.9059C12.4115 11.4004 12.6954 10.7148 12.6954 10C12.6954 9.46692 12.5374 8.94581 12.2412 8.50256C11.945 8.05932 11.5241 7.71386 11.0316 7.50986C10.5391 7.30585 9.99714 7.25248 9.4743 7.35648C8.95146 7.46048 8.4712 7.71718 8.09426 8.09413C7.71731 8.47107 7.46061 8.95133 7.35661 9.47417C7.25261 9.99701 7.30598 10.5389 7.50999 11.0315C7.71399 11.524 8.05945 11.9449 8.5027 12.2411Z" fill="#F5F5F5" stroke="#F5F5F5" stroke-width="0.078125"/>
</svg>
