<svg width="22" height="22" viewBox="0 0 22 22" fill="none" xmlns="http://www.w3.org/2000/svg">
<path d="M3.01984 10.7731C2.54031 10.0838 2.34781 9.43415 2.81702 9.04056C3.21406 8.70712 3.79843 8.64353 4.52031 9.47712C4.52031 9.47712 6.67734 11.9831 7.41984 12.6792C7.58827 12.8356 7.79796 12.8596 7.98874 12.662C8.15031 12.4935 8.09187 12.3474 7.95437 12.1463C7.95437 12.1463 4.9139 7.62603 4.51515 7.07431C3.84999 6.15134 4.10609 5.55493 4.41374 5.27134C4.84171 4.87431 5.59452 4.79525 6.29406 5.75431L9.97562 10.682C10.0873 10.8006 10.2678 10.8177 10.4001 10.7249L10.4517 10.6888C10.5875 10.5926 10.627 10.4087 10.5445 10.2643C9.89999 9.14196 7.33562 4.66978 6.95921 3.85509C6.52609 2.91493 6.71171 2.43712 7.17062 2.1604C7.71546 1.83212 8.22765 1.85618 8.83953 2.7654C9.50296 3.7554 12.0794 7.92337 12.7342 9.04399C12.8201 9.19009 13.0041 9.24509 13.1553 9.17118C13.157 9.16946 13.1605 9.16946 13.1622 9.16775C13.3066 9.09728 13.4372 8.95462 13.377 8.75181C13.0195 7.57274 11.2647 3.9015 10.8969 3.05759C10.3933 1.90431 10.6391 1.51243 11.1598 1.24774C11.7064 0.971026 12.2753 1.18931 12.662 1.95931C12.9233 2.48181 17.5106 10.8298 17.5106 10.8298C17.4436 9.5854 17.7581 8.70368 18.0262 7.81853C18.5144 6.20806 19.6952 5.37103 20.5511 5.74743C20.9962 5.94337 21.077 6.33353 21.0289 6.63259C20.9326 7.21353 20.5236 9.01306 20.4445 10.4224C20.2589 13.7259 21.2575 17.5329 17.5364 19.9254C15.0459 21.5273 12.3767 21.2454 10.6133 20.0131C8.47515 18.5195 3.41171 11.3368 3.01984 10.7731Z" fill="#FFCA28"/>
<path d="M20.2262 8.89797C19.9151 10.2059 19.8738 11.8112 19.8841 12.4953C19.9254 15.1611 19.9116 17.4677 17.239 19.5748C16.9107 19.8344 15.8812 20.4669 14.6832 20.7969C14.2982 20.9017 14.4443 21.0255 14.6815 20.998C15.9894 20.8467 16.9812 20.283 17.5329 19.9272C21.2523 17.5347 20.3379 13.7534 20.5235 10.45C20.6026 9.04062 21.0323 6.82344 21.0254 6.63265C21.0168 6.44187 20.5373 7.59 20.2262 8.89797ZM13.3254 9.03547C13.3254 9.03547 13.059 9.03719 12.8063 8.68484C12.0484 7.63125 9.67132 3.65234 8.98726 2.67609C8.20694 1.56234 7.47991 1.98859 7.31491 2.07797C7.31491 2.07797 7.91304 2.09859 8.24304 2.58844C8.91679 3.58703 11.4708 8.06265 12.2769 9.02344C12.7977 9.6439 13.3254 9.03547 13.3254 9.03547ZM3.90319 9.37406C4.13694 9.625 6.18913 12.0605 6.94538 12.7394C7.59507 13.322 8.07976 12.5795 8.07976 12.5795C8.07976 12.5795 7.84085 12.6122 7.51429 12.3664C6.70304 11.7528 4.78147 9.56484 4.34835 9.10422C3.70554 8.42015 3.10741 8.84812 2.98022 8.92547C2.98194 8.92547 3.34976 8.78281 3.90319 9.37406ZM10.5857 10.5291C10.5857 10.5291 10.3657 10.6889 9.96179 10.2162C9.66788 9.87078 6.29397 5.75437 6.29397 5.75437C5.44835 4.7214 4.78319 5.02906 4.64569 5.10812C4.64569 5.10812 5.07022 5.08578 5.56694 5.65812C5.79382 5.91937 9.3946 10.5102 9.53897 10.6666C10.0666 11.2423 10.5548 10.7473 10.5857 10.5291Z" fill="#EDA600"/>
<path d="M17.497 9.93953C17.497 9.93953 13.0265 2.44406 12.7412 1.93359C12.107 0.800938 11.3696 1.14813 11.2441 1.20484C11.2441 1.20484 11.6549 1.08797 12.1379 1.90953C12.3957 2.34609 15.6802 8.25172 16.7287 10.1389C16.8112 10.4913 16.8043 10.9502 16.5396 11.2458C15.5909 12.3097 14.3809 13.3959 14.7366 16.0892C14.826 16.7716 15.0787 17.4178 15.266 17.7289C15.5032 18.1191 15.7765 17.9713 15.6562 17.6791C15.5754 17.4814 15.4465 17.0156 15.4207 16.8163C15.3004 15.8881 14.8948 14.2656 16.7132 12.32C17.0209 11.9952 17.8029 11.0138 17.497 9.93953Z" fill="#EDA600"/>
<path d="M17.7872 5.32128C17.5483 4.47393 17.177 3.69706 16.6958 3.02331C16.2627 2.41659 15.7384 1.89409 15.1403 1.47471C15.0647 1.42143 14.9684 1.25643 15.0509 1.09659C15.1334 0.936745 15.3122 0.95737 15.3792 0.98487C16.1269 1.29253 16.7387 1.82362 17.2441 2.55237C17.8439 3.41862 18.1412 4.23503 18.2942 5.14768C18.3114 5.24737 18.308 5.45706 18.0948 5.51206C17.8834 5.56706 17.8112 5.40378 17.7872 5.32128ZM16.6184 6.2305C16.3795 5.38315 16.0083 4.60628 15.527 3.93253C15.0939 3.32581 14.5697 2.80331 13.9716 2.38393C13.8959 2.33065 13.7997 2.16565 13.8822 2.00581C13.9647 1.84425 14.1434 1.86659 14.2105 1.89409C14.9581 2.20175 15.57 2.73284 16.0753 3.46159C16.6752 4.32784 16.9725 5.14425 17.1255 6.0569C17.1427 6.15659 17.1392 6.36628 16.9261 6.42128C16.7164 6.47628 16.6425 6.31471 16.6184 6.2305ZM1.47109 13.3135C1.76672 14.1436 2.18781 14.893 2.71203 15.5341C3.18469 16.1099 3.74156 16.598 4.36547 16.9778C4.44453 17.026 4.55109 17.1841 4.47891 17.3491C4.40672 17.5158 4.22797 17.5055 4.1575 17.4832C3.39094 17.2253 2.74469 16.7355 2.19297 16.0411C1.53813 15.2161 1.18578 14.4221 0.972656 13.5214C0.948594 13.4217 0.938281 13.2138 1.14797 13.145C1.35766 13.0763 1.44188 13.2327 1.47109 13.3135ZM2.57625 12.3286C2.87187 13.1588 3.29297 13.9082 3.81719 14.5492C4.28984 15.125 4.84672 15.6132 5.47062 15.993C5.54969 16.0411 5.65625 16.1992 5.58406 16.3642C5.51187 16.531 5.33312 16.5207 5.26266 16.4983C4.49609 16.2405 3.84984 15.7507 3.29813 15.0563C2.64328 14.2313 2.29094 13.4372 2.07781 12.5366C2.05375 12.4369 2.04344 12.2289 2.25312 12.1602C2.46281 12.0897 2.54703 12.2478 2.57625 12.3286Z" fill="#B0BEC5"/>
</svg>
