<svg width="20" height="21" viewBox="0 0 20 21" fill="none" xmlns="http://www.w3.org/2000/svg">
<path d="M7.5 7.5C7.36739 7.5 7.24022 7.55268 7.14645 7.64645C7.05268 7.74021 7 7.86739 7 8C7 8.13261 7.05268 8.25979 7.14645 8.35355C7.24022 8.44732 7.36739 8.5 7.5 8.5H12.5C12.6326 8.5 12.7598 8.44732 12.8536 8.35355C12.9473 8.25979 13 8.13261 13 8C13 7.86739 12.9473 7.74021 12.8536 7.64645C12.7598 7.55268 12.6326 7.5 12.5 7.5H7.5ZM7 11C7 10.8674 7.05268 10.7402 7.14645 10.6464C7.24022 10.5527 7.36739 10.5 7.5 10.5H12.5C12.6326 10.5 12.7598 10.5527 12.8536 10.6464C12.9473 10.7402 13 10.8674 13 11C13 11.1326 12.9473 11.2598 12.8536 11.3536C12.7598 11.4473 12.6326 11.5 12.5 11.5H7.5C7.36739 11.5 7.24022 11.4473 7.14645 11.3536C7.05268 11.2598 7 11.1326 7 11ZM7.5 13.5C7.36739 13.5 7.24022 13.5527 7.14645 13.6464C7.05268 13.7402 7 13.8674 7 14C7 14.1326 7.05268 14.2598 7.14645 14.3536C7.24022 14.4473 7.36739 14.5 7.5 14.5H9.5C9.63261 14.5 9.75979 14.4473 9.85355 14.3536C9.94732 14.2598 10 14.1326 10 14C10 13.8674 9.94732 13.7402 9.85355 13.6464C9.75979 13.5527 9.63261 13.5 9.5 13.5H7.5ZM6.5 2.5C6.36739 2.5 6.24022 2.55268 6.14645 2.64645C6.05268 2.74021 6 2.86739 6 3V3.5H5.5C5.10218 3.5 4.72064 3.65804 4.43934 3.93934C4.15804 4.22064 4 4.60218 4 5V17C4 17.3978 4.15804 17.7794 4.43934 18.0607C4.72064 18.342 5.10218 18.5 5.5 18.5H11.5C11.5657 18.5001 11.6308 18.4873 11.6915 18.4622C11.7523 18.4372 11.8075 18.4004 11.854 18.354L15.854 14.354C15.9004 14.3075 15.9372 14.2523 15.9622 14.1915C15.9873 14.1308 16.0001 14.0657 16 14V5C16 4.60218 15.842 4.22064 15.5607 3.93934C15.2794 3.65804 14.8978 3.5 14.5 3.5H14V3C14 2.86739 13.9473 2.74021 13.8536 2.64645C13.7598 2.55268 13.6326 2.5 13.5 2.5C13.3674 2.5 13.2402 2.55268 13.1464 2.64645C13.0527 2.74021 13 2.86739 13 3V3.5H10.5V3C10.5 2.86739 10.4473 2.74021 10.3536 2.64645C10.2598 2.55268 10.1326 2.5 10 2.5C9.86739 2.5 9.74022 2.55268 9.64645 2.64645C9.55268 2.74021 9.5 2.86739 9.5 3V3.5H7V3C7 2.86739 6.94732 2.74021 6.85355 2.64645C6.75979 2.55268 6.63261 2.5 6.5 2.5ZM14.5 4.5C14.6326 4.5 14.7598 4.55268 14.8536 4.64645C14.9473 4.74021 15 4.86739 15 5V13.5H12.5C12.1022 13.5 11.7206 13.658 11.4393 13.9393C11.158 14.2206 11 14.6022 11 15V17.5H5.5C5.36739 17.5 5.24022 17.4473 5.14645 17.3536C5.05268 17.2598 5 17.1326 5 17V5C5 4.86739 5.05268 4.74021 5.14645 4.64645C5.24022 4.55268 5.36739 4.5 5.5 4.5H14.5ZM14.293 14.5L12 16.793V15C12 14.8674 12.0527 14.7402 12.1464 14.6464C12.2402 14.5527 12.3674 14.5 12.5 14.5H14.293Z" fill="#F5F5F5"/>
</svg>
