<svg width="18" height="18" viewBox="0 0 18 18" fill="none" xmlns="http://www.w3.org/2000/svg">
<path d="M6.49992 16.5C7.16326 17.0183 8.03992 17.3333 8.99992 17.3333C9.95992 17.3333 10.8366 17.0183 11.4999 16.5M1.10826 10.995C0.930756 12.1225 1.72326 12.905 2.69326 13.295C6.41242 14.7908 11.5874 14.7908 15.3066 13.295C16.2766 12.905 17.0691 12.1225 16.8916 10.995C16.7833 10.3016 16.2441 9.72496 15.8449 9.16162C15.3224 8.41412 15.2708 7.59996 15.2699 6.73246C15.2708 3.38329 12.4641 0.666626 8.99992 0.666626C5.53576 0.666626 2.72909 3.38329 2.72909 6.73329C2.72909 7.59996 2.67742 8.41496 2.15409 9.16162C1.75576 9.72496 1.21742 10.3016 1.10826 10.995Z" stroke="#F5F5F5" stroke-width="1.25" stroke-linecap="round" stroke-linejoin="round"/>
</svg>
