<svg width="20" height="21" viewBox="0 0 20 21" fill="none" xmlns="http://www.w3.org/2000/svg">
<path d="M15 11.9286C15.5684 11.9286 16.1134 12.1544 16.5153 12.5562C16.9171 12.9581 17.1429 13.5031 17.1429 14.0714V14.5822C17.1429 17.1372 14.1357 19.0714 10 19.0714C5.86432 19.0714 2.85718 17.2379 2.85718 14.5822V14.0714C2.85718 13.5031 3.08294 12.9581 3.48481 12.5562C3.88667 12.1544 4.43171 11.9286 5.00003 11.9286H15ZM15 13H5.00003C4.7338 13 4.4771 13.0991 4.27996 13.2781C4.08281 13.457 3.95934 13.7029 3.93361 13.9679L3.92861 14.0714V14.5822C3.92861 16.4922 6.34932 18 10 18C13.5186 18 15.9679 16.4964 16.0686 14.6972L16.0715 14.5822V14.0714C16.0715 13.8052 15.9724 13.5485 15.7934 13.3514C15.6145 13.1542 15.3686 13.0308 15.1036 13.005L15 13ZM10 1.92859C10.5628 1.92859 11.1201 2.03944 11.6401 2.25482C12.1601 2.4702 12.6325 2.78588 13.0305 3.18385C13.4285 3.58181 13.7441 4.05426 13.9595 4.57423C14.1749 5.0942 14.2857 5.65149 14.2857 6.2143C14.2857 6.77711 14.1749 7.33441 13.9595 7.85437C13.7441 8.37434 13.4285 8.8468 13.0305 9.24476C12.6325 9.64273 12.1601 9.95841 11.6401 10.1738C11.1201 10.3892 10.5628 10.5 10 10.5C8.86339 10.5 7.7733 10.0485 6.96958 9.24476C6.16585 8.44103 5.71432 7.35094 5.71432 6.2143C5.71432 5.07766 6.16585 3.98757 6.96958 3.18385C7.7733 2.38012 8.86339 1.92859 10 1.92859ZM10 3.00002C9.14755 3.00002 8.32999 3.33866 7.72719 3.94146C7.1244 4.54426 6.78575 5.36182 6.78575 6.2143C6.78575 7.06678 7.1244 7.88435 7.72719 8.48715C8.32999 9.08994 9.14755 9.42859 10 9.42859C10.8525 9.42859 11.6701 9.08994 12.2729 8.48715C12.8757 7.88435 13.2143 7.06678 13.2143 6.2143C13.2143 5.36182 12.8757 4.54426 12.2729 3.94146C11.6701 3.33866 10.8525 3.00002 10 3.00002Z" fill="#F5F5F5"/>
</svg>
