<svg width="20" height="21" viewBox="0 0 20 21" fill="none" xmlns="http://www.w3.org/2000/svg">
<path d="M9.99996 7.28573C9.57786 7.28573 9.15988 7.36887 8.76991 7.5304C8.37993 7.69194 8.02559 7.9287 7.72712 8.22717C7.42864 8.52565 7.19188 8.87999 7.03035 9.26996C6.86881 9.65994 6.78568 10.0779 6.78568 10.5C6.78568 10.9221 6.86881 11.3401 7.03035 11.7301C7.19188 12.12 7.42864 12.4744 7.72712 12.7729C8.02559 13.0713 8.37993 13.3081 8.76991 13.4696C9.15988 13.6312 9.57786 13.7143 9.99996 13.7143C10.8524 13.7143 11.67 13.3757 12.2728 12.7729C12.8756 12.1701 13.2142 11.3525 13.2142 10.5C13.2142 9.64754 12.8756 8.82997 12.2728 8.22717C11.67 7.62438 10.8524 7.28573 9.99996 7.28573ZM7.8571 10.5C7.8571 10.2186 7.91253 9.93996 8.02022 9.67998C8.12791 9.42 8.28575 9.18377 8.48473 8.98479C8.68371 8.78581 8.91994 8.62796 9.17992 8.52028C9.43991 8.41259 9.71856 8.35716 9.99996 8.35716C10.2814 8.35716 10.56 8.41259 10.82 8.52028C11.08 8.62796 11.3162 8.78581 11.5152 8.98479C11.7142 9.18377 11.872 9.42 11.9797 9.67998C12.0874 9.93996 12.1428 10.2186 12.1428 10.5C12.1428 11.0683 11.9171 11.6134 11.5152 12.0152C11.1133 12.4171 10.5683 12.6429 9.99996 12.6429C9.43164 12.6429 8.8866 12.4171 8.48473 12.0152C8.08287 11.6134 7.8571 11.0683 7.8571 10.5ZM15.5071 16.4964L14.2728 15.9543C14.0971 15.878 13.9061 15.8438 13.7148 15.8544C13.5236 15.8651 13.3375 15.9203 13.1714 16.0157C12.8378 16.2086 12.625 16.5493 12.5828 16.9329L12.4342 18.2757C12.4196 18.4108 12.3634 18.538 12.2735 18.6398C12.1836 18.7416 12.0643 18.8131 11.9321 18.8443C10.6612 19.1464 9.33725 19.1464 8.06639 18.8443C7.93432 18.8129 7.81521 18.7414 7.72542 18.6396C7.63564 18.5378 7.57958 18.4107 7.56496 18.2757L7.41639 16.935C7.39511 16.7463 7.32987 16.5652 7.22592 16.4063C7.12196 16.2474 6.98219 16.1151 6.81782 16.02C6.65354 15.9254 6.46939 15.8706 6.28011 15.8599C6.09083 15.8492 5.90169 15.883 5.72782 15.9586L4.49353 16.5007C4.36876 16.5555 4.23003 16.5702 4.09655 16.5427C3.96308 16.5152 3.84146 16.4468 3.74853 16.3472C2.86087 15.3946 2.19989 14.2538 1.81496 13.01C1.77414 12.8793 1.77519 12.739 1.81796 12.6089C1.86074 12.4788 1.9431 12.3653 2.05353 12.2843L3.14425 11.4786C3.2978 11.3658 3.42264 11.2184 3.50869 11.0484C3.59475 10.8784 3.63958 10.6906 3.63958 10.5C3.63958 10.3095 3.59475 10.1216 3.50869 9.95162C3.42264 9.78162 3.2978 9.63426 3.14425 9.52145L2.05353 8.71787C1.94295 8.63681 1.8605 8.52319 1.81772 8.39293C1.77494 8.26267 1.77397 8.12228 1.81496 7.99145C2.19989 6.74836 2.86145 5.60865 3.74996 4.65787C3.84297 4.55831 3.96463 4.49011 4.0981 4.46272C4.23157 4.43534 4.37026 4.45012 4.49496 4.50502L5.72353 5.04573C5.89834 5.12097 6.08834 5.15424 6.27831 5.14288C6.46828 5.13153 6.65296 5.07586 6.81756 4.98033C6.98216 4.88481 7.12212 4.75207 7.22623 4.59276C7.33033 4.43345 7.3957 4.25198 7.4171 4.06287L7.5671 2.72145C7.5819 2.58487 7.63912 2.45637 7.73073 2.354C7.82233 2.25163 7.94372 2.18054 8.07782 2.15073C8.70639 2.01073 9.3502 1.93668 10.0092 1.92859C10.6535 1.93573 11.295 2.01073 11.9235 2.15073C12.0577 2.18058 12.1792 2.25178 12.2708 2.35429C12.3624 2.4568 12.4196 2.58546 12.4342 2.72216L12.5835 4.06359C12.6156 4.36113 12.7564 4.63637 12.9789 4.83648C13.2014 5.03659 13.49 5.14748 13.7892 5.14787C13.9557 5.14787 14.1207 5.11287 14.275 5.04502L15.5035 4.5043C15.6282 4.4494 15.7669 4.43462 15.9004 4.46201C16.0339 4.48939 16.1555 4.55759 16.2485 4.65716C17.1368 5.608 17.7981 6.74771 18.1828 7.99073C18.2237 8.1214 18.2228 8.26158 18.1801 8.39169C18.1375 8.5218 18.0553 8.63534 17.945 8.71645L16.8557 9.52145C16.545 9.75002 16.3571 10.1136 16.3571 10.5C16.3571 10.8857 16.545 11.2493 16.8564 11.4786L17.9464 12.2829C18.1721 12.45 18.2678 12.7414 18.185 13.0093C17.7995 14.2519 17.1386 15.3914 16.2514 16.3429C16.1585 16.4426 16.0368 16.5109 15.9034 16.5384C15.7699 16.5659 15.6319 16.5513 15.5071 16.4964ZM11.6157 16.355C11.786 15.8212 12.1488 15.3697 12.6335 15.0886C12.9453 14.9089 13.2949 14.805 13.6541 14.785C14.0134 14.765 14.3723 14.8296 14.7021 14.9736L15.6621 15.395C16.2783 14.6807 16.7555 13.8575 17.0692 12.9679L16.22 12.3414C15.9305 12.1294 15.6951 11.8515 15.5326 11.5316C15.3702 11.2117 15.2854 10.8581 15.285 10.4993C15.285 9.76573 15.64 9.08502 16.2185 8.6593L16.22 8.65859L17.0678 8.03216C16.7538 7.14272 16.2763 6.31978 15.66 5.60573L14.7078 6.0243L14.7064 6.02502C14.4164 6.15359 14.1042 6.2193 13.7878 6.2193C13.225 6.21877 12.6822 6.01062 12.2633 5.63473C11.8445 5.25883 11.579 4.74162 11.5178 4.18216V4.18073L11.4014 3.13787C10.9419 3.05238 10.4759 3.00626 10.0085 3.00002C9.52758 3.00668 9.05734 3.05264 8.59782 3.13787L8.48139 4.18145C8.44131 4.53747 8.31829 4.87913 8.12219 5.17898C7.9261 5.47882 7.66241 5.72849 7.35231 5.90793C7.04221 6.08736 6.69434 6.19155 6.33666 6.21214C5.97898 6.23272 5.62146 6.16912 5.29282 6.02645L4.33853 5.60645C3.7222 6.3205 3.24472 7.14343 2.93067 8.03287L3.78068 8.6593C4.06934 8.8717 4.30403 9.14899 4.46577 9.46881C4.62751 9.78862 4.71179 10.142 4.71179 10.5004C4.71179 10.8588 4.62751 11.2121 4.46577 11.5319C4.30403 11.8518 4.06934 12.1291 3.78068 12.3414L2.93067 12.9686C3.24402 13.8595 3.72128 14.6839 4.33782 15.3993L5.29853 14.9779C5.62624 14.8348 5.98295 14.7706 6.33999 14.7904C6.69702 14.8103 7.04441 14.9136 7.35425 15.0922C7.66383 15.271 7.92715 15.52 8.12303 15.8191C8.31891 16.1182 8.4419 16.459 8.4821 16.8143V16.8179L8.59782 17.8636C9.52425 18.0457 10.4764 18.0457 11.4028 17.8636L11.5185 16.8157C11.5357 16.6576 11.5685 16.5041 11.6171 16.355" fill="#F5F5F5"/>
</svg>
