<svg width="20" height="20" viewBox="0 0 20 20" fill="none" xmlns="http://www.w3.org/2000/svg">
<path d="M11.14 1.50439C11.2604 1.4934 11.3819 1.50431 11.4986 1.53673C11.631 1.57351 11.7544 1.63717 11.8611 1.72374L11.8612 1.72382L12.6692 2.37982L13.0285 2.67155M11.14 1.50439L11.8621 1.72337L14.3504 3.7437L13.448 3.01168L13.0286 2.67146L13.0285 2.67155M11.14 1.50439C11.2607 1.49321 11.3825 1.50404 11.4995 1.5365C11.6318 1.57319 11.7552 1.63673 11.8618 1.72316L11.14 1.50439ZM13.0285 2.67155L12.7653 3.05229L11.0734 5.49999H11.0747L12.7216 3.11582L13.0285 2.67155ZM15.492 5.01603C15.4851 4.9663 15.4745 4.91745 15.4604 4.86984C15.474 4.91552 15.4843 4.96235 15.4913 5.01002C15.5156 5.17631 15.4975 5.34466 15.4403 5.49999H15.4398C15.4964 5.34665 15.5149 5.1805 15.492 5.01603ZM15.3209 5.7273L15.3211 5.72708L14.9956 5.49999L15.3209 5.7273ZM8.38874 4.82605L7.91919 5.49899H7.9189L8.38874 4.82605ZM3.79289 7.2071C3.95816 7.37236 4.17531 7.47381 4.40606 7.49557C4.32091 7.48789 4.24185 7.47035 4.16766 7.44394L3.5 7.2063V6.49999C3.5 6.76521 3.60536 7.01956 3.79289 7.2071Z" fill="black" stroke="#F5F5F5"/>
</svg>
