<svg width="196" height="50" viewBox="0 0 196 50" fill="none" xmlns="http://www.w3.org/2000/svg">
<path d="M15.682 43.626V42.339C15.682 42.1557 15.7077 42.0383 15.759 41.987C15.8103 41.9357 15.9203 41.91 16.089 41.91H17.728C17.9113 41.91 18.0177 41.877 18.047 41.811C18.0837 41.745 18.102 41.6203 18.102 41.437V30.118C18.102 29.9053 18.08 29.766 18.036 29.7C17.992 29.6267 17.8637 29.59 17.651 29.59H16.265C16.0303 29.59 15.8727 29.568 15.792 29.524C15.7187 29.4727 15.682 29.3407 15.682 29.128V27.951C15.682 27.7603 15.7297 27.6393 15.825 27.588C15.9277 27.5293 16.078 27.5 16.276 27.5H24.493C26.0183 27.5 27.331 27.709 28.431 28.127C29.531 28.5377 30.4293 29.117 31.126 29.865C31.83 30.613 32.347 31.4893 32.677 32.494C33.0143 33.4913 33.183 34.5767 33.183 35.75C33.183 36.9233 33.007 38.0123 32.655 39.017C32.303 40.0143 31.7677 40.887 31.049 41.635C30.3303 42.383 29.4247 42.966 28.332 43.384C27.2467 43.7947 25.967 44 24.493 44H16.144C15.968 44 15.847 43.9817 15.781 43.945C15.715 43.901 15.682 43.7947 15.682 43.626ZM22.282 41.91H24.383C25.4757 41.91 26.363 41.6607 27.045 41.162C27.7343 40.656 28.2403 39.9447 28.563 39.028C28.8857 38.104 29.047 37.0113 29.047 35.75C29.047 34.4887 28.871 33.3997 28.519 32.483C28.167 31.559 27.6427 30.8477 26.946 30.349C26.2567 29.843 25.4023 29.59 24.383 29.59H22.304C22.0693 29.59 21.9153 29.623 21.842 29.689C21.776 29.755 21.743 29.9053 21.743 30.14V41.47C21.743 41.6753 21.7797 41.8 21.853 41.844C21.9263 41.888 22.0693 41.91 22.282 41.91ZM41.5729 39.435L43.7839 32.835C43.8206 32.725 43.8719 32.6517 43.9379 32.615C44.0039 32.5783 44.1139 32.56 44.2679 32.56H45.4009C45.5989 32.56 45.7382 32.5747 45.8189 32.604C45.8996 32.6333 45.9656 32.7177 46.0169 32.857L48.3159 39.204C48.3892 39.3727 48.4369 39.512 48.4589 39.622C48.4882 39.7247 48.5322 39.776 48.5909 39.776C48.6642 39.776 48.7156 39.7247 48.7449 39.622C48.7742 39.5193 48.8146 39.38 48.8659 39.204L50.1859 34.672C50.2372 34.5253 50.2409 34.43 50.1969 34.386C50.1602 34.342 50.0539 34.32 49.8779 34.32H48.7009C48.5542 34.32 48.4589 34.298 48.4149 34.254C48.3709 34.2027 48.3489 34.111 48.3489 33.979V32.857C48.3489 32.7323 48.3709 32.6517 48.4149 32.615C48.4589 32.5783 48.5432 32.56 48.6679 32.56H53.9259C54.0652 32.56 54.1569 32.5893 54.2009 32.648C54.2449 32.6993 54.2669 32.7983 54.2669 32.945V33.924C54.2669 34.0853 54.2449 34.1917 54.2009 34.243C54.1642 34.2943 54.0616 34.32 53.8929 34.32H52.7709C52.5656 34.32 52.4299 34.3383 52.3639 34.375C52.3052 34.4117 52.2502 34.5107 52.1989 34.672L49.4049 43.835C49.3536 44.0037 49.3022 44.1173 49.2509 44.176C49.2069 44.242 49.0676 44.275 48.8329 44.275H47.5789C47.3442 44.275 47.1939 44.2493 47.1279 44.198C47.0692 44.154 47.0032 44.0513 46.9299 43.89L44.6529 37.686C44.5796 37.5027 44.5282 37.3487 44.4989 37.224C44.4696 37.092 44.4219 37.026 44.3559 37.026C44.2972 37.026 44.2459 37.0883 44.2019 37.213C44.1579 37.3303 44.1066 37.4733 44.0479 37.642L41.9139 43.868C41.8552 44.0293 41.7966 44.1357 41.7379 44.187C41.6866 44.2457 41.5399 44.275 41.2979 44.275H40.1099C39.8679 44.275 39.7102 44.2493 39.6369 44.198C39.5636 44.154 39.4976 44.044 39.4389 43.868L36.3039 34.628C36.2672 34.5033 36.2232 34.4227 36.1719 34.386C36.1206 34.342 36.0106 34.32 35.8419 34.32H34.6429C34.5036 34.32 34.4192 34.2907 34.3899 34.232C34.3606 34.166 34.3459 34.067 34.3459 33.935V32.923C34.3459 32.7763 34.3642 32.681 34.4009 32.637C34.4449 32.5857 34.5366 32.56 34.6759 32.56H41.2429C41.4042 32.56 41.5106 32.5857 41.5619 32.637C41.6132 32.681 41.6389 32.791 41.6389 32.967V33.869C41.6389 34.045 41.6206 34.166 41.5839 34.232C41.5472 34.2907 41.4372 34.32 41.2539 34.32H39.8569C39.6882 34.32 39.5929 34.3383 39.5709 34.375C39.5562 34.4043 39.5672 34.4777 39.6039 34.595L41.1109 39.446C41.1622 39.5927 41.1916 39.71 41.1989 39.798C41.2136 39.8787 41.2539 39.919 41.3199 39.919C41.3932 39.919 41.4372 39.8787 41.4519 39.798C41.4739 39.71 41.5142 39.589 41.5729 39.435ZM55.0005 38.5C55.0005 37.3267 55.2205 36.267 55.6605 35.321C56.1078 34.375 56.7751 33.6233 57.6625 33.066C58.5571 32.5087 59.6681 32.23 60.9955 32.23C61.8828 32.23 62.6381 32.3583 63.2615 32.615C63.8848 32.8717 64.3945 33.2163 64.7905 33.649C65.1938 34.0743 65.5091 34.551 65.7365 35.079C65.9638 35.607 66.1215 36.1497 66.2095 36.707C66.2975 37.257 66.3415 37.7813 66.3415 38.28C66.3415 38.434 66.3158 38.533 66.2645 38.577C66.2205 38.621 66.1178 38.643 65.9565 38.643H58.8725C58.7331 38.643 58.6451 38.665 58.6085 38.709C58.5718 38.753 58.5571 38.841 58.5645 38.973C58.5865 39.633 58.6818 40.2453 58.8505 40.81C59.0265 41.3673 59.3051 41.8147 59.6865 42.152C60.0678 42.4893 60.5775 42.658 61.2155 42.658C61.9268 42.658 62.5098 42.4637 62.9645 42.075C63.4265 41.6863 63.7968 41.1473 64.0755 40.458C64.1048 40.3773 64.1378 40.315 64.1745 40.271C64.2185 40.2197 64.3028 40.194 64.4275 40.194H65.9125C66.0445 40.194 66.1251 40.2123 66.1545 40.249C66.1911 40.2783 66.1985 40.348 66.1765 40.458C65.9638 41.294 65.6155 42.0017 65.1315 42.581C64.6475 43.153 64.0425 43.5893 63.3165 43.89C62.5978 44.1833 61.7728 44.33 60.8415 44.33C59.5508 44.33 58.4691 44.0587 57.5965 43.516C56.7311 42.9733 56.0821 42.2583 55.6495 41.371C55.2168 40.4837 55.0005 39.5267 55.0005 38.5ZM58.9055 37.037H62.6345C62.7811 37.037 62.8691 37.026 62.8985 37.004C62.9278 36.9747 62.9388 36.905 62.9315 36.795C62.9241 36.465 62.8801 36.124 62.7995 35.772C62.7188 35.42 62.5978 35.0973 62.4365 34.804C62.2751 34.5033 62.0698 34.2613 61.8205 34.078C61.5711 33.8947 61.2741 33.803 60.9295 33.803C60.4161 33.803 59.9908 33.9423 59.6535 34.221C59.3235 34.4997 59.0741 34.859 58.9055 35.299C58.7368 35.7317 58.6378 36.1973 58.6085 36.696C58.6011 36.828 58.6085 36.9197 58.6305 36.971C58.6525 37.015 58.7441 37.037 58.9055 37.037ZM68.7558 28.6H67.7988C67.5641 28.6 67.4211 28.5597 67.3698 28.479C67.3258 28.391 67.3038 28.2333 67.3038 28.006V27.357C67.3038 27.1077 67.3441 26.961 67.4248 26.917C67.5128 26.8657 67.6778 26.84 67.9198 26.84H71.9898C72.2391 26.84 72.4005 26.8657 72.4738 26.917C72.5471 26.9683 72.5838 27.1223 72.5838 27.379V41.712C72.5838 41.932 72.6021 42.075 72.6388 42.141C72.6755 42.207 72.8075 42.24 73.0348 42.24H74.2338C74.3585 42.24 74.4428 42.262 74.4868 42.306C74.5381 42.3427 74.5638 42.4307 74.5638 42.57V43.483C74.5638 43.725 74.5271 43.8717 74.4538 43.923C74.3805 43.9743 74.2228 44 73.9808 44H67.7438C67.5751 44 67.4578 43.9817 67.3918 43.945C67.3331 43.901 67.3038 43.791 67.3038 43.615V42.669C67.3038 42.5077 67.3295 42.3977 67.3808 42.339C67.4321 42.273 67.5385 42.24 67.6998 42.24H68.7778C69.0125 42.24 69.1555 42.2143 69.2068 42.163C69.2581 42.1117 69.2838 41.965 69.2838 41.723V29.073C69.2838 28.853 69.2471 28.721 69.1738 28.677C69.1078 28.6257 68.9685 28.6 68.7558 28.6ZM76.9628 28.6H76.0058C75.7712 28.6 75.6282 28.5597 75.5768 28.479C75.5328 28.391 75.5108 28.2333 75.5108 28.006V27.357C75.5108 27.1077 75.5512 26.961 75.6318 26.917C75.7198 26.8657 75.8848 26.84 76.1268 26.84H80.1968C80.4462 26.84 80.6075 26.8657 80.6808 26.917C80.7542 26.9683 80.7908 27.1223 80.7908 27.379V41.712C80.7908 41.932 80.8092 42.075 80.8458 42.141C80.8825 42.207 81.0145 42.24 81.2418 42.24H82.4408C82.5655 42.24 82.6498 42.262 82.6938 42.306C82.7452 42.3427 82.7708 42.4307 82.7708 42.57V43.483C82.7708 43.725 82.7342 43.8717 82.6608 43.923C82.5875 43.9743 82.4298 44 82.1878 44H75.9508C75.7822 44 75.6648 43.9817 75.5988 43.945C75.5402 43.901 75.5108 43.791 75.5108 43.615V42.669C75.5108 42.5077 75.5365 42.3977 75.5878 42.339C75.6392 42.273 75.7455 42.24 75.9068 42.24H76.9848C77.2195 42.24 77.3625 42.2143 77.4138 42.163C77.4652 42.1117 77.4908 41.965 77.4908 41.723V29.073C77.4908 28.853 77.4542 28.721 77.3808 28.677C77.3148 28.6257 77.1755 28.6 76.9628 28.6ZM96.9246 29.964V41.536C96.9246 41.7413 96.9576 41.8733 97.0236 41.932C97.0896 41.9907 97.2252 42.02 97.4306 42.02H99.2896C99.4289 42.02 99.5279 42.0457 99.5866 42.097C99.6452 42.141 99.6746 42.2363 99.6746 42.383V43.549C99.6746 43.7397 99.6416 43.8643 99.5756 43.923C99.5096 43.9743 99.3776 44 99.1796 44H91.2486C91.0506 44 90.9186 43.9707 90.8526 43.912C90.7866 43.846 90.7536 43.714 90.7536 43.516V42.438C90.7536 42.2547 90.7902 42.141 90.8636 42.097C90.9442 42.0457 91.0946 42.02 91.3146 42.02H92.6566C92.8619 42.02 93.0196 41.9907 93.1296 41.932C93.2396 41.8733 93.2946 41.723 93.2946 41.481V29.964C93.2946 29.7733 93.2726 29.645 93.2286 29.579C93.1919 29.513 93.0746 29.48 92.8766 29.48H91.2376C91.0542 29.48 90.9259 29.4543 90.8526 29.403C90.7866 29.3517 90.7536 29.2343 90.7536 29.051V27.962C90.7536 27.7567 90.7792 27.6283 90.8306 27.577C90.8819 27.5257 91.0066 27.5 91.2046 27.5H99.1796C99.3922 27.5 99.5279 27.533 99.5866 27.599C99.6452 27.6577 99.6746 27.7897 99.6746 27.995V28.952C99.6746 29.1793 99.6342 29.326 99.5536 29.392C99.4802 29.4507 99.3446 29.48 99.1466 29.48H97.4086C97.1959 29.48 97.0602 29.5093 97.0016 29.568C96.9502 29.6267 96.9246 29.7587 96.9246 29.964ZM102.904 34.32H101.705C101.529 34.32 101.419 34.2943 101.375 34.243C101.331 34.1843 101.309 34.0707 101.309 33.902V32.978C101.309 32.8093 101.35 32.6993 101.43 32.648C101.511 32.5893 101.628 32.56 101.782 32.56H105.896C106.043 32.56 106.16 32.5967 106.248 32.67C106.336 32.736 106.38 32.857 106.38 33.033V33.869C106.38 34.1477 106.406 34.298 106.457 34.32C106.516 34.342 106.6 34.2797 106.71 34.133C107.084 33.6123 107.557 33.165 108.129 32.791C108.701 32.417 109.46 32.23 110.406 32.23C111.301 32.23 112.027 32.373 112.584 32.659C113.142 32.9377 113.549 33.3483 113.805 33.891C114.062 34.4337 114.19 35.0973 114.19 35.882V41.756C114.19 41.9613 114.212 42.0933 114.256 42.152C114.308 42.2107 114.44 42.24 114.652 42.24H115.829C115.961 42.24 116.049 42.2657 116.093 42.317C116.145 42.3683 116.17 42.4637 116.17 42.603V43.593C116.17 43.7837 116.134 43.901 116.06 43.945C115.994 43.9817 115.866 44 115.675 44H109.691C109.53 44 109.431 43.9707 109.394 43.912C109.365 43.846 109.35 43.7323 109.35 43.571V42.647C109.35 42.5077 109.365 42.405 109.394 42.339C109.431 42.273 109.519 42.24 109.658 42.24H110.428C110.619 42.24 110.74 42.218 110.791 42.174C110.85 42.1227 110.879 42.0017 110.879 41.811V36.179C110.879 35.475 110.758 34.9617 110.516 34.639C110.274 34.309 109.886 34.144 109.35 34.144C108.852 34.144 108.393 34.2907 107.975 34.584C107.557 34.87 107.224 35.2843 106.974 35.827C106.725 36.3697 106.6 37.0187 106.6 37.774V41.8C106.6 41.9613 106.626 42.075 106.677 42.141C106.736 42.207 106.853 42.24 107.029 42.24H107.722C107.884 42.24 107.994 42.262 108.052 42.306C108.111 42.35 108.14 42.4563 108.14 42.625V43.626C108.14 43.7947 108.104 43.901 108.03 43.945C107.964 43.9817 107.858 44 107.711 44H101.639C101.493 44 101.401 43.9743 101.364 43.923C101.328 43.8643 101.309 43.7543 101.309 43.593V42.647C101.309 42.471 101.339 42.361 101.397 42.317C101.456 42.2657 101.566 42.24 101.727 42.24H102.827C103.018 42.24 103.143 42.2217 103.201 42.185C103.26 42.1483 103.289 42.0383 103.289 41.855V34.672C103.289 34.518 103.264 34.4227 103.212 34.386C103.161 34.342 103.058 34.32 102.904 34.32ZM125.242 41.91C125.029 42.3207 124.769 42.713 124.461 43.087C124.153 43.4537 123.757 43.7507 123.273 43.978C122.789 44.2053 122.176 44.319 121.436 44.319C120.402 44.319 119.646 44.0843 119.17 43.615C118.693 43.1383 118.455 42.4527 118.455 41.558V34.727C118.455 34.5803 118.433 34.4777 118.389 34.419C118.352 34.353 118.26 34.32 118.114 34.32H116.761C116.614 34.32 116.519 34.3017 116.475 34.265C116.431 34.221 116.409 34.1257 116.409 33.979V32.912C116.409 32.758 116.431 32.6627 116.475 32.626C116.519 32.582 116.618 32.56 116.772 32.56C117.19 32.56 117.567 32.5307 117.905 32.472C118.249 32.406 118.561 32.2703 118.84 32.065C119.118 31.8597 119.364 31.548 119.577 31.13C119.797 30.7047 119.987 30.129 120.149 29.403C120.178 29.2563 120.207 29.161 120.237 29.117C120.273 29.0657 120.383 29.04 120.567 29.04H121.425C121.645 29.04 121.755 29.1537 121.755 29.381V32.164C121.755 32.3253 121.78 32.4317 121.832 32.483C121.89 32.5343 121.997 32.56 122.151 32.56H124.45C124.582 32.56 124.666 32.582 124.703 32.626C124.747 32.6627 124.769 32.7507 124.769 32.89V34.056C124.769 34.166 124.743 34.2393 124.692 34.276C124.64 34.3053 124.556 34.32 124.439 34.32H122.162C122.03 34.32 121.927 34.3457 121.854 34.397C121.788 34.4483 121.755 34.5437 121.755 34.683V41.129C121.755 41.5397 121.832 41.844 121.986 42.042C122.14 42.2327 122.356 42.328 122.635 42.328C122.891 42.328 123.126 42.2437 123.339 42.075C123.559 41.9063 123.768 41.646 123.966 41.294C124.032 41.1767 124.09 41.107 124.142 41.085C124.193 41.0557 124.281 41.0703 124.406 41.129L125.033 41.481C125.15 41.547 125.227 41.6093 125.264 41.668C125.308 41.7193 125.3 41.8 125.242 41.91ZM126.307 38.5C126.307 37.3267 126.527 36.267 126.967 35.321C127.414 34.375 128.082 33.6233 128.969 33.066C129.864 32.5087 130.975 32.23 132.302 32.23C133.189 32.23 133.945 32.3583 134.568 32.615C135.191 32.8717 135.701 33.2163 136.097 33.649C136.5 34.0743 136.816 34.551 137.043 35.079C137.27 35.607 137.428 36.1497 137.516 36.707C137.604 37.257 137.648 37.7813 137.648 38.28C137.648 38.434 137.622 38.533 137.571 38.577C137.527 38.621 137.424 38.643 137.263 38.643H130.179C130.04 38.643 129.952 38.665 129.915 38.709C129.878 38.753 129.864 38.841 129.871 38.973C129.893 39.633 129.988 40.2453 130.157 40.81C130.333 41.3673 130.612 41.8147 130.993 42.152C131.374 42.4893 131.884 42.658 132.522 42.658C133.233 42.658 133.816 42.4637 134.271 42.075C134.733 41.6863 135.103 41.1473 135.382 40.458C135.411 40.3773 135.444 40.315 135.481 40.271C135.525 40.2197 135.609 40.194 135.734 40.194H137.219C137.351 40.194 137.432 40.2123 137.461 40.249C137.498 40.2783 137.505 40.348 137.483 40.458C137.27 41.294 136.922 42.0017 136.438 42.581C135.954 43.153 135.349 43.5893 134.623 43.89C133.904 44.1833 133.079 44.33 132.148 44.33C130.857 44.33 129.776 44.0587 128.903 43.516C128.038 42.9733 127.389 42.2583 126.956 41.371C126.523 40.4837 126.307 39.5267 126.307 38.5ZM130.212 37.037H133.941C134.088 37.037 134.176 37.026 134.205 37.004C134.234 36.9747 134.245 36.905 134.238 36.795C134.231 36.465 134.187 36.124 134.106 35.772C134.025 35.42 133.904 35.0973 133.743 34.804C133.582 34.5033 133.376 34.2613 133.127 34.078C132.878 33.8947 132.581 33.803 132.236 33.803C131.723 33.803 131.297 33.9423 130.96 34.221C130.63 34.4997 130.381 34.859 130.212 35.299C130.043 35.7317 129.944 36.1973 129.915 36.696C129.908 36.828 129.915 36.9197 129.937 36.971C129.959 37.015 130.051 37.037 130.212 37.037ZM140.865 34.771C140.865 34.5877 140.843 34.4667 140.799 34.408C140.763 34.3493 140.656 34.32 140.48 34.32H139.248C139.087 34.32 138.984 34.298 138.94 34.254C138.904 34.2027 138.885 34.1 138.885 33.946V32.978C138.885 32.8093 138.911 32.6993 138.962 32.648C139.014 32.5893 139.116 32.56 139.27 32.56H143.582C143.714 32.56 143.81 32.582 143.868 32.626C143.927 32.6627 143.956 32.7543 143.956 32.901V33.913C143.956 34.1257 143.971 34.254 144 34.298C144.03 34.342 144.088 34.2833 144.176 34.122C144.484 33.5793 144.906 33.1283 145.441 32.769C145.984 32.4097 146.681 32.23 147.531 32.23C148.353 32.23 149.053 32.45 149.632 32.89C150.219 33.3227 150.512 33.9387 150.512 34.738C150.512 35.0827 150.435 35.4273 150.281 35.772C150.127 36.1093 149.9 36.3917 149.599 36.619C149.299 36.8463 148.928 36.96 148.488 36.96C147.946 36.96 147.495 36.8207 147.135 36.542C146.776 36.2633 146.596 35.9003 146.596 35.453C146.596 35.1523 146.644 34.9177 146.739 34.749C146.835 34.5803 146.93 34.4483 147.025 34.353C147.128 34.2577 147.179 34.166 147.179 34.078C147.179 33.9973 147.143 33.9313 147.069 33.88C147.003 33.8287 146.875 33.803 146.684 33.803C146.259 33.803 145.852 33.9973 145.463 34.386C145.082 34.7673 144.77 35.277 144.528 35.915C144.294 36.5457 144.176 37.2387 144.176 37.994V41.822C144.176 41.9907 144.198 42.1043 144.242 42.163C144.286 42.2143 144.396 42.24 144.572 42.24H145.859C145.999 42.24 146.083 42.2657 146.112 42.317C146.142 42.3683 146.156 42.4637 146.156 42.603V43.604C146.156 43.758 146.138 43.8643 146.101 43.923C146.072 43.9743 145.984 44 145.837 44H139.281C139.142 44 139.039 43.978 138.973 43.934C138.915 43.89 138.885 43.7983 138.885 43.659V42.559C138.885 42.4123 138.911 42.3243 138.962 42.295C139.021 42.2583 139.116 42.24 139.248 42.24H140.381C140.565 42.24 140.689 42.218 140.755 42.174C140.829 42.13 140.865 42.02 140.865 41.844V34.771ZM152.984 28.71C152.984 28.1527 153.178 27.7127 153.567 27.39C153.955 27.06 154.421 26.895 154.964 26.895C155.514 26.895 155.979 27.06 156.361 27.39C156.749 27.7127 156.944 28.1527 156.944 28.71C156.944 29.2673 156.749 29.711 156.361 30.041C155.979 30.3637 155.514 30.525 154.964 30.525C154.421 30.525 153.955 30.3637 153.567 30.041C153.178 29.711 152.984 29.2673 152.984 28.71ZM153.182 34.32H151.697C151.594 34.32 151.524 34.3053 151.488 34.276C151.458 34.2467 151.444 34.1807 151.444 34.078V32.857C151.444 32.659 151.543 32.56 151.741 32.56H156.482C156.577 32.56 156.639 32.5747 156.669 32.604C156.705 32.626 156.724 32.6847 156.724 32.78V41.965C156.724 42.0677 156.738 42.141 156.768 42.185C156.797 42.2217 156.859 42.24 156.955 42.24H158.418C158.535 42.24 158.612 42.251 158.649 42.273C158.685 42.295 158.704 42.3647 158.704 42.482V43.692C158.704 43.8313 158.685 43.9193 158.649 43.956C158.612 43.9853 158.528 44 158.396 44H151.741C151.623 44 151.543 43.9853 151.499 43.956C151.462 43.9193 151.444 43.8423 151.444 43.725V42.559C151.444 42.4197 151.466 42.3317 151.51 42.295C151.554 42.2583 151.642 42.24 151.774 42.24H153.149C153.273 42.24 153.35 42.2253 153.38 42.196C153.409 42.1593 153.424 42.0823 153.424 41.965V34.595C153.424 34.4117 153.343 34.32 153.182 34.32ZM163.281 38.06C163.281 38.896 163.343 39.6697 163.468 40.381C163.593 41.085 163.82 41.6533 164.15 42.086C164.48 42.5187 164.953 42.735 165.569 42.735C166.031 42.735 166.409 42.614 166.702 42.372C167.003 42.1227 167.237 41.7963 167.406 41.393C167.575 40.9823 167.692 40.5277 167.758 40.029C167.824 39.523 167.857 39.0133 167.857 38.5C167.857 37.664 167.795 36.894 167.67 36.19C167.545 35.4787 167.318 34.9067 166.988 34.474C166.658 34.0413 166.185 33.825 165.569 33.825C165.107 33.825 164.726 33.9497 164.425 34.199C164.132 34.441 163.901 34.7673 163.732 35.178C163.563 35.5813 163.446 36.036 163.38 36.542C163.314 37.0407 163.281 37.5467 163.281 38.06ZM159.651 38.555C159.651 37.3817 159.875 36.3183 160.322 35.365C160.769 34.4043 161.433 33.6417 162.313 33.077C163.193 32.5123 164.278 32.23 165.569 32.23C166.86 32.23 167.945 32.5013 168.825 33.044C169.705 33.5867 170.369 34.3017 170.816 35.189C171.263 36.0763 171.487 37.0333 171.487 38.06C171.487 39.2333 171.263 40.293 170.816 41.239C170.369 42.185 169.705 42.9367 168.825 43.494C167.945 44.0513 166.86 44.33 165.569 44.33C164.278 44.33 163.193 44.066 162.313 43.538C161.433 43.0027 160.769 42.295 160.322 41.415C159.875 40.535 159.651 39.5817 159.651 38.555ZM174.66 34.771C174.66 34.5877 174.638 34.4667 174.594 34.408C174.558 34.3493 174.451 34.32 174.275 34.32H173.043C172.882 34.32 172.779 34.298 172.735 34.254C172.699 34.2027 172.68 34.1 172.68 33.946V32.978C172.68 32.8093 172.706 32.6993 172.757 32.648C172.809 32.5893 172.911 32.56 173.065 32.56H177.377C177.509 32.56 177.605 32.582 177.663 32.626C177.722 32.6627 177.751 32.7543 177.751 32.901V33.913C177.751 34.1257 177.766 34.254 177.795 34.298C177.825 34.342 177.883 34.2833 177.971 34.122C178.279 33.5793 178.701 33.1283 179.236 32.769C179.779 32.4097 180.476 32.23 181.326 32.23C182.148 32.23 182.848 32.45 183.427 32.89C184.014 33.3227 184.307 33.9387 184.307 34.738C184.307 35.0827 184.23 35.4273 184.076 35.772C183.922 36.1093 183.695 36.3917 183.394 36.619C183.094 36.8463 182.723 36.96 182.283 36.96C181.741 36.96 181.29 36.8207 180.93 36.542C180.571 36.2633 180.391 35.9003 180.391 35.453C180.391 35.1523 180.439 34.9177 180.534 34.749C180.63 34.5803 180.725 34.4483 180.82 34.353C180.923 34.2577 180.974 34.166 180.974 34.078C180.974 33.9973 180.938 33.9313 180.864 33.88C180.798 33.8287 180.67 33.803 180.479 33.803C180.054 33.803 179.647 33.9973 179.258 34.386C178.877 34.7673 178.565 35.277 178.323 35.915C178.089 36.5457 177.971 37.2387 177.971 37.994V41.822C177.971 41.9907 177.993 42.1043 178.037 42.163C178.081 42.2143 178.191 42.24 178.367 42.24H179.654C179.794 42.24 179.878 42.2657 179.907 42.317C179.937 42.3683 179.951 42.4637 179.951 42.603V43.604C179.951 43.758 179.933 43.8643 179.896 43.923C179.867 43.9743 179.779 44 179.632 44H173.076C172.937 44 172.834 43.978 172.768 43.934C172.71 43.89 172.68 43.7983 172.68 43.659V42.559C172.68 42.4123 172.706 42.3243 172.757 42.295C172.816 42.2583 172.911 42.24 173.043 42.24H174.176C174.36 42.24 174.484 42.218 174.55 42.174C174.624 42.13 174.66 42.02 174.66 41.844V34.771ZM192.938 36.19C192.63 35.3907 192.175 34.793 191.574 34.397C190.973 34.001 190.353 33.803 189.715 33.803C189.246 33.803 188.886 33.913 188.637 34.133C188.395 34.353 188.274 34.628 188.274 34.958C188.274 35.376 188.439 35.7097 188.769 35.959C189.106 36.2083 189.539 36.4173 190.067 36.586C190.595 36.7473 191.152 36.916 191.739 37.092C192.333 37.268 192.89 37.4917 193.411 37.763C193.939 38.027 194.368 38.3863 194.698 38.841C195.035 39.2883 195.204 39.875 195.204 40.601C195.204 41.4737 195.002 42.1887 194.599 42.746C194.203 43.3033 193.66 43.714 192.971 43.978C192.282 44.242 191.508 44.374 190.65 44.374C189.924 44.374 189.282 44.264 188.725 44.044C188.168 43.824 187.709 43.571 187.35 43.285C187.255 43.2043 187.178 43.1677 187.119 43.175C187.06 43.175 187.002 43.2337 186.943 43.351L186.646 43.967C186.602 44.055 186.551 44.1173 186.492 44.154C186.441 44.198 186.345 44.22 186.206 44.22H185.139C185.022 44.22 184.945 44.1943 184.908 44.143C184.879 44.099 184.864 44.0147 184.864 43.89V40.216C184.864 40.084 184.879 39.9923 184.908 39.941C184.945 39.8897 185.025 39.864 185.15 39.864H186.316C186.477 39.864 186.576 39.886 186.613 39.93C186.65 39.9667 186.69 40.0437 186.734 40.161C186.917 40.733 187.178 41.2097 187.515 41.591C187.86 41.9723 188.259 42.2583 188.714 42.449C189.176 42.6397 189.675 42.735 190.21 42.735C190.819 42.735 191.277 42.6103 191.585 42.361C191.9 42.1043 192.058 41.767 192.058 41.349C192.058 40.9163 191.893 40.579 191.563 40.337C191.233 40.0877 190.808 39.8823 190.287 39.721C189.774 39.5523 189.227 39.3837 188.648 39.215C188.069 39.039 187.519 38.8153 186.998 38.544C186.485 38.2727 186.063 37.9097 185.733 37.455C185.403 36.993 185.238 36.388 185.238 35.64C185.238 34.914 185.407 34.2943 185.744 33.781C186.081 33.2603 186.543 32.8643 187.13 32.593C187.724 32.3217 188.395 32.186 189.143 32.186C189.891 32.186 190.536 32.3033 191.079 32.538C191.629 32.7653 192.062 33.0183 192.377 33.297C192.487 33.3923 192.564 33.4473 192.608 33.462C192.652 33.4693 192.707 33.3923 192.773 33.231L193.048 32.593C193.099 32.4903 193.151 32.4243 193.202 32.395C193.253 32.3583 193.352 32.34 193.499 32.34H194.533C194.716 32.34 194.808 32.439 194.808 32.637V36.212C194.808 36.3293 194.79 36.41 194.753 36.454C194.724 36.498 194.647 36.52 194.522 36.52H193.356C193.187 36.52 193.085 36.4943 193.048 36.443C193.019 36.3843 192.982 36.3 192.938 36.19Z" fill="#217575"/>
<path d="M46.875 43.75V21.3542L46.3605 21.1187C38.5605 17.5434 32.0545 11.6471 27.7313 4.23542L27.0834 3.125H22.9167L22.2688 4.23542C17.9456 11.6471 11.4396 17.5434 3.63962 21.1187L3.12504 21.3542V43.75M47.9167 46.875H2.08337M31.25 43.75V35.4167C31.25 33.7591 30.5916 32.1693 29.4195 30.9972C28.2474 29.8251 26.6576 29.1667 25 29.1667C23.3424 29.1667 21.7527 29.8251 20.5806 30.9972C19.4085 32.1693 18.75 33.7591 18.75 35.4167V43.75" stroke="#217575"/>
</svg>
