<svg width="14" height="8" viewBox="0 0 14 8" fill="none" xmlns="http://www.w3.org/2000/svg">
<path d="M7.41944 7.37079L13.0694 1.71079C13.1632 1.61783 13.2376 1.50723 13.2883 1.38537C13.3391 1.26351 13.3652 1.1328 13.3652 1.00079C13.3652 0.868781 13.3391 0.738075 13.2883 0.616216C13.2376 0.494356 13.1632 0.383755 13.0694 0.290792C12.8821 0.104542 12.6286 -3.21984e-08 12.3644 -4.37463e-08C12.1003 -5.52942e-08 11.8468 0.104541 11.6594 0.290792L6.65944 5.24079L1.70944 0.290792C1.52207 0.104541 1.26862 -5.2876e-07 1.00444 -5.40308e-07C0.740251 -5.51856e-07 0.486799 0.104541 0.299437 0.290792C0.204948 0.383407 0.129778 0.493852 0.0782814 0.615727C0.0267849 0.737602 -1.33894e-05 0.868485 -0.000562712 1.00079C-1.3401e-05 1.1331 0.0267848 1.26398 0.0782813 1.38586C0.129778 1.50773 0.204948 1.61818 0.299436 1.71079L5.94944 7.37079C6.04308 7.4723 6.15673 7.55331 6.28323 7.60871C6.40973 7.66412 6.54633 7.69272 6.68444 7.69272C6.82254 7.69272 6.95914 7.66412 7.08564 7.60871C7.21214 7.55331 7.32579 7.4723 7.41944 7.37079Z" fill="#94979E"/>
</svg>
