<svg width="132" height="42" viewBox="0 0 132 42" fill="none" xmlns="http://www.w3.org/2000/svg">
<rect x="1" y="1" width="130" height="40" rx="8" stroke="#4E49C7" stroke-width="1.5"/>
<path d="M23 21H35" stroke="#73768C" stroke-width="1.5" stroke-linecap="round" stroke-linejoin="round"/>
<path d="M29 27V15" stroke="#73768C" stroke-width="1.5" stroke-linecap="round" stroke-linejoin="round"/>
<path d="M57.3913 26H55.5353L54.4793 23.504H49.2633L48.2073 26H46.3513L51.0713 15.28H52.6713L57.3913 26ZM53.8073 21.936L51.8713 17.376L49.9353 21.936H53.8073ZM65.7345 14.48V26H64.0545V25.104C63.3505 25.808 62.3745 26.224 61.1745 26.224C59.1105 26.224 57.2385 24.544 57.2385 22.032C57.2385 19.536 59.1105 17.84 61.1745 17.84C62.3745 17.84 63.3505 18.256 64.0545 18.976V14.48H65.7345ZM61.4465 24.752C62.7745 24.752 64.0545 23.712 64.0545 22.032C64.0545 20.368 62.7745 19.312 61.4465 19.312C60.0065 19.312 58.8705 20.368 58.8705 22.032C58.8705 23.712 60.0065 24.752 61.4465 24.752ZM75.407 14.48V26H73.727V25.104C73.023 25.808 72.047 26.224 70.847 26.224C68.783 26.224 66.911 24.544 66.911 22.032C66.911 19.536 68.783 17.84 70.847 17.84C72.047 17.84 73.023 18.256 73.727 18.976V14.48H75.407ZM71.119 24.752C72.447 24.752 73.727 23.712 73.727 22.032C73.727 20.368 72.447 19.312 71.119 19.312C69.679 19.312 68.543 20.368 68.543 22.032C68.543 23.712 69.679 24.752 71.119 24.752ZM84.0886 24.688C85.1446 24.688 86.0406 24.176 86.4246 23.024L87.9606 23.424C87.5286 25.136 85.9286 26.224 84.0886 26.224C81.8166 26.224 79.8966 24.544 79.8966 22.032C79.8966 19.552 81.8166 17.84 84.0886 17.84C85.8806 17.84 87.4646 18.928 87.9606 20.624L86.3606 21.088C86.0566 19.92 85.1446 19.376 84.0886 19.376C82.6166 19.376 81.5286 20.464 81.5286 22.032C81.5286 23.648 82.6166 24.688 84.0886 24.688ZM96.939 18.064V26H95.275V25.088C94.587 25.808 93.595 26.224 92.395 26.224C90.315 26.224 88.459 24.544 88.459 22.032C88.459 19.536 90.315 17.84 92.395 17.84C93.595 17.84 94.587 18.256 95.275 18.976V18.064H96.939ZM92.667 24.752C93.979 24.752 95.275 23.712 95.275 22.032C95.275 20.368 93.979 19.312 92.667 19.312C91.211 19.312 90.075 20.368 90.075 22.032C90.075 23.712 91.211 24.752 92.667 24.752ZM103.508 17.968C103.7 17.968 103.86 17.968 104.068 18.032L103.956 19.632C103.828 19.616 103.636 19.616 103.492 19.616C101.476 19.616 100.484 21.024 100.484 23.2V26H98.8203V18.064H100.484V19.76C101.124 18.704 102.132 17.968 103.508 17.968ZM112.488 14.48V26H110.808V25.104C110.104 25.808 109.128 26.224 107.928 26.224C105.864 26.224 103.992 24.544 103.992 22.032C103.992 19.536 105.864 17.84 107.928 17.84C109.128 17.84 110.104 18.256 110.808 18.976V14.48H112.488ZM108.2 24.752C109.528 24.752 110.808 23.712 110.808 22.032C110.808 20.368 109.528 19.312 108.2 19.312C106.76 19.312 105.624 20.368 105.624 22.032C105.624 23.712 106.76 24.752 108.2 24.752Z" fill="#73768C"/>
</svg>
