<svg width="327" height="80" viewBox="0 0 327 80" fill="none" xmlns="http://www.w3.org/2000/svg">
<rect width="327" height="80" rx="12" fill="#EAECF3" fill-opacity="0.3"/>
<path d="M22.1 47V33H23.74L30.02 43.58H29.14L35.34 33H36.98L37 47H35.08L35.06 36.02H35.52L30 45.3H29.08L23.52 36.02H24.02V47H22.1ZM41.3816 51C40.8749 51 40.3816 50.9133 39.9016 50.74C39.4216 50.58 39.0082 50.34 38.6616 50.02L39.4816 48.58C39.7482 48.8333 40.0416 49.0267 40.3616 49.16C40.6816 49.2933 41.0216 49.36 41.3816 49.36C41.8482 49.36 42.2349 49.24 42.5416 49C42.8482 48.76 43.1349 48.3333 43.4016 47.72L44.0616 46.26L44.2616 46.02L48.4216 36.4H50.3016L45.1616 48.06C44.8549 48.8067 44.5082 49.3933 44.1216 49.82C43.7482 50.2467 43.3349 50.5467 42.8816 50.72C42.4282 50.9067 41.9282 51 41.3816 51ZM43.9016 47.34L39.0616 36.4H41.0616L45.1816 45.84L43.9016 47.34ZM59.7045 47L55.7645 36.4H57.5845L61.0845 46H60.2245L63.8645 36.4H65.4845L69.0445 46H68.2045L71.7845 36.4H73.5045L69.5445 47H67.7045L64.3645 38.24H64.9245L61.5445 47H59.7045ZM81.7008 47V44.76L81.6008 44.34V40.52C81.6008 39.7067 81.3608 39.08 80.8808 38.64C80.4141 38.1867 79.7074 37.96 78.7608 37.96C78.1341 37.96 77.5208 38.0667 76.9208 38.28C76.3208 38.48 75.8141 38.7533 75.4008 39.1L74.6008 37.66C75.1474 37.22 75.8008 36.8867 76.5608 36.66C77.3341 36.42 78.1408 36.3 78.9808 36.3C80.4341 36.3 81.5541 36.6533 82.3408 37.36C83.1274 38.0667 83.5208 39.1467 83.5208 40.6V47H81.7008ZM78.2208 47.12C77.4341 47.12 76.7408 46.9867 76.1408 46.72C75.5541 46.4533 75.1008 46.0867 74.7808 45.62C74.4608 45.14 74.3008 44.6 74.3008 44C74.3008 43.4267 74.4341 42.9067 74.7008 42.44C74.9808 41.9733 75.4274 41.6 76.0408 41.32C76.6674 41.04 77.5074 40.9 78.5608 40.9H81.9208V42.28H78.6408C77.6808 42.28 77.0341 42.44 76.7008 42.76C76.3674 43.08 76.2008 43.4667 76.2008 43.92C76.2008 44.44 76.4074 44.86 76.8208 45.18C77.2341 45.4867 77.8074 45.64 78.5408 45.64C79.2608 45.64 79.8874 45.48 80.4208 45.16C80.9674 44.84 81.3608 44.3733 81.6008 43.76L81.9808 45.08C81.7274 45.7067 81.2808 46.2067 80.6408 46.58C80.0008 46.94 79.1941 47.12 78.2208 47.12ZM87.0739 47V32.16H88.9939V47H87.0739ZM92.6598 47V32.16H94.5798V47H92.6598ZM102.966 47.12C101.832 47.12 100.832 46.8867 99.9658 46.42C99.1124 45.9533 98.4458 45.3133 97.9658 44.5C97.4991 43.6867 97.2658 42.7533 97.2658 41.7C97.2658 40.6467 97.4924 39.7133 97.9458 38.9C98.4124 38.0867 99.0458 37.4533 99.8458 37C100.659 36.5333 101.572 36.3 102.586 36.3C103.612 36.3 104.519 36.5267 105.306 36.98C106.092 37.4333 106.706 38.0733 107.146 38.9C107.599 39.7133 107.826 40.6667 107.826 41.76C107.826 41.84 107.819 41.9333 107.806 42.04C107.806 42.1467 107.799 42.2467 107.786 42.34H98.7658V40.96H106.786L106.006 41.44C106.019 40.76 105.879 40.1533 105.586 39.62C105.292 39.0867 104.886 38.6733 104.366 38.38C103.859 38.0733 103.266 37.92 102.586 37.92C101.919 37.92 101.326 38.0733 100.806 38.38C100.286 38.6733 99.8791 39.0933 99.5858 39.64C99.2924 40.1733 99.1458 40.7867 99.1458 41.48V41.8C99.1458 42.5067 99.3058 43.14 99.6258 43.7C99.9591 44.2467 100.419 44.6733 101.006 44.98C101.592 45.2867 102.266 45.44 103.026 45.44C103.652 45.44 104.219 45.3333 104.726 45.12C105.246 44.9067 105.699 44.5867 106.086 44.16L107.146 45.4C106.666 45.96 106.066 46.3867 105.346 46.68C104.639 46.9733 103.846 47.12 102.966 47.12ZM114.132 47.12C113.065 47.12 112.239 46.8333 111.652 46.26C111.065 45.6867 110.772 44.8667 110.772 43.8V34.08H112.692V43.72C112.692 44.2933 112.832 44.7333 113.112 45.04C113.405 45.3467 113.819 45.5 114.352 45.5C114.952 45.5 115.452 45.3333 115.852 45L116.452 46.38C116.159 46.6333 115.805 46.82 115.392 46.94C114.992 47.06 114.572 47.12 114.132 47.12ZM108.972 37.98V36.4H115.732V37.98H108.972Z" fill="#454965"/>
<circle cx="297" cy="40" r="10.75" stroke="#292A65" stroke-width="1.5"/>
<circle cx="297" cy="40" r="7" fill="#292A65"/>
</svg>
