<svg width="73" height="52" viewBox="0 0 73 52" fill="none" xmlns="http://www.w3.org/2000/svg">
<path d="M8.24243 0L33.7424 19.3182L59.7576 0L38.6364 24.2121L59.7576 51.5152L33.7424 29.1061L8.24243 51.5152L29.3636 24.2121L8.24243 0Z" fill="url(#paint0_linear_21_645)"/>
<path d="M2.482 29.0303V22.8763H0.0453333V21.0969H7.15133V22.8763H4.726V29.0303H2.482ZM7.7636 29.0303V22.8876H9.81493V24.6783L9.50893 24.1683C9.69027 23.7074 9.98493 23.3636 10.3929 23.1369C10.8009 22.9027 11.2958 22.7856 11.8776 22.7856V24.7236C11.7794 24.7085 11.6925 24.7009 11.6169 24.7009C11.5489 24.6934 11.4734 24.6896 11.3903 24.6896C10.952 24.6896 10.5969 24.8105 10.3249 25.0523C10.0529 25.2865 9.91693 25.6718 9.91693 26.2083V29.0303H7.7636ZM16.1523 29.0303V27.8856L16.005 27.6023V25.4943C16.005 25.1543 15.8992 24.8936 15.6876 24.7123C15.4836 24.5234 15.155 24.4289 14.7016 24.4289C14.407 24.4289 14.1085 24.4781 13.8063 24.5763C13.5041 24.6669 13.2472 24.7954 13.0356 24.9616L12.3103 23.4996C12.6579 23.2729 13.0734 23.0992 13.557 22.9783C14.0481 22.8498 14.5354 22.7856 15.019 22.7856C16.0163 22.7856 16.787 23.0161 17.331 23.4769C17.8825 23.9303 18.1583 24.6443 18.1583 25.6189V29.0303H16.1523ZM14.339 29.1323C13.8479 29.1323 13.4323 29.0492 13.0923 28.8829C12.7523 28.7167 12.4916 28.4901 12.3103 28.2029C12.1365 27.9158 12.0496 27.5947 12.0496 27.2396C12.0496 26.8618 12.1441 26.5369 12.333 26.2649C12.5294 25.9854 12.8279 25.7738 13.2283 25.6303C13.6287 25.4792 14.1463 25.4036 14.781 25.4036H16.2316V26.5256H15.0756C14.7281 26.5256 14.4825 26.5823 14.339 26.6956C14.203 26.8089 14.135 26.9601 14.135 27.1489C14.135 27.3378 14.2067 27.4889 14.3503 27.6023C14.4939 27.7156 14.6903 27.7723 14.9396 27.7723C15.1739 27.7723 15.3854 27.7156 15.5743 27.6023C15.7707 27.4814 15.9143 27.3001 16.005 27.0583L16.2996 27.8516C16.1863 28.2747 15.9634 28.5958 15.631 28.8149C15.3061 29.0265 14.8754 29.1323 14.339 29.1323ZM22.2696 29.1323C21.7105 29.1323 21.2005 29.0038 20.7396 28.7469C20.2863 28.4825 19.9236 28.1161 19.6516 27.6476C19.3796 27.1716 19.2436 26.6049 19.2436 25.9476C19.2436 25.2978 19.3796 24.7387 19.6516 24.2703C19.9236 23.7943 20.2863 23.4278 20.7396 23.1709C21.2005 22.9141 21.7105 22.7856 22.2696 22.7856C22.7985 22.7856 23.2443 22.8989 23.607 23.1256C23.9772 23.3523 24.2568 23.6998 24.4456 24.1683C24.6345 24.6367 24.729 25.2298 24.729 25.9476C24.729 26.6805 24.6383 27.2812 24.457 27.7496C24.2756 28.2181 24.0036 28.5656 23.641 28.7923C23.2783 29.0189 22.8212 29.1323 22.2696 29.1323ZM22.723 27.4209C22.9648 27.4209 23.1801 27.3643 23.369 27.2509C23.5654 27.1376 23.7203 26.9714 23.8336 26.7523C23.947 26.5256 24.0036 26.2574 24.0036 25.9476C24.0036 25.6378 23.947 25.3772 23.8336 25.1656C23.7203 24.9465 23.5654 24.7803 23.369 24.6669C23.1801 24.5536 22.9648 24.4969 22.723 24.4969C22.4736 24.4969 22.2508 24.5536 22.0543 24.6669C21.8654 24.7803 21.7143 24.9465 21.601 25.1656C21.4876 25.3772 21.431 25.6378 21.431 25.9476C21.431 26.2574 21.4876 26.5256 21.601 26.7523C21.7143 26.9714 21.8654 27.1376 22.0543 27.2509C22.2508 27.3643 22.4736 27.4209 22.723 27.4209ZM24.0716 29.0303V27.9763L24.083 25.9476L23.9696 23.9189V20.6209H26.123V29.0303H24.0716ZM30.7271 29.1323C30.0017 29.1323 29.3671 28.9963 28.8231 28.7243C28.2866 28.4447 27.8673 28.0669 27.5651 27.5909C27.2704 27.1074 27.1231 26.5596 27.1231 25.9476C27.1231 25.3356 27.2666 24.7916 27.5537 24.3156C27.8484 23.8321 28.2526 23.4581 28.7664 23.1936C29.2802 22.9216 29.8582 22.7856 30.5004 22.7856C31.1048 22.7856 31.6564 22.9103 32.1551 23.1596C32.6537 23.4014 33.0504 23.7603 33.3451 24.2363C33.6397 24.7123 33.7871 25.2903 33.7871 25.9703C33.7871 26.0458 33.7833 26.1327 33.7757 26.2309C33.7682 26.3292 33.7606 26.4198 33.7531 26.5029H28.8911V25.3696H32.6084L31.7924 25.6869C31.7999 25.4074 31.7471 25.1656 31.6337 24.9616C31.5279 24.7576 31.3768 24.5989 31.1804 24.4856C30.9915 24.3723 30.7686 24.3156 30.5117 24.3156C30.2548 24.3156 30.0282 24.3723 29.8317 24.4856C29.6428 24.5989 29.4955 24.7614 29.3897 24.9729C29.2839 25.1769 29.2311 25.4187 29.2311 25.6983V26.0269C29.2311 26.3292 29.2915 26.5898 29.4124 26.8089C29.5408 27.0281 29.7222 27.1981 29.9564 27.3189C30.1906 27.4323 30.4702 27.4889 30.7951 27.4889C31.0973 27.4889 31.3542 27.4474 31.5657 27.3643C31.7848 27.2736 32.0002 27.1376 32.2117 26.9563L33.3451 28.1349C33.0504 28.4598 32.6877 28.7092 32.2571 28.8829C31.8264 29.0492 31.3164 29.1323 30.7271 29.1323ZM34.8819 29.0303V21.0969H36.7292L40.0159 26.4916H39.0412L42.2372 21.0969H44.0845L44.1072 29.0303H42.0445L42.0219 24.2363H42.3732L39.9819 28.2483H38.9845L36.5252 24.2363H36.9559V29.0303H34.8819ZM49.3444 29.0303V27.8856L49.197 27.6023V25.4943C49.197 25.1543 49.0912 24.8936 48.8797 24.7123C48.6757 24.5234 48.347 24.4289 47.8937 24.4289C47.599 24.4289 47.3006 24.4781 46.9984 24.5763C46.6961 24.6669 46.4392 24.7954 46.2277 24.9616L45.5024 23.4996C45.8499 23.2729 46.2655 23.0992 46.749 22.9783C47.2401 22.8498 47.7275 22.7856 48.211 22.7856C49.2084 22.7856 49.979 23.0161 50.523 23.4769C51.0746 23.9303 51.3504 24.6443 51.3504 25.6189V29.0303H49.3444ZM47.531 29.1323C47.0399 29.1323 46.6244 29.0492 46.2844 28.8829C45.9444 28.7167 45.6837 28.4901 45.5024 28.2029C45.3286 27.9158 45.2417 27.5947 45.2417 27.2396C45.2417 26.8618 45.3361 26.5369 45.525 26.2649C45.7215 25.9854 46.0199 25.7738 46.4204 25.6303C46.8208 25.4792 47.3384 25.4036 47.973 25.4036H49.4237V26.5256H48.2677C47.9201 26.5256 47.6746 26.5823 47.531 26.6956C47.395 26.8089 47.327 26.9601 47.327 27.1489C47.327 27.3378 47.3988 27.4889 47.5424 27.6023C47.6859 27.7156 47.8824 27.7723 48.1317 27.7723C48.3659 27.7723 48.5775 27.7156 48.7664 27.6023C48.9628 27.4814 49.1064 27.3001 49.197 27.0583L49.4917 27.8516C49.3784 28.2747 49.1555 28.5958 48.823 28.8149C48.4981 29.0265 48.0675 29.1323 47.531 29.1323ZM55.4522 29.1323C54.6664 29.1323 54.0544 28.9396 53.6162 28.5543C53.178 28.1614 52.9589 27.5721 52.9589 26.7863V21.5163H55.1122V26.7636C55.1122 26.9827 55.1727 27.1565 55.2936 27.2849C55.4144 27.4058 55.5693 27.4663 55.7582 27.4663C56.0151 27.4663 56.2342 27.4021 56.4156 27.2736L56.9482 28.7809C56.7669 28.9018 56.544 28.9887 56.2796 29.0416C56.0151 29.1021 55.7393 29.1323 55.4522 29.1323ZM52.0636 24.7236V23.1143H56.5176V24.7236H52.0636ZM57.7786 29.0303V22.8876H59.8299V24.6783L59.5239 24.1683C59.7052 23.7074 59.9999 23.3636 60.4079 23.1369C60.8159 22.9027 61.3108 22.7856 61.8926 22.7856V24.7236C61.7943 24.7085 61.7075 24.7009 61.6319 24.7009C61.5639 24.6934 61.4883 24.6896 61.4052 24.6896C60.967 24.6896 60.6119 24.8105 60.3399 25.0523C60.0679 25.2865 59.9319 25.6718 59.9319 26.2083V29.0303H57.7786ZM62.7812 29.0303V22.8876H64.9345V29.0303H62.7812ZM63.8578 22.2076C63.465 22.2076 63.1476 22.0981 62.9058 21.8789C62.6641 21.6598 62.5432 21.3878 62.5432 21.0629C62.5432 20.7381 62.6641 20.4661 62.9058 20.2469C63.1476 20.0278 63.465 19.9183 63.8578 19.9183C64.2507 19.9183 64.5681 20.0241 64.8098 20.2356C65.0516 20.4396 65.1725 20.7041 65.1725 21.0289C65.1725 21.3689 65.0516 21.6523 64.8098 21.8789C64.5756 22.0981 64.2583 22.2076 63.8578 22.2076ZM65.6199 29.0303L68.4419 25.3243L68.3966 26.5483L65.6879 22.8876H68.1132L69.6319 25.0523L68.7252 25.0976L70.3346 22.8876H72.6126L69.9039 26.4689V25.2903L72.6919 29.0303H70.2326L68.6459 26.7183L69.5526 26.8429L67.9546 29.0303H65.6199Z" fill="white"/>
<defs>
<linearGradient id="paint0_linear_21_645" x1="34" y1="0" x2="34" y2="48.6818" gradientUnits="userSpaceOnUse">
<stop stop-color="#28A745"/>
<stop offset="1" stop-color="#346E3C"/>
</linearGradient>
</defs>
</svg>
