<svg width="26" height="24" viewBox="0 0 26 24" fill="none" xmlns="http://www.w3.org/2000/svg">
<path d="M4.25 3.18677C3.91848 3.18677 3.60054 3.31846 3.36612 3.55288C3.1317 3.7873 3 4.10525 3 4.43677V15.6868C3 16.0183 3.1317 16.3362 3.36612 16.5707C3.60054 16.8051 3.91848 16.9368 4.25 16.9368H21.75C22.0815 16.9368 22.3995 16.8051 22.6339 16.5707C22.8683 16.3362 23 16.0183 23 15.6868V4.43677C23 4.10525 22.8683 3.7873 22.6339 3.55288C22.3995 3.31846 22.0815 3.18677 21.75 3.18677H4.25ZM4.25 0.686768H21.75C22.7446 0.686768 23.6984 1.08186 24.4017 1.78512C25.1049 2.48838 25.5 3.44221 25.5 4.43677V15.6868C25.5 16.6813 25.1049 17.6352 24.4017 18.3384C23.6984 19.0417 22.7446 19.4368 21.75 19.4368H4.25C3.25544 19.4368 2.30161 19.0417 1.59835 18.3384C0.895088 17.6352 0.5 16.6813 0.5 15.6868L0.5 4.43677C0.5 3.44221 0.895088 2.48838 1.59835 1.78512C2.30161 1.08186 3.25544 0.686768 4.25 0.686768ZM9.25 20.6868H16.75C17.0815 20.6868 17.3995 20.8185 17.6339 21.0529C17.8683 21.2873 18 21.6052 18 21.9368C18 22.2683 17.8683 22.5862 17.6339 22.8207C17.3995 23.0551 17.0815 23.1868 16.75 23.1868H9.25C8.91848 23.1868 8.60054 23.0551 8.36612 22.8207C8.1317 22.5862 8 22.2683 8 21.9368C8 21.6052 8.1317 21.2873 8.36612 21.0529C8.60054 20.8185 8.91848 20.6868 9.25 20.6868Z" fill="white"/>
</svg>
