<svg width="30" height="31" viewBox="0 0 30 31" fill="none" xmlns="http://www.w3.org/2000/svg">
<path d="M24.1465 21.4416C23.4132 20.7078 22.5563 20.1088 21.6152 19.6721C22.9424 18.5969 23.7891 16.9563 23.7891 15.1164C23.7891 11.8703 21.082 9.20726 17.8359 9.25707C14.6397 9.30687 12.0645 11.9114 12.0645 15.1164C12.0645 16.9563 12.9141 18.5969 14.2383 19.6721C13.297 20.1085 12.4401 20.7075 11.707 21.4416C10.1074 23.0442 9.19923 25.1594 9.14064 27.4153C9.13986 27.4465 9.14534 27.4776 9.15677 27.5068C9.1682 27.5359 9.18534 27.5624 9.20718 27.5848C9.22902 27.6072 9.25512 27.625 9.28395 27.6371C9.31277 27.6493 9.34373 27.6555 9.37501 27.6555H11.0156C11.1416 27.6555 11.2471 27.5559 11.25 27.4299C11.3057 25.7307 11.9942 24.1399 13.2041 22.9328C13.8233 22.3104 14.5597 21.8169 15.3709 21.481C16.182 21.1451 17.0518 20.9734 17.9297 20.9758C19.7139 20.9758 21.3926 21.6702 22.6553 22.9328C23.8623 24.1399 24.5508 25.7307 24.6094 27.4299C24.6123 27.5559 24.7178 27.6555 24.8438 27.6555H26.4844C26.5157 27.6555 26.5466 27.6493 26.5755 27.6371C26.6043 27.625 26.6304 27.6072 26.6522 27.5848C26.6741 27.5624 26.6912 27.5359 26.7026 27.5068C26.7141 27.4776 26.7195 27.4465 26.7188 27.4153C26.6602 25.1594 25.752 23.0442 24.1465 21.4416ZM17.9297 18.8664C16.9277 18.8664 15.9844 18.4768 15.2783 17.7678C14.924 17.4163 14.6441 16.9969 14.4553 16.5349C14.2666 16.0728 14.1728 15.5774 14.1797 15.0784C14.1885 14.1174 14.5723 13.1887 15.2432 12.5002C15.9463 11.7795 16.8867 11.3782 17.8916 11.3664C18.8848 11.3577 19.8486 11.7444 20.5576 12.4387C21.2842 13.1506 21.6826 14.1028 21.6826 15.1164C21.6826 16.1184 21.293 17.0588 20.584 17.7678C20.2362 18.1173 19.8225 18.3944 19.3669 18.5829C18.9113 18.7715 18.4228 18.8679 17.9297 18.8664ZM10.5908 15.8899C10.5645 15.635 10.5498 15.3772 10.5498 15.1164C10.5498 14.6506 10.5938 14.1965 10.6758 13.7541C10.6963 13.6487 10.6406 13.5403 10.544 13.4963C10.1455 13.3176 9.77931 13.0715 9.4629 12.761C9.09007 12.3995 8.79669 11.9642 8.60147 11.483C8.40626 11.0018 8.3135 10.4851 8.32911 9.96605C8.35548 9.02562 8.73341 8.13207 9.39259 7.45824C10.1162 6.71703 11.0889 6.31273 12.1231 6.32445C13.0576 6.33324 13.96 6.69359 14.6426 7.33226C14.874 7.54906 15.0733 7.78929 15.2402 8.0471C15.2988 8.13792 15.4131 8.17601 15.5127 8.14085C16.0283 7.96214 16.5733 7.83617 17.1328 7.77757C17.2969 7.76 17.3906 7.58421 17.3174 7.43773C16.3652 5.55394 14.4199 4.25316 12.1699 4.218C8.92091 4.1682 6.21388 6.83128 6.21388 10.0744C6.21388 11.9143 7.06056 13.5549 8.38771 14.6301C7.45607 15.0608 6.59767 15.6555 5.85353 16.3996C4.24806 18.0022 3.33986 20.1174 3.28126 22.3762C3.28048 22.4075 3.28596 22.4386 3.29739 22.4677C3.30882 22.4968 3.32596 22.5233 3.3478 22.5457C3.36964 22.5681 3.39575 22.5859 3.42457 22.5981C3.4534 22.6102 3.48436 22.6164 3.51564 22.6164H5.15919C5.28517 22.6164 5.39064 22.5168 5.39357 22.3909C5.44923 20.6916 6.13771 19.1008 7.34767 17.8938C8.209 17.0325 9.26368 16.4348 10.4151 16.1448C10.5293 16.1155 10.6055 16.0071 10.5908 15.8899Z" fill="white"/>
</svg>
