<svg width="30" height="31" viewBox="0 0 30 31" fill="none" xmlns="http://www.w3.org/2000/svg">
<path d="M3.75 27.1868L10 20.9368M16.5737 24.5255C11.8937 23.463 7.47375 19.043 6.41125 14.363C6.2425 13.623 6.15875 13.253 6.4025 12.6518C6.645 12.0518 6.94375 11.8643 7.53875 11.493C8.88375 10.653 10.3413 10.3855 11.8525 10.518C13.9738 10.7068 15.035 10.8005 15.565 10.5243C16.0937 10.2493 16.4525 9.60427 17.1725 8.31552L18.0825 6.68177C18.6825 5.60677 18.9825 5.06802 19.6888 4.81427C20.395 4.56052 20.82 4.71427 21.67 5.02177C22.6468 5.37253 23.534 5.93502 24.2679 6.66891C25.0017 7.40281 25.5642 8.28995 25.915 9.26677C26.2225 10.1168 26.3763 10.5418 26.1225 11.248C25.8688 11.953 25.3312 12.253 24.255 12.8543L22.5837 13.7855C21.2962 14.503 20.6538 14.863 20.3775 15.3968C20.1025 15.9318 20.2025 16.9693 20.4025 19.0443C20.55 20.5693 20.2962 22.0368 19.445 23.3993C19.0725 23.9943 18.8863 24.2918 18.285 24.5355C17.685 24.778 17.315 24.6943 16.5737 24.5255Z" stroke="white" stroke-width="1.5" stroke-linecap="round" stroke-linejoin="round"/>
</svg>
