<svg width="28" height="28" viewBox="0 0 28 28" fill="none" xmlns="http://www.w3.org/2000/svg">
<path d="M0.25 2.68677C0.25 2.02373 0.513392 1.38784 0.982233 0.919001C1.45107 0.45016 2.08696 0.186768 2.75 0.186768H10.875C11.538 0.186768 12.1739 0.45016 12.6428 0.919001C13.1116 1.38784 13.375 2.02373 13.375 2.68677V10.8118C13.375 11.4748 13.1116 12.1107 12.6428 12.5795C12.1739 13.0484 11.538 13.3118 10.875 13.3118H7.75V18.3905C7.75 19.3805 8.555 20.1868 9.5475 20.1868H14.625V17.0618C14.625 16.3987 14.8884 15.7628 15.3572 15.294C15.8261 14.8252 16.462 14.5618 17.125 14.5618H25.25C25.913 14.5618 26.5489 14.8252 27.0178 15.294C27.4866 15.7628 27.75 16.3987 27.75 17.0618V25.1868C27.75 25.8498 27.4866 26.4857 27.0178 26.9545C26.5489 27.4234 25.913 27.6868 25.25 27.6868H17.125C16.462 27.6868 15.8261 27.4234 15.3572 26.9545C14.8884 26.4857 14.625 25.8498 14.625 25.1868V22.0618H9.54625C8.57266 22.0608 7.63925 21.6735 6.95094 20.9849C6.26263 20.2964 5.87566 19.3629 5.875 18.3893V13.3118H2.75C2.08696 13.3118 1.45107 13.0484 0.982233 12.5795C0.513392 12.1107 0.25 11.4748 0.25 10.8118V2.68677ZM2.75 2.06177C2.58424 2.06177 2.42527 2.12762 2.30806 2.24483C2.19085 2.36204 2.125 2.52101 2.125 2.68677V10.8118C2.125 10.9775 2.19085 11.1365 2.30806 11.2537C2.42527 11.3709 2.58424 11.4368 2.75 11.4368H10.875C11.0408 11.4368 11.1997 11.3709 11.3169 11.2537C11.4342 11.1365 11.5 10.9775 11.5 10.8118V2.68677C11.5 2.52101 11.4342 2.36204 11.3169 2.24483C11.1997 2.12762 11.0408 2.06177 10.875 2.06177H2.75ZM17.125 16.4368C16.9592 16.4368 16.8003 16.5026 16.6831 16.6198C16.5658 16.737 16.5 16.896 16.5 17.0618V25.1868C16.5 25.3525 16.5658 25.5115 16.6831 25.6287C16.8003 25.7459 16.9592 25.8118 17.125 25.8118H25.25C25.4158 25.8118 25.5747 25.7459 25.6919 25.6287C25.8092 25.5115 25.875 25.3525 25.875 25.1868V17.0618C25.875 16.896 25.8092 16.737 25.6919 16.6198C25.5747 16.5026 25.4158 16.4368 25.25 16.4368H17.125Z" fill="white"/>
</svg>
